<?xml version="1.0" encoding="utf-8"?>
<!-- Generator: Adobe Illustrator 23.1.0, SVG Export Plug-In . SVG Version: 6.00 Build 0)  -->
<svg version="1.1" id="圖層_1" xmlns="http://www.w3.org/2000/svg" xmlns:xlink="http://www.w3.org/1999/xlink" x="0px" y="0px"
	 viewBox="0 0 541 540" style="enable-background:new 0 0 541 540;" xml:space="preserve">
<style type="text/css">
	.st0{fill:#FFFFFF;}
</style>
<g>
	<path class="st0" d="M120,65.4c-1.2-1.5-2.5-2.9-3.7-4.4c-1.6-1.9-2.5-4.1-3.9-6c-1.9-2.5-3.2-5.3-4.3-8.2c-0.1-0.4-0.3-0.8-0.5-1
		c-2.1-2.4-2.7-5.6-4.6-8c-0.4-0.5-0.5-1.1-0.5-1.8c-0.1-0.5-0.2-1.1-0.4-1.6c-2.3-4.2-3.1-8.7-3.7-13.4c-0.5-3.8,0.2-7.4,1.6-10.9
		c0.1-0.3,0.2-0.7,0.3-1.1c0.1-1.1,0.8-1.7,1.8-1.9c0.6-0.2,1.2-0.3,1.8-0.3c3.6,0.4,7,1,10.3,3.1c3.1,2,5.3,5.1,8.6,6.8
		c2,2.9,5.2,4.8,7,7.9c0.9,1.5,2.5,2.3,3.3,3.9c0.1,0.2,0.5,0.2,0.8,0.3c0.5,0,1,0.1,1.2,0.6c1.8,2.9,4.1,5.4,5.9,8.2
		c2.7,4.3,5.9,8.3,8.3,12.8c1.7,3.1,4,6.1,4.8,9.7c0.2,0.8,0.6,1.6,1.1,2.3c2.7,4,4.5,8.5,7,12.6c1.5,2.4,3.2,4.8,3.7,7.7
		c0.1,0.4,0.3,0.7,0.5,1c2.7,3.8,3.9,8.2,5.3,12.6c0.7,2.4,1.7,4.7,2.7,6.9c0.6,1.4,1.2,2.7,1.5,4.1c0.4,2.2,1.7,4,2.4,6
		c1.4,4.4,2.7,8.9,4.4,13.2c1.5,3.7,1.5,7.6,2.8,11.3c1.2,3.6,1.8,7.4,2.9,11c0.8,2.6,1.6,5.4,1.7,8.2c0,0.4,0.2,0.9,0.3,1.4
		c0.8,2.3,0.6,4.7,1.1,7.1c0.2,0.9-0.7,1.5-0.5,2.6c0.8-0.1,0.9-0.6,0.9-1.3c0.1-1.9,1.2-3.2,2.7-4.3c1.5-1,2.5-2.6,3.5-4.1
		c1.7-2.4,3.6-4.5,5.7-6.5c2.8-2.7,5.4-5.5,8.5-7.9c4.2-3.3,8.1-7,12.8-9.6c1.2-0.7,2.4-1.5,3.6-2.2c1.9-1.1,4-1.1,5.9-2.1
		c1.5-0.8,3-1.7,4.7-2.1c0.6-0.1,1-0.5,1.3-0.9c0.3-0.4,0.7-0.6,1.2-0.6c2.5,0,4.7-1.4,7.1-2c2.4-0.6,4.9-0.9,7.3-1.2
		c2.4-0.3,4.8-0.3,7.1-1c0.3-0.1,0.8-0.2,1.2,0c2,1,4,0.1,6.1,0c2.5-0.1,5.1,0,7.7-0.1c2.7-0.1,5.2,0.2,7.8,0.8
		c2.1,0.5,4.3,0.6,6.5,0.7c3.9,0.1,7.7,0.9,11.4,2.1c3.2,1,6.3,2.1,9.5,3.1c1.1,0.4,2.1,0.8,3.2,1.4c1.8,1.1,3.8,2.2,6.1,2
		c0.4,0,0.7,0.1,1.1,0.3c3.1,1.3,5.7,3.4,8.8,4.7c0.8,0.3,1.2,1.4,2,1.9c1.6,1.1,2.9,2.6,4.7,3.5c1.2,0.6,2.4,1.6,3.2,2.7
		c1.7,2.3,4.1,3.5,6.1,5.3c1.4,1.2,2.3,2.7,3.1,4.2c1.5,2.8,3.2,5.5,5.3,8.3c0.5-2.2,0.4-4.1,0.1-6c-1.4-7.8-0.3-15.5,1-23.2
		c0.5-2.8,1.3-5.6,2-8.4c0.3-1.1,0.5-2.3,0.5-3.4c-0.1-2.1,0.5-4,1.3-5.9c1.1-2.6,1.3-5.4,1.9-8.1c0.8-3.8,1.7-7.5,3.2-11.1
		c2-5,4-10.1,6-15.1c0.5-1.4,1-2.7,1.5-4.1c1-2.8,2.6-5.2,4.1-7.8c1.8-3.3,3.4-6.6,4.9-10c2.2-4.9,5.2-9.2,8.4-13.4
		c3.6-4.6,7.6-8.9,11.3-13.3c3.6-4.3,7.9-7.7,11.6-11.8c0.8-1,2.1-1.6,3.1-2.4c1.5-1.2,3-2.4,4.2-4c0.6-0.8,1.5-1.5,2.4-1.8
		c2.2-0.8,3.9-2.6,6-3.5c3.3-1.4,6.5-3.3,10.3-3.4c3.4-0.1,5.8,2.6,5.4,6c-0.5,5.6-2.4,10.8-4.1,16.2c-0.6,2-1.2,4.1-2.1,5.9
		c-1.5,2.7-2.5,5.7-3.9,8.4c-0.2,0.3-0.3,0.6-0.4,0.8c-0.4,0.7-0.2,1.2,0.6,1.4c2.6,0.7,4.2,2.4,5,4.9c0.3,1,0.4,1.9,0.2,2.9
		c-1,3.6-2.6,7-4.5,10.2c-2.2,3.7-4.4,7.3-7.3,10.5c-3.1,3.4-6,6.9-9.5,9.9c-0.2,0.2-0.5,0.3-0.8,0.5c-1.8,1.4-3.5,2.7-3.3,5.4
		c0.1,1.7-0.8,3.4-1,5.2c-0.5,4-3,6.7-5.5,9.5c-0.1,0.1-0.2,0.2-0.3,0.4c-1.3,2.2-2.9,4.1-4.5,6.1c-2,2.4-4.1,4.8-6.1,7.2
		c-1.9,2.3-3.8,4.5-5.9,6.6c-1.7,1.8-3,3.9-4.5,5.9c-2.7,3.8-5.6,7.4-8,11.3c-2.5,4-5.3,8-7.7,12.1c-0.9,1.6-1.8,3.2-3,4.6
		c-1.1,1.3-1.7,3-2,4.7c-0.4,2-1.3,3.6-2.1,5.4c-0.3,0.8-1,1.3-1.8,1.8c-2,1.1-2,1.2-1.2,3.4c1.7,4.4,3.2,8.9,4.3,13.5
		c1.1,4.6,2.4,9.3,3.7,13.9c0.3,1,0.4,2,0.1,3c-0.4,1.1-0.3,2.3,0.1,3.4c0.5,1.1,0.5,2.3,0.3,3.4c-0.5,2.2-0.1,4.5-0.3,6.8
		c-0.3,2.8-1.1,5.5-1.4,8.3c-0.2,2.1-0.6,4.1-1.3,6.1c-0.3,0.9-0.6,1.9-0.2,3c0.2,0.4,0.2,1,0,1.4c-0.8,1.8-0.6,3.8-1.4,5.6
		c-0.5,1.2-0.8,2.5-0.8,3.9c0,2.5-0.8,4.7-1.7,7c-1.3,3.2-2.5,6.5-4,9.7c-1.2,2.8-3,5.2-4.4,7.9c-1.6,3.2-3.9,5.9-5.7,9
		c-1.2,2.2-2.8,4.3-4.4,6.3c-3.3,4.1-7.8,7-11.4,10.8c-4,4.2-8.8,7.3-13.5,10.5c-4.9,3.4-10,6.6-14.9,10c-4.8,3.3-10.1,5.8-15.2,8.6
		c-3.2,1.8-6.9,2.7-9.6,5.4c-1.9,0.3-3.5,1.5-5.4,2c-1.6,0.4-1.8,0.7-1.5,2.3c0.6,3.1,0.6,6.2,1,9.3c0.5,4,0,7.9-0.4,11.9
		c-0.1,1.1-0.2,2.2-0.2,3.3c0.3,3.2-0.2,6.4-0.8,9.5c-0.4,2-1.4,3.9-2.1,5.8c-0.2,0.4-0.4,0.9-0.5,1.3c-1.1,3-3.8,4.1-6.7,2.6
		c-0.4-0.2-0.8-0.6-1.2-0.8c-1.2-0.5-1.8-0.3-2.6,0.8c-3,4-6.3,7.7-10.6,10.3c-1.5,0.9-3.1,2.1-5.1,1.8c-1.5-0.2-2.8,0.6-4.3,0.7
		c-2.7,0.1-4.7-1.3-6.7-2.8c-1.7-1.2-3-2.7-3.5-4.8c-0.3-1.1-1.3-1.8-1.7-3c-0.5-1.9-1-3.7-1.1-5.7c-0.1-4.6,0.8-9,2.7-13.1
		c0.2-0.4,0.4-0.9,0.7-1.2c2-2.4,3.9-4.8,5.1-7.8c-0.3-0.4-0.8-0.5-1.3-0.5c-6-0.9-6.3-4.7-5.2-9c0.8-3.2,3-5.2,5.5-7.2
		c1.5-1.2,2.9-1.8,4.7-2.2c2.5-0.5,4.7-1.9,7.2-2.6c1.5-0.4,3-0.6,4.9-0.7c-1-1.2-2.3-1.3-3.3-1.9c-2.5-1.5-5-3.1-7.7-4.3
		c-4.9-2.1-8.6-5.7-12.5-9c-4.2-3.5-7.8-7.6-11.3-11.7c-2.5-2.9-5.1-5.7-7.3-8.9c-0.8-1.2-1.9-2.3-2.5-3.6c-0.1-0.3-0.2-0.7-0.5-0.8
		c-3-1.5-3.3-4.7-4.6-7.2c-0.7-1.2-1.4-2.4-2.4-3.4c-1.7-1.7-2.8-3.9-3.5-6.2c-0.8-3-1.6-6-3.3-8.6c-0.2-0.3-0.3-0.6-0.3-0.9
		c0-2-0.7-3.7-1.7-5.3c-1.6-2.7-2.1-5.8-2.8-8.8c-0.8-3.2-1.8-6.4-2.8-9.6c-0.2-0.5-0.3-1-0.4-1.6c-1.3-7.2-2.7-14.4-3.2-21.6
		c-1.5-3.9-0.3-8-0.4-12c-0.1-3.7,0.2-7.5,0.3-11.2c0.1-4.2,1.6-8,2.9-11.9c0.6-1.9,1.7-3.6,1.7-5.7c0-1,0.8-2,1.2-3
		c0.4-1,0.3-1.8-0.6-2.5c-1.6-1.1-2.9-2.6-4-4.2c-1.2-1.7-3.2-2.4-4.7-3.9c-0.4-0.4-0.8-0.8-1.2-1.4c-1-1.9-2.3-3.6-4.1-4.7
		c-4.3-2.7-7.4-6.6-11.1-10c-1-0.9-2.2-1.8-3.2-2.7c-2.9-2.4-5.4-5.2-7.5-8.2c-1.6-2.2-3.2-4.6-4.5-7c-2.1-3.8-3.6-7.6-4.3-11.9
		c-0.3-2.1-2.1-3.6-3.8-4.9c-1.8-1.4-3.5-2.9-5-4.6c-2.4-2.7-5.1-5-7.7-7.5c-2.9-2.9-5.9-5.8-8.7-8.8c-1-1.1-2.2-2-3.4-2.9
		c-3.4-2.4-6.3-5.4-8.4-8.9c-2.1-3.4-4.1-6.9-5.1-10.9c-0.9-3.5-1-3.4,1.8-5.7c2.1-1.8,4.7-1.6,7.1-1.4c3.6,0.4,7.1,1.4,10.3,3.3
		C119.3,65.7,119.7,65.8,120,65.4z M250.8,342.7L250.8,342.7c0.5,0,0.9-0.4,1.2-0.9c1.2-1.9,2.9-3.3,4.5-4.6c1.1-0.9,1.7-1.9,2-3.2
		c-1.4-0.4-2.6-0.6-4.1-0.3c-1.2,0.3-2.7-1-4.2-0.9c-0.5,0-1.1,0.2-1.6,0.3c-2.2,0.4-4.2,1.6-6.3,2.2c-2.4,0.8-4.8,1.3-6.9,2.9
		c-1.5,1.1-2.1,3-3.8,3.8c0,1.3-0.8,2.3-1,3.5c-0.4,1.8-0.5,3.5,1.2,4.6c1.7,1.1,3.6,1.8,5.7,1c1.9-0.7,3.4-2,5-3.4
		c0.1,0.8-0.3,1.1-0.6,1.5c-2.1,3.1-4.9,5.7-7,8.9c-2.1,3.3-4.3,6.3-5.2,10.3c-0.7,2.9-0.9,5.9-0.7,8.8c0.3,3,2.3,5.5,3.5,8.2
		c0.2,0.5,0.6,0.8,1,1.2c0.9,0.9,2.1,1.3,2.9,2.2c1.3,1.4,3.1,1.7,4.5,1c1.4-0.6,2.7-0.2,4-0.6c0.5-0.1,1.1-0.1,1.7-0.4
		c1.7-0.7,2.9-2,4.5-2.9c3.4-1.9,5.1-5.3,7.7-7.9c0.6-0.6,0.6-1.1,0.1-1.8c-1.2-1.6-2.4-1.8-3.6-0.1c-1.2,1.8-2.9,3.1-4.4,4.6
		c-1,1-2.3,1.8-3.6,2.5c-2.4,1.2-4.9,1.5-7.4,0.8c-1.2-0.4-2.8-0.6-3.5-1.7c-1-1.6-3.4-2.8-2.3-5.3c0-0.1-0.1-0.3-0.1-0.4
		c-1.4-3.9-0.5-7.5,1.3-10.9c0.5-0.9,1.2-1.6,1.1-2.7c0-0.3,0-0.6,0.5-0.6c1.3,0,1.2-1,1.4-1.8c0.3-0.9,0.1-1.9,1.4-2.2
		c0.5-0.1,0.9-0.9,0.7-1.6c-0.1-0.4-0.3-0.8,0.4-0.8c1.7-0.1,2.3-1.5,2.8-2.6c0.4-0.9,0.9-1.5,1.7-2.1c0.5-0.4,1.1-0.8,1.3-1.3
		c0.7-1.2,1.5-2.4,2.5-3.4c1-0.9,1.1-2.4,2.3-3.1C251.5,343.5,251,343,250.8,342.7z M409.9,28.4c0,0.2,0,0.4,0,0.6
		c-0.9,0.3-1.6,0.8-2.2,1.5c-2.5,2.8-5.1,5.6-7.6,8.4c-1.3,1.4-2.6,2.8-3.8,4.3c-1.5,1.9-3,4-4.5,5.9c-1.9,2.3-3.8,4.8-5.1,7.5
		c-2.8,5.7-5.3,11.5-8.4,17c-0.6,1.1-1.5,2.2-2,3.4c-0.7,1.9-1.4,3.7-2.1,5.6c-1.2,2.9-2.1,6-3.4,8.9c-2.5,5.6-4.6,11.3-5.8,17.3
		c-0.5,2.7-0.6,5.5-1.9,8.1c-0.2,0.5-0.5,1-0.1,1.6l0-0.1c-1.1,0.9-1.2,2.2-1.2,3.4c0,4-1.3,7.8-2.2,11.6c-1.2,5.3-1.9,10.7-2,16.1
		c0,4.6,1.1,9.1,0.8,13.7c0,0.9,0.2,1.9,0.3,2.8c0,1.6,1.8,2,2.3,3.2c0.6-0.9,2.1-0.2,2.5-1.4c0.7-1.7,1.6-3.3,2-5.2
		c0.6-2.4,1.5-4.8,3-6.8c2.6-3.4,4.7-7.2,7.1-10.8c2.1-3.2,4.2-6.4,6.5-9.5c0.6-0.8,0.9-1.8,1.6-2.5c3.6-3.7,6-8.3,9.6-11.9
		c1.9-1.9,3.8-4,5.4-6.3c0.9-1.3,2.4-2.2,3-3.4c0.9-1.7,2.4-2.8,3.6-4.1c0.1-0.1,0.3-0.2,0.3-0.3c1.1-3,3.5-5.1,5.4-7.4
		c0.6-0.8,1.1-1.7,1.4-2.7c0.6-2.4,0.7-4.9,1.7-7.3c0.2-0.4,0.2-0.9,0.1-1.4c-0.3-1.1,0.3-2,1-2.7c0.8-0.9,1.5-1.8,2.5-2.4
		c4.2-2.7,7-6.8,10.3-10.3c3.3-3.4,5.6-7.5,7.9-11.5c1.5-2.5,2.9-5.1,3.4-8.1c0.5-2.9-0.9-5.7-3.7-6.4c-0.9-0.2-1.5-0.7-2.3-1.1
		c-0.6-0.3-0.7-0.7-0.3-1.3c2.3-3.3,3.2-7.3,5.2-10.8c0.9-1.5,1.3-3.4,1.9-5.2c1.7-5.2,3.5-10.4,4-15.9c0.3-2.5-1.5-4.5-4-4.3
		c-3.5,0.2-6.5,1.9-9.6,3.2c-2.3,0.9-3.9,2.9-6,4.3c-1.7,1.2-3.2,2.6-5,3.8c-1.7,1.1-3.4,2.2-4.8,3.7
		C413.6,25,411.7,26.7,409.9,28.4z M310,306.9c-0.5,0-0.9,0.3-1.2,0.7c-1.3,2.1-3.3,3.3-5.5,4.1c-1,0.3-1.7,1-2.5,1.7
		c-1.8,1.6-3.8,3.1-5.8,4.2c-2.2,1.1-3.9,2.6-6,3.8c-3,1.6-5.5,4.2-9.1,4.9c-0.5,0.1-0.8,0.4-1,0.9c-0.3,0.5-0.8,0.8-1.3,0.9
		c-2.6,0.6-4.4,2.5-6.4,4.1c-0.5,0.4-0.9,0.8-0.7,1.7c0.4,2.1,0.6,4.3-0.1,6.4c-0.4,1.2,0.3,2.4,0,3.7c-0.4,1.8-0.6,3.7-0.6,5.5
		c0,1.5-0.4,2.8-0.5,4.3c-0.2,2.9,0,5.8-1.4,8.5c-0.7,1.2-0.9,2.7-1.8,3.9c-0.6,0.8-0.4,1.9-1,2.8c-0.8,1.2-1.5,1.3-2.6,0.3
		c-0.8-0.7-1.3-1.6-1.7-2.7c-0.5-1.5-0.8-3.2-2-4.4l0,0c0.2-1-0.9-1.7-0.8-2.6c0.4-2.6-0.4-5.3,0.7-7.8c0.5-1.2,0.7-2.5,1-3.8
		c0.3-2,1.5-3.8,1.9-5.8c0.1-0.5,0.4-1.1,0.8-1.4c1.2-1,0.9-2.6,1.9-4.1c-3.1,1.4-4.5,3.5-5,6.4c-0.1,0.5,0.1,1.1-0.5,1.4
		c-1.5,0.8-1.4,2.3-1.6,3.6c-0.4,3.1-1,6.1-1.8,9.1c-0.7,2.6-0.6,5.4-0.3,8.1c0.2,1.6,1.3,2.5,1.8,3.9c1.5,4.2,4.5,7.2,8.7,8.7
		c1.5,0.5,3-0.2,3.4-1.5c0.9-3,2.4-5.9,3-9c0.3-1.7,0.7-3.3,0.7-5c0-3,0-5.9,0.4-8.8c0.9-6.2,0-12.3-1.1-18.5
		c-0.3-1.6,0.5-3.1,2.2-3.4c2.1-0.4,4-1.4,5.7-2.4c3.1-2,6.5-3.4,9.7-5c6.1-3.1,12.1-6.4,17.7-10.2c4.8-3.2,9.5-6.4,14.2-9.7
		c2.5-1.7,5.1-3.3,7.4-5.3c3.7-3.1,6.9-6.8,10.7-9.8c2-1.5,3.4-3.7,5.1-5.5c1.1-1.2,1.6-2.7,2.6-3.8c1.7-1.9,2.5-4.4,4.2-6.3
		c1.2-1.3,1.8-3,2.7-4.5c1.5-2.3,2.9-4.6,4-7c1.6-3.5,2.9-7.1,4.4-10.7c0.5-1.4,1.1-2.8,1-4.2c0-1.2,0.2-2.3,0.4-3.4
		c0.8-3.4,2.3-6.6,1.9-10.2c-0.1-0.7,0.1-1.4,0.3-2c0.8-2,1.2-4.2,1.3-6.3c0.2-2.6,1.2-5,1.3-7.6c0.1-2.4,0.2-4.8,0.3-7.2
		c0.1-0.8,0.3-1.5-0.7-1.8c-0.4-0.1-0.3-0.6-0.2-1c0.8-2.7,0.7-5.4-0.1-8.2c-0.4-1.5-0.9-3-1.3-4.5c-0.6-2.4-1.5-4.6-1.9-7
		c-0.5-3.9-2-7.5-3.3-11.1c-1.5-4.3-3.3-8.5-6.1-12.3c-2-2.6-3.9-5.3-5.3-8.3c-1-2.3-2.7-4.1-4.6-5.5c-2.3-1.7-4.6-3.3-6.3-5.6
		c-0.4-0.5-0.8-0.9-1.5-1.1c-1.1-0.4-1.8-1.2-2.7-1.8c-1.8-1.4-3.4-3.1-5.5-4.2c-3-1.6-5.7-3.6-9.3-4.1c-2.1-0.3-4-1.3-6-2.3
		l-0.1-0.1l0,0.2c-0.6-0.3-1.1-0.7-1.8-1c-1.6-0.7-3.5-0.9-5-1.7c-1.5-0.8-3.1-1.1-4.7-1.3c-0.5-0.1-1,0.1-1.4-0.2
		c-1.8-1.4-3.9-1.3-6-1.7c-4.2-0.7-8.5-0.4-12.7-1.6c-1.1-0.3-2.3-0.4-3.5-0.4c-3.1,0-6.3-0.2-9.3,0.3c-3,0.5-6.1-0.1-9.1,0.3
		c-1.2,0.1-2.3,0.8-3.4,0.6c-2.3-0.4-4.4,0.9-6.7,0.7c-0.4,0-0.8,0.1-1.1,0.3c-1,1-2.9,0.1-3.7,1.7c0,0.1-0.3,0.1-0.4,0
		c-0.7-0.4-1,0.1-1.5,0.5c-0.5,0.4-1.2-0.4-1.9-0.2c-0.3,0.1-0.5,0.2-0.4,0.6c0.1,0.6-0.3,0.5-0.7,0.6c-4,1-7.6,3-11.4,4.5
		c-6.5,2.6-11.5,7.5-16.9,11.8c-2.8,2.3-5.3,4.9-7.9,7.4c-2.3,2.3-4.4,4.7-6.4,7.2c-1.4,1.9-2.4,4.2-4.8,5.3
		c-0.5,0.2-0.5,0.8-0.5,1.2c-0.2,2.1-1.6,3.4-2.7,5c-1,1.4-2.1,2.7-2.8,4.5c-0.6,1.4-0.5,2.8-1.1,4.2c-1,2-1.7,4.1-2.3,6.3
		c-0.7,2.3-1.6,4.5-1.8,6.9c-0.2,3.1-0.1,6.2-0.3,9.3c-0.1,2.5-0.1,4.9,0,7.4c0,2.4-0.7,4.8,0.3,7.1c0,0.1,0,0.1,0,0.2
		c0.3,2.3,0.1,4.7,0.7,6.9c0.6,2.1,0.2,4.4,1.3,6.5c0.5,0.9,0.4,2.4,0.4,3.6c0,2.1,0.5,4.2,1.1,6.3c0.8,3,1.8,6,2.6,9.1
		c0.8,3,1,6.3,2.8,9c1.7,2.4,1.2,5.6,3,7.9c1,1.4,1,3.2,1.8,4.7c0.8,1.4,0.7,3.1,1.7,4.6c0.9,1.4,1.4,3,2.7,4
		c0.8,0.6,1.4,1.3,1.6,2.4c0.4,2.1,2.2,3.5,2.6,5.7c0.1,0.4,0.5,0.9,1.2,1c0.6,0,0.7,0.5,1,0.9c1.6,3,4,5.4,5.9,8.1
		c0.9,1.4,2.6,2.1,3.2,3.5c0.6,1.4,1.7,2.4,2.6,3.5c2.7,2.9,5.3,5.8,8,8.7c3.1,3.3,7.2,5.3,10.4,8.5c0.2,0.2,0.5,0.4,0.8,0.5
		c2.2,0.6,4.1,1.8,6,3c1.5,0.9,3.4,1.3,4.7,2.3c2.2,1.5,4.5,1.5,6.8,1.8c0.5,0,1-0.1,1.1-0.6c0.1-0.6-0.4-0.8-0.8-1
		c-1.2-0.5-2.3-1-3.5-1.3c-1.6-0.4-2.8-1.7-4.4-2c-1.3-0.2-2.3-0.9-3.2-1.7c-1.2-1.1-2.5-2-3.9-2.9c-3-1.7-4.9-4.7-7.9-6.3
		c-0.2-0.1-0.3-0.4-0.5-0.5c-1.4-1.3-2.4-3-3.8-4.3c-3.2-3-6-6.5-8.8-9.9c-0.8-1-2.2-1.5-2.5-2.6c-0.6-1.9-2.5-3.2-2.3-5.5
		c0-0.2-0.2-0.5-0.4-0.5c-1.6-0.5-2.1-2-2.9-3.1c-1.6-2.3-3.4-4.3-4.6-6.9c-1.2-2.5-3.1-4.6-4.4-7.1c-0.5-1-0.3-2.1-1-3
		c-1.3-1.8-1.6-3.8-1.6-5.9c0-1.3-0.4-2.3-1.3-3.4c-1.7-2.1-2.3-4.8-2.8-7.5c-0.1-0.7-0.3-1.2-0.8-1.5c-1-0.6-1.4-1.6-1.7-2.6
		c-1.2-4.4-2.4-8.8-3.6-13.2c-0.5-2-1.3-4.1-0.3-6.3c0.2-0.4-0.3-1.5-1.1-3.1c-0.2-0.3,0.1-0.6,0.1-0.9c-0.1-0.9,0.5-1.5,0.4-2.4
		c-0.3-1.7-0.3-3.5-0.6-5.2c-0.5-2.9-0.3-5.9-0.5-8.8c-0.2-1.8-0.8-3.8,0.8-5.5c0.2-0.2,0.2-0.6-0.1-0.8c-0.8-0.4-0.4-1.1-0.3-1.7
		c0.1-1,0.4-2.1,0.2-3c-0.2-0.9,0-1.4,0.3-2.1c1-2,1.8-4.1,2-6.3c0-0.3,0.2-0.9,0.2-0.9c1.6,0.1,1-1.4,1.5-2.1
		c0.4-0.5,0.7-1.2,1-1.8c0.9-1.5,2.6-2.7,1.9-4.9c-0.2-0.6,0.3-1.2,0.7-1.7c1.8-2.5,2.9-5.3,4.3-8c1.6-3.2,3.4-6.3,6.6-8.3
		c0.2-0.1,0.3-0.3,0.4-0.5c1.8-2.8,3.5-5.5,5.7-8c0.8-0.9,1.8-1.5,2.4-2.5c1.6-2.7,4.1-4.3,6.4-6.1c1-0.8,2.2-0.6,3-1.5
		c1.6-1.6,3.8-2.4,5.2-4.2c0.3-0.4,1-0.5,1.5-0.7c2.4-0.9,4.7-2,7.1-3c1.3-0.6,2.7-1.2,4-1.7c1.3-0.5,2.4-2.1,4.1-1.1
		c0,0,0.2-0.1,0.3-0.2c0.5-0.8,1.3-0.9,2.1-0.5c0.3,0.1,0.5,0.3,0.9,0.2c2.7-0.7,5.4-1.4,8.1-2.2c2.6-0.8,5.2-1.9,8.1-1.3
		c1.1,0.2,2.4,0.1,3.5-0.1c3.4-0.7,6.8-0.6,10.2,0.1c3.1,0.6,6.3,0.8,9.4,1.4c1.8,0.3,3.5,0.8,5.2,1.2c5.3,1,10.8,1.7,15.9,3.5
		c2.3,0.8,4.5,1.9,6.8,2.9c2.9,1.3,5.8,2.6,8.7,4c1.5,0.7,3.3,1.3,4.4,2.5c1.2,1.1,2.1,2.6,3.5,3.5c1.5,0.9,2.1,2.9,3.9,3.4
		c0.3,0.1,0.8,0.8,0.7,1.1c-0.3,0.9,0.4,1.2,0.8,1.7c2,2.7,4.3,5.2,6.1,8.2c0.8,1.4,1.2,3.1,2.6,4c0.7,0.5,1.2,0.9,1.1,1.9
		c-0.1,1.1,1.6,0.6,1.6,1.6c0,0.1,0,0.1,0.1,0.2c0.8,2.3,2,4.5,3.4,6.5c1.7,2.4,3,5,3.3,7.8c0.3,2.5,0.7,4.7,2.3,6.7
		c0.1,0.1,0.2,0.5,0.1,0.6c-0.8,1.1,0.1,2,0.4,2.8c0.3,1,0.5,2,0.7,3.1c0.5,2.7,0.2,5.6,1.2,8.2c0.1,0.4,0.3,0.7,0.2,1.1
		c-0.3,1.6-1.3,3.2,0,4.7c-0.4,2.5,0,5.1-0.5,7.6c-0.4,1.6-0.6,3.4-0.3,5c0.2,1.1,0.1,2.1-0.1,3.1c-0.2,0.8-0.3,1.5-0.3,2.3
		c-0.3,3.6-1.5,7-3,10.3c-0.7,1.6-1,3.2-1.3,4.8c-0.3,1.6-0.5,3.2-1.1,4.7c-0.4,1.1-0.8,2.1-1,3.3c-0.3,1.7-0.5,3.6-1.4,5.1
		c-1.2,2-1.9,4.3-3.5,6.1c-0.9,0.9-1.8,2.1-2.3,3.3c-0.8,1.9-2.3,3.2-3.5,4.9c-2,3-4.3,6-5.9,9.3c-0.8,1.6-1.6,3.1-2.7,4.4
		c-1.3,1.4-2.6,2.9-4.3,3.8c-0.3,0.2-0.8,0.4-0.9,0.6c-1,2.5-3.3,3.5-5.2,5.1c-2.2,1.8-4.9,2.8-6.8,4.9c-1.3,1.5-3.1,2.2-4.6,3.3
		C312.6,305,310.9,305.5,310,306.9L310,306.9z M189.4,172.1c-0.4-1.2-0.3-2.1-0.2-3c0.1-2.1,0.8-4.2,0.3-6.4
		c-0.2-0.7-0.8-1.2-0.7-1.8c0.5-2-1.1-3.7-0.5-5.6c-1.4-5.2-2.8-10.3-4.1-15.5c-0.6-2.5-1.6-4.9-1.5-7.5c0-0.8-0.3-1.5-0.6-2.2
		c-1.1-2.4-1.4-5.1-3.1-7.3c0.2-1.7-0.8-3.2-1.1-4.9c-0.6-3.3-2.5-6.1-3.4-9.3c-0.3-1.2-0.6-2.4-1-3.5c-1.3-3.1-2.8-6.2-3.7-9.5
		c-1.1-3.9-2.4-7.8-4.9-11.2c-0.4-0.5-0.7-1.3-0.8-1.9c-0.2-1.4-0.8-2.6-1.5-3.6c-1.4-2.1-2.4-4.5-3.8-6.6c-1.3-1.9-1.9-4.2-3.3-6
		c-1.2-1.5-2.2-3.3-2.6-5.1c-0.8-3.6-3.5-6.3-4.6-9.8c-2.9-3.2-4.2-7.6-7.5-10.6c-0.2-0.2-0.4-0.5-0.5-0.8c-1.3-3-3.2-5.5-5.5-7.8
		c-0.8-0.8-1.4-1.7-2.5-2.1c-0.3-0.1-0.5-0.4-0.6-0.7c-0.9-2.1-2.7-3.4-4.1-5c-2.2-2.6-4.5-5.2-7.3-7.2c-2.3-1.7-4.2-3.9-6.6-5.6
		c-2.6-1.8-5.4-2.5-8.4-2.9c-0.9-0.1-2-0.4-3,0.1c-1,0.5-0.3,1.6-0.9,2.3c-0.1,0.1-0.2,0.3-0.2,0.4c-0.9,2.7-1.3,5.4-1.2,8.4
		c0.2,4.4,1.8,8.5,2.6,12.8c0.3,1.8,1.3,3.5,2.2,5.1c1.6,2.9,3.3,5.7,4.8,8.6c1.2,2.2,1.6,4.6,3.3,6.6c0.9,1.1,2,2.3,2.5,3.6
		c0.9,2.5,2.9,4.2,4.4,6.1c1.5,1.9,2.8,4.1,4.6,5.8c0.2,0.2,0.2,0.4,0,0.6c-0.9,0.5-1.6,0.1-2.4-0.3c-1.4-0.7-2.8-1.4-4.1-2.1
		c-4.1-2.2-8.5-3-13.1-2.6c-1.7,0.1-2.6,1.6-3.8,2.5c-0.1,0.1-0.2,0.5-0.1,0.6c0.8,1.3,0.7,2.9,1.4,4.2c1.3,2.5,2.3,5.2,4,7.5
		c1.6,2.3,2.7,5.1,5.6,6.3c0.4,0.2,0.6,0.5,0.7,0.9c0.2,0.7,0.7,1,1.2,1.3c1.6,1,3,2.2,4.3,3.6c3.4,3.4,6.9,6.9,10.4,10.3
		c1.1,1.1,2.4,2,3.4,3.1c2.5,2.8,5,5.6,8,7.8c0.9,0.7,1.7,1.6,2.4,2.6c0.7,1.1,1.3,2.1,1.5,3.6c0.3,2.6,1,5.2,2.4,7.5
		c1.5,2.4,2.6,5,4.3,7.4c2.3,3.3,4.6,6.4,7.4,9.1c1.5,1.5,3.2,2.7,4.8,4.1c2.8,2.5,5.2,5.6,8.3,7.9c2.6,1.9,5,3.9,7,6.4
		c0.8,1,1.5,2.3,2.6,2.9c1.3,0.6,2.4,1.6,3.1,2.7C184.8,168.4,186.8,170.1,189.4,172.1z M237.7,263.8c-0.2,0-0.3,0.1-0.5,0.2
		c-0.2-0.2-0.6-0.3-0.7-0.6c-1.3-2.5-3.2-4.6-4.4-7.1c-0.3-0.5-0.7-1-1.1-1.5c-1.6-2-3.6-3.6-5.3-5.5c-2.2-2.6-4.9-4.4-7.9-6
		c-2.8-1.4-5.1-0.1-5.3,3c0,0.2,0,0.5,0,0.7c0,2.3,0.9,3.2,3.2,3.4c1.4,0.1,2.7,0.6,3.7,1.6c2.2,2.4,4.8,4.4,6.2,7.5
		c1.2,2.5,3.1,4.6,4.4,7.1c1,2,2.3,4,3,6c1,2.8,0.7,6,0,8.9c-0.7,2.8-1.9,5.4-2.5,8.2c-0.8,3.3-1.3,6.6-4.1,9
		c-0.3,0.3-0.5,0.6-0.7,1c-0.4,0.9,0.1,2.5,0.9,2.9c1.7,0.9,6-0.2,7.2-2c2-3,3.6-6.1,4.1-9.8c0.3-1.9,0.9-3.8,0.6-5.8
		c-0.1-0.6,0.2-1.1,0.4-1.6c0.3-0.8,0.8-0.9,1.3-0.2c0.3,0.4,0.4,0.8,0.7,1.2c1,1.6,1.7,3.3,2.5,4.9c0.9,1.9,1.8,3.7,1.9,5.9
		c0,1.6,0.1,3.1,0.3,4.7c0.2,2,2.1,3.2,3.6,2.5c2.1-1,3.9-4.8,3.5-7.1c-0.6-3.4-1.1-6.8-2.5-9.9c-1-2.3-1.5-4.8-2.5-7.2
		c-0.8-1.9-2-3.6-2.6-5.7c-0.4-1.6-1-3.1,0-4.7c0.3-0.5,0.2-1,0.3-1.6c0.3-2.5,0-5-0.2-7.4c-0.2-3.5,0.1-7.1-0.9-10.6
		c-1.2-4.4-2.8-8.5-6.1-11.8c-0.2-0.2-0.5-0.4-0.6-0.7c-1.5-2.7-4.2-3-6.8-3c-1.8,0-2.2,0.8-1.7,2.5c0.3,1.1,0.7,2.1,1.7,2.7
		c0.9,0.5,1.3,1.3,1.7,2.1c0.8,1.8,1.9,3.3,2.6,5.2c0.8,2.1,1.5,4,1.9,6.3C238,255.9,237,259.8,237.7,263.8z M295.8,280.7
		c1,1,0.5,1.9,0.8,2.7c1.4,4.4,1.1,9,1.8,13.5c0.5,3.1,2.7,5.1,5.8,4.5c1.7-0.3,2.3-1,2-2.9c-0.7-4.1-1.1-8.3-1.1-12.5
		c0-2.8,0-5.5-0.3-8.3c-0.2-1.6-0.3-3.3,0.6-4.8c1.1-1.9,2.3-3.7,3.6-5.4c2.3-3,5-5.7,7.4-8.6c3.4-4,7.1-7.6,12.6-8.5
		c1.4-0.2,2.4-1.4,3.2-2.6c0.7-1.2,0.2-2.5-1-3.4c-2.9-2.2-5.8-1.4-8.4,0.4c-1.5,1-3,2.1-4.3,3.4c-2.2,2-4.5,3.7-6.5,5.8
		c-2.6,2.7-5.7,5-8.2,7.9c-0.4,0.4-0.8,0.8-1.3,0.9c-0.5,0.1-0.9-0.1-0.7-0.8c1.2-3.3,1.8-6.8,3.7-9.7c1.3-2,2.3-4.2,5-5.1
		c2.4-0.8,3.7-3.2,4.8-5.4c0.3-0.7,0.2-1.3-0.4-1.6c-1-0.7-2-1.5-3.4-1c-0.7,0.2-1.5,0.3-2.3,0.5c-2.5,0.6-4.8,1.9-6.3,4.1
		c-0.8,1.2-1.5,2.5-2.4,3.7c-4.2,5.8-6.3,12.4-6.7,19.5c-0.2,3.3-1.4,6.3-3.2,8.9c-2.3,3.4-3.7,7-5.3,10.7c-0.2,0.4-0.2,0.8-0.3,1.1
		c-0.5,2.7-0.7,5.5-0.7,8.3c0,2.7,2.3,5.2,5.3,4.8c1.7-0.2,2.8-1.9,2.6-3.6c-0.1-1.4-1-2.6-0.7-4.1
		C292.5,288.8,294.2,284.9,295.8,280.7z M271.7,181.4c-5.1,0.2-9,2.2-13.1,3.3c-0.3,0.1-0.5,0.4-0.7,0.6c-1.8,1.7-3.4,3.5-4.4,5.9
		c-1.2,2.7-1.2,5.3,0,8c2,4.7,5.9,7.7,9.6,10.8c1.6,1.3,3.4,2.4,5,3.7c1.6,1.3,3.5,2,5,3.5c0.8,0.7,1.6,0.5,2.4-0.4
		c1.8-1.9,3.1-4.3,6.1-4.7c0.3,0,0.5-0.3,0.8-0.5c2-0.9,3.4-2.6,5.2-3.9c3.5-2.5,5.7-5.9,6.6-10.1c0.2-0.8,0.5-1.7,0-2.5
		c-1.3-2.3-2-4.8-4-6.7c-2-1.9-3.9-3.8-6.7-4.5c-2.2-0.6-4.1-1.9-6.5-1.6c-0.2,0-0.5-0.1-0.7-0.2
		C274.6,181.3,272.7,181.6,271.7,181.4z M242.2,187.8c-0.5-1-0.9-2.6-2.3-3.6c-1.6-1.2-3.4-1.9-5.5-2.1c-2.8-0.2-4.9,0.8-6.2,2.8
		c-1.3,2-3.3,4.4-1,7.1c0.3,0.4,0.4,0.8,0.6,1.3c0.3,0.5,0.7,0.8,1.2,1.1c0.8,0.5,1.5,0,2.2-0.3c0.6-0.3,0.3-0.8,0.1-1.2
		c-0.5-1.3,0.2-2.6,0.2-3.9c0.1-1.2,2.1-2.4,3.4-2.4c0.7,0,2.1,1.3,2.4,2.3c0.2,0.7-0.1,1.4-0.1,2.1c0,0.4-0.2,0.9,0.3,1.3
		c1.4,1.3,3.7,0.8,4.4-0.9C242.1,190.3,242.2,189.3,242.2,187.8z M304.3,192.9c-0.2,1.1,0.3,2.2,1.6,3c1,0.6,1.8,0.5,2.2-0.6
		c0.3-0.6,0.4-1.2,0.1-1.8c-0.2-0.5-0.2-1,0.2-1.5c1-1.4,3-2.1,4.5-1.6c2.1,0.7,2.6,2.3,1.6,4.8c-0.7,1.7-0.2,2.5,1.6,2.2
		c1.8-0.2,4-2.7,3.8-4.6c-0.2-2.9-1.4-5.2-4.2-6.4c-2.3-1-4.5-1.3-7-0.2C306.1,187.2,304.1,189.8,304.3,192.9z M254.1,331.3
		c-0.5-0.1-0.9-0.3-1.4,0C253.1,331.8,253.6,331.8,254.1,331.3z"/>
	<path class="st0" d="M151.7,491.4c0.1,0,0.4-0.2,0.4-0.1c1.9,1.9,4.3,3.4,6.5,4.8c2.5,1.5,4.4,4,7.2,4.9c1.9,0.6,3.2,1.8,4.4,3.2
		c1.2,1.5,2.2,3.1,2.7,5.1c0.8,2.8-1.3,5.3-3,6.4c-0.8,0.5-1.7,0.3-2.5,0c-3.5-1.3-6.8-3-9.8-5.2c-0.9-0.7-1.7-1.4-2.8-1.6
		c-0.4-0.1-0.7-0.3-1-0.5c-2.6-2-5.5-3.4-8.2-5.3c-2-1.3-3.5-3.2-5.6-4.4c-2-1.1-3.9-2.6-5.8-3.8c-1.2-0.8-2.7-1-4-1.8
		c-2.8-1.8-5.6-3.6-8.6-5.1c-3.3-1.6-6.6-3.1-10-4.2c-2-0.6-3.9-1.7-6.1-1.7c-0.9,0-1-1.3-2-1.3c-4-0.2-7.4-2.7-11.5-2.7
		c-2.8-1.5-6-1.3-9-2c-1.3-0.3-2.5-0.5-3.8-0.6c-3.3-0.3-6.6-1.1-9.8-1.7c-3.5-0.6-7.1-1.3-10.6-2.3c-3.3-0.9-6.5-2-9.7-3
		c-1.4-0.5-2.9-0.3-4.3-0.7c-2.9-0.8-5.7-2.2-8.7-2.6c-0.2,0-0.5-0.1-0.6-0.2c-2.3-1.9-5.4-1.8-7.9-3.4c-1.4-0.9-3.1-1.4-4.7-1.9
		c-2-0.6-3.6-1.8-5.1-3c-2.5-2.1-5.2-4-6.6-7.1c-0.1-0.3-0.5-0.6-0.8-0.9c-0.7-0.7-1.3-1.3-1.3-2.5c0-0.9-0.6-1.7-1-2.6
		c-0.9-2-1.4-4.1-0.6-6.3c0.2-0.6,0.1-1.2,0.1-1.9c0-0.6,0.1-1.3,0.6-1.4c1.4-0.4,1.9-1.6,2.5-2.6c1.8-2.9,4.6-4,7.7-4.8
		c1.3-0.3,2.6-1.4,3.6-1.3c1.2,0.2,2.4,0.8,3.7,1c1.1,0.1,2.2,0.2,3.3,0.2c4,0,7.8,1.3,11.6,2.5c1.3,0.4,2.3,1.4,3.6,1.9
		c2.2,0.9,4.4,1.9,6.9,1.9c0.6,0,1,0.3,1.5,0.6c2.2,1.4,4.8,2.1,6.9,3.7c1.1,0.8,2.4,1,3.6,1.5c3.7,1.6,7.2,3.8,11.2,4.5
		c0.9,0.2,1.5,1.4,2,1.3c1-0.2,1.2,1.4,2.4,0.8c0.7-0.4,1.5,0.7,2.4,0.9c1.5,0.3,2.9,1,3.6,2.5c0.2,0.4,0.5,0.6,0.9,0.6
		c3.3,0.5,6.1,2.1,8.8,3.8c1,0.7,2,1.3,3.3,1.6c1.5,0.3,2.2,2,3.8,2c1.2,1.8,3.6,1.9,4.8,3.5c0.5,0.7,1.3,0.5,1.9,0.9
		c2,1.2,3.5,3.3,6.3,3.2c1.4,0,3,0.9,4.4,1.8c1.5,1,3,1.8,4.6,2.6c0.8,0.4,1.5,0.7,1.5,1.8c0,1.3,1.3,1.6,2.1,2.3
		c1.1,0.8,1.9,0.2,2.9-0.5c1.9-1.4,3.7-2.9,5.5-4.5c1-0.9,1.8-2.2,3.5-1.7c0.1,0,0.5-0.2,0.5-0.4c0.7-2,2.6-2.5,4.1-3.4
		c3.9-2.4,7.5-5.2,11.7-7.2c1.5-0.8,2.7-2.3,4.5-2.9c2.5-0.8,4.5-2.7,6.8-3.8c2.5-1.2,4.9-2.6,7.5-3.5c2-0.7,4.4-1,6-3
		c-1-0.9-1.3-2.4-3.2-2.1c-0.7,0.1-1.5-1.2-2.3-1.7c-2.4-1.7-4.3-3.8-6.2-5.9c-1.4-1.5-2.6-2.9-2.7-5.1c0-0.2-0.1-0.5-0.2-0.7
		c-1.9-3.3-0.8-6.5,0.4-9.6c0.5-1.2,1.3-2.2,2.8-2.1c0.6,0,1-0.3,1.5-0.5c1.3-0.7,2.8-0.9,4.3-1c2-0.1,3.2,1.5,4.5,2.6
		c1.1,1,1.9,2.2,3.2,3.1c1.5,1.1,2.4,3,3.5,4.6c2.3,3.3,4.2,6.9,6.1,10.4c0.6,1,0.8,2.8,2.6,3c0.8,0.1,0.7,1.1,0.8,1.8
		c0.1,0.9,0.2,1.6,1.3,1.9c0.4,0.1,0.8,0.6,0.9,1c2.6,5.4,5.5,10.7,7.8,16.3c1,2.6,2.2,5.1,3.4,7.6c0.6,1.2,1.2,2.7,0.8,4.2
		c-0.2,0.8,0,1.5,0.1,2.3c-0.3,0.3-0.6-0.1-0.8-0.1c-2.1,0.3-2.3,0.2-3.1-1.6c-1.1-2.2-2.8-4.1-3.6-6.5c-0.3-0.9-1.4-1.1-2-1.9
		c-3.5-4.6-7.4-8.9-11.7-12.8c-0.9-0.8-1.8-1.9-2.9-0.2c-0.1,0.2-0.4,0.2-0.7,0.2c-2.9,0.6-5.1,2.5-7.5,4c-2.6,1.7-5.1,3.7-8.3,4.4
		c-0.7,0.2-1.1,0.7-1.7,1.2c-1.3,1.1-2.5,2.1-4.1,2.8c-1.1,0.5-2.5,1.5-2.9,2.8c-0.3,1-0.8,1.5-1.6,1.8c-0.8,0.2-0.9,1.6-2.1,1.1
		c-0.2-0.1-0.7,0-0.9,0.2c-1.3,1.4-3.1,2.4-4.2,4c-1.1,1.7-2.4,3-3.9,4.4c-2.4,2.1-4.5,4.5-5.7,7.5c-0.4,0.9,0.4,0.6,0.6,0.8
		c1.1,1.7,3.7,1.6,4.3,3.8c0.1,0.2,0.5,0.6,0.7,0.5c1.7-0.4,2.2,1.8,3.8,1.7C151.3,490.2,151.3,491.1,151.7,491.4
		c0,0-0.1-0.1-0.1-0.2C151.6,491.3,151.6,491.4,151.7,491.4z M16.6,436.7c0,0.2-0.1,0.4-0.1,0.6c0,1.6,0.1,3,1.8,3.7
		c2.7,1.2,5.2,2.7,8.2,3.3c4.6,1,9.3,1.2,13.9,1.8c3.2,0.4,6.4,0.4,9.5,1.2c0.9,0.2,1.8,0.6,2.7,0.7c1.1,0.2,2.2-0.7,1.9-1.5
		c-0.4-1.3-0.1-3-1.7-3.9c-0.6-0.3-1-1-1.4-1.6c-0.5-0.9-1.2-1.3-2.1-1.6c-1.6-0.6-3.2-1.2-4.3-2.5c-0.4-0.5-1.1-0.6-1.7-0.7
		c-1.3-0.1-2.4-0.5-3.5-1.2c-0.9-0.5-1.8-0.8-2.8-1.1c-1.9-0.7-3.9-1-5.9-1.5c-2.8-0.7-5.6-1.4-8.5-0.6c-0.4,0.1-0.9,0.1-1.4,0.1
		C18,432.2,16.8,433.3,16.6,436.7z M176,437.2c0,0,0-0.2-0.1-0.2c-0.1,0-0.1,0-0.2,0c0,0.1,0,0.2,0,0.2
		C175.9,437.3,176,437.3,176,437.2z M178.6,448.2c0,0,0.1,0,0.2,0c0,0-0.1-0.1-0.1-0.1s-0.1,0-0.2,0
		C178.6,448.1,178.6,448.2,178.6,448.2z M174.4,451.2c0-0.1-0.1-0.2-0.1-0.2c-0.1,0-0.3,0.1-0.4,0.2c0,0.1,0.1,0.1,0.2,0.2
		C174.2,451.4,174.3,451.3,174.4,451.2z M174.8,453c-0.1,0-0.1,0-0.2-0.1c0,0,0,0.1-0.1,0.2c0.1,0,0.1,0,0.2,0
		C174.8,453.2,174.8,453.1,174.8,453z M191.5,449.6L191.5,449.6l0.1,0L191.5,449.6z M203.2,465.2l-0.1-0.1l0,0.1L203.2,465.2z"/>
	<path class="st0" d="M428.8,471.6c0-1,0.9-1.4,1.4-1.7c1.9-1,3.3-2.5,4.7-3.9c2.3-2.2,4.7-4.1,7.3-5.8c0.4-0.3,0.7-0.8,1.1-1.2
		c1.9-2.1,3.8-4.3,6-6c2.7-2.1,5.1-4.4,7.5-6.8c1.9-1.9,4.2-3.4,6.3-5c1.1-0.9,2.3-1.6,3-2.8c0.2-0.3,0.4-0.6,0.6-0.7
		c2-0.6,3.3-2.5,5.4-3c2.1-0.5,3.7-2.1,5.7-3c4.3-1.9,8.4-4.1,13-5.2c2.3-0.5,4.7-1,6.9-1.8c3.5-1.3,7.3-0.5,10.6-2.2
		c0.3-0.2,0.6-0.2,0.9-0.1c2.3,0.9,4.8,0.8,7.1,0.8c5.6-0.1,10.5,2,15.4,4.3c1.5,0.7,2.2,2.4,2.9,3.9c0.9,2.1,0.8,4.3,0.9,6.4
		c0,1.1-0.2,2.4-1.1,3.2c-2,1.8-3.7,4-6.1,5.4c-0.8,0.5-1.7,0.8-2.6,0.4c0,0.2-0.1,0.2-0.1,0.1c0.1-0.3-0.2,0,0.2,0
		c-0.1,0.3-0.2,0.8-0.4,0.8c-1.7,0.7-3.4,1.5-5.2,1.8c-1,0.2-2.1,0.2-3.2,0.3c-2.5,0.3-4.9,0.5-7.4,0.7c-0.2,0-0.3,0-0.5,0
		c-4.2-1.2-8.4-0.1-12.6-0.5c-1.4-0.1-3,0.5-4.5,0.8c-1.1,0.2-2.1,1-3.3,0.6c-2.8,1.7-6.2,0.6-9,2.2c-2.2,1.2-4.5,2.4-7.1,2.3
		c-0.3,0-0.7,0.3-1.1,0.5c-6,2.6-11.8,5.2-16.8,9.6c-2.5,2.2-5.7,3.5-8.6,5.1c-1.9,1.1-3.5,2.6-5.5,3.3c-2,0.7-3.3,2.4-5,3.6
		c-2.4,1.8-4.9,3.5-7.2,5.4c-0.2,0.1-0.4,0.2-0.6,0.4c-1.1,1.7-2.8,2.5-4.5,3.4c-2.9,1.6-5.9,3.1-8.8,4.8c-3.8,2.3-7.8,4.2-11.9,6
		c-3.7,1.6-7.6,2.6-11.4,4c-2.7,1-5.5,0.9-8.2,1.8c-3.2,1.1-6.6,0.8-9.8,1.4c-1.8,0.3-3.6,0-5.3-0.4c-1.7-0.4-3.3-0.5-5.1-0.4
		c-2.5,0.2-4.9-0.6-7.2-1.6c-1.1-0.5-2.3-1-3.5-1.4c-3.5-1.2-7.2-2.3-10.2-4.5c-2.7-2-5-4.6-6.8-7.6c-0.8-1.3-1.5-2.8-3-3.6
		c-0.1-0.1-0.2-0.2-0.2-0.3c0-2.1-1.4-3.7-2-5.6c-0.2-0.7-0.5-0.8-1.2-0.9c-2.6-0.7-5.4-0.7-7.8-2.2c-1.3-0.8-2.4-1.7-3.6-2.6
		c-0.7-0.5-1.1-1.5-1-2.5c0-1.4,0.7-2.2,2-2.3c0.4,0,0.8,0,1.2,0c2.9,0.2,5.7,1.5,8.8,1.4c0-0.1,0.4-0.5,0.4-0.9
		c0.1-3.4,1.5-6.4,2-9.7c0.2-1.3,0.9-2.6,1.5-3.8c0.6-1.3,0.7-2.8,1.8-3.8c0.2-0.1,0.3-0.5,0.2-0.6c-0.8-1.7,0.6-2.7,1.3-4
		c0.2-0.3,0.4-0.5,0.5-0.8c1.9-4.3,4.9-7.7,8.4-10.9c3.1-2.8,6.3-5.3,9.6-7.7c0.6-0.5,1.3-0.9,2-1.1c1.7-0.5,3.3-1.2,4.9-2
		c1.1-0.6,2.5-0.3,3.7-0.2c3,0.3,6-0.4,9,0.5c0.8,0.2,1.7,0.5,2.3,1c2.6,2,5.8,3.4,7.5,6.5c2.1,3.9,3.4,8,3.6,12.6
		c0.2,5.1-2,9.3-4.7,13.3c-3,4.6-7,8.2-11.4,11.2c-1.8,1.3-3.9,2.4-6.3,2.8c-1.5,0.2-3,1.3-4.5,1.9c-0.7,0.3-1.3,0.8-2.2,0.3
		c-1.1-0.5-2.2,0.2-3.1,0.4c-2.9,0.8-5.7,1.3-8.7,0.8c-1.2-0.2-2.4-0.2-3.5,0.7c-0.7,0.5-1.8,0.4-2.7,0.5c-0.8,0.1-0.9,0.5-0.7,1.3
		c0.3,1.3,1.1,2.2,1.8,3.2c1.2,1.8,2.8,3.3,4,5c0.4,0.5,0.8,0.8,1.3,0.9c2.5,0.8,4.7,2.5,7.3,3.2c1,0.3,2,0.3,2.9,0.6
		c4.4,1.2,8.8,2.6,13.3,3.1c1.2,0.1,2.5,0.5,3.7-0.3c0.3-0.2,0.7-0.3,1.1-0.1c1.7,0.9,3.6,1,5.4,1.2c2,0.3,4.2,0.2,6.3-0.2
		c2.6-0.5,5.1-1.1,7.6-2c1.8-0.6,3.8-0.7,5.4-1.8c2-1.4,4.4-2.3,6.3-4.1c1.7-1.5,4.1-2.5,6-3.9c1.6-1.2,3.5-1.9,5.2-3
		c1-0.7,1.9-1.5,2.7-2.4c0.4-0.5,0.9-1.1,1.5-1.4c2.7-1.6,5.2-3.6,7.6-5.6c0,0,0.1,0,0.2,0c0-0.2,0.1-0.2,0-0.1
		C428.8,471.9,429.1,471.6,428.8,471.6z M342.7,495.6l0.1-0.1L342.7,495.6v-0.1C342.7,495.5,342.7,495.6,342.7,495.6z M364.8,443.4
		c0.1,0,0.3,0,0.4,0c0,0,0-0.1,0-0.1C365,443.2,364.9,443.4,364.8,443.4c-0.2-0.1,0.6-0.4-0.1-0.6
		C364.8,443,364.8,443.2,364.8,443.4z M340.5,471.8c3.7-0.1,7.3-0.5,10.8-1.4c2.2-0.6,4-2,6.1-2.9c1.8-0.8,3-2.5,4.9-3.3
		c1.3-2.6,3.5-4.6,4.7-7.3c0.3-0.8,0.2-1.7,0.7-2.4c1.6-2.5,0.9-6.6-1.2-8.3c-0.3-0.2-0.7-0.3-0.9-0.7c-1.5-2.8-6.6-3.3-9.3-2.5
		c-2.3,0.7-4.1,2.2-6,3.5c-2.1,1.3-4.2,2.9-5.3,5.2c-0.8,1.6-2.2,2.7-2.7,4.5c-0.1,0.5-0.5,1-1,1.2c-0.6,0.3-0.9,0.8-1.2,1.4
		c-1.3,3.4-2.2,7-2.9,10.5c-0.4,1.9,0.3,2.5,2.2,2.5C339.8,471.8,340.2,471.8,340.5,471.8z M507.6,425.8c-4.5-0.3-8.5,1.5-12.4,3.5
		c-0.8,0.4-1.2,1.3-0.9,2.4c0.7,2.5,3.8,4.8,6.4,4.7c0.5,0,1.1-0.4,1.2,0.2c0.3,1,0.9,0.8,1.6,0.9c1.1,0.1,2.2,0.3,3.3,0.3
		c2.6,0,5.3,0.8,7.9,0.1c0.2-0.1,0.5,0,0.7,0c2,0.7,3.9,0.5,5.9,0.2c2-0.3,4.2-0.1,5.4-2.2c1.7-0.3,1.4-1.5,1.3-2.7
		c-0.1-1.3-0.5-2.3-1.7-2.8c-2.2-1-4.3-2.2-6.7-2.6C515.7,426.9,511.7,426.2,507.6,425.8z M362,440.8c0,0.1-0.1,0.3-0.1,0.3
		c0,0.1,0.2,0.2,0.3,0.3c0-0.1,0.1-0.3,0.1-0.4C362.3,440.9,362.1,440.8,362,440.8z M360.4,469.3c0-0.1,0-0.4-0.1-0.4
		c-0.2-0.1-0.4,0.1-0.5,0.3c-0.1,0.2-0.1,0.3,0.1,0.4C360.1,469.6,360.3,469.5,360.4,469.3z M340.5,452.3c0,0-0.1,0.1-0.1,0.2
		c0,0,0.1,0.1,0.1,0.2c0,0,0.1-0.1,0.1-0.1C340.6,452.4,340.5,452.3,340.5,452.3z M335.7,471.7c0,0.1-0.1,0.1-0.1,0.2
		c0,0,0.1,0,0.1,0.1c0-0.1,0-0.1,0-0.2C335.9,471.7,335.8,471.7,335.7,471.7z M343.7,447c0-0.1-0.1-0.2-0.1-0.4c0,0-0.1,0.1-0.1,0.2
		c0,0.1,0.1,0.2,0.1,0.4C343.6,447.1,343.6,447,343.7,447z"/>
	<path class="st0" d="M220.8,517c-2.8-2.4-5.6-5.1-6.2-8.7c-0.9-5.2-0.6-10.5,3.5-14.8c2.4-2.4,4.5-5.1,6.9-7.5
		c3.2-3.1,6.9-5.4,10.9-7.5c0.7-0.3,1.7,0,2-0.4c1.5-2.4,4.3-1.4,6.4-2.3c2-0.9,4.6-0.4,6.9-0.8c3.8-0.7,7.6-0.8,11.4-0.7
		c2.7,0.1,5.4,0.1,8.1,0.4c1.8,0.2,3.5-0.2,5.3-0.2c2.9,0,5.7,0.9,8.5,1.3c3.4,0.5,6.7,1.2,10.1,2c1.7,0.4,3.4,1,4.9,2
		c2.7,1.7,5.6,2.9,8.1,5.1c2.8,2.4,5.9,4.6,8,7.6c1.5,2.1,3.2,4.3,4,6.9c0.3,1.1,0.9,2.3,0.3,3.6c-0.3,0.7-0.2,1.7-0.2,2.5
		c0,2.9-0.5,5.6-2.4,8c-1.8,2.4-4.2,4.3-6.5,6.2c-1,0.8-1.6,2-2.7,2.4c-2.5,0.9-4.3,3-7.1,3.8c-1.9,0.5-4.1,1-5.8,2.3
		c-1,0.8-2.4,0.4-3.6,0.9c-3.9,1.6-8,2.6-12.2,3c-2.6,0.3-5.2,0.3-7.8,0.7c-0.5,0.1-0.9,0-1.2,0.5c-0.2,0.4-0.6,0.5-1,0.4
		c-3.1-0.9-6.4,0-9.5-0.8c-3.1-0.8-6.3-0.9-9.4-1.2c-0.9-0.1-1.8-0.4-2.7-0.8c-2.9-1.2-6.2-1.7-8.7-3.8c-0.2-0.2-0.5-0.3-0.8-0.4
		c-1.9-0.4-3.6-1.3-5.3-2.4c-2-1.3-4.3-2.1-6.3-3.3C224.6,520.1,222.5,518.8,220.8,517l0,0.1L220.8,517z M284,508.9
		C284,508.7,284,508.7,284,508.9C284,508.8,284,508.8,284,508.9c0.4-0.6,1.1-0.7,1.8-0.8c2.6-0.5,5-1.7,7.2-3
		c3.1-1.8,5.7-4.6,6.8-8.2c0.6-1.9,0.7-3.9-0.8-5.5c-0.4-0.4-0.7-1-0.9-1.6c-1.3-3-4.3-4.3-6.8-6c-2.1-1.5-4.9-1.6-7.2-2.9
		c-0.2-0.1-0.7-0.2-0.9-0.1c-1.8,0.7-3.4,0-5-0.5c-1.6-0.5-3.2-0.6-4.8-0.6c-2.2,0-4.5,0.2-6.7,0c-5.3-0.6-10.3,0.7-15.5,1.5
		c-0.5,0.1-0.9,0.3-1.3,0.5c-2.4,1-4.8,2.2-7.2,3.2c-3.5,1.4-6.4,3.4-9.3,5.6c-0.5,0.4-1.3,0.5-1.5,1c-1.3,2.4-2.2,5-1.3,7.8
		c0.3,1,0.2,2.4,1.5,3l0,0c1.1,1.1,2.1,2.3,3.8,2.6c0.1,0,0.3,0.1,0.4,0.2c1.8,1.4,4,2.4,6.1,3c3.6,1,7.3,1.7,10.9,2.9
		c0.3,0.1,0.6,0.2,0.9,0.2c2.2-0.3,4.4,0.7,6.6,0.3c1.7-0.3,3.4,0,5-0.2c2.8-0.4,5.6-1,8.5-1.1c2.1-0.1,4.2-0.3,6.2-1
		C281.6,508.8,282.8,508.3,284,508.9z M316.7,506.7c0-0.1,0-0.3-0.1-0.4c-0.1-0.1-0.3,0-0.3,0.2c0,0.2-0.1,0.4,0.1,0.5
		C316.4,507,316.5,506.8,316.7,506.7z M272.7,513.5c0,0,0-0.1,0-0.1c-0.1,0-0.3-0.1-0.4-0.1c-0.2,0-0.2,0.2,0,0.2
		C272.4,513.6,272.5,513.6,272.7,513.5z M256.8,522.5c-0.1,0-0.1,0-0.2,0c0,0,0,0.1,0,0.1c0.1,0,0.1,0,0.2,0
		C256.9,522.5,256.8,522.5,256.8,522.5z M277.3,511.9L277.3,511.9l-0.1,0L277.3,511.9z M259,513.3c0,0-0.1-0.1-0.1-0.1
		c0,0-0.1,0.1-0.2,0.1c0,0,0.1,0.1,0.1,0.1C258.9,513.4,258.9,513.4,259,513.3z"/>
	<path class="st0" d="M307.9,418.2c-0.3-0.2-0.9-0.4-0.9-0.6c-0.1-1.8-1.5-2.1-2.7-2.7c-1.7-0.8-3-2.1-4.9-2.5
		c-0.8-0.2-1.5-0.3-2.3-0.1c-0.9,0.2-2,1.2-2.4-0.7c0-0.2-0.4-0.3-0.6-0.2c-1.8,0.6-3.6,0-5.4-0.1c-0.2,0-0.3-0.1-0.5,0
		c-2.2,0.9-4.6,0.5-6.8,0.8c-1.4,0.2-2.3,1.7-3.2,2.9c-2.3,2.9-3.8,6.1-4.2,9.7c-0.1,0.8-0.6,1.3-1.2,1.7c-4,2.8-10.3,1.3-11.8-3.2
		c-1-3.2-2.8-6.1-4.8-8.8c-0.8-1.2-2.4-1.8-3.8-2.5c-1.3-0.6-2.7-0.7-3.8-1.6c-0.2-0.2-0.6-0.2-0.9-0.2c-2.5,0-5-0.6-7.5,0.3
		c-0.7,0.2-1.5,0.4-2.3,0.4c-2.4,0.1-4.2,1.4-6,2.6c-0.5,0.4-0.7,0.5-1-0.1c-0.2-0.4-0.5-0.3-0.7,0c-0.4,1.1-1.4,1.6-2.2,2.3
		c-1.7,1.5-2.4,3.5-2.8,5.7c-0.5,2.9-0.8,5.8-0.6,8.7c0,0.7-0.3,1.3-0.3,2c0,1.2,1.3,3.5,2.3,4.6c1,1,1.4,2.4,1.8,3.7
		c0.3,1,0.5,1.9,1.6,2.4c0.3,0.1,0.5,0.6,0.7,0.9c1.7,2.8,4.3,4.4,7.2,5.7c2.3,1.1,4.2,4.4,3.9,6.9c-0.3,2.8-2.8,4.2-5.4,3.3
		c-0.3-0.1-0.6-0.3-0.9-0.3c-2.7-0.2-4.6-2-6.6-3.6c-0.7-0.6-0.9-1.4-1.3-2.1c-0.7-1.3-1.9-2.5-2.4-3.8c-0.5-1.5-1.4-2.8-2.2-4
		c-1.3-2.2-2.2-4.5-3-6.9c-0.6-1.7-1-3.5-1.1-5.4c0-1.1-0.1-2.1-0.9-3l0,0.1c-0.2-1.5-1.3-2.7-1.4-4.3c-0.3-5,0.3-9.7,3.1-14.1
		c2.2-3.5,5.2-6.4,8-9.4c0.3-0.3,0.7-0.7,1.1-0.9c4.2-2.1,8.4-4.1,13.1-4.7c0.9-0.1,1.6,0.4,2.5,0.5c3.1,0.1,6,1,8.7,2.9
		c1.3,0.9,3,1.1,4.5,1.9c0.6,0.3,1.1,0.5,1.4,1.1c1.2,2,2.8,3.8,4.5,5.4c1,1,1.9,2,2.1,3.5c0.2,1.2,1.3,1.9,1.2,3.1
		c1,0.1,1.2-0.5,1.3-0.9c1-2.3,3.3-3.9,3.9-6.4c0-0.2,0.3-0.5,0.5-0.5c1.4,0,1.8-1.4,2.5-2.2c1.8-2,4-2.9,6.4-3.7
		c0.3-0.1,0.6-0.2,0.8-0.4c2.6-1.7,5.6-2.2,8.6-2.4c1.3-0.1,2.5-0.7,3.8-0.3c2.9,0.7,5.7,1.7,8.4,3c3.5,1.6,6.2,4.2,8.6,7
		c1.3,1.5,2.6,3.4,3,5.6c0.1,0.5,0.2,1.1,0.7,1.5c1.5,1,1.6,2.7,1.7,4.2c0.1,3,0.7,6,0.8,9c0,2.7-0.4,5.4-0.7,8.1
		c-0.1,1.2-0.4,2.3-0.7,3.4c-0.1,0.5-0.2,1.1-0.4,1.6c-2.4,4.3-4.5,8.8-7.7,12.7c-1.5,1.7-2.9,3.4-4.7,4.8c-2,1.5-4.5,1.3-5.8-0.8
		c-1.1-1.7-0.8-4.5,0.6-5.9c0.7-0.7,1.3-1.3,1.5-2.3c0.3-1.2,0.8-2.4,2.5-2.2c0.2,0,0.5-0.5,0.8-0.8l0,0c0.3,0,0.5-0.2,0.6-0.5
		l-0.1-0.1c0.7-0.3,1-1.1,1.8-1.2c1.2-0.1,0.8-1.5,1.7-1.9c0.1,0.1,0,0.2,0,0.1c-0.2-0.3-0.2,0.1,0.1,0c-0.2-0.5,0-1,0.3-1.3
		c1.4-1.5,2.1-3.5,3.4-5c0.2-0.3,0.3-0.5,0.3-0.8c-0.3-1.7,0.3-3.2,0.9-4.7c0.4-1,0.5-1.8,0.1-2.7c-0.9-1.8-0.5-3.9-1.6-5.7
		c-0.2-0.4-0.1-0.7,0.1-1.1c0.4-0.9-0.3-1.9-0.8-2.1C308.6,419.9,308.3,419,307.9,418.2c0.1,0,0.1,0.1,0,0.2
		C307.9,418.3,307.9,418.2,307.9,418.2z M225.7,414.9c0.1-0.1,0.2,0,0.1,0.1C225.6,415.2,226,415,225.7,414.9c0.1,0.1,0.1,0.2,0,0.1
		C225.5,414.9,225.7,415.2,225.7,414.9z M264.2,411.1c-0.1-0.3-0.2-0.6-0.5-0.6c-0.1,0-0.2,0.2-0.2,0.3c0,0.3,0.1,0.6,0.5,0.6
		C264,411.4,264.1,411.2,264.2,411.1z M228.7,454.3l0.2,0.1l0-0.2L228.7,454.3z"/>
	<path class="st0" d="M333.4,452.4c0,0.1,0.1,0.3,0.1,0.4c-0.1,0-0.3,0.1-0.4,0.1c-0.2,0-0.3-0.2-0.1-0.3
		C333.1,452.5,333.2,452.4,333.4,452.4z"/>
	<path class="st0" d="M217.9,430.3c0.1,0.2,0.2,0.4,0,0.6c0,0-0.1-0.1-0.1-0.1C217.8,430.7,217.9,430.5,217.9,430.3
		C218,430.4,217.9,430.3,217.9,430.3z"/>
	<polygon class="st0" points="147.4,487.9 147.2,487.9 147.3,487.8 	"/>
	<path class="st0" d="M302.9,446.8c0.3,0.4,0.5,0.4,0.6-0.1l0.1,0.1C303.4,446.8,303.2,446.7,302.9,446.8L302.9,446.8z"/>
	<path class="st0" d="M303,447.3c0.1-0.2,0.4-0.4-0.1-0.5l0.1-0.1C303,446.9,303,447.1,303,447.3L303,447.3z"/>
	<path class="st0" d="M258.8,362.2c0.2,0.4,0.3,0.7-0.2,0.9c-0.1,0-0.3-0.1-0.3-0.2C258.1,362.3,258.4,362.2,258.8,362.2
		C258.8,362.2,258.8,362.2,258.8,362.2z"/>
	<path class="st0" d="M209.3,153.2c0,0-0.1-0.1-0.1-0.1c0.1,0,0.1-0.1,0.2-0.1c0,0,0.1,0.1,0.1,0.1
		C209.5,153.2,209.4,153.2,209.3,153.2z"/>
	<path class="st0" d="M260.7,373.2c0,0.1,0.1,0.1,0.1,0.2c0,0.2-0.1,0.3-0.3,0.1c0,0,0-0.1,0-0.2
		C260.6,373.2,260.7,373.2,260.7,373.2z"/>
	<path class="st0" d="M359.5,189.2c0-0.1-0.1-0.1-0.1-0.2c0,0,0.1,0,0.1-0.1c0,0.1,0,0.1,0,0.2C359.6,189.1,359.5,189.2,359.5,189.2
		z"/>
	<path class="st0" d="M259.5,366.6c-0.1-0.2-0.2-0.4-0.3-0.5C259.8,366.1,259.3,366.4,259.5,366.6L259.5,366.6z"/>
	<path class="st0" d="M253.5,126.7c0-0.1-0.1-0.2-0.1-0.3c0.1,0,0.2-0.1,0.3-0.1c0,0,0.1,0.1,0.1,0.1
		C253.8,126.6,253.7,126.6,253.5,126.7z"/>
	<path class="st0" d="M261.5,371.4c-0.2-0.1-0.3-0.2-0.2-0.4c0-0.1,0.1-0.1,0.2-0.2c0.1,0.1,0.1,0.3,0.2,0.4
		C261.6,371.3,261.5,371.3,261.5,371.4z"/>
	<polygon class="st0" points="366.4,216.7 366.3,216.6 366.4,216.6 	"/>
	<path class="st0" d="M259.4,366.6c0.3-0.1,0.1,0.3,0.1,0C259.6,366.5,259.4,366.5,259.4,366.6C259.5,366.6,259.4,366.6,259.4,366.6
		z"/>
	<path class="st0" d="M237.3,135.4c0,0.1,0,0.1-0.1,0.1c-0.1-0.1-0.2-0.1-0.2-0.1c0-0.1,0.1-0.1,0.1-0.1
		C237.2,135.3,237.2,135.4,237.3,135.4z"/>
	<path class="st0" d="M308.5,133.9C308.5,133.8,308.6,133.5,308.5,133.9L308.5,133.9z"/>
	<path class="st0" d="M308.5,133.8c0.3-0.1,0.1,0.3,0.1-0.1C308.6,133.7,308.5,133.7,308.5,133.8L308.5,133.8z"/>
	<path class="st0" d="M309.9,306.8l0.2,0C310.1,306.8,310,306.8,309.9,306.8C310,306.9,309.9,306.8,309.9,306.8z"/>
	<path class="st0" d="M154.2,114.3c-0.8-2.7-2.9-3.9-5.3-5c-1.8-0.8-3.6-0.6-5,0.6c-0.9,0.8-1.3,0.5-1.9,0c-1.8-1.6-3.4-3.5-4.9-5.4
		c-1.6-2.1-3.2-4.2-5.1-6c-3.5-3.2-6.5-6.8-10.1-9.8c-4.9-4.1-8.9-9-12.3-14.5c-0.6-1-1-2.1-1.1-3.3c-0.2-2.5,0.1-2.3,2.3-2.3
		c1.7,0,3.3,0.3,4.9,1.2c2.4,1.3,5.1,1.9,7.5,3.2c0.7,0.4,1.4,0.6,2.1,1.1c3.1,1.9,6.4,3.4,9.5,5.5c0.8-1.5,0.2-2.7-0.5-3.8
		c-0.6-0.9-1.4-1.7-2.2-2.4c-1.9-2-4-3.9-5.1-6.5c-0.3-0.6-0.9-1.1-1.4-1.6c-2.7-2.9-4.8-6.2-6.8-9.6c-1.2-2-2.6-4-3.6-6.2
		c-0.7-1.6-1.8-3.1-2.9-4.4c-0.9-1.1-0.6-2.6-1.6-3.6c-0.9-0.9-1.6-2.3-2.1-3.5c-0.7-2-1.8-3.7-2.8-5.5c-1-1.9-2-3.9-2.1-5.8
		c-0.1-2-0.3-4.1-0.2-6.1c0-0.4,0.1-1.1,0.7-1.4c0.4-0.2,0.8-0.7,0.6-1.2c-0.6-1.4,0.7-1,1.1-0.9c1.7,0.2,5.8,1.7,6.9,2.8
		c1.8,1.7,4.1,2.7,5.9,4.4c1.8,1.7,3.4,3.6,5.3,5.1c2,1.6,3.1,4,5,5.7c0.9,0.8,1.7,1.8,2.2,3c0.5,1.2,1.4,2.1,2.5,2.6
		c0.8,0.3,1,0.9,1.4,1.4c1.2,1.8,2.1,3.6,3.1,5.5c1.1,1.9,2.5,3.5,3.6,5.4c3.8,6.4,7.7,12.7,11,19.3c1.4,2.7,2.7,5.5,4.4,8.1
		c0.7,1.1,1.1,2.2,1.7,3.3c2.5,4.8,4.2,10,6.5,14.9c0.6,1.4,1.1,2.8,2.1,3.9c0.7,0.7,0.8,1.7,0.8,2.6c0,1.4,0.6,2.7,1.2,4
		c1.2,2.8,2.3,5.6,3.5,8.4c1,2.2,2.2,4.4,3.4,6.6c0.4,0.6,0.3,1.3,0.5,2c1.3,3.6,2.5,7.1,3.8,10.7c1.5,4.1,2.4,8.5,3.4,12.7
		c0.5,2.2,0.8,4.4,1.7,6.5c0.1,0.3,0.3,0.6,0.3,0.9c-0.8,2.9,0.2,5.7,0.6,8.5c0,0.2,0,0.5,0,1.1c-1.5-1.6-2.9-2.9-4-4.3
		c-2.9-3.5-5.9-6.9-8.5-10.7c-0.8-1.2-2.2-1.6-3.3-2.6c-2.5-2.4-4.6-5-7.3-7.2c-2.2-1.8-4.3-3.6-6.4-5.5c-1.4-1.3-2.7-2.7-3.8-4.2
		c-2.1-2.7-3.5-5.8-4.5-9.1c-0.1-0.4-0.5-0.9,0-1.3c0.5-0.3,0.9,0,1.2,0.4c1.9,2.8,5,4.4,6.9,7.1c0.7,1,1.7,2,2.8,2.7
		c0.5,0.3,1,0.5,1.5,0.1c0.5-0.4,0.2-0.8,0.1-1.3c-0.8-3.5-1.9-6.9-3.3-10.3c-0.3-0.7-1.1-1.3-1.6-1.9
		C155.7,117.1,154.7,115.8,154.2,114.3c-0.1-0.1-0.1-0.2-0.1-0.2L154.2,114.3z"/>
	<path class="st0" d="M157.9,125.9c-1.6-1-2.5-2.5-3.6-3.8c-1.2-1.5-2.5-3-4.1-4.1c-0.7-0.5-1-1.1-1.3-1.9c-0.1-0.4-0.7-0.8-0.2-1.2
		c0.5-0.5,0.8,0.3,1.2,0.4c2.6,0.4,3.8,2.3,5,4.4C156,121.7,157.2,123.6,157.9,125.9z"/>
	<path class="st0" d="M147.5,52.9c0-0.2,0.1-0.3,0.2-0.3c0.1,0.1,0.2,0.2,0.2,0.3c0,0-0.1,0.1-0.1,0.2
		C147.7,53.1,147.6,53,147.5,52.9z"/>
	<polygon class="st0" points="160.7,83.5 160.5,83.4 160.7,83.3 	"/>
	<path class="st0" d="M164.2,146.6c0,0-0.1,0.1-0.2,0.1c0,0-0.1-0.1-0.1-0.1C164,146.5,164.1,146.5,164.2,146.6z"/>
	<path class="st0" d="M145.7,49.3c0,0-0.1,0.1-0.1,0.1c0,0-0.1-0.1-0.1-0.1c0,0,0.1-0.1,0.1-0.1C145.7,49.2,145.7,49.2,145.7,49.3z"
		/>
	<polygon class="st0" points="166.8,89.6 166.9,89.7 166.8,89.7 	"/>
	<polygon class="st0" points="125.4,93.6 125.3,93.6 125.3,93.5 	"/>
	<path class="st0" d="M174.1,115.4c-0.1,0-0.1,0-0.2,0C174,115.6,174,115.6,174.1,115.4L174.1,115.4z"/>
	<path class="st0" d="M174.1,115.4c0,0.1-0.1,0.1-0.1,0.2C174.1,115.5,174.1,115.4,174.1,115.4C174.1,115.4,174.1,115.4,174.1,115.4
		z"/>
	<polygon class="st0" points="182.4,137.5 182.4,137.4 182.5,137.4 	"/>
	<path class="st0" d="M365,129.8c0.8-0.5,0.8-1.3,0.9-2c1.2-7.9,3.1-15.6,5.2-23.3c0.2-0.9,0.6-1.7,0.3-2.7
		c-0.3-0.8,0.1-1.6,0.4-2.3c2.1-5.3,3.5-10.8,5.4-16.1c1.6-4.5,3.4-9,6.1-13c1.1-1.6,1.9-3.5,2.8-5.4c1.6-3.5,3.7-6.5,6.2-9.4
		c2.2-2.6,4-5.5,5.8-8.5c0.7-1.3,1.7-2.4,2.6-3.5c1.8-2.4,4-4.6,5.7-7.2c1.3-2,3.3-3.5,4.7-5.4c3.3-4.3,7.9-7.1,11.9-10.6
		c1.4-1.3,3.7-1.7,4.8-3.6c0.3-0.5,1.5-0.4,2.3-0.8c0.9-0.4,1.9-0.7,2.7-1.3c1.7-1.1,3.6-0.4,4.8,0.5c1.2,0.9,1.5,2.8,1.3,4.5
		c-0.3,2.8-1.5,5.2-2,7.9c-0.8,3.8-2.2,7.3-4.7,10.3c-0.2,2.1-1.5,3.7-2.3,5.4c-1.2,2.3-2.6,3.9-5.2,4.9c-2.2,0.8-4.4,1.9-6.2,3.7
		c-2.1,2-4.5,3.8-6.7,5.8c-2.6,2.5-4.8,5.3-6.8,8.3c-1.7,2.6-3.6,5-5.1,7.7c-0.5,0.9-0.7,1.9-1.2,2.8c-0.7,1.2-0.1,2.2,0.7,2.9
		c0.8,0.7,1.9,0.4,2.8-0.1c1.6-1.1,3.4-2,4.7-3.4c2.5-2.5,5.3-4.6,7.8-7c3.7-3.6,7-7.6,9.5-12.3c1-2,2.4-3.7,3.8-5.5
		c0.8-1.1,1.6-1.1,2.8-0.2c2.6,2,2.7,3,1.9,6.2c-0.7,2.7-2.1,5-2.8,7.6c-0.1,0.2-0.2,0.4-0.3,0.6c-3.1,3.4-5.3,7.5-8.4,10.8
		c-2.6,2.7-5.1,5.4-7.6,8.2c-1,1.1-2,1.5-3.5,1.1c-3.2-0.9-6,0.5-8.4,2.3c-3.4,2.4-6.9,4.5-9.9,7.4c-2,2-4,3.9-5.1,6.6
		c-0.4,1-1.2,1.6-1.8,2.4c-2.5,3.5-4.1,7.5-6,11.4c-1.5,3-3.2,5.8-4.8,8.8c-0.1,0.2-0.2,0.4-0.3,0.6c1,0.6,1.7,0.5,2.5-0.3
		c3.9-3.9,8-7.6,12-11.4c2.6-2.5,5.7-4.5,8-7.4c0.7-0.8,0.9-1.8,1.6-2.5c2.7-2.4,5.2-5,7.7-7.6c0.1-0.1,0.4-0.1,0.7-0.3
		c0.2,0.8-0.9,1.6,0.1,2.4c0.2,0.1-0.2,0.6-0.4,0.7c-1.1,0.5-1.3,1.6-1.8,2.6c-1.8,3.6-4.2,6.9-6.9,9.9c-2.6,2.9-5.1,5.9-7.7,8.8
		c-1.8,2.1-3.6,4-5.7,5.7c-0.1,0.1-0.3,0.2-0.4,0.3c-2.1,3.5-5.3,5.9-7.4,9.5c-3,5.1-5.5,10.4-7.8,15.8c-1.7,3.8-3.3,7.7-4.7,11.6
		c-0.1,0.3-0.3,0.6-0.7,0.7c-0.7-1.4-0.6-2.9-0.9-4.4c-0.3-1.8-0.3-3.7-0.1-5.6c0.3-2.8-0.1-5.6,0.6-8.3c0.1-0.4,0-0.8,0.1-1.1
		c1.9-3.2,1.3-6.8,1.7-10.3C364.7,132.4,365.3,131.1,365,129.8L365,129.8z"/>
	<path class="st0" d="M378.8,119.5c2.6-6.5,6.8-11.4,11-16.5c1.1-1.4,2.4-2.6,3.4-4.1c1.7-2.3,4.5-3.2,6.7-5c1.2-1,2.8-1.8,4.1-2.6
		c0.4-0.2,0.8-0.7,1.2-0.6c0.6,0.3,1.5-0.5,1.9,0.4c0.3,0.8-0.6,1.1-1,1.6c-1.8,2.2-4,4.1-6,6.2c-1.4,1.5-2.8,2.9-4.3,4.2
		c-3,2.8-5.8,5.7-8.6,8.8C384.7,114.7,381.9,117,378.8,119.5z"/>
	<path class="st0" d="M402.7,76.2c-0.3-1.2-0.5-1.9-0.1-2.4c1.3-1.6,1.3-4.1,3.4-5.1c1.1-2.7,3.7-4.2,5.1-6.8c1.4-2.7,3.4-5,6.2-6.7
		c1.7-1.1,3.6-1.7,5-3.2c0.6-0.7,1.4-0.4,1.9,0c0.6,0.4,0,1.1-0.2,1.4c-2.3,3.2-4.3,6.5-6.9,9.3c-2.7,2.9-5.2,6.1-8.2,8.8
		C407,73.4,404.9,74.6,402.7,76.2z"/>
	<path class="st0" d="M363.1,118.4c0.1,0.1,0.2,0.2,0.2,0.4c0.1,0.2,0.1,0.4-0.1,0.5c-0.1-0.2-0.2-0.4-0.2-0.5
		C363,118.6,363.1,118.5,363.1,118.4C363.1,118.4,363.1,118.4,363.1,118.4z"/>
	<path class="st0" d="M416.6,23.2c-0.1,0-0.1,0.1-0.2,0.1c-0.2,0-0.2-0.1-0.1-0.3c0,0,0.1,0,0.2,0C416.6,23.1,416.6,23.2,416.6,23.2
		z"/>
	<path class="st0" d="M431,44.9c0,0-0.1,0.1-0.2,0.1c-0.2,0-0.2-0.1-0.1-0.3c0,0,0.1,0,0.2,0C431,44.7,431,44.8,431,44.9z"/>
	<path class="st0" d="M409.9,29c0-0.2,0-0.4,0-0.6C409.9,28.6,409.9,28.8,409.9,29z"/>
	<path class="st0" d="M365,129.8c-0.1-0.1-0.2-0.1-0.3-0.2C365.1,129.4,364.9,129.7,365,129.8C365,129.8,365,129.8,365,129.8z"/>
	<path class="st0" d="M216,247.3c2.7-1.2,3.1-1,5.2,0.7c2.2,1.7,4.3,3.6,6.1,5.7c1.5,1.7,2.8,3.4,3.6,5.5c0.1,0.1,0.1,0.3,0.2,0.4
		c1.5,1.1,1.8,2.9,3,4.2s1.8,2.7,2.5,4.1c0.2,0.4,0.2,1,0.8,1c0.6,0,1.1-0.4,1.2-0.9c0.2-2.9,1.4-5.6,1.2-8.5
		c-0.1-2.5,0.2-4.9-0.3-7.4c-0.3-1.5-0.5-3.1-1.2-4.4c-1.2-2.3-1.8-4.8-3.4-6.8c0.6-1.8-1.9-2.5-1.4-4.4c2.7,1.1,4.6,3,5.9,5.4
		c2.4,4.2,3.6,8.7,3.5,13.6c-0.1,3.6-0.2,7.3-0.3,10.9c0,1.2-0.6,2.4-1.1,3.5c-0.5,1-0.4,2.1-0.6,3.2c-0.2,0.7,0.2,1.3,0.8,1.8
		c1.5,1.3,2.9,2.8,3.9,4.6c1.1,1.9,2.2,3.8,2.6,6.1c0.7,3.7,1.5,7.4,1.6,11.3c0,0.6,0.1,1.3-0.2,1.8c-0.3,0.5-0.8,0.8-1.4,0.6
		c-0.6-0.1-0.7-0.6-0.7-1.1c0-3.2-0.7-6.4-1.7-9.4c-1.2-3.6-2.8-7-5.5-9.9c-0.5-0.6-1.2-1-1.8-0.8c-0.6,0.2-0.7,1-0.7,1.6
		c-0.5,5-1.8,9.9-3.3,14.7c-0.5,1.4-1.2,2.7-1.7,4.1c-0.5,1.4-2.1,1.5-3.2,2.2c-0.3,0.2-0.8-0.2-0.7-0.7c0.2-0.7,0.5-1.3,0.8-1.9
		c1.2-2.4,1.9-5,2.7-7.5c0.8-2.7,1.7-5.3,2.2-8.1c0.6-2.9,1-5.8,1.5-8.7c0.1-0.5-0.1-1-0.4-1.3c-3.3-4-5.1-9-8.1-13.3
		c-1.4-2-2.9-4-4.4-6c-1.1-1.4-2.4-2.5-3.8-3.6C218.3,248.7,217,248.4,216,247.3z"/>
	<path class="st0" d="M304.3,299.4c-2.2-0.3-3.3-1.4-3.7-3.1c-1.3-5.9-2.2-11.9-1.7-18c0-0.6,0.2-1.4-0.4-1.7s-1.3-0.3-2,0.2
		c-1.7,1.3-3.2,2.6-3.9,5c-0.7,2.3-1.5,4.7-2.2,7c-0.7,2.5-0.8,5-0.8,7.6c0,1-0.3,1.8-0.4,2.7c-2.3-2-3-4.1-2.5-6.7
		c0.1-0.7,0.2-1.4,0.1-2.1c-0.1-2.5,0.5-4.7,2.1-6.6c0.2-0.2,0.4-0.5,0.5-0.8c0.5-2.7,2-5,2.9-7.5c0.3-0.9,1.1-1.3,1.5-2
		c0.5-0.9,2.2-1.1,1.5-2.6c2.3-0.8,0.9-2.5,0.8-3.8c-0.2-2.7,0.4-5.3,1.4-7.6c1.3-3,2.1-6.3,4-9.1c1.3-1.9,2.1-4.2,3.7-5.9
		c0.8-0.8,1.6-1.7,2.5-2.5c1-0.8,2.2-1.1,3.5-1c0.6,0.1,1.3,0.2,1.4,1c0.1,0.6-0.2,1.3-0.8,1.6c-1.1,0.5-1.8,1.5-2.8,2.1
		c-3.8,2.3-5.2,6.2-6.6,10c-0.5,1.4-1,2.8-1.7,4.1c-1,1.7-0.6,3.4-0.7,5.2c0,0.6,0.1,1.1,0.7,1.3s1.3,0.3,1.7-0.3
		c0.8-1.2,2.2-1.9,2.9-3.3c0.6-1.4,2-2.2,3-3.4c1.2-1.4,2.7-2.5,3.9-3.9c1.7-1.8,3.8-3.1,5.7-4.8c1.3-1.2,2.9-2.3,4.2-3.5
		c1.4-1.3,3.5-1.8,5.4-2.5c0.8-0.3,1.6,0,2.1,0.9c0.7,1.3,0.7,1.7-0.6,2.4c-1.9,1-3.9,2-5.8,3.1c-2.4,1.3-4.3,3.2-6,5.3
		c-2.5,3.1-5.7,5.5-8.4,8.3c-2.6,2.8-5.1,5.6-6.4,9.3c-0.5,1.3-0.1,2.7-0.1,4c0,2.7,0.4,5.3,0.3,7.9c-0.1,2.8,0.7,5.5,0.7,8.3
		C303.5,295.7,303.7,297.5,304.3,299.4z"/>
	<path class="st0" d="M243.3,346.8c-1.1-0.7-2.2-0.5-3.3,0.1c-0.5,0.3-1.1,0.6-1.7,0.6c-2.1-0.1-2.8-1.1-1.8-3
		c0.7-1.3,1.7-2.4,2.5-3.5c2.3-3,5.9-3.8,9-5.2c1.3-0.6,2.9-0.6,4.2-1.4c0.8-0.5,1.3,0,1.9,0.3c-0.1,0.9-0.7,1.5-1.2,2.1
		c-2.4,2.9-4.8,5.9-7.3,8.7C245.1,346,244.7,347.3,243.3,346.8L243.3,346.8z"/>
	<path class="st0" d="M237.6,360.1c0,0-0.1-0.1-0.2-0.1c0.1,0,0.1-0.1,0.2-0.1s0.1,0.1,0.2,0.1C237.7,360.1,237.7,360.1,237.6,360.1
		z"/>
	<path class="st0" d="M243.3,346.7c0.1,0.2-0.1,0.4-0.1,0.4C242.8,346.8,243.1,346.8,243.3,346.7
		C243.3,346.8,243.3,346.7,243.3,346.7z"/>
	<path class="st0" d="M250.8,342.7c0.1,0.3-0.3,0,0,0.1C250.9,342.9,250.9,342.8,250.8,342.7C250.7,342.8,250.8,342.7,250.8,342.7z"
		/>
	<path class="st0" d="M271.5,183.8c2,0,3.9,0,5.7,0.8c0.3,0.1,0.6,0.2,0.9,0.2c3.2,0.4,5.5,2.2,7.7,4.3c1.2,1.1,2.6,2,3.3,3.5
		c1,2.2,1.9,4.4,0.4,6.8c-0.7,1.1-0.8,2.4-1.8,3.4c-1.1,1.1-2.2,2-3.7,2.7c-3.5,1.7-7.2,3.1-10.5,5.3c-0.4,0.3-0.8,0.3-1.3,0.1
		c-3.8-1.8-7.5-3.8-10.8-6.3c-2.2-1.7-3.7-4-4.6-6.6c-0.2-0.7-0.3-1.4-0.1-2.1c0.2-0.7,0.4-1.4,0-2c-0.2-0.4-0.1-0.5,0.1-0.8
		c0.8-1.1,2.3-1.7,2.1-3.4c2.6-1,3.8-4,6.5-4.8C267.5,184.5,269.5,184,271.5,183.8z"/>
	<path class="st0" d="M232.2,502.1c0.1,0,0.2,0.1,0.3,0.2C232.3,502.2,232.2,502.2,232.2,502.1C232.1,502.1,232.2,502.1,232.2,502.1
		z"/>
</g>
</svg>
