<?xml version="1.0" encoding="utf-8"?>
<!-- Generator: Adobe Illustrator 23.1.0, SVG Export Plug-In . SVG Version: 6.00 Build 0)  -->
<svg version="1.1" id="圖層_1" xmlns="http://www.w3.org/2000/svg" xmlns:xlink="http://www.w3.org/1999/xlink" x="0px" y="0px"
	 viewBox="0 0 561.9 610" style="enable-background:new 0 0 561.9 610;" xml:space="preserve">
<style type="text/css">
	.st0{fill:url(#SVGID_1_);}
	.st1{fill:url(#SVGID_2_);}
	.st2{fill:url(#SVGID_3_);}
	.st3{fill:url(#SVGID_4_);}
	.st4{fill:url(#SVGID_5_);}
	.st5{fill:url(#SVGID_6_);}
	.st6{fill:url(#SVGID_7_);}
	.st7{fill:url(#SVGID_8_);}
	.st8{fill:url(#SVGID_9_);}
	.st9{fill:url(#SVGID_10_);}
	.st10{fill:url(#SVGID_11_);}
	.st11{fill:url(#SVGID_12_);}
	.st12{fill:url(#SVGID_13_);}
	.st13{fill:url(#SVGID_14_);}
	.st14{fill:url(#SVGID_15_);}
	.st15{fill:url(#SVGID_16_);}
	.st16{fill:url(#SVGID_17_);}
	.st17{fill:url(#SVGID_18_);}
	.st18{fill:url(#SVGID_19_);}
	.st19{fill:url(#SVGID_20_);}
</style>
<title>LOGO-2</title>
<linearGradient id="SVGID_1_" gradientUnits="userSpaceOnUse" x1="636.7947" y1="-78.52" x2="623.8848" y2="448.3801" gradientTransform="matrix(1 0 0 -1 -333.31 518.79)">
	<stop  offset="2.000000e-02" style="stop-color:#002200"/>
	<stop  offset="0.24" style="stop-color:#8EB879"/>
	<stop  offset="0.27" style="stop-color:#004304"/>
	<stop  offset="0.71" style="stop-color:#9ABB6E"/>
	<stop  offset="1" style="stop-color:#FFD815"/>
</linearGradient>
<path class="st0" d="M278.4,329.6c-3.4,1.3-4.8,3.8-5.1,7c0,0.3,0,0.8-0.4,0.9c-1.6,0.4-1.5,1.8-1.8,3c-0.9,3.9-1.4,7.8-2.6,11.6
	c-0.8,2.7-0.3,5.7,0,8.6c1.8,1.8,1.7,4.6,3.8,6.6c-1.3,0.4-2.4,1.3-3.1,2.6c-1.2,2-2.9,3.7-4.9,5c-1,0.7-2,1.4-2.9,2.3
	c-3,2.5-7.2,3.1-10.8,1.5c-1.9-0.8-3.4-2.2-4.4-3.9c-0.2-0.3-0.5-0.6-0.4-0.9c0.5-2.6-1.4-5-0.5-7.6c0.8-2.4,1.3-4.9,2.5-7.2
	c2-3.7,5-6.6,7.3-10.1c0.6-0.8,1.1-1.6,1.5-2.5c0.1-0.4,0.3-0.8,0.7-1c2.7-1.8,4.2-4.6,6.1-7.1c1.4-1.9,2.5-4,4.3-5.6
	c0.9-1,2-2,3.1-2.8c1.1-0.7,1.9-2,2-3.3c-0.8-0.2-1.5-0.5-2.2-0.6c-0.9-0.3-1.9,0.1-2.3,1c0,0.1-0.1,0.2-0.1,0.3
	c-0.3,0.9-0.8,1.6-1.5,2.3c-2.1,2.5-4.2,5.1-6.4,7.6c-1.1,1.3-1.9,2.9-3.8,3.3c-0.5,0.1-0.8,0.9-1.1,1.3c-1.7,2.1-3.1,2.4-5.4,1.1
	c-5.2-2.8-5.4-9.1-0.6-12.4c2.6-1.7,5.6-3,8.6-3.6c3.7-0.8,7.3-2.3,10.5-4.4c0.8-0.6,1.6-1.5,3-0.8c-0.7-1-1.8-1.7-3-2.1
	c-1.6-0.4-3.1-1.1-4.5-1.9c-0.6-0.3-1.2-0.5-1.9-0.6c-0.4-0.1-0.9-0.1-1.2-0.3c-2.9-3-7-4.4-9.5-7.8c-0.3-0.4-0.6-0.8-1.1-1
	c-2.9-1.1-4.5-3.6-6.5-5.7c-3.3-3.6-6.4-7.3-9.3-11.2c-1.7-2.3-3.8-4.2-5-6.9c-0.5-1.2-0.5-2.6-1.1-3.6s-2-1.4-2.7-2.7
	c-2-3.5-4.7-6.5-6.3-10.3c-0.3-0.8-1.1-1.2-1.5-1.9c-2.6-4.3-4.1-9.1-4.6-14.1c0-0.7-0.3-1.4-0.7-2c-1.4-1.4-2.2-3.2-2.3-5.1
	c0-1.3-1.2-2.3-0.8-3.7c0-0.3-0.1-0.5-0.3-0.7c-2.6-1.4-2.5-4.2-3.1-6.5c-0.7-2.7-1.1-5.4-2-8.1s-1-5.4-1.3-8.1
	c-0.1-1,0.5-2.1,0.7-3.2c0.1-0.6,0.7-1.6-0.8-1.2c-0.3,0.1-0.5-0.5-0.4-1c0.9-2.5,0.5-5.1,0.2-7.6c-0.4-1.9-0.4-3.9-0.2-5.8
	c0.3-1.8-0.4-3.9-0.3-5.8c0.1-1.4-0.3-2.8,1-3.9c0.2-0.1,0.3-0.5,0.2-0.6c-1.7-1.8,0.3-4-0.6-5.9c-0.3-0.7,0.6-1.7,1-2.3
	c1-1.6,1.5-3.5,1.7-5.3c0.1-0.5-0.1-1.7,1.2-1.4c0.2,0,0.3-0.3,0.4-0.5c0.5-2.4,2-4,3.6-5.7c0.4-0.6,0.5-1.3,0.2-2
	c-0.2-0.8,0-1.7,0.5-2.4c2.5-3.5,4.2-7.4,6.4-11c1.5-2.4,2.9-4.9,5.7-6.1c0.5-1.7,1.9-2.7,3-4c2-2.4,3.8-4.9,5.8-7.2
	c2.2-2.6,4.8-4.8,7.7-6.6c1.3-0.8,2.8-1.3,4.1-2.3c0.7-0.4,1.3-0.8,1.9-1.2c2.9-3.2,6.9-4,10.7-5.3c1.3-0.5,2.5-1.1,3.7-1.8
	c1.1-0.6,2.7-0.3,3.5-1.7c0.2-0.3,0.6-0.1,0.9,0s0.8,0.4,0.9,0.3c1.6-2.1,3.8-0.2,5.6-0.8s3.8-1,5.7-1.6s4.1-0.8,5.9-1.8
	c0.6-0.3,1.2,0,1.7,0.1c2.3,0.5,4.6,0.5,6.9-0.1c1.2-0.1,2.3-0.1,3.5,0.1c2.8,0.1,5.6,0,8.3,1c2.3,0.8,4.9,0.5,7.3,1.3
	c4.3,1.4,8.8,1.5,13.1,3.1c0.5,0.2,1,0.3,1.5,0.3c3.6-0.2,6.5,1.8,9.7,2.8c3.1,1.3,6.2,2.7,9.1,4.4c3,1.5,5.9,3,8.8,4.5
	c0.6,0.2,1,0.7,1.3,1.2c0.6,1.2,1.6,2.2,2.7,2.9c0.8,0.6,1.5,1.2,2.2,2c0.7,0.7,1,1.9,2.2,2.2c0.2,0.1,0.5,0.5,0.5,0.8
	c0.6,2.7,2.6,4.5,4.3,6.5s2.5,4.3,3.9,6.3c0.6,1,1.2,1.9,2,2.8c0.5,0.5,1,0.9,0.8,1.7c-0.1,0.5-0.2,0.8,0.5,0.8
	c0.6,0,1.1,0.5,1.2,1.1c0.2,1.6,1.7,2.7,1.6,4.2c-0.1,1.3,1.8,1.1,1.5,2.4c1.7,2.3,2.4,4.9,3.5,7.5c0.6,1.3-0.5,2.6,0.3,3.8
	s0.5,3.3,2.2,4.3c0.1,0.2,0.2,0.4,0.1,0.7c-1.5,0.9-0.2,1.9,0.2,2.5c1.2,2.7,0.9,5.5,1.1,8.2c0,0.7,0.1,1.4,0.3,2.1
	c1.1,2.3,0.2,4.5-0.2,6.6c0,0.2-0.2,0.4-0.2,0.7c0.7,2.7,0.5,6.3,0.2,9c-0.2,2.1-1.3,4.2-0.2,6.4c0.1,0.2,0,0.5-0.1,0.7
	c-1.2,4.3-1.5,8.8-3.5,13c-1.5,3.5-2.7,7.2-3.4,11c-0.6,3-1.4,6-2.6,8.9c-0.9,2-1.4,4.4-3.4,5.8c-1.3,1-1.9,2.6-2.8,3.9
	c-2.5,3.8-5.5,7.1-7.9,11c-1.3,2.1-2.8,4-3.6,6.4c-0.5,1.1-1.3,2.1-2.3,2.7c-1.7,1.3-3,3-4.9,4.1c-1.2,0.6-2,2.2-3.1,3.3
	c-1.8,1.5-3.7,2.8-5.7,3.9c-2.1,1.4-4.2,2.9-6.1,4.5c-1.5,1.4-3.6,2-5.4,3.1c-1.6,0.8-3,1.9-4.2,3.2c-0.7,1-1.7,1.8-2.9,2.3
	c-3.6,1-6.1,3.8-9.3,5.7c-2.7,1.6-5.7,2.9-8.1,5s-5.5,3.1-8.3,4.6c-3.1,1.7-6.2,3.5-9.4,5.1c-1.6,0.7-2.5,2.5-2.2,4.2
	c0.4,1.7,0.3,3.5-0.2,5.3c-0.6,1.8,0.1,3.8,0,5.7c0,0.6,0,1.2,0.1,1.8c0.7,5.1-0.5,10.1-1.3,15.1c-0.5,2.9-2.1,5.3-3.7,7.6
	c-1.3,1.9-2.8,1.6-4.8,0.2c-3.2-2.2-3.9-5.3-3.9-8.9s0.1-7.1,1.3-10.6c0.7-1.8,0.4-4,1.9-5.5C274.7,335,277.7,333,278.4,329.6z
	 M292.4,204.9c1.9-2.3,3.2-4.8,6.3-5.2c0.2-0.1,0.5-0.2,0.7-0.3c4.1-2.5,7.9-5.6,11.3-9c2-2.1,2.1-5,3.1-7.5c0.1-0.3,0-0.7-0.1-1
	c-1.2-4-3.5-7.5-6.8-10c-3-2.4-6.7-3.8-10.5-4.1c-0.7-0.1-1.3-0.3-1.9-0.6c-2.1-0.9-4.4-1.1-6.5-0.6c-0.8,0.2-1.6,0.4-2.4,0.4
	c-3.2,0.3-5.9,2.1-9,2.5c-0.1,0-0.3,0.2-0.4,0.3c-2.5,2-4.7,4.3-5.7,7.4c-0.7,2.2-1.1,4.7-0.1,6.8c1.4,3.2,3.4,6.1,6,8.5
	c2,1.8,4,3.6,6.2,5.4C285.7,200.2,289.1,202.4,292.4,204.9L292.4,204.9z M254.1,272.4c1.7,0.9,1.6,2.6,2.3,3.8
	c2,3.6,3.2,7.6,3.5,11.7c0,0.8-0.2,1.7-0.1,2.5c0,2.1,2.7,4.1,4.1,3c2-1.5,3.6-3.3,3.7-6.2c0.1-6.4-3-12.1-4.3-18.2
	c-0.5-2.4-2.3-4.5-3.1-6.9c-0.4-0.9-0.5-1.9-0.4-2.9c0.8-3.7,1.1-7.5,0.9-11.3c-0.2-2-0.3-4-0.2-5.9c0.5-4.2-1.1-8-2.4-11.8
	c-0.8-2.3-2.8-4-3.6-6.4c-0.1-0.3-0.3-0.6-0.6-0.8c-1.8-1.6-4-2.7-6.4-3.1c-2.4-0.5-3.3,0.6-3,3c0.1,1.1,0.7,2.1,1.7,2.6
	c1,0.6,1.7,1.6,2.1,2.7c0.6,1.7,1.4,3.4,2.3,5c1.9,3.3,1.7,6.8,2.1,10.3c0.3,2.7-0.5,5.4-0.1,8.1c0.1,0.4-0.1,0.7-0.5,0.8
	c0,0-0.1,0-0.1,0c-1.3-1.7-2.6-3.5-3.7-5.4c-1.7-3.5-4.1-6.6-7-9.1c-0.7-0.6-1.2-1.2-1.6-2c-1-2-3.1-2.8-4.5-4.5
	c-0.3-0.3-0.7-0.4-1.2-0.4c-0.7-0.1-1.4-0.3-2.1-0.7c-2.8-1.4-4.8-0.3-5.3,2.7c-0.1,0.4-0.1,0.8-0.1,1.2c-0.2,2.2,0.9,3.5,3.1,3.6
	c1.5-0.1,2.9,0.6,3.9,1.8c1.5,1.9,3.2,3.8,5,5.5c0.3,0.3,0.5,0.7,0.7,1.1c0.6,1.1,1.1,2.2,1.8,3.3c2.2,3.2,4,6.7,5.5,10.3
	c0.3,0.9,1.3,1.3,1.3,2.4c0.1,2.7,0,5.4-0.5,8.1c-0.8,4.1-3.1,7.7-3.4,11.9c-0.1,0.3-0.2,0.6-0.5,0.9c-1.6,2-1.8,4.8-4,6.6
	c-1.4,1.2-0.1,3.5,1.8,3.6c0.7,0.1,1.5,0.1,2.2,0.1c2.1-0.1,3.8-0.9,4.7-3.1c0.4-0.9,0.9-1.8,1.5-2.5c1.1-1.5,1.8-3.2,2.1-5
	C252.3,279,253.1,275.7,254.1,272.4z M319.9,252.8c0.5-1.3,0.9-2.3,1.3-3.4c0.9-2.5,2.5-4.6,3.9-6.9c1.4-2.4,3.2-4.4,5.4-6.1
	c1.6-1.3,3-2.9,4-4.6c0.8-1.3,0.5-2-0.9-2.8c-0.3-0.2-0.6-0.4-0.9-0.5c-1.7-0.5-3.6-1.5-5.3-0.3c-1.3,0.9-2.5,1.9-3.8,2.7
	c-2.4,1.5-3.5,4.2-5,6.3c-4,5.4-6.4,11.9-7,18.6c-0.5,4-1.9,7.9-4.2,11.3c-1,1.6-2.7,2.9-3,4.7c-0.6,2.8-2.2,5.2-2.8,8.1
	c-0.7,2.9-0.8,5.9-0.3,8.8c0.3,2.4,2.6,4.1,5,3.7c0.2,0,0.3-0.1,0.5-0.1c1.2-0.3,2.9-2.1,2.6-3c-0.6-2.1-0.2-4.1-0.1-6.1
	c0.1-3.3,1.5-6.1,3-8.9c0.4-0.6,0.5-1.6,1.7-1.9c-0.1,1,0,2.1,0.4,3.1c0.3,0.8,0.2,1.7,0,2.5c-0.7,1.6-0.6,3.5,0.3,5
	c0.7,1.7,1,3.5,1,5.3c0.2,3.2,2,5.2,5.1,5.2c2.1,0,2.6-0.5,3.3-2.6c0.5-1.5,0.4-3.2-0.3-4.6c-0.4-1-0.7-2-0.8-3.1
	c-0.3-3.3-0.3-6.6,0-9.9c0-0.8,0-1.6-0.2-2.4c-0.5-2.1-0.3-4.3,0.6-6.3c0.7-1.4,1.5-2.8,2.3-4.1c1.2-2.2,2.8-4.1,4.6-5.8
	c2.3-1.9,4.5-4,6.5-6.1c2-2.1,4.1-4.1,6.3-6c1.4-1.2,3.2-1.8,5-1.9c1.6-0.1,4.2-2,4.5-3.5c0.3-0.9,0.1-1.9-0.6-2.5
	c-1.5-1.4-3.5-2-5.5-1.8c-3.2,0.5-5.5,2.3-7.8,4.2c-3.2,2.6-6.3,5.3-9.3,8.2c-2.3,2.3-5.2,4.1-7.3,6.7
	C321.5,252.5,320.7,252.8,319.9,252.8z M258.9,172.6c0.2-0.5-0.2-1-0.4-1.7c-0.9-2.4-3-3.4-5-4.1c-1.5-0.5-3.2-1.2-4.8-0.6
	c-2.6,0.7-4.7,2.7-5.6,5.2c-1.2,3.2-1.2,3.2,0.4,6.1c0.4,0.7,0.9,1.2,1.6,1.6c0.8,0.4,1.5,0,2.1-0.3s0.3-1,0.2-1.5
	c-0.4-1.3,0.1-2.6,0.3-3.9s2.1-2.3,3.5-2.4c1.2,0.2,2.2,1.1,2.7,2.2c0.2,0.8,0.1,1.7-0.2,2.4c-0.1,0.4-0.4,0.9,0.1,1.1
	c0.9,0.4,1.7,1.2,2.9,0.9c1-0.1,1.8-0.9,2-1.9C258.9,174.7,259,173.6,258.9,172.6L258.9,172.6z M324.2,178.9c0,0.4,0,0.8,0.1,1.2
	c0.2,1.3,1.6,2.8,2.5,2.7s1.5-1,1.4-2.8c-0.1-1.4,0.8-2.6,2.1-3c1.3-0.7,2.9-0.6,4,0.4c1.1,0.9,1.5,2.4,1,3.8
	c-0.1,0.4-0.4,0.8-0.5,1.1c-0.3,0.6-0.1,1.4,0.5,1.8c0.3,0.1,0.5,0.2,0.8,0.1c2.1,0,4.7-2.8,4.6-4.9c-0.2-3.4-2.5-6.3-5.7-7.3
	c-2-0.6-4.1-0.6-6,0.2C326.2,173.2,324.3,175.9,324.2,178.9L324.2,178.9z"/>
<linearGradient id="SVGID_2_" gradientUnits="userSpaceOnUse" x1="446.6435" y1="-83.1805" x2="433.7335" y2="443.7196" gradientTransform="matrix(1 0 0 -1 -333.31 518.79)">
	<stop  offset="2.000000e-02" style="stop-color:#002200"/>
	<stop  offset="0.41" style="stop-color:#004304"/>
	<stop  offset="0.66" style="stop-color:#8EB879"/>
	<stop  offset="1" style="stop-color:#FFD815"/>
</linearGradient>
<path class="st1" d="M216.1,464.4c-0.6-0.2-1-0.3-1.4-0.1c-0.8,0.4-1.7,0.1-2.1-0.7c0,0,0-0.1,0-0.1c-1.2-2.3-3.1-4.1-4-6.6
	c-0.2-0.9-0.9-1.6-1.7-2c-0.4-0.2-0.7-0.5-0.9-0.8c-3.3-4.6-7.5-8.4-11.3-12.5c-0.5-0.5-1.2-0.9-1.7-1.4c-0.9-0.9-1.7-1.3-2.6,0.1
	c-0.3,0.3-0.7,0.5-1.1,0.5c-2.5,0.4-4.4,1.8-6.3,3.3c-2.2,1.8-4.8,3-7,4.7c-0.5,0.4-1.2,0.6-1.8,0.7c-1.1,0.2-2.2,0.8-2.9,1.7
	c-1.1,1.2-2.5,2.1-4,2.8c-1.4,0.7-2.5,1.8-3.1,3.2c-0.7,1.7-2.2,2.2-3.4,2.8c-2.1,1.2-4.7,3-5.9,4.9c-0.8,1.3-1.7,2.5-2.9,3.5
	c-2.3,1.9-3.9,4.3-5.7,6.6c-0.7,0.9-1.4,2-1.2,2.9c0.1,0.6,1.5,0.9,2.3,1.5c1.1,0.8,2.8,0.9,3,2.7c0,0.1,0.2,0.4,0.3,0.3
	c1.7-0.3,2.3,1.7,3.7,1.9c1,0.2,1.9,0.7,2.6,1.5c2.1,2.2,5,3.2,7.4,5c1.8,1.6,3.8,3,5.9,4.2c1.3,0.5,2.6,1.1,3.8,1.8
	c2.8,2,4.6,5.1,5.1,8.5c0.4,3.1-3.3,6.4-6.2,5.4c-3.7-1.2-7.2-3-10.3-5.3c-0.8-0.8-1.8-1.3-2.9-1.4c-0.7-0.2-1.4-0.5-2-1
	c-4.8-2.9-9.4-6.2-14-9.4c-2-1.3-4-2.7-6-4c-1.1-0.7-2.5-0.8-3.7-1.5c-3.4-1.7-6.3-4.3-9.9-5.7s-7.1-3.4-11.1-4.2
	c-2-0.4-3.8-1.6-5.9-1.6c-2.3-2.6-6.1-0.9-8.6-3.1c-0.5-0.4-1.4-0.3-2.2-0.4c-2.4-0.4-4.7-1.2-7-1.5c-3.8-0.6-7.6-1.5-11.5-1.7
	c-1.4-0.1-2.6-0.6-3.9-0.7c-4.2-0.3-8.2-1.7-12.4-2.2c-2.4-0.2-4.7-0.7-7-1.5c-3.1-1.3-6.4-1.5-9.5-2.3c-5-1.4-10.2-2.2-14.9-4.8
	c-0.5-0.3-1.1-0.4-1.7-0.4c-0.6,0-1.2-0.1-1.7-0.4c-2.7-1.8-5.9-2.5-8.9-3.7c-1.3-0.7-2.5-1.5-3.6-2.5c-3.5-2.5-6.2-5.9-8.9-9.2
	c-0.5-3.8-3.5-6.9-2.3-11.1c0.4-1.6,0.1-3.3,2.2-4c0.4-0.1,0.5-0.8,0.7-1.3c1.9-3.2,5.1-5.3,8.7-5.9c0.3,0,0.5,0,0.7-0.1
	c3.3-0.9,3.4-1,6.3-0.4c1.9,0.3,3.8,0.4,5.7,0.3c3.7,0.1,7.1,1.5,10.7,2.4c1.3,0.3,2.5,1.4,3.9,2.1c2,1,4.2,1.6,6.5,1.6
	c0.3,0,0.8-0.1,1,0.1c2,1.7,4.7,2.1,6.8,3.5c1.6,1,3.3,1.8,5.1,2.4c4,1.6,7.8,3.7,12,4.6c1,0.2,1.6,1.1,2.5,1.4
	c1.5,0.5,3.1,0.9,4.6,1.5s3.3,1,4.1,2.9c0.1,0.3,0.5,0.4,0.8,0.5c3.4,0.6,6.6,2,9.4,4.1c0.9,0.7,2,1.2,3.2,1.4
	c1.8,0.2,2.8,2,4.6,2.3c1.8,2.3,4.6,3.1,7,4.6c1.5,1,2.8,2.5,4.8,2.7c1.8,0.2,3.6,0.7,5.2,1.5c2.5,1.1,5,2.5,7.3,4.1
	c0.3,0.2,0.6,0.4,0.5,0.8c-0.2,1.7,1.2,2,2.2,2.7c0.9,0.7,2.2,0.6,2.9-0.2c0,0,0,0,0,0c1-0.9,2-1.6,3.2-2.2c1.1-0.7,1.8-2.1,2.9-3
	s1.9-1.9,3.4-1.7c0.3,0.1,0.7-0.1,0.8-0.4c0.5-1.9,2.3-2.4,3.7-3.3c3.2-2.4,6.5-4.6,9.9-6.5c2.5-1.3,4.4-3.5,7-4.5
	c4.1-1.6,7.3-4.6,11.2-6.5c2.5-1.2,5.3-1.9,7.7-3.3c0.2-0.1,0.5-0.2,0.7-0.3c0.7-0.2,1.8-1,1.5-1.3c-0.6-0.7-0.7-2-1.9-2
	s-1.8-0.8-2.7-1.3c-3-2-5.8-4.4-8.1-7.2c-1.3-1.3-2.2-3-2.6-4.8c-0.4-2-1.2-3.9-1.1-6c0-1.3,0.3-2.6,0.7-3.9
	c0.6-1.6,1.5-3.1,3.6-3.3c1.4-0.1,2.5-1.3,3.9-1.4c2.1-0.2,3.9-0.2,5.5,1.4c1,0.8,1.8,1.7,2.4,2.8c0.1,0.2,0.3,0.5,0.5,0.5
	c2.1,0.1,2.7,2.1,3.7,3.4c2.7,3.7,5.2,7.5,7.5,11.5c0.4,1,0.9,1.9,1.5,2.8c0.6,0.8,0.8,1.8,2.1,1.9c0.9,0.1,0.9,1,0.9,1.6
	c0.2,1.1,0.4,2.1,1.6,2.5c0.4,0.2,0.7,0.5,0.8,0.9c1.5,3.4,3.8,6.3,5.3,9.7c1.8,4.2,3.7,8.3,5.8,12.3c0.8,1.5,1.3,3.2,2,4.8
	S215.6,462.8,216.1,464.4z M17.7,425.7c-2.2-0.1-2.6,0.2-3.9,1.9s-0.3,3.3-0.7,5c-0.2,1,0.4,2,1.4,2.3c2.3,1.1,4.7,2.1,7.1,3
	c4.3,1.4,8.8,1.5,13.3,1.9c3.9,0.3,7.8,0.7,11.7,1c1.3,0.1,2.6,0.4,3.9,0.9c0.8,0.5,1.9,0.3,2.5-0.4c0.7-0.7,0.3-1.3,0.1-2
	c-1-3.1-2.8-5.5-6-6.5c-1.3-0.4-2.4-1.1-3.4-2c-0.4-0.5-1-0.9-1.6-1c-2.1-0.3-3.9-1.3-5.9-1.8c-5.7-1.4-11.3-4.1-17.4-2.2
	C18.4,425.8,18,425.8,17.7,425.7z"/>
<linearGradient id="SVGID_3_" gradientUnits="userSpaceOnUse" x1="780.9636" y1="-74.9919" x2="768.0436" y2="451.9181" gradientTransform="matrix(1 0 0 -1 -333.31 518.79)">
	<stop  offset="2.000000e-02" style="stop-color:#002200"/>
	<stop  offset="0.41" style="stop-color:#004304"/>
	<stop  offset="0.66" style="stop-color:#8EB879"/>
	<stop  offset="1" style="stop-color:#FFD815"/>
</linearGradient>
<path class="st2" d="M341.6,460.9c0.4-0.4,0.7-0.9,0.7-1.5c-0.1-2.5,0.9-4.7,1.3-7c0.6-2.8,1.4-5.6,2.5-8.2c0.2-0.7,0.5-1.4,1-2
	c0.5-0.4,0.7-1,0.6-1.6c-0.6-1.4,0.2-2.3,0.9-3.4c0.5-0.8,0.8-1.7,1.2-2.4c2.3-3.8,4.6-7.5,8.1-10.4c2-1.7,3.9-3.6,5.9-5.3
	c3.4-2.9,7.4-4.7,11.4-6.5c1.4-0.4,2.9-0.6,4.4-0.4c3.1,0.1,6.3-0.3,9.4,0.4c0.4,0,0.8,0.1,1.2,0.4c3.3,2.4,7.2,4.1,9.2,7.8
	c1.7,2.8,2.9,6,3.3,9.3c0.2,2.2,0.3,4.5,0.4,6.7c0.1,2.1-1.2,3.8-1.9,5.6c-1,2.3-2.1,4.5-3.4,6.6c0,0.1,0,0.2-0.1,0.2
	c-2.1,1.2-2.9,3.5-4.7,5c-0.9,0.7-1.7,1.6-2.5,2.4c-3,2.9-6.6,5-10.6,6.1c-1,0.3-1.9,0.7-2.7,1.2c-2,1.3-4.3,1.4-6.5,1.5
	c-1.2,0.1-2.2,0.7-3.3,0.9c-2.1,0.3-4.2,0.9-6.4,0.3c-1.4-0.5-2.9-0.1-4,0.8c-0.7,0.7-1.8,0.2-2.7,0.4c-1.1,0.2-1.5,0.6-1,1.7
	c0.6,1.3,1.4,2.6,2.2,3.8c1.5,1.4,2.8,3,4,4.7c0.3,0.5,0.8,0.8,1.3,1c3.2,1.2,6.1,3,9.6,3.5c2.9,0.4,5.7,1.5,8.6,2.1
	c3,0.9,6.2,1.2,9.3,1c2.8-0.3,5.3,0.5,7.9,0.8c1.8,0.2,3.6,0.2,5.4-0.2c2.7-0.6,5.7-0.5,8.1-2.3c0.1-0.1,0.3-0.2,0.5-0.2
	c3.9,0.1,6.6-2.5,9.8-4.1c0.2-0.1,0.6-0.1,0.7-0.2c2.9-3.2,7-4.8,10.4-7.5c0.8-0.7,1.8-0.8,2.6-1.4c1.5-1.2,3.1-2.1,4.2-3.8
	c0.2-0.4,0.5-0.7,0.9-0.9c3.6-2.1,6.5-5,9.6-7.8c1.9-1.7,3.8-3.5,5.6-5.4c0.9-1,1.9-1.8,3-2.5c2.8-1.8,5.3-4,7.4-6.5
	c1-1.1,2.3-2,2.9-3.4c0.2-0.3,0.6-0.6,0.9-0.8c4-2.3,6.4-6.3,10-9c2.2-1.5,4.2-3.2,6-5.1c1.5-1.8,3.9-2.5,5.2-4.5
	c0.2-0.3,0.9-0.4,1.3-0.6c2.1-0.8,4-1.9,5.8-3.2c2.2-1.5,4.9-2.3,7.3-3.6c1.8-0.9,3.7-1.6,5.6-2.1c2.1-0.9,4.3-1.6,6.6-2
	c3.6-0.5,6.9-2.5,10.6-2.1c0.5,0.1,1-0.1,1.4-0.4c1.7-1.2,3.5-0.7,5.2-0.3c1.4,0.3,2.8,0.4,4.2,0.3c4.1-0.1,8.1,0.6,11.9,2
	c1.8,0.6,3.4,1.8,5.2,2.3c0.8,0.4,1.5,1.1,1.9,1.9c1.8,3,2.5,6.6,1.8,10.1c-0.1,0.7-0.4,1.4-0.9,2c-2.5,2.5-4.5,5.6-8.2,6.5
	c-1.4,1.8-4,0.8-5.4,2.7c-0.4,0.3-0.9,0.4-1.4,0.3c-1.8-0.5-3.4,0.4-5.1,0.5c-2.6,0.2-5.3,0.8-7.9,0.3c-3.3-0.6-6.6,0-9.9,0.1
	c-2.7,0-5.3,0.9-7.9,1.4c-2.4,0.5-4.7,1.6-7.3,1.4c-2.1,0-4.1,0.7-5.7,1.9c-1.3,1-2.8,1-4.1,1.5c-0.5,0.2-1.1,0-1.5,0.2
	c-2,1.4-4.4,2-6.6,3c-4.6,1.9-8.4,5-12.2,8.1c-2.7,2.2-6,3.6-8.9,5.6c-4,2.8-8.6,4.8-11.9,8.6c-2.5,0.9-4,3.2-6.1,4.5
	c-0.6,0.4-1.2,0.9-1.7,1.4c-1.1,1.1-2.4,2-3.7,2.7c-3.5,1.9-6.9,3.9-10.3,5.9s-6.7,4.4-10.8,5.3c-0.8,0.2-1.6,0.6-2.3,1
	c-5.3,2.5-10.9,4.3-16.7,5.5c-1.5,0.1-3,0.5-4.3,1.2c-0.8,0.5-1.7,0.7-2.6,0.5c-1.7-0.5-3.2,0.1-4.7,0.4c-2,0.4-4.1,0.3-6.1-0.2
	c-1.8-0.3-3.6-0.4-5.4-0.3c-2.7,0.1-5.3-0.4-7.8-1.5c-3.1-1.5-6.4-2.2-9.6-3.5c-2.4-1-4.6-2.3-6.5-3.9c-3.6-2.9-5.6-7.2-8.8-10.3
	c-0.2-0.2-0.4-0.5-0.4-0.9c-0.2-2.1-2.1-3.5-2.3-5.7c0-0.5-0.4-0.4-0.7-0.4c-1.3-0.2-2.6-0.5-3.9-0.7c-3.3-0.3-5.9-2.1-8.5-3.9
	c-1.1-0.9-1.6-2.4-1.1-3.8c0.5-1.2,1.8-1.9,3.1-1.7c0.4,0,0.8,0,1.2,0.1C336.1,460.5,338.9,460.4,341.6,460.9z M354.4,461.6
	c1.7,0,3.4-0.2,5.1-0.4c5.4-0.3,10-2.7,14.4-5.6c1.1-0.6,2.1-1.4,3-2.4c1.8-2.4,3.8-4.7,5-7.6c0.4-0.9,0.2-2,0.8-2.8
	c0.9-1.3,1.2-2.9,0.8-4.4c-0.3-2-1.7-3.2-2.8-4.7c-1.3-1.8-3-2.3-4.7-2.8c-1.8-0.5-3.8-0.4-5.5,0.4c-2.7,1-4.9,2.8-7.2,4.3
	c-1.8,1.1-3.7,2.5-4.4,4.8c-0.6,1.8-2.4,2.9-2.7,4.9c-0.2,0.5-0.5,0.9-0.9,1.2c-1.3,1.1-2.2,2.7-2.5,4.5c-0.6,2.5-1.2,5-1.7,7.5
	s0.1,3.5,2.8,3.3L354.4,461.6z M531.1,410.2c-1.5-0.1-3-0.1-4.5,0c-3.5,0.6-6.9,1.8-10,3.6c-1.2,0.5-1.7,1.9-1.1,3.1
	c0,0,0,0.1,0.1,0.1c1.1,2.8,3.8,4.5,6.8,4.4c0.5,0,1.1-0.3,1.3,0.3c0.3,0.9,1,0.7,1.6,0.8c1.1,0.2,2.1,0.3,3.2,0.3
	c3-0.1,5.9,0.7,8.9,0.1c0.5,0,1,0,1.5,0.1c4,0.5,7.7,0.5,11-2.5c1.7-1.5,1.9-4.5-0.1-5.6c-2-1.3-4.3-2.2-6.6-2.7
	C539.2,411.2,535.2,410.6,531.1,410.2z"/>
<linearGradient id="SVGID_4_" gradientUnits="userSpaceOnUse" x1="617.5104" y1="-241.7698" x2="604.6004" y2="285.1302" gradientTransform="matrix(1 0 0 -1 -333.31 518.79)">
	<stop  offset="2.000000e-02" style="stop-color:#002200"/>
	<stop  offset="0.23" style="stop-color:#004304"/>
	<stop  offset="0.76" style="stop-color:#8EB879"/>
	<stop  offset="1" style="stop-color:#FFD815"/>
</linearGradient>
<path class="st3" d="M270.8,465.7h1.3c4.4,0,8.8,0.2,13.3,0c4.3-0.2,8.6,0.8,12.8,1.7c2.6,0.5,5.2,1,7.8,1.5c2.1,0.6,4.1,1.3,6,2.3
	c0.9,0.4,1.7,1,2.6,1.4c2.6,0.9,4.4,2.9,6.5,4.5c2.5,1.9,4.8,4,7,6.2c0.9,0.9,1.1,2,1.8,2.9c0.9,1.3,2.1,2.4,2.6,4.1
	c0.5,1.5,0.8,3,0.8,4.6c0,2.7-0.3,5.4-1,8.1c-0.2,0.8-0.6,1.5-1,2.2c-1.9,3.2-4.9,5.3-7.5,7.8c-2,1.9-4.4,3.2-6.5,4.8
	c-0.6,0.4-1.3,0.7-2,1c-2.6,1.3-5.3,2.3-8,3.2c-3.8,1.2-7.5,3.2-11.6,3.5c-1.1,0.1-2.1,0.4-3.1,0.8c-2.5,0.8-5.2-0.2-7.6,0.7
	c-1.1,0.4-2.5-0.1-3.4,1c-0.2,0.2-0.6,0.1-0.9,0.1c-2.9-0.7-6,0-8.9-0.4c-3.6-0.7-7.2-1.1-10.8-1.2c-1.1-0.1-2.1-0.3-3.1-0.8
	c-2.9-1.2-6-1.8-8.7-3.6c-0.5-0.3-1-0.5-1.6-0.6c-0.9-0.1-1.8-0.5-2.5-1c-2.8-2-6.3-2.9-9.2-4.7c-5.4-3.3-10.3-7.1-13-13.1
	c-0.1-0.2-0.2-0.4-0.3-0.7c-0.3-5.6-0.5-11.2,4-15.5c1.4-1.3,2.1-3.1,3.5-4.5c1.9-2.2,4.1-4.2,6.3-6c3.2-2.2,6-5.3,10.2-5.8
	c0.3,0,0.8-0.3,0.8-0.5c0.4-1.7,1.8-1.5,3-1.3c1.7,0.2,2.9-1.1,4.5-1.2C260.1,466.9,265.4,465.6,270.8,465.7z M272.7,471
	c-2.1,0.1-4.1,0.4-6.2,0.8c-1.8,0.6-3.7,1-5.6,1.1c-0.6,0.1-1.1,0.2-1.6,0.5c-2.5,1.3-5.1,2.4-7.6,3.7c-2.6,1.4-5.7,2.1-7.7,4.6
	c-0.3,0.3-0.7,0.4-1.1,0.5c-1.7,0.9-2.9,2.5-3.6,4.3c-0.5,1.3-0.2,2.6-0.3,4c-0.4,3.2,1.6,5.4,3.9,6.8c1.7,1.1,3.5,2,5.4,2.6
	c1.6,0.4,2.8,1.8,4.5,1.9c3.4,0.4,6.7,1.1,9.8,2.2c0.2,0.1,0.3,0.1,0.5,0.2c2.2,0.1,4.4,0.2,6.6,0.4c1.7,0,3.4-0.2,5.1-0.4
	c1.2,0,2.3-0.1,3.4-0.2c2.4-0.3,4.6-1.5,7.1-0.8c0.3,0.1,0.8-0.2,1.2-0.2c2.9-0.3,5.7-1.3,8.5-1.8c3.5-0.7,6.8-1.9,9.8-3.8
	c3.1-1.7,5.4-4.5,6.6-7.8c0.9-2.6,1.6-5.1-0.8-7.4c-0.6-0.8-1.1-1.6-1.5-2.5c-0.2-0.3-0.2-0.6-0.5-0.8l-6.2-4.1
	c-2.3-1.5-5.2-1.6-7.5-2.9c-0.4-0.1-0.8-0.1-1.2,0c-1.1,0.2-2.3,0.2-3.4-0.2c-1.3-0.4-2.6-0.6-3.9-0.8
	C281.9,471,277.3,471,272.7,471L272.7,471z"/>
<linearGradient id="SVGID_5_" gradientUnits="userSpaceOnUse" x1="614.166" y1="-79.0812" x2="601.246" y2="447.8289" gradientTransform="matrix(1 0 0 -1 -333.31 518.79)">
	<stop  offset="2.000000e-02" style="stop-color:#002200"/>
	<stop  offset="0.41" style="stop-color:#004304"/>
	<stop  offset="0.66" style="stop-color:#8EB879"/>
	<stop  offset="1" style="stop-color:#FFD815"/>
</linearGradient>
<path class="st4" d="M276.2,403.8c1.3-2.9,3.8-4.8,4.9-7.7c0.2-0.4,0.6-1.2,0.8-1.1c1.7,0.3,1.2-2.1,2.6-2.1
	c1.2-2.3,3.6-2.8,5.7-3.8c0.4-0.2,0.9-0.1,1.2-0.4c1.7-1.4,3.8-2.2,6-2.5c2.5-0.3,5-1.4,7.5-0.8c3.3,0.6,6.5,1.7,9.4,3.3
	c2.4,1.4,4.7,3.1,6.8,5c2.3,2.1,4.1,4.8,5,7.8c0.1,0.4,0.3,0.8,0.6,1.1c1.9,1.4,1.7,3.6,2.1,5.6c0.5,2.7,0.2,5.4,0.9,8.1
	c0.1,0.7,0.2,1.3,0.1,2c-0.3,3.3-0.7,6.6-1.1,9.9c0,0.8-0.3,1.7-0.7,2.4c-1.4,2-1.8,4.5-3,6.5c-2.3,3.7-4.8,7.1-7.6,10.4
	c-0.7,0.8-1.7,1.3-2.4,2.2s-1.7,0.5-2.6,0.5c-3.5,0-5-5-3.2-7.3c1-1.3,2.2-2.5,2.3-4.2c0.1-0.6,0.6-1.1,1.2-1.2c2.3-0.2,3-2.7,5-3.2
	c0.2-0.1,0.3-0.2,0.3-0.4c0.5-2.3,2.1-3.9,3.3-5.7c1.8-2.8,1.4-6.4,3.1-9.2c0.1-0.1,0.1-0.3,0-0.4c-1.6-2-0.8-4.8-2.3-6.9
	c0-0.1-0.1-0.2-0.1-0.2c0.6-2.2-1.3-3.3-2.3-4.7c-0.6-1-2-1.5-1.9-2.9c0-0.2-0.3-0.4-0.5-0.5c-2.7-1-4.9-3-7.8-3.7
	c-0.7-0.1-1.3,0-1.9,0.2c-0.9,0.3-1.8,1.2-2.2-0.6c0-0.3-0.4-0.3-0.6-0.2c-2,0.6-4.1,0-6.1-0.1c-0.3,0-0.8-0.1-1,0
	c-1.6,1.2-3.5,0.7-5.3,0.8c-2.2,0.1-3.3,1.8-4.5,3.2c-2.1,2.7-3.5,5.9-4.1,9.3c-0.2,2-1.7,3.5-3.6,4c-3,0.8-5.9,0.7-8.5-1.5
	c-0.8-0.6-1.4-1.5-1.7-2.4c-0.8-2-1.5-4.2-3.1-5.8c-0.6-0.6-0.5-1.5-1-2.3c-1.5-2.4-3.8-3.4-6.3-4.4c-2.7-1.2-5.7-1.7-8.6-1.4
	c-3.2,0.5-6.7,0.4-9.5,2.5c-0.8,0.6-2,0.4-2.5,1.5c-0.2,0.4-0.6,0.2-0.8-0.1s-0.5-0.8-0.8-0.1c-0.6,1.1-1.4,2.1-2.4,2.7
	c-1.8,1.4-2.4,3.3-2.7,5.4c-0.7,4.3-0.6,8.6-0.7,12.9c0,1.4,1.8,1.9,1.5,3.3c1.9,0.6,1.9,2.5,2.5,4c0.5,1.1,0.6,2.4,2,2.9
	c0.3,0.1,0.6,0.6,0.8,0.9c1.7,2.9,4.5,4.5,7.5,5.9c2.7,1.4,4.3,4.3,4.1,7.3c-0.3,2.2-2.3,3.9-4.6,3.6c-0.2,0-0.5-0.1-0.7-0.1
	c-1.1-0.4-2.2-0.7-3.4-0.9c-0.7-0.1-1.3-0.4-1.8-0.8c-0.6-0.5-1.1-1-1.7-1.5c-1-0.9-2.2-1.5-2.8-3s-2.1-2.5-2.7-4
	c-0.6-1.6-1.4-3.1-2.5-4.5c-1.8-2.3-2.1-5.1-3.5-7.5c-0.6-1.4-0.9-3-0.9-4.6c-0.1-1.4-0.4-2.8-1.1-4c-1.6-3.3-2.1-7.1-1.3-10.7
	c0.4-3.1,1.4-6,3.1-8.6c2.3-3.4,5-6.6,7.8-9.6c1.3-1.4,3-2.4,4.8-3c1.4-0.5,2.8-1,4.1-1.7c3-1.6,6.2-1.5,9.4-1.2
	c3,0.2,5.8,1.2,8.3,2.9c1,0.7,2.2,0.6,3.3,1c2.3,0.9,3.6,2.9,5,4.6c1,1.1,2,2.1,3,3.2s2.1,2.1,2.2,3.8
	C274.7,401.8,275.8,402.5,276.2,403.8z M272.7,399.4c0.4,0.1,0.5-0.1,0.5-0.4c-0.1-0.2-0.2-0.4-0.4-0.5c-0.2-0.1-0.3,0-0.4,0.2
	c0,0.1,0,0.1,0,0.2C272.4,399.1,272.6,399.3,272.7,399.4z"/>
<linearGradient id="SVGID_6_" gradientUnits="userSpaceOnUse" x1="499.2157" y1="-81.8904" x2="486.3057" y2="445.0096" gradientTransform="matrix(1 0 0 -1 -333.31 518.79)">
	<stop  offset="2.000000e-02" style="stop-color:#002200"/>
	<stop  offset="0.41" style="stop-color:#004304"/>
	<stop  offset="0.66" style="stop-color:#8EB879"/>
	<stop  offset="1" style="stop-color:#FFD815"/>
</linearGradient>
<path class="st5" d="M128.7,63.9c-1.1-1.5-2.3-2.8-3.4-4.3c-2.2-3-3.9-6.3-5.9-9.4c-0.8-1.3-1.5-2.8-2-4.3c-0.5-1.6-1.3-3.2-2.4-4.6
	c-1-1.3-1.5-3.1-2.3-4.6c-0.6-1.3-1.1-2.8-2.8-3.2c-0.6-0.1-1-0.8-0.9-1.4c0-0.1,0-0.2,0.1-0.2c1.2-2.2-0.3-4-0.6-6
	c-0.2-1.1-0.8-2.2-0.8-3.4c0-0.2,0-0.5-0.1-0.7c-1.2-1.2-1.6-2.9-1.2-4.6c0.2-0.8,0-1.9,0.1-2.8c0.3-1.6,0.5-3.3,0.7-4.9
	c0.2-2.3,1.7-4.1,2.2-6.3c0.3-1,1.5-1.4,2.5-1.3c3.8,0.3,7.5,0.6,10.9,2.8c2.7,1.7,4.6,4.4,7.2,6.2c2.6,1.8,4.2,4.1,6.3,6.2
	c1.3,1.2,2.4,2.6,3.4,4.1c1.2,1.8,2.3,4,4.8,4.6c0.2,0.1,0.4,0.2,0.6,0.5c2.3,3.7,5.3,6.9,7.1,11c0.5,1.1,1.6,1.9,2.3,2.9
	c1.9,3,3.8,6.1,5.5,9.1c1.1,1.9,2.1,3.9,3.1,5.9c0.9,1.8,1.1,3.9,2.1,5.7c2.7,4.6,4.7,9.5,7.3,14.1c1.5,2.5,3.5,5.1,3.6,8.3
	c0,0.3,0.2,0.6,0.4,0.9c2.2,2.4,2.8,5.6,4,8.5c0.4,0.9,0.7,1.9,0.8,2.9c0.6,3.4,2.4,6.4,3.3,9.6c0.2,0.7,0.7,1.3,0.9,2
	c1.3,5.8,4.2,11.1,5.3,17c0.5,1.8,1.1,3.6,1.8,5.4c1.1,3,1.4,6.1,2.1,9.2c0.9,4.2,1.7,8.4,2.9,12.6c1,3.6,2.1,7.1,2.2,10.9
	c0.2,1.1,0.4,2.1,0.7,3.1c0.4,2.4,0.8,4.9,0,7.3c-0.2,0.5-0.1,1,0.1,1.5c0.3,1,0.3,2.2-0.2,3.2c-0.7,2.1-1.5,2.5-3.2,1s-4-2.7-5-5.1
	c-0.7-1.2-1.7-2.2-3-2.9c-1.5-1-2.8-2.3-3.7-3.8c-1.3-2.3-3.2-4.3-5.5-5.7c-1.9-1.2-3.5-2.8-4.9-4.5c-2.5-2.7-5.1-5.2-7.8-7.6
	c-2.5-2.2-4.9-4.7-6.9-7.4c-2.1-3-4.1-6-5.9-9.2c-2.2-3.8-3.7-7.9-4.3-12.3c-0.4-2.2-1.7-4.2-3.6-5.5c-3.4-2.4-5.8-5.7-8.6-8.7
	c-0.2-0.3-0.4-0.6-0.7-0.8c-5.2-4.2-9-9.7-14-14.1c-0.6-0.6-1.3-1.2-2-1.8c-4.4-3.2-8-7.5-10.5-12.3c-1.8-3.3-3.2-6.7-4.1-10.3
	c-0.5-2.2-0.3-2.5,1.5-4c2.1-1.8,4.6-1.9,7.2-2.3c1-0.1,1.6,0.7,2.5,0.8c3.4,0.3,6.7,1.1,9.5,3.3c0.2,0.1,0.3,0.1,0.5,0.1
	C128.4,64.1,128.6,64,128.7,63.9z M199.2,177.6c-0.5-1.7-0.4-3.6,0.2-5.3c0.4-2,0.3-4-0.1-6c-0.2-1.5-0.9-2.9-0.8-4.5
	c0-2.9-0.5-5.7-1.5-8.4c-1.3-4.5-2-9.2-3.3-13.7c-0.6-2.1-0.3-4.3-1.1-6.4c-0.6-1.6-1-3.3-1.6-5c-0.5-1.5-1-3-1.5-4.5
	c-1.2-3.6-1.4-7.7-3.8-10.9c-0.2-0.4-0.3-0.8-0.3-1.2c-1-4.3-2.5-8.5-4.5-12.5c-0.1-0.3-0.5-0.6-0.4-0.9c0.5-3.7-2.3-6.5-2.7-9.9
	c0-0.4-0.5-0.6-0.7-1c-0.7-1.3-1.9-2.3-2.1-3.9c-0.3-1.6-0.9-3-1.8-4.4c-1.3-2.4-2.6-4.7-3.8-7.1c-1.5-3-2.9-6.1-4.6-9
	c-2.1-3.4-2.2-7.8-5.2-10.8c-0.1-0.1-0.1-0.1-0.1-0.2c0.2-1.9-1.2-3.1-2.1-4.4c-0.8-1.1-1.6-2.3-2.2-3.6c-0.8-1.7-1.8-3.2-3-4.6
	c-0.6-0.7-1.1-1.4-1.5-2.3c-1-2.7-3-4.7-4.4-7.1c-0.5-0.9-2-1.1-2.1-2.5c0-0.3-0.6-0.2-0.9-0.3c-0.7-0.1-1.2-0.6-1.5-1.2
	c-0.4-1-1.1-1.9-2-2.5c-0.5-0.4-1-0.9-1.3-1.5c-0.6-1.6-2.4-2.3-2.9-3.9c-2.6-1-3.5-3.8-5.6-5.4c-1.7-1.3-3.7-2.6-4.7-4.7
	c-0.2-0.3-0.5-0.4-0.8-0.4c-0.7-0.1-1.4-0.4-1.9-1c-2.9-2.6-6.6-2.7-10.2-3.1c-0.7-0.1-1.4,0.3-1.6,0.9c-1.6,3.3-2.4,6.9-2.2,10.6
	c0.6,7.9,2.4,15.5,6.4,22.4c1.3,2.2,2.8,4.2,3.6,6.7c0.4,1.4,1,2.8,1.6,4.2c1.3,2.7,3.6,4.9,4.5,7.9c0.1,0.3,0.3,0.6,0.6,0.8
	c2,1.6,2.9,4,4.6,5.8c1,1,1.7,2.4,2.7,3.5c0.3,0.3,0.6,0.9,0.3,1.3s-0.9,0.3-1.4,0.1c-0.8-0.3-1.5-0.7-2.2-1.1
	c-4.1-2.7-8.8-4.3-13.7-4.7c-2.3-0.3-4.6,0.3-6.4,1.8c-0.7,0.4-1,1.3-0.8,2.1c0.5,2,1.5,3.9,2.2,5.8c0.9,2.9,2.7,5.3,4.1,7.9
	c1.9,3.4,5,5.8,7.9,8.2c3.3,2.7,5.8,6.1,8.8,9c2,2,3.6,4.3,5.9,6c1,0.8,2,1.8,2.8,2.8c2.3,2.8,4.8,5.3,7.5,7.6
	c2.3,1.8,4.1,4,4.4,7.2c0.2,1.4,0.5,2.7,0.9,4.1c0.8,2.9,2.6,5.3,3.5,8c0.2,0.4,0.5,0.9,0.8,1.2c1.8,2.6,3.4,5.2,5.3,7.8
	c1.8,2.4,3.9,4.5,6.2,6.4c2.5,2.1,4.5,4.6,6.9,6.8c1.8,1.9,3.8,3.7,5.9,5.3c1,0.5,1.8,1.2,2.5,2c1.5,2.2,3.9,3.6,5,6.1
	c0.1,0.2,0.5,0.4,0.8,0.5c0.9,0.4,1.7,1.1,2.2,1.9C194.3,172.8,195.9,175.8,199.2,177.6z"/>
<linearGradient id="SVGID_7_" gradientUnits="userSpaceOnUse" x1="781.7484" y1="-74.9689" x2="768.8284" y2="451.9311" gradientTransform="matrix(1 0 0 -1 -333.31 518.79)">
	<stop  offset="2.000000e-02" style="stop-color:#002200"/>
	<stop  offset="0.41" style="stop-color:#004304"/>
	<stop  offset="0.66" style="stop-color:#8EB879"/>
	<stop  offset="1" style="stop-color:#FFD815"/>
</linearGradient>
<path class="st6" d="M485.2,24.8c-0.4,2.4-0.7,5.3-1.4,8.1c-1.1,4.2-2.9,8.1-4.1,12.3c-0.6,1.8-1.5,3.4-2.5,5
	c-1.5,2.8-2.8,5.6-3.9,8.6c-0.3,0.8,0.4,0.9,1,1.1c1.4,0.5,2.7,1.3,3.6,2.5c1.3,1.6,1.8,3.7,1.4,5.8c-1,4.6-3.6,8.4-6,12.2
	c-1.2,2-2.5,3.9-3.8,5.8c-1.1,1.6-2.4,3.1-3.9,4.5c-2.1,1.9-4,4-5.9,6.1c-1.2,1.2-2.6,2.3-4,3.3c-0.9,0.9-1.9,1.8-3,2.6
	c-0.6,0.4-0.9,1.1-0.8,1.7c0.4,2.6-1.1,4.8-1.5,7.2c-0.5,3.6-2.6,6.4-5.1,8.9c-1.2,1.1-2.2,2.5-2.8,4.1c-0.2,0.5-0.6,1-1.1,1.3
	c-1.2,1-2.6,1.8-3,3.5c-0.1,0.3-0.4,0.5-0.6,0.8c-3.3,2.9-5.8,6.6-9,9.6c-3.9,3.6-6.8,8.1-10.1,12.2c-2.7,3.2-5.2,6.6-7.4,10.1
	c-1.7,2.9-3.9,5.5-5.7,8.3c-2.9,4.7-6.3,9.1-7.8,14.5c-0.6,2.5-2.4,4.6-4.8,5.6c-1.7,0.8-2.2,0.6-3-1.2c-1.5-3-2.4-6.2-1.6-9.6
	c0.1-0.4,0-0.8-0.1-1.3c-0.6-3.3-0.5-6.6-0.8-9.9c-0.2-2.5,0.5-5,0.7-7.4c0.3-4.8,1.8-9.5,2.4-14.2c0.1-0.6,0.3-1.1,0.6-1.6
	c0.8-1.6,1.3-3.4,1.3-5.3c0-3,1.1-5.7,2.1-8.4c0.6-1.4,1-2.8,1-4.3c-0.1-1.6,0.7-3.1,1.1-4.6c0.5-2.1,1-4.2,1.6-6.3
	c0.4-0.9,0.8-1.8,1.3-2.7c2.2-5.5,4.6-11,6.9-16.5c0.7-1.6,1.2-3.3,1.9-4.8c1.4-2.8,3-5.5,4.5-8.2c2-3.4,3.8-7,5.6-10.5
	c1.4-3.1,3.1-6,5.2-8.7c2.5-3.2,5.2-6.3,7.6-9.6c2.2-3,5.2-5.5,8-8.2c1.2-1.1,2-2.4,3.1-3.6c2.8-3,6.2-5.5,9-8.6
	c1.9-1.8,3.9-3.3,6.1-4.7c1.6-0.9,3-2,4.3-3.3c0.2-0.3,0.5-0.5,0.8-0.6c1.7-0.8,3.2-1.9,4.6-3.2c1.9-1.7,4.5-1.6,6.6-2.7
	c1.9-0.9,3.9-1.4,6-1.4c3-0.2,5.5,2.1,5.7,5.1C485.2,24.6,485.2,24.7,485.2,24.8z M389.3,181.7c0.2,0.6,0.3,1.2,0.3,1.8
	c-0.1,2,0.9,3.4,2.1,4.8c0.2,0.2,0.5,0.5,0.5,0.4c0.4-1.4,2.3-0.4,2.7-1.7c0.5-2,1.9-3.6,2.4-5.7c0.6-2.6,1.8-5,3.5-7.1
	c2.6-2.9,4.8-6.1,6.7-9.5c2.2-4,5.5-7.1,7.7-11c1.2-2,2.7-3.9,4.4-5.7c2.5-2.7,4-6.3,7.2-8.4c0.6-0.5,1.1-1,1.4-1.7
	c0.4-0.8,1-1.5,1.8-2c0.8-0.6,1.5-1.3,2.1-2.1c1.4-1.6,2.3-3.6,4.3-4.7c0.2-0.1,0.5-0.3,0.5-0.5c0.2-1.7,1.6-2.4,2.7-3.4
	c0.5-0.4,1-0.9,1.3-1.4c1.5-2.5,3.4-4.9,5.5-6.9c0.9-0.9,1.5-2,1.8-3.3c0.5-2.5,1.2-4.9,2-7.2c0.2-0.5,0.3-1.1,0.2-1.7
	c-0.3-1.6,0.5-2.7,1.6-3.6s2.5-2.1,3.8-3.1c2.3-1.9,4.4-4,6.4-6.1c2.4-2.5,4.7-5.1,6.8-7.9c1.4-1.8,2.3-3.8,3.6-5.6
	c2.3-2.9,3.9-6.4,4.8-10c0.8-3.6-0.4-5.8-4-6.9c-0.7-0.3-1.5-0.8-2.1-1.2c-0.5-0.3-0.5-0.7-0.2-1.2c2.3-3.5,3.7-7.5,5.7-11.2
	c1.6-3.2,2.9-6.5,3.8-9.9c1.4-4,2.4-8,3-12.2c0.4-2.2-1.1-4.3-3.4-4.7c-0.2,0-0.4,0-0.6-0.1c-3.7-0.2-6.7,1.9-10,3
	c-2.5,0.8-4.5,3-6.7,4.6c-1.7,1.2-3.3,2.6-5.2,3.8s-4,2.3-5.3,4c-1.8,2.1-3.8,4.1-6,5.9c-3.6,3.1-6.8,6.7-10.1,10.2
	c-2.4,2.3-4.5,4.8-6.4,7.5c-0.6,0.9-1.2,1.8-2,2.5c-3.4,3.2-6,7.1-7.8,11.4c-0.4,1-0.9,2-1.5,2.9c-1.9,2.7-2.9,5.9-4.7,8.7
	c-1.2,1.9-1.8,4.2-3.6,5.8c-0.2,0.2-0.4,0.5-0.5,0.8c-1.2,4.9-3.8,9.3-5.5,14c-1.1,3-2.4,5.8-3.8,8.6c-1.8,3.2-2.2,6.9-3,10.4
	c-0.9,3.8-1.5,7.6-3.3,11.1c-0.2,0.5-0.3,1-0.3,1.5c-0.2,2.4-0.6,4.7-1.2,7c-1.3,5.2-2.9,10.4-3.2,15.8c-0.1,0.5-0.1,1-0.3,1.5
	c-0.7,4.3-0.7,8.6,0,12.9c0.2,1.7,0.2,3.5,0.1,5.2C389.4,180.6,389.4,181.2,389.3,181.7z"/>
<linearGradient id="SVGID_8_" gradientUnits="userSpaceOnUse" x1="489.0961" y1="-82.1399" x2="476.1761" y2="444.7601" gradientTransform="matrix(1 0 0 -1 -333.31 518.79)">
	<stop  offset="2.000000e-02" style="stop-color:#002200"/>
	<stop  offset="0.41" style="stop-color:#004304"/>
	<stop  offset="0.66" style="stop-color:#8EB879"/>
	<stop  offset="1" style="stop-color:#FFD815"/>
</linearGradient>
<path class="st7" d="M165.6,596.3c-1.5-0.3-2.9,0.2-4.4-0.2c-0.8-0.2-1.1,0.3-1.2,1.2c-0.1,2.2,0.2,4.3,1,6.3c0.1,0.5,0.5,1,0.5,1.4
	c-0.1,0.7,0,1.8-1.1,2s-0.8-0.8-1-1.4c-1.4-2.8-2.1-5.9-1.9-9.1c-0.1-0.5-0.2-1-0.3-1.5c-0.9-3.9-1.1-7.9-0.6-11.8
	c0.2-1,0.6-2.7-0.3-3.2c-1.1-0.7-2.4-1.2-3.7-1.3c-3.2,0.1-6.5-0.4-9.5-1.6c-2.3-1-4.5-2.1-5.7-4.5c-0.8-1.6-0.4-2.5,1.3-2.5
	c1.3,0,2.6,0.1,3.9,0.5c4.3,1.6,8.8,2.8,13.1,4.5c1.8,0.5,3.7,0.7,5.6,0.4c0.4,0,0.8-0.3,1.2-0.2c2.2,0.2,4.5-0.2,6.5-1.1
	c0.6-0.3,1.4-0.1,1.7,0.5c0.1,0.2,0.2,0.4,0.2,0.5c0.2,0.9-0.1,1.5-1,1.6c-1.2,0.3-2.4,0.7-3.5,1.2c-1.4,0.6-2.9,0.9-4.3,0.8
	c-1.9-0.1-2.4,0.7-3,2.5c-0.8,2.3,0.3,4.4,0.1,6.6c-0.1,1,0.2,1.9,0,2.9c-0.2,1.6,0.3,2,2,2.5c1.1,0.4,2.3,0.4,3.4,0.1
	c1-0.3,2.1-0.5,3.2-0.4c1,0.2,2-0.1,2.8-0.8c0.6-0.7,1.6-0.7,2.2-0.1c0,0,0,0,0,0c0.6,0.4,0.8,1.1,0.6,1.8c-0.2,0.8-0.9,1.5-1.7,1.5
	C169.7,595.8,167.7,596.1,165.6,596.3z"/>
<linearGradient id="SVGID_9_" gradientUnits="userSpaceOnUse" x1="705.791" y1="-76.8291" x2="692.8709" y2="450.071" gradientTransform="matrix(1 0 0 -1 -333.31 518.79)">
	<stop  offset="2.000000e-02" style="stop-color:#002200"/>
	<stop  offset="0.41" style="stop-color:#004304"/>
	<stop  offset="0.66" style="stop-color:#8EB879"/>
	<stop  offset="1" style="stop-color:#FFD815"/>
</linearGradient>
<path class="st8" d="M375.7,599.2c0.2-0.9,1.7-0.7,1.7-2.2c0-2.7-1-3.8-3.7-4.2c-2.5-0.3-4.7,1.1-7.1,0.8c-0.2,0-0.6,0.2-0.6,0.3
	c0,1.7-2,2.7-1.6,4.6c0.2,1.2,0.2,2.3,0.2,3.5c0,1.4-0.4,1.6-1.6,0.9c-0.6-0.3-1.1-0.8-1.2-1.5c0-0.1,0-0.2,0-0.2
	c-0.7-1.6-1-3.2,0.5-4.6c0,0,0-0.2,0.1-0.2c0.5-1.7,0-3.7,0.7-5.1s1.9-2.8,2.3-4.6c0.3-1.3,0.9-2.5,1.7-3.5c1.8-2.3,4.4-2.3,6.3,0
	c1.2,1.4,2.2,2.9,3.3,4.3s1.1,1.4,2.5,0.3c1.1-0.7,2.3-1,3.5-0.8c0.4,0,0.9,0.2,1,0.7c0.1,0.4-0.1,0.8-0.5,1c-1.5,0.6-2.2,2-3.4,2.9
	c-0.7,0.5-0.9,1.4-0.5,2.2c0.6,1.8,0.9,3.7,0.7,5.7c-0.1,1.8-1.1,2.3-2.6,1.4C376.7,600.4,376,600,375.7,599.2z M374.3,589.4
	c-1.1-1.1-1.7-2.6-3-3.5c-1.6-1-2.7-0.7-3.2,1.2c-0.2,0.8-0.5,1.6-0.8,2.3c-0.4,0.9-0.1,1.6,0.9,1.4
	C370,590.5,372.3,590.9,374.3,589.4z"/>
<linearGradient id="SVGID_10_" gradientUnits="userSpaceOnUse" x1="672.8077" y1="-77.6401" x2="659.8976" y2="449.2699" gradientTransform="matrix(1 0 0 -1 -333.31 518.79)">
	<stop  offset="2.000000e-02" style="stop-color:#002200"/>
	<stop  offset="0.41" style="stop-color:#004304"/>
	<stop  offset="0.66" style="stop-color:#8EB879"/>
	<stop  offset="1" style="stop-color:#FFD815"/>
</linearGradient>
<path class="st9" d="M338.4,595.5c-0.4,2.2-0.3,4-1.6,5.5c-1,1.2-1.6,1.6-3.1,1.1c-1.8-0.4-3.3-1.6-4.2-3.3c-1.1-2.3-2.6-4.4-3.1-7
	c-0.2-1.1-1.2-1.7-1.7-2.6c-1-1.9-0.3-4.1-1.4-5.9c-0.3-0.6,0.2-1,0.6-1.1c0.8-0.2,1.7-0.2,2.2,0.7c0.6,1.2,1.6,2.2,1.7,3.8
	c0.2,2.6,1.4,4.9,2,7.4c0.4,1.7,2,2.8,3.3,4c0.7,0.6,1.8,0.1,2.3-1.2c0.3-0.9,0.7-1.7,1.3-2.4c1.5-1.9,2-1.9,3.8-0.2
	c1.5,1.4,2,3.6,3.9,4.8c1.1,0.7,1.6,0.9,2.2-0.2c0.7-1,1.2-2.1,1.7-3.3c0.6-1.8,1.8-3.6,2.1-5.5c0.2-1.6,0.8-3,1.9-4.2
	c0.6-0.5,0.9-1.6,1.9-1.1s1,1.4,1.2,2.3c0,0.3-0.1,0.7-0.3,0.9c-2.2,1.9-2.4,5-4,7.3c-0.9,1.4-1.7,3-2.1,4.7
	c-0.5,1.4-1.2,3.1-2.8,3.2s-3-1.2-3.8-2.8C341.4,598.5,340.1,596.8,338.4,595.5z"/>
<linearGradient id="SVGID_11_" gradientUnits="userSpaceOnUse" x1="574.3694" y1="-80.0503" x2="561.4494" y2="446.8497" gradientTransform="matrix(1 0 0 -1 -333.31 518.79)">
	<stop  offset="2.000000e-02" style="stop-color:#002200"/>
	<stop  offset="0.41" style="stop-color:#004304"/>
	<stop  offset="0.66" style="stop-color:#8EB879"/>
	<stop  offset="1" style="stop-color:#FFD815"/>
</linearGradient>
<path class="st10" d="M249.5,588c0,1.4-0.5,2.8-1.4,3.9c-3,3.4-5.6,7.2-7.8,11.2c-0.7,1.3-1.9,2.1-3.3,2.3c-1.1,0.2-1.6-0.3-1.3-1.1
	c0.8-1.9,0.1-3.6-0.3-5.3c-0.9-3.5-1.7-6.9-2.7-10.3c-0.4-1.9-0.7-3.8-0.7-5.7c-0.1-1.5,0.5-2,2-1.6c0.6,0.2,1.3,0.4,1.8,0.8
	c2.8,1.5,6,1.7,9,2.5c1.3,0.4,2.6,1.1,3.7,1.9C249.1,586.8,249.5,587.4,249.5,588z M238.2,600.4c1.2-2,2.6-3.9,4-5.8
	c0.6-1.1,1.1-2.2,1.4-3.4c0.4-1.7-0.3-3.6-1.9-4.5c-1.3-0.6-2.7-1.1-4.2-1.5c-2.3-0.6-3.1,0.2-2.6,2.5c0.6,2.5,1.4,4.9,1.8,7.4
	C236.9,596.8,237.7,598.2,238.2,600.4z"/>
<linearGradient id="SVGID_12_" gradientUnits="userSpaceOnUse" x1="733.9438" y1="-76.1405" x2="721.0339" y2="450.7596" gradientTransform="matrix(1 0 0 -1 -333.31 518.79)">
	<stop  offset="2.000000e-02" style="stop-color:#002200"/>
	<stop  offset="0.41" style="stop-color:#004304"/>
	<stop  offset="0.66" style="stop-color:#8EB879"/>
	<stop  offset="1" style="stop-color:#FFD815"/>
</linearGradient>
<path class="st11" d="M389,579.1c0.2,0.2,0.3,0.4,0.5,0.6c2.5,2.1,4.5,4.8,5.8,7.9c0.7,1.7,2.1,1.9,3.7,0.9c0.1-0.1,0.4-0.2,0.4-0.3
	c0.2-1.5,1.6-2.2,2.4-3.3c0.9-1,1.4-2.2,1.6-3.5c0.1-1.2,1.1-2,1.8-2.9s1.7-2,2.6-3c0.9-1.2,2.7-1.5,3.9-0.6
	c0.2,0.1,0.3,0.3,0.4,0.4c0.4,0.4,0.5,0.9,0.1,1.3c-3.9,3.8-6,9.1-10.2,12.8c-2.5,2.2-2.8,4.8-1.4,7.9c0.4,1,0.6,2.1,0.4,3.2
	c0,0.9-0.8,1.6-1.7,1.6c-0.1,0-0.1,0-0.2,0c-1.1,0-1.9-0.8-1.7-1.8c0.5-1.7-0.3-3.1-0.3-4.7c0-1.9-1.6-3.2-2.5-4.7
	c-1.6-2.6-4.2-4.4-5.5-7.3c-0.5-1.1-0.8-2.2-1-3.3C387.9,579.9,388.4,579.6,389,579.1z"/>
<linearGradient id="SVGID_13_" gradientUnits="userSpaceOnUse" x1="547.7902" y1="-80.7003" x2="534.8802" y2="446.1997" gradientTransform="matrix(1 0 0 -1 -333.31 518.79)">
	<stop  offset="2.000000e-02" style="stop-color:#002200"/>
	<stop  offset="0.41" style="stop-color:#004304"/>
	<stop  offset="0.66" style="stop-color:#8EB879"/>
	<stop  offset="1" style="stop-color:#FFD815"/>
</linearGradient>
<path class="st12" d="M210.1,589.4c-0.5,0.6-0.8,1.3-0.8,2.1c-0.1,3.2-0.7,6.4-1,9.6c0,0.5,0,1,0.1,1.5c0.2,1.1-0.5,2.1-1.5,2.4
	c-1,0-1.9-0.8-2.1-1.8c-0.2-1.1-0.2-2.3,0.2-3.5c2-5,2.7-10.2,2.9-15.5c0-0.3-0.2-0.6,0.1-0.9s0.7,0,1,0.3c1.2,1.1,2.3,2.1,2.5,3.8
	c0.2,1.4,1.5,2.3,2.1,3.6c0.8,1.9,1.9,3.7,3.1,5.3c0.4,0.5,0.6,0.9,1.3,1.1c1.5,0.4,1.9,0.1,1.8-1.3c0-0.8,0.1-1.6,0.3-2.4
	c1-4.4,0-8.5-1.1-12.7c-0.1-0.5-0.5-1,0.1-1.4c0.5-0.2,1-0.2,1.5,0c0.3,0.2,0.6,0.4,0.8,0.6c2.4,2,3.3,5.2,2.5,8.2
	c-0.6,2.6-1,5.3-1.3,8c-0.2,1.7-1.3,3.1-1.8,4.8c-0.3,0.5-0.9,0.7-1.3,0.4c-0.1-0.1-0.2-0.1-0.3-0.2c-2.4-2.6-5.1-5-6.4-8.4
	C212,591.7,211.2,590.4,210.1,589.4z"/>
<linearGradient id="SVGID_14_" gradientUnits="userSpaceOnUse" x1="521.4508" y1="-81.351" x2="508.5308" y2="445.559" gradientTransform="matrix(1 0 0 -1 -333.31 518.79)">
	<stop  offset="2.000000e-02" style="stop-color:#002200"/>
	<stop  offset="0.41" style="stop-color:#004304"/>
	<stop  offset="0.66" style="stop-color:#8EB879"/>
	<stop  offset="1" style="stop-color:#FFD815"/>
</linearGradient>
<path class="st13" d="M189.7,589.6c-0.5,3.3,0.6,6.4,0.9,9.6c0.1,1.1,0.7,1.9,2.2,1.4c0.8-0.2,2.3-0.7,2.5,0.7
	c0.2,1.1-1.3,1.2-2,1.4c-2,0.6-4,0.9-6.1,0.9c-0.3,0-0.7-0.1-1-0.3c-0.6-0.5-1.5-0.8-1.4-1.8c0.4-1,1.3-1.7,2.4-1.7
	c1.5,0,2-0.3,1.5-1.4c-1-2.8-0.9-5.7-1.5-8.5c-0.2-0.9-0.4-1.2-1.3-1.4c-1.8-0.3-3.5-1.1-4.8-2.4c-0.4-0.3-0.8-0.7-0.6-1.3
	c0.2-0.6,0.7-1,1.3-0.9c1-0.2,2,0.1,2.8,0.7c0.9,0.9,2.1,1.3,3.4,1.2c1.3-0.1,1.9,0.3,1.6,1.8C189.7,588.3,189.6,588.9,189.7,589.6z
	"/>
<linearGradient id="SVGID_15_" gradientUnits="userSpaceOnUse" x1="468.5662" y1="-82.6502" x2="455.6462" y2="444.2599" gradientTransform="matrix(1 0 0 -1 -333.31 518.79)">
	<stop  offset="2.000000e-02" style="stop-color:#002200"/>
	<stop  offset="0.41" style="stop-color:#004304"/>
	<stop  offset="0.66" style="stop-color:#8EB879"/>
	<stop  offset="1" style="stop-color:#FFD815"/>
</linearGradient>
<path class="st14" d="M131.5,603.3c0-2,1.7-3.6,3.7-3.6c0.1,0,0.1,0,0.2,0c3.2,0,4.6,2.6,3,5.3c-0.8,1.4-2.4,1.8-4.7,1.2
	C131.8,605.7,131.5,605.3,131.5,603.3z M135.2,603.6c0.4-0.1,0.9,0.1,0.9-0.6s-0.3-0.7-0.8-0.6s-0.8,0.3-0.8,0.8
	S134.7,603.8,135.2,603.6z"/>
<linearGradient id="SVGID_16_" gradientUnits="userSpaceOnUse" x1="500.1384" y1="-81.8694" x2="487.2283" y2="445.0307" gradientTransform="matrix(1 0 0 -1 -333.31 518.79)">
	<stop  offset="2.000000e-02" style="stop-color:#002200"/>
	<stop  offset="0.41" style="stop-color:#004304"/>
	<stop  offset="0.66" style="stop-color:#8EB879"/>
	<stop  offset="1" style="stop-color:#FFD815"/>
</linearGradient>
<path class="st15" d="M196.6,171.2c-3.8-2.7-5.7-6.8-8.9-9.8c-0.9-1.1-1.7-2.3-2.3-3.5c-1.4-1.9-3-3.7-4.9-5.3
	c-3.4-3.1-6.4-6.7-9.9-9.7c-2.3-2-4.5-4.1-6.6-6.4c-0.6-0.6-1.1-1.2-1.6-1.9c-0.9-1.5-2-2.9-2.8-4.4c-0.8-2-1.5-4.1-2-6.2
	c0.7-0.5,1.3-0.3,1.6,0.2c1.3,1.7,2.9,3.2,4.6,4.5c0.8,0.8,1.6,1.7,2.2,2.7c0.9,1.4,2.1,2.6,3.6,3.4c0.4,0.3,1,0.3,1.4,0
	c0.4-0.3,0.2-0.7,0.1-1.1c-0.9-3.7-2-7.4-3.3-11.1c-0.5-1.2-1.6-1.8-2.1-3c-0.9-1.7-2.5-3-2.8-5.2c-0.2-1.1-1.5-1.6-2.5-2.3
	c-1.6-1.1-3.3-2.1-5.5-1.8c-0.7,0.1-1.5,0.1-1.8,0.6c-1.1,1.6-2,0.7-2.7-0.2c-1.5-1.7-3-3.3-4.4-5.1c-3.7-4.8-7.9-9.2-11.8-13.9
	c-0.6-0.6-1.2-1.1-1.9-1.5c-4.7-4.1-8.8-8.7-12.4-13.8c-1-1.3-1.8-2.8-2.5-4.3c-0.2-0.3-0.4-0.7-0.5-1.1c-0.5-3.3-0.6-4.7,3.4-3.9
	c1.1,0.2,2.1,0.6,3.1,1c2.5,1.1,5,2.2,7.5,3.3c1.8,0.9,3.5,1.9,5.1,3c2.4,1.4,4.9,2.6,7.3,4.2c0.7,0.4,1.1,0.1,1.1-0.7
	c0.2-1.2-0.2-2.3-1-3.2c-2.4-2.1-4.4-4.6-6-7.3c-1.8-3.2-4.9-5.4-6.1-8.8c-0.5-1-1.2-2-2-2.8c-1.5-2.1-2.4-4.5-3.8-6.6
	c-1.6-2.5-3.5-5-4.6-7.8c-1.6-4-3.8-7.7-5.6-11.6c-1.1-2.3-1.7-4.7-2.7-6.9c-0.1-0.3-0.3-0.6-0.1-0.9c1-1.5,0.5-3.1,0.2-4.6
	c-0.1-0.7,0.1-1.5,0.5-2.1c0.3-0.6,1.3-0.9,0.8-2c-0.2-0.5,0.8-0.6,1.4-0.4c3.5,0.7,6.3,2.5,9.1,4.6c2.9,2.2,5.7,4.7,8.2,7.5
	c1.7,1.8,4,3.3,5,5.7c0.3,0.7,0.8,1.2,1.4,1.7c0.9,0.9,1.6,1.9,2.2,3c0.6,1.3,1.3,2.6,3,3c0.4,0.1,0.7,0.6,0.9,1
	c2.6,5.8,6.6,10.8,9.7,16.3c3.5,6.2,6.8,12.5,10,18.8c2.1,4.2,4.1,8.4,6,12.7c1.7,3.9,2.8,8.1,4.8,11.9c0.2,0.5,0.3,0.9,0.4,1.4
	c0.1,1,0.5,1.9,1.3,2.5c1.3,1,1.9,2.6,1.5,4.2c-0.1,0.7,0.1,1.5,0.5,2.1c1.5,2.9,2.3,6,3.5,9c1,2.5,2.5,4.8,3.4,7.4
	c1.2,3.3,2.6,6.5,3.4,10c0.5,2,1.2,4,2,5.9c0.8,2.3,1.4,4.7,1.8,7.2c0.8,3.9,1.6,7.8,2.5,11.6c0.1,0.5,0.5,0.8,0.3,1.4
	c-1,2.7-0.1,5.4,0.4,8.1c0.1,0.3,0.2,0.6,0.2,1C196.7,170.9,196.7,171,196.6,171.2z"/>
<linearGradient id="SVGID_17_" gradientUnits="userSpaceOnUse" x1="507.5872" y1="-81.6899" x2="494.6772" y2="445.2202" gradientTransform="matrix(1 0 0 -1 -333.31 518.79)">
	<stop  offset="2.000000e-02" style="stop-color:#002200"/>
	<stop  offset="0.41" style="stop-color:#004304"/>
	<stop  offset="0.66" style="stop-color:#8EB879"/>
	<stop  offset="1" style="stop-color:#FFD815"/>
</linearGradient>
<path class="st16" d="M167.5,128.5c-1.6-0.9-2.9-2.3-3.7-3.9c-1.1-1.7-2.4-3.1-4-4.3c-1.1-0.8-1.4-1.9-2.1-2.9
	c-0.2-0.3-0.2-0.7,0.1-0.9c0,0,0,0,0,0c0.3-0.2,0.6,0,0.9,0.1c3.3,1.1,4.8,3.9,6.3,6.7C165.8,124.8,166.5,126.4,167.5,128.5z"/>
<linearGradient id="SVGID_18_" gradientUnits="userSpaceOnUse" x1="780.6774" y1="-74.9999" x2="767.7574" y2="451.9102" gradientTransform="matrix(1 0 0 -1 -333.31 518.79)">
	<stop  offset="2.000000e-02" style="stop-color:#002200"/>
	<stop  offset="0.41" style="stop-color:#004304"/>
	<stop  offset="0.66" style="stop-color:#8EB879"/>
	<stop  offset="1" style="stop-color:#FFD815"/>
</linearGradient>
<path class="st17" d="M394.3,182.5c-1-1.5-0.9-3.2-1-4.7c-0.1-5.1,0.2-10.1,0.9-15.1c0-0.4,0-0.9,0.2-1.2c1.9-2.1,1.3-4.8,1.7-7.3
	c0.3-2.5,0.7-5,1.4-7.4c0.8-2.8,1.1-5.8,1.9-8.7c0.5-2.1,0.7-4.3,1.4-6.3c1.4-3.9,1.9-8,3.5-11.8c0.1-0.3,0.4-0.6,0.4-0.9
	c-0.5-4.1,2-7.3,3.2-10.9s2.1-7.2,3.6-10.6c1.4-3.3,2.6-6.7,4.5-9.6s3.4-6,5.2-9c1.1-2.1,2.3-4,3.8-5.8c3.4-3.9,6.5-8.2,9.1-12.7
	c0.4-0.7,1.1-1,1.5-1.6c2.4-3.1,5-6,7.5-9c4-4.7,8-9.5,13.4-12.8c0.8-0.5,1.5-1.1,2.1-1.7c1.3-1.2,2.4-2.5,4.4-2.6
	c0.7,0,1-0.7,1.5-1.3c0.7-0.8,1.2-1.8,2.7-1.8c1.2-0.1,2.3-0.6,3.1-1.4c1.9-1.7,3.7-0.5,5.6,0c0.9,0.2,1.9,3.5,1.6,4.6
	c-0.9,4.2-2.4,8.3-3.6,12.4c-0.3,1-0.7,2-1.3,2.9c-2.4,3.1-3.6,6.9-5.7,10.1c-1.3,2.1-2.8,3.9-5.6,4.5c-2.4,0.5-4.5,2.2-6.4,3.8
	c-3.8,3.1-7.9,6.1-10.9,10.1c-3.3,4.2-6.7,8.2-9.2,12.9c-0.5,1.1-0.9,2.3-1.2,3.5c-0.1,0.8,0.2,1.5,0.9,1.9c0.9,0.5,2,0.5,2.8-0.1
	c1.8-1.2,3.8-2.1,5.4-3.6c2.4-2.3,5.1-4.3,7.5-6.5c3.5-2.9,6.6-6.4,9.1-10.2c1.6-2.9,3.4-5.6,5.5-8.2c1.6-1.8,1.8-1.9,3.8-0.4
	c2.8,2.3,2.5,2.5,1.5,6.1c-0.7,2.7-2.1,5-2.9,7.6c-0.2,0.7-0.6,1.4-1.2,1.8c-1.4,1.1-2.3,2.6-3.3,4c-2.2,2.7-4.1,5.6-6.7,8
	c-2.2,2-4.3,4.2-6.2,6.5c-1.3,1.5-2.7,2.1-4.6,1.4c-2.2-0.8-4,0.1-5.9,0.9c-2.3,0.9-4.1,2.5-6.1,3.8c-3.6,2.1-6.8,4.8-9.6,7.8
	c-0.2,0.2-0.4,0.3-0.5,0.5c-2.4,4-5.8,7.4-7.7,11.8c-1.7,3.9-4.2,7.2-5.8,11.2c-0.6,1.7-2.1,2.9-2.8,4.7c1,0.6,2.3,0.4,3-0.5
	c3-2.9,6-5.7,9.1-8.5c0.9-0.8,2.1-1.4,2.9-2.3c2.8-3,6.4-5.2,9.2-8.3c1-1.1,1.4-2.7,2.9-3.6c2.7-1.7,4.8-4.2,6.9-6.6
	c0.2-0.3,0.7-0.4,1-0.1c0,0.7-1.1,1.4-0.1,2.2c0,0.2-0.1,0.3-0.2,0.4c-2.5,1.5-2.7,4.4-4.1,6.6c-2.5,3.8-5.8,6.8-8.8,10.1
	c-1.2,1.3-2.4,2.6-3.5,3.9c-1.9,2.4-4,4.7-6.3,6.7c-2.3,2-4.1,4.4-6.3,6.5c-2.6,2.6-4.7,5.7-6.2,9c-0.9,1.8-1.8,3.5-2.9,5.2
	c-0.9,1.8-1.7,3.6-2.4,5.4c-2.1,4.6-4.4,9-6.1,13.8C394.7,182.2,394.6,182.3,394.3,182.5z"/>
<linearGradient id="SVGID_19_" gradientUnits="userSpaceOnUse" x1="772.1907" y1="-75.1996" x2="759.2807" y2="451.7004" gradientTransform="matrix(1 0 0 -1 -333.31 518.79)">
	<stop  offset="2.000000e-02" style="stop-color:#002200"/>
	<stop  offset="0.41" style="stop-color:#004304"/>
	<stop  offset="0.66" style="stop-color:#8EB879"/>
	<stop  offset="1" style="stop-color:#FFD815"/>
</linearGradient>
<path class="st18" d="M412.4,135.6c1.2-2.8,2.8-5.4,4.7-7.7c3.6-4.7,7.4-9.1,11.5-13.4c0.3-0.5,0.8-0.9,1.3-1.2
	c3.2-1.5,5.9-3.8,9-5.4c0.8-0.4,1.7-0.6,2.6-0.6c0.3,0,0.7,0,0.8,0.4c0.1,0.3,0,0.7-0.2,0.9c-0.9,0.7-1.7,1.5-2.5,2.4
	c-3.6,3.3-7,6.9-10.7,10.1c-2.8,2.3-5.4,4.9-7.9,7.6c-2.2,2.5-5,4.5-7.6,6.7C413.1,135.5,412.8,135.9,412.4,135.6z"/>
<linearGradient id="SVGID_20_" gradientUnits="userSpaceOnUse" x1="795.4865" y1="-74.6302" x2="782.5665" y2="452.2699" gradientTransform="matrix(1 0 0 -1 -333.31 518.79)">
	<stop  offset="2.000000e-02" style="stop-color:#002200"/>
	<stop  offset="0.41" style="stop-color:#004304"/>
	<stop  offset="0.66" style="stop-color:#8EB879"/>
	<stop  offset="1" style="stop-color:#FFD815"/>
</linearGradient>
<path class="st19" d="M437.8,91.8c-0.1-3.1,1.7-4.8,2.4-7c2.5-1.4,3.2-4.4,5.6-6c0.4-0.3,0.7-0.7,0.9-1.2c2.3-3.9,5.6-7,9.5-9.1
	c1-0.6,2.3-0.6,3.2-1.8c0.4-0.6,1.3-0.3,1.8,0.1s0.1,0.9-0.2,1.3c-2.6,2.8-4.3,6.4-7,9.1c-3.2,3.2-5.9,6.9-9.4,9.8
	C442.5,88.6,440.2,90,437.8,91.8z"/>
</svg>
