<?xml version="1.0" encoding="utf-8"?>
<!-- Generator: Adobe Illustrator 23.1.0, SVG Export Plug-In . SVG Version: 6.00 Build 0)  -->
<svg version="1.1" id="圖層_1" xmlns="http://www.w3.org/2000/svg" xmlns:xlink="http://www.w3.org/1999/xlink" x="0px" y="0px"
	 viewBox="0 0 559.9 606.6" style="enable-background:new 0 0 559.9 606.6;" xml:space="preserve">
<style type="text/css">
	.st0{fill:#FFFFFF;}
</style>
<title>LOGO-3white</title>
<path class="st0" d="M277.4,329.2c-3.4,1.3-4.8,3.8-5.1,7c0,0.3,0,0.8-0.4,0.9c-1.6,0.4-1.5,1.8-1.8,3c-0.9,3.9-1.4,7.8-2.6,11.6
	c-0.8,2.7-0.3,5.7,0,8.6c1.8,1.8,1.7,4.6,3.8,6.6c-1.3,0.4-2.4,1.3-3.1,2.6c-1.2,2-2.9,3.7-4.9,5c-1,0.7-2,1.4-2.9,2.3
	c-3,2.5-7.2,3.1-10.8,1.5c-1.9-0.8-3.4-2.2-4.4-3.9c-0.2-0.3-0.5-0.6-0.4-0.9c0.5-2.6-1.4-5-0.5-7.6c0.8-2.4,1.3-4.9,2.5-7.2
	c2-3.7,5-6.6,7.3-10.1c0.6-0.8,1.1-1.6,1.5-2.5c0.1-0.4,0.3-0.8,0.7-1c2.7-1.8,4.2-4.6,6.1-7.1c1.4-1.9,2.5-4,4.3-5.6
	c0.9-1,2-2,3.1-2.8c1.1-0.7,1.9-2,2-3.3c-0.8-0.2-1.5-0.5-2.2-0.6c-0.9-0.3-1.9,0.1-2.3,1c0,0.1-0.1,0.2-0.1,0.3
	c-0.3,0.9-0.8,1.6-1.5,2.3c-2.1,2.5-4.2,5.1-6.4,7.6c-1.1,1.3-1.9,2.9-3.8,3.3c-0.5,0.1-0.8,0.9-1.1,1.3c-1.7,2.1-3.1,2.4-5.4,1.1
	c-5.2-2.8-5.4-9.1-0.6-12.4c2.6-1.7,5.6-3,8.6-3.6c3.7-0.8,7.3-2.3,10.5-4.4c0.8-0.6,1.6-1.5,3-0.8c-0.7-1-1.8-1.7-3-2.1
	c-1.6-0.4-3.1-1.1-4.5-1.9c-0.6-0.3-1.2-0.5-1.9-0.6c-0.4-0.1-0.9-0.1-1.2-0.3c-2.9-3-7-4.4-9.5-7.8c-0.3-0.4-0.6-0.8-1.1-1
	c-2.9-1.1-4.5-3.6-6.5-5.7c-3.3-3.6-6.4-7.3-9.3-11.2c-1.7-2.3-3.8-4.2-5-6.9c-0.5-1.2-0.5-2.6-1.1-3.6s-2-1.4-2.7-2.7
	c-2-3.5-4.7-6.5-6.3-10.3c-0.3-0.8-1.1-1.2-1.5-1.9c-2.6-4.3-4.1-9.1-4.6-14.1c0-0.7-0.3-1.4-0.7-2c-1.4-1.4-2.2-3.2-2.3-5.1
	c0-1.3-1.2-2.3-0.8-3.7c0-0.3-0.1-0.5-0.3-0.7c-2.6-1.4-2.5-4.2-3.1-6.5c-0.7-2.7-1.1-5.4-2-8.1s-1-5.4-1.3-8.1
	c-0.1-1,0.5-2.1,0.7-3.2c0.1-0.6,0.7-1.6-0.8-1.2c-0.3,0.1-0.5-0.5-0.4-1c0.9-2.5,0.5-5.1,0.2-7.6c-0.4-1.9-0.4-3.9-0.2-5.8
	c0.3-1.8-0.4-3.9-0.3-5.8c0.1-1.4-0.3-2.8,1-3.9c0.2-0.1,0.3-0.5,0.2-0.6c-1.7-1.8,0.3-4-0.6-5.9c-0.3-0.7,0.6-1.7,1-2.3
	c1-1.6,1.5-3.5,1.7-5.3c0.1-0.5-0.1-1.7,1.2-1.4c0.2,0,0.3-0.3,0.4-0.5c0.5-2.4,2-4,3.6-5.7c0.4-0.6,0.5-1.3,0.2-2
	c-0.2-0.8,0-1.7,0.5-2.4c2.5-3.4,4.2-7.4,6.4-11c1.5-2.4,2.9-4.9,5.7-6.1c0.5-1.7,1.9-2.7,3-4c2-2.4,3.8-4.9,5.8-7.2
	c2.2-2.6,4.8-4.8,7.7-6.6c1.3-0.8,2.8-1.3,4.1-2.3c0.7-0.4,1.3-0.8,1.9-1.2c2.9-3.2,6.9-4,10.7-5.3c1.3-0.5,2.5-1.1,3.7-1.8
	c1.1-0.6,2.7-0.3,3.5-1.7c0.2-0.3,0.6-0.1,0.9,0s0.8,0.4,0.9,0.3c1.6-2.1,3.8-0.2,5.6-0.8s3.8-1,5.7-1.6s4.1-0.8,5.9-1.8
	c0.6-0.3,1.2,0,1.7,0.1c2.3,0.5,4.6,0.5,6.9-0.1c1.2-0.1,2.3-0.1,3.5,0.1c2.8,0.1,5.6,0,8.3,1c2.3,0.8,4.9,0.5,7.3,1.3
	c4.3,1.4,8.8,1.5,13.1,3.1c0.5,0.2,1,0.3,1.5,0.3c3.6-0.2,6.5,1.8,9.7,2.8c3.1,1.3,6.2,2.7,9.1,4.4c3,1.5,5.9,3,8.8,4.5
	c0.6,0.2,1,0.7,1.3,1.2c0.6,1.2,1.6,2.2,2.7,2.9c0.8,0.6,1.5,1.2,2.2,2c0.7,0.7,1,1.9,2.2,2.2c0.2,0.1,0.5,0.5,0.5,0.8
	c0.6,2.7,2.6,4.5,4.3,6.5s2.5,4.3,3.9,6.3c0.6,1,1.2,1.9,2,2.8c0.5,0.5,1,0.9,0.8,1.7c-0.1,0.5-0.2,0.8,0.5,0.8
	c0.6,0,1.1,0.5,1.2,1.1c0.2,1.6,1.7,2.7,1.6,4.2c-0.1,1.3,1.8,1.1,1.5,2.4c1.7,2.3,2.4,4.9,3.5,7.5c0.6,1.3-0.5,2.6,0.3,3.8
	s0.5,3.3,2.2,4.3c0.1,0.2,0.2,0.4,0.1,0.7c-1.5,0.9-0.2,1.9,0.2,2.5c1.2,2.7,0.9,5.5,1.1,8.2c0,0.7,0.1,1.4,0.3,2.1
	c1.1,2.3,0.2,4.5-0.2,6.6c0,0.2-0.2,0.4-0.2,0.7c0.7,2.7,0.5,6.3,0.2,9c-0.2,2.1-1.3,4.2-0.2,6.4c0.1,0.2,0,0.5-0.1,0.7
	c-1.2,4.3-1.5,8.8-3.5,13c-1.5,3.5-2.7,7.2-3.4,11c-0.6,3-1.4,6-2.6,8.9c-0.9,2-1.4,4.4-3.4,5.8c-1.3,1-1.9,2.6-2.8,3.9
	c-2.5,3.8-5.5,7.1-7.9,11c-1.3,2.1-2.8,4-3.6,6.4c-0.5,1.1-1.3,2.1-2.3,2.7c-1.7,1.3-3,3-4.9,4.1c-1.2,0.6-2,2.2-3.1,3.3
	c-1.8,1.5-3.7,2.8-5.7,3.9c-2.1,1.4-4.2,2.9-6.1,4.5c-1.5,1.4-3.6,2-5.4,3.1c-1.6,0.8-3,1.9-4.2,3.2c-0.7,1-1.7,1.8-2.9,2.3
	c-3.6,1-6.1,3.8-9.3,5.7c-2.7,1.6-5.7,2.9-8.1,5s-5.5,3.1-8.3,4.6c-3.1,1.7-6.2,3.5-9.4,5.1c-1.6,0.7-2.5,2.5-2.2,4.2
	c0.4,1.7,0.3,3.5-0.2,5.3c-0.6,1.8,0.1,3.8,0,5.7c0,0.6,0,1.2,0.1,1.8c0.7,5.1-0.5,10.1-1.3,15.1c-0.5,2.9-2.1,5.3-3.7,7.6
	c-1.3,1.9-2.8,1.6-4.8,0.2c-3.2-2.2-3.9-5.3-3.9-8.9s0.1-7.1,1.3-10.6c0.7-1.8,0.4-4,1.9-5.5C273.7,334.6,276.7,332.5,277.4,329.2z
	 M291.4,204.5c1.9-2.3,3.2-4.8,6.3-5.2c0.2-0.1,0.5-0.2,0.7-0.3c4.1-2.5,7.9-5.6,11.3-9c2-2.1,2.1-5,3.1-7.5c0.1-0.3,0-0.7-0.1-1
	c-1.2-4-3.5-7.5-6.8-10c-3-2.4-6.7-3.8-10.5-4.1c-0.7-0.1-1.3-0.3-1.9-0.6c-2.1-0.9-4.4-1.1-6.5-0.6c-0.8,0.2-1.6,0.4-2.4,0.4
	c-3.2,0.3-5.9,2.1-9,2.5c-0.1,0-0.3,0.2-0.4,0.3c-2.5,2-4.7,4.3-5.7,7.4c-0.7,2.2-1.1,4.7-0.1,6.8c1.4,3.2,3.4,6.1,6,8.5
	c2,1.8,4,3.6,6.2,5.4C284.7,199.8,288.1,202,291.4,204.5L291.4,204.5z M253.1,271.9c1.7,0.9,1.6,2.6,2.3,3.8c2,3.6,3.2,7.6,3.5,11.7
	c0,0.8-0.2,1.7-0.1,2.5c0,2.1,2.7,4.1,4.1,3c2-1.5,3.6-3.3,3.7-6.2c0.1-6.4-3-12.1-4.3-18.2c-0.5-2.4-2.3-4.5-3.1-6.9
	c-0.4-0.9-0.5-1.9-0.4-2.9c0.8-3.7,1.1-7.5,0.9-11.3c-0.2-2-0.3-4-0.2-5.9c0.5-4.2-1.1-8-2.4-11.8c-0.8-2.3-2.8-4-3.6-6.4
	c-0.1-0.3-0.3-0.6-0.6-0.8c-1.8-1.6-4-2.7-6.4-3.1c-2.4-0.5-3.3,0.6-3,3c0.1,1.1,0.7,2.1,1.7,2.6c1,0.6,1.7,1.6,2.1,2.7
	c0.6,1.7,1.4,3.4,2.3,5c1.9,3.3,1.7,6.8,2.1,10.3c0.3,2.7-0.5,5.4-0.1,8.1c0.1,0.4-0.1,0.7-0.5,0.8c0,0-0.1,0-0.1,0
	c-1.3-1.7-2.6-3.5-3.7-5.4c-1.7-3.5-4.1-6.6-7-9.1c-0.7-0.6-1.2-1.2-1.6-2c-1-2-3.1-2.8-4.5-4.5c-0.3-0.3-0.7-0.4-1.2-0.4
	c-0.7-0.1-1.4-0.3-2.1-0.7c-2.8-1.4-4.8-0.3-5.3,2.7c-0.1,0.4-0.1,0.8-0.1,1.2c-0.2,2.2,0.9,3.5,3.1,3.6c1.5-0.1,2.9,0.6,3.9,1.8
	c1.5,1.9,3.2,3.8,5,5.5c0.3,0.3,0.5,0.7,0.7,1.1c0.6,1.1,1.1,2.2,1.8,3.3c2.2,3.2,4,6.7,5.5,10.3c0.3,0.9,1.3,1.3,1.3,2.4
	c0.1,2.7,0,5.4-0.5,8.1c-0.8,4.1-3.1,7.7-3.4,11.9c-0.1,0.3-0.2,0.6-0.5,0.9c-1.6,2-1.8,4.8-4,6.6c-1.4,1.2-0.1,3.5,1.8,3.6
	c0.7,0.1,1.5,0.1,2.2,0.1c2.1-0.1,3.8-0.9,4.7-3.1c0.4-0.9,0.9-1.8,1.5-2.5c1.1-1.5,1.8-3.2,2.1-5
	C251.3,278.6,252.1,275.2,253.1,271.9z M318.9,252.4c0.5-1.3,0.9-2.3,1.3-3.4c0.9-2.5,2.5-4.6,3.9-6.9c1.4-2.4,3.2-4.4,5.4-6.1
	c1.6-1.3,3-2.9,4-4.6c0.8-1.3,0.5-2-0.9-2.8c-0.3-0.2-0.6-0.4-0.9-0.5c-1.7-0.5-3.6-1.5-5.3-0.3c-1.3,0.9-2.5,1.9-3.8,2.7
	c-2.4,1.5-3.5,4.2-5,6.3c-4,5.4-6.4,11.9-7,18.6c-0.5,4-1.9,7.9-4.2,11.3c-1,1.6-2.7,2.9-3,4.7c-0.6,2.8-2.2,5.2-2.8,8.1
	c-0.7,2.9-0.8,5.9-0.3,8.8c0.3,2.4,2.6,4.1,5,3.7c0.2,0,0.3-0.1,0.5-0.1c1.2-0.3,2.9-2.1,2.6-3c-0.6-2.1-0.2-4.1-0.1-6.1
	c0.1-3.3,1.5-6.1,3-8.9c0.4-0.6,0.5-1.6,1.7-1.9c-0.1,1,0,2.1,0.4,3.1c0.3,0.8,0.2,1.7,0,2.5c-0.7,1.6-0.6,3.5,0.3,5
	c0.7,1.7,1,3.5,1,5.3c0.2,3.2,2,5.2,5.1,5.2c2.1,0,2.6-0.5,3.3-2.6c0.5-1.5,0.4-3.2-0.3-4.6c-0.4-1-0.7-2-0.8-3.1
	c-0.3-3.3-0.3-6.6,0-9.9c0-0.8,0-1.6-0.2-2.4c-0.5-2.1-0.3-4.3,0.6-6.3c0.7-1.4,1.5-2.8,2.3-4.1c1.2-2.2,2.8-4.1,4.6-5.8
	c2.3-1.9,4.5-4,6.5-6.1c2-2.1,4.1-4.1,6.3-6c1.4-1.2,3.2-1.8,5-1.9c1.6-0.1,4.2-2,4.5-3.5c0.3-0.9,0.1-1.9-0.6-2.5
	c-1.5-1.4-3.5-2-5.5-1.8c-3.2,0.5-5.5,2.3-7.8,4.2c-3.2,2.6-6.3,5.3-9.3,8.2c-2.3,2.3-5.2,4.1-7.3,6.7
	C320.5,252.1,319.7,252.4,318.9,252.4z M257.9,172.1c0.2-0.5-0.2-1-0.4-1.7c-0.9-2.4-3-3.4-5-4.1c-1.5-0.5-3.2-1.2-4.8-0.6
	c-2.6,0.7-4.7,2.7-5.6,5.2c-1.2,3.2-1.2,3.2,0.4,6.1c0.4,0.7,0.9,1.2,1.6,1.6c0.8,0.4,1.5,0,2.1-0.3s0.3-1,0.2-1.5
	c-0.4-1.3,0.1-2.6,0.3-3.9s2.1-2.3,3.5-2.4c1.2,0.2,2.2,1.1,2.7,2.2c0.2,0.8,0.1,1.7-0.2,2.4c-0.1,0.4-0.4,0.9,0.1,1.1
	c0.9,0.4,1.7,1.2,2.9,0.9c1-0.1,1.8-0.9,2-1.9C257.9,174.2,258,173.2,257.9,172.1L257.9,172.1z M323.2,178.5c0,0.4,0,0.8,0.1,1.2
	c0.2,1.3,1.6,2.8,2.5,2.7s1.5-1,1.4-2.8c-0.1-1.4,0.8-2.6,2.1-3c1.3-0.7,2.9-0.6,4,0.4c1.1,0.9,1.5,2.4,1,3.8
	c-0.1,0.4-0.4,0.8-0.5,1.1c-0.3,0.6-0.1,1.4,0.5,1.8c0.3,0.1,0.5,0.2,0.8,0.1c2.1,0,4.7-2.8,4.6-4.9c-0.2-3.4-2.5-6.3-5.7-7.3
	c-2-0.6-4.1-0.6-6,0.2C325.2,172.8,323.3,175.5,323.2,178.5L323.2,178.5z"/>
<path class="st0" d="M215.1,464c-0.6-0.2-1-0.3-1.4-0.1c-0.8,0.4-1.7,0.1-2.1-0.7c0,0,0-0.1,0-0.1c-1.2-2.3-3.1-4.1-4-6.6
	c-0.2-0.9-0.9-1.6-1.7-2c-0.4-0.2-0.7-0.5-0.9-0.8c-3.3-4.6-7.5-8.4-11.3-12.5c-0.5-0.5-1.2-0.9-1.7-1.4c-0.9-0.9-1.7-1.3-2.6,0.1
	c-0.3,0.3-0.7,0.5-1.1,0.5c-2.5,0.4-4.4,1.8-6.3,3.3c-2.2,1.8-4.8,3-7,4.7c-0.5,0.4-1.2,0.6-1.8,0.7c-1.1,0.2-2.2,0.8-2.9,1.7
	c-1.1,1.2-2.5,2.1-4,2.8c-1.4,0.7-2.5,1.8-3.1,3.2c-0.7,1.7-2.2,2.2-3.4,2.8c-2.1,1.2-4.7,3-5.9,4.9c-0.8,1.3-1.7,2.5-2.9,3.5
	c-2.3,1.9-3.9,4.3-5.7,6.6c-0.7,0.9-1.4,2-1.2,2.9c0.1,0.6,1.5,0.9,2.3,1.5c1.1,0.8,2.8,0.9,3,2.7c0,0.1,0.2,0.4,0.3,0.3
	c1.7-0.3,2.3,1.7,3.7,1.9c1,0.2,1.9,0.7,2.6,1.5c2.1,2.2,5,3.2,7.4,5c1.8,1.6,3.8,3,5.9,4.2c1.3,0.5,2.6,1.1,3.8,1.8
	c2.8,2,4.6,5.1,5.1,8.5c0.4,3.1-3.3,6.4-6.2,5.4c-3.7-1.2-7.2-3-10.3-5.3c-0.8-0.8-1.8-1.3-2.9-1.4c-0.7-0.2-1.4-0.5-2-1
	c-4.8-2.9-9.4-6.2-14-9.4c-2-1.3-4-2.7-6-4c-1.1-0.7-2.5-0.8-3.7-1.5c-3.4-1.7-6.3-4.3-9.9-5.7s-7.1-3.4-11.1-4.2
	c-2-0.4-3.8-1.6-5.9-1.6c-2.3-2.6-6.1-0.9-8.6-3.1c-0.5-0.4-1.4-0.3-2.2-0.4c-2.4-0.4-4.7-1.2-7-1.5c-3.8-0.6-7.6-1.5-11.5-1.7
	c-1.4-0.1-2.6-0.6-3.9-0.7c-4.2-0.3-8.2-1.7-12.4-2.2c-2.4-0.2-4.7-0.7-7-1.5c-3.1-1.3-6.4-1.5-9.5-2.3c-5-1.4-10.2-2.2-14.9-4.8
	c-0.5-0.3-1.1-0.4-1.7-0.4c-0.6,0-1.2-0.1-1.7-0.4c-2.7-1.8-5.9-2.5-8.9-3.7c-1.3-0.7-2.5-1.5-3.6-2.5c-3.5-2.5-6.2-5.9-8.9-9.2
	c-0.5-3.8-3.5-6.9-2.3-11.1c0.4-1.6,0.1-3.3,2.2-4c0.4-0.1,0.5-0.8,0.7-1.3c1.9-3.2,5.1-5.3,8.7-5.9c0.3,0,0.5,0,0.7-0.1
	c3.3-0.9,3.4-1,6.3-0.4c1.9,0.3,3.8,0.4,5.7,0.3c3.7,0.1,7.1,1.5,10.7,2.4c1.3,0.3,2.5,1.4,3.9,2.1c2,1,4.2,1.6,6.5,1.6
	c0.3,0,0.8-0.1,1,0.1c2,1.7,4.7,2.1,6.8,3.5c1.6,1,3.3,1.8,5.1,2.4c4,1.6,7.8,3.7,12,4.6c1,0.2,1.6,1.1,2.5,1.4
	c1.5,0.5,3.1,0.9,4.6,1.5s3.3,1,4.1,2.9c0.1,0.3,0.5,0.4,0.8,0.5c3.4,0.6,6.6,2,9.4,4.1c0.9,0.7,2,1.2,3.2,1.4
	c1.8,0.2,2.8,2,4.6,2.3c1.8,2.3,4.6,3.1,7,4.6c1.5,1,2.8,2.5,4.8,2.7c1.8,0.2,3.6,0.7,5.2,1.5c2.5,1.1,5,2.5,7.3,4.1
	c0.3,0.2,0.6,0.4,0.5,0.8c-0.2,1.7,1.3,2,2.2,2.7c0.9,0.7,2.2,0.6,2.9-0.2c0,0,0,0,0,0c1-0.9,2-1.6,3.2-2.2c1.1-0.7,1.8-2.1,2.9-3
	s1.9-1.9,3.4-1.7c0.3,0.1,0.7-0.1,0.8-0.4c0.5-1.9,2.3-2.4,3.7-3.3c3.2-2.4,6.5-4.6,9.9-6.5c2.5-1.3,4.4-3.5,7-4.5
	c4.1-1.6,7.3-4.6,11.2-6.5c2.5-1.2,5.3-1.9,7.7-3.3c0.2-0.1,0.5-0.2,0.7-0.3c0.7-0.2,1.8-1,1.5-1.3c-0.6-0.7-0.7-2-1.9-2
	s-1.8-0.8-2.7-1.3c-3-2-5.8-4.4-8.1-7.2c-1.3-1.3-2.2-3-2.6-4.8c-0.4-2-1.2-3.9-1.1-6c0-1.3,0.3-2.6,0.7-3.9
	c0.6-1.6,1.5-3.1,3.6-3.3c1.4-0.1,2.5-1.3,3.9-1.4c2.1-0.2,3.9-0.2,5.5,1.4c1,0.8,1.8,1.7,2.4,2.8c0.1,0.2,0.3,0.5,0.5,0.5
	c2.1,0.1,2.7,2.1,3.7,3.4c2.7,3.7,5.2,7.5,7.5,11.5c0.4,1,0.9,1.9,1.5,2.8c0.6,0.8,0.8,1.8,2.1,1.9c0.9,0.1,0.9,1,0.9,1.6
	c0.2,1.1,0.4,2.1,1.6,2.5c0.4,0.2,0.7,0.5,0.8,0.9c1.5,3.4,3.8,6.3,5.3,9.7c1.8,4.2,3.7,8.3,5.8,12.3c0.8,1.5,1.3,3.2,2,4.8
	S214.6,462.4,215.1,464z M16.7,425.3c-2.2-0.1-2.6,0.2-3.9,1.9s-0.3,3.3-0.7,5c-0.2,1,0.4,2,1.4,2.3c2.3,1.1,4.7,2.1,7.1,3
	c4.3,1.4,8.8,1.5,13.3,1.9c3.9,0.3,7.8,0.7,11.7,1c1.3,0.1,2.6,0.4,3.9,0.9c0.8,0.5,1.9,0.3,2.5-0.4c0.7-0.7,0.3-1.3,0.1-2
	c-1-3.1-2.8-5.5-6-6.5c-1.3-0.4-2.4-1.1-3.4-2c-0.4-0.5-1-0.9-1.6-1c-2.1-0.3-3.9-1.3-5.9-1.8c-5.7-1.4-11.3-4.1-17.4-2.2
	C17.4,425.4,17,425.4,16.7,425.3z"/>
<path class="st0" d="M340.6,460.5c0.4-0.4,0.7-0.9,0.7-1.5c-0.1-2.5,0.9-4.7,1.3-7c0.6-2.8,1.4-5.6,2.5-8.2c0.2-0.7,0.5-1.4,1-2
	c0.5-0.4,0.7-1,0.6-1.6c-0.6-1.4,0.2-2.3,0.9-3.4c0.5-0.8,0.8-1.7,1.2-2.4c2.3-3.8,4.6-7.5,8.1-10.4c2-1.7,3.9-3.6,5.9-5.3
	c3.4-2.9,7.4-4.7,11.4-6.5c1.4-0.4,2.9-0.6,4.4-0.4c3.1,0.1,6.3-0.3,9.4,0.4c0.4,0,0.8,0.1,1.2,0.4c3.3,2.4,7.2,4.1,9.2,7.8
	c1.7,2.8,2.9,6,3.3,9.3c0.2,2.2,0.3,4.5,0.4,6.7c0.1,2.1-1.2,3.8-1.9,5.6c-1,2.3-2.1,4.5-3.4,6.6c0,0.1,0,0.2-0.1,0.2
	c-2.1,1.2-2.9,3.5-4.7,5c-0.9,0.7-1.7,1.6-2.5,2.4c-3,2.9-6.6,5-10.6,6.1c-1,0.3-1.9,0.7-2.7,1.2c-2,1.3-4.3,1.4-6.5,1.5
	c-1.2,0.1-2.2,0.7-3.3,0.9c-2.1,0.3-4.2,0.9-6.4,0.3c-1.4-0.5-2.9-0.1-4,0.8c-0.7,0.7-1.8,0.2-2.7,0.4c-1.1,0.2-1.5,0.6-1,1.7
	c0.6,1.3,1.4,2.6,2.2,3.8c1.5,1.4,2.8,3,4,4.7c0.3,0.5,0.8,0.8,1.3,1c3.2,1.2,6.1,3,9.6,3.5c2.9,0.4,5.7,1.5,8.6,2.1
	c3,0.9,6.2,1.2,9.3,1c2.8-0.3,5.3,0.5,7.9,0.8c1.8,0.2,3.6,0.2,5.4-0.2c2.7-0.6,5.7-0.5,8.1-2.3c0.1-0.1,0.3-0.2,0.5-0.2
	c3.9,0.1,6.6-2.5,9.8-4.1c0.2-0.1,0.6-0.1,0.7-0.2c2.9-3.2,7-4.8,10.4-7.5c0.8-0.7,1.8-0.8,2.6-1.4c1.5-1.2,3.1-2.1,4.2-3.8
	c0.2-0.4,0.5-0.7,0.9-0.9c3.6-2.1,6.5-5,9.6-7.8c1.9-1.7,3.8-3.5,5.6-5.4c0.9-1,1.9-1.8,3-2.5c2.8-1.8,5.3-4,7.4-6.5
	c1-1.1,2.3-2,2.9-3.4c0.2-0.3,0.6-0.6,0.9-0.8c4-2.3,6.4-6.3,10-9c2.2-1.5,4.2-3.2,6-5.1c1.5-1.8,3.9-2.5,5.2-4.5
	c0.2-0.3,0.9-0.4,1.3-0.6c2.1-0.8,4-1.9,5.8-3.2c2.2-1.5,4.9-2.3,7.3-3.6c1.8-0.9,3.7-1.6,5.6-2.1c2.1-0.9,4.3-1.6,6.6-2
	c3.6-0.5,6.9-2.5,10.6-2.1c0.5,0.1,1-0.1,1.4-0.4c1.7-1.2,3.5-0.7,5.2-0.3c1.4,0.3,2.8,0.4,4.2,0.3c4.1-0.1,8.1,0.6,11.9,2
	c1.8,0.6,3.4,1.8,5.2,2.3c0.8,0.4,1.5,1.1,1.9,1.9c1.8,3,2.5,6.6,1.8,10.1c-0.1,0.7-0.4,1.4-0.9,2c-2.5,2.5-4.5,5.6-8.2,6.5
	c-1.4,1.8-4,0.8-5.4,2.7c-0.4,0.3-0.9,0.4-1.4,0.3c-1.8-0.5-3.4,0.4-5.1,0.5c-2.6,0.2-5.3,0.8-7.9,0.3c-3.3-0.6-6.6,0-9.9,0.1
	c-2.7,0-5.3,0.9-7.9,1.4c-2.4,0.5-4.7,1.6-7.3,1.4c-2.1,0-4.1,0.7-5.7,1.9c-1.3,1-2.8,1-4.1,1.5c-0.5,0.2-1.1,0-1.5,0.2
	c-2,1.4-4.4,2-6.6,3c-4.6,1.9-8.4,5-12.2,8.1c-2.7,2.2-6,3.6-8.9,5.6c-4,2.8-8.6,4.8-11.9,8.6c-2.5,0.9-4,3.2-6.1,4.5
	c-0.6,0.4-1.2,0.9-1.7,1.4c-1.1,1.1-2.4,2-3.7,2.7c-3.5,1.9-6.9,3.9-10.3,5.9s-6.7,4.4-10.8,5.3c-0.8,0.2-1.6,0.6-2.3,1
	c-5.3,2.5-10.9,4.3-16.7,5.5c-1.5,0.1-3,0.5-4.3,1.2c-0.8,0.5-1.7,0.7-2.6,0.5c-1.7-0.5-3.2,0.1-4.7,0.4c-2,0.4-4.1,0.3-6.1-0.2
	c-1.8-0.3-3.6-0.4-5.4-0.3c-2.7,0.1-5.3-0.4-7.8-1.5c-3.1-1.5-6.4-2.2-9.6-3.5c-2.4-1-4.6-2.3-6.5-3.9c-3.6-2.9-5.6-7.2-8.8-10.3
	c-0.2-0.2-0.4-0.5-0.4-0.9c-0.2-2.1-2.1-3.5-2.3-5.7c0-0.5-0.4-0.4-0.7-0.4c-1.3-0.2-2.6-0.5-3.9-0.7c-3.3-0.3-5.9-2.1-8.5-3.9
	c-1.1-0.9-1.6-2.4-1.1-3.8c0.5-1.2,1.8-1.9,3.1-1.7c0.4,0,0.8,0,1.2,0.1C335.2,460.1,337.9,460,340.6,460.5z M353.4,461.1
	c1.7,0,3.4-0.2,5.1-0.4c5.4-0.3,10-2.7,14.4-5.6c1.1-0.6,2.1-1.4,3-2.4c1.8-2.4,3.8-4.7,5-7.6c0.4-0.9,0.2-2,0.8-2.8
	c0.9-1.3,1.2-2.9,0.8-4.4c-0.3-2-1.7-3.2-2.8-4.7c-1.3-1.8-3-2.3-4.7-2.8c-1.8-0.5-3.8-0.4-5.5,0.4c-2.7,1-4.9,2.8-7.2,4.3
	c-1.8,1.1-3.7,2.5-4.4,4.8c-0.6,1.8-2.4,2.9-2.7,4.9c-0.2,0.5-0.5,0.9-0.9,1.2c-1.3,1.1-2.2,2.7-2.5,4.5c-0.6,2.5-1.2,5-1.7,7.5
	s0.1,3.5,2.8,3.3L353.4,461.1z M530.1,409.8c-1.5-0.1-3-0.1-4.5,0c-3.5,0.6-6.9,1.8-10,3.6c-1.2,0.5-1.7,1.9-1.1,3.1
	c0,0,0,0.1,0.1,0.1c1.1,2.8,3.8,4.5,6.8,4.4c0.5,0,1.1-0.3,1.3,0.3c0.3,0.9,1,0.7,1.6,0.8c1.1,0.2,2.1,0.3,3.2,0.3
	c3-0.1,5.9,0.7,8.9,0.1c0.5,0,1,0,1.5,0.1c4,0.5,7.7,0.5,11-2.5c1.7-1.5,1.9-4.5-0.1-5.6c-2-1.3-4.3-2.2-6.6-2.7
	C538.2,410.8,534.2,410.1,530.1,409.8z"/>
<path class="st0" d="M269.8,465.3h1.3c4.4,0,8.8,0.2,13.3,0c4.3-0.2,8.6,0.8,12.8,1.7c2.6,0.5,5.2,1,7.8,1.5c2.1,0.6,4.1,1.3,6,2.3
	c0.9,0.4,1.7,1,2.6,1.4c2.6,0.9,4.4,2.9,6.5,4.5c2.5,1.9,4.8,4,7,6.2c0.9,0.9,1.1,2,1.8,2.9c0.9,1.3,2.1,2.4,2.6,4.1
	c0.5,1.5,0.8,3,0.8,4.6c0,2.7-0.3,5.4-1,8.1c-0.2,0.8-0.6,1.5-1,2.2c-1.9,3.2-4.9,5.3-7.5,7.8c-2,1.9-4.4,3.2-6.5,4.8
	c-0.6,0.4-1.3,0.7-2,1c-2.6,1.3-5.3,2.3-8,3.2c-3.8,1.2-7.5,3.2-11.6,3.5c-1.1,0.1-2.1,0.4-3.1,0.8c-2.5,0.8-5.2-0.2-7.6,0.7
	c-1.1,0.4-2.5-0.1-3.4,1c-0.2,0.2-0.6,0.1-0.9,0.1c-2.9-0.7-6,0-8.9-0.4c-3.6-0.7-7.2-1.1-10.8-1.2c-1.1-0.1-2.1-0.3-3.1-0.8
	c-2.9-1.2-6-1.8-8.7-3.6c-0.5-0.3-1-0.5-1.6-0.6c-0.9-0.1-1.8-0.5-2.5-1c-2.8-2-6.3-2.9-9.2-4.7c-5.4-3.3-10.3-7.1-13-13.1
	c-0.1-0.2-0.2-0.4-0.3-0.7c-0.3-5.6-0.5-11.2,4-15.5c1.4-1.3,2.1-3.1,3.5-4.5c1.9-2.2,4.1-4.2,6.3-6c3.2-2.2,6-5.3,10.2-5.8
	c0.3,0,0.8-0.3,0.8-0.5c0.4-1.7,1.8-1.5,3-1.3c1.7,0.2,2.9-1.1,4.5-1.2C259.1,466.4,264.4,465.2,269.8,465.3z M271.7,470.6
	c-2.1,0.1-4.1,0.4-6.2,0.8c-1.8,0.6-3.7,1-5.6,1.1c-0.6,0.1-1.1,0.2-1.6,0.5c-2.5,1.3-5.1,2.4-7.6,3.7c-2.6,1.4-5.7,2.1-7.7,4.6
	c-0.3,0.3-0.7,0.4-1.1,0.5c-1.7,0.9-2.9,2.5-3.6,4.3c-0.5,1.3-0.2,2.6-0.3,4c-0.4,3.2,1.6,5.4,3.9,6.8c1.7,1.1,3.5,2,5.4,2.6
	c1.6,0.4,2.8,1.8,4.5,1.9c3.4,0.4,6.7,1.1,9.8,2.2c0.2,0.1,0.3,0.1,0.5,0.2c2.2,0.1,4.4,0.2,6.6,0.4c1.7,0,3.4-0.2,5.1-0.4
	c1.2,0,2.3-0.1,3.4-0.2c2.4-0.3,4.6-1.5,7.1-0.8c0.3,0.1,0.8-0.2,1.2-0.2c2.9-0.3,5.7-1.3,8.5-1.8c3.5-0.7,6.8-1.9,9.8-3.8
	c3.1-1.7,5.4-4.5,6.6-7.8c0.9-2.6,1.6-5.1-0.8-7.4c-0.6-0.8-1.1-1.6-1.5-2.5c-0.2-0.3-0.2-0.6-0.5-0.8l-6.2-4.1
	c-2.3-1.5-5.2-1.6-7.5-2.9c-0.4-0.1-0.8-0.1-1.2,0c-1.1,0.2-2.3,0.2-3.4-0.2c-1.3-0.4-2.6-0.6-3.9-0.8
	C280.9,470.5,276.3,470.6,271.7,470.6L271.7,470.6z"/>
<path class="st0" d="M275.2,403.4c1.3-2.9,3.8-4.8,4.9-7.7c0.2-0.4,0.6-1.2,0.8-1.1c1.7,0.3,1.2-2.1,2.6-2.1
	c1.2-2.3,3.6-2.8,5.7-3.8c0.4-0.2,0.9-0.1,1.2-0.4c1.7-1.4,3.8-2.2,6-2.5c2.5-0.3,5-1.4,7.5-0.8c3.3,0.6,6.5,1.7,9.4,3.3
	c2.4,1.4,4.7,3.1,6.8,5c2.3,2.1,4.1,4.8,5,7.8c0.1,0.4,0.3,0.8,0.6,1.1c1.9,1.4,1.7,3.6,2.1,5.6c0.5,2.7,0.2,5.4,0.9,8.1
	c0.1,0.7,0.2,1.3,0.1,2c-0.3,3.3-0.7,6.6-1.1,9.9c0,0.8-0.3,1.7-0.7,2.4c-1.4,2-1.8,4.5-3,6.5c-2.3,3.7-4.8,7.1-7.6,10.4
	c-0.7,0.8-1.7,1.3-2.4,2.2s-1.7,0.5-2.6,0.5c-3.5,0-5-5-3.2-7.3c1-1.3,2.2-2.5,2.3-4.2c0.1-0.6,0.6-1.1,1.2-1.2c2.3-0.2,3-2.7,5-3.2
	c0.2-0.1,0.3-0.2,0.3-0.4c0.5-2.3,2.1-3.9,3.3-5.7c1.8-2.8,1.4-6.4,3.1-9.2c0.1-0.1,0.1-0.3,0-0.4c-1.6-2-0.8-4.8-2.3-6.9
	c0-0.1-0.1-0.2-0.1-0.2c0.6-2.2-1.3-3.3-2.3-4.7c-0.6-1-2-1.5-1.9-2.9c0-0.2-0.3-0.4-0.5-0.5c-2.7-1-4.9-3-7.8-3.7
	c-0.7-0.1-1.3,0-1.9,0.2c-0.9,0.3-1.8,1.2-2.2-0.6c0-0.3-0.4-0.3-0.6-0.2c-2,0.6-4.1,0-6.1-0.1c-0.3,0-0.8-0.1-1,0
	c-1.6,1.2-3.5,0.7-5.3,0.8c-2.2,0.1-3.3,1.8-4.5,3.2c-2.1,2.7-3.5,5.9-4.1,9.3c-0.2,2-1.7,3.5-3.6,4c-3,0.8-5.9,0.7-8.5-1.5
	c-0.8-0.6-1.4-1.5-1.7-2.4c-0.8-2-1.5-4.2-3.1-5.8c-0.6-0.6-0.5-1.5-1-2.3c-1.5-2.4-3.8-3.4-6.3-4.4c-2.7-1.2-5.7-1.7-8.6-1.4
	c-3.2,0.5-6.7,0.4-9.5,2.5c-0.8,0.6-2,0.4-2.5,1.5c-0.2,0.4-0.6,0.2-0.8-0.1s-0.5-0.8-0.8-0.1c-0.6,1.1-1.4,2.1-2.4,2.7
	c-1.8,1.4-2.4,3.3-2.7,5.4c-0.7,4.3-0.6,8.6-0.7,12.9c0,1.4,1.8,1.9,1.5,3.3c1.9,0.6,1.9,2.5,2.5,4c0.5,1.1,0.6,2.4,2,2.9
	c0.3,0.1,0.6,0.6,0.8,0.9c1.7,2.9,4.5,4.5,7.5,5.9c2.7,1.4,4.3,4.3,4.1,7.3c-0.3,2.2-2.3,3.9-4.6,3.6c-0.2,0-0.5-0.1-0.7-0.1
	c-1.1-0.4-2.2-0.7-3.4-0.9c-0.7-0.1-1.3-0.4-1.8-0.8c-0.6-0.5-1.1-1-1.7-1.5c-1-0.9-2.2-1.5-2.8-3s-2.1-2.5-2.7-4
	c-0.6-1.6-1.4-3.1-2.5-4.5c-1.8-2.3-2.1-5.1-3.5-7.5c-0.6-1.4-0.9-3-0.9-4.6c-0.1-1.4-0.4-2.8-1.1-4c-1.6-3.3-2.1-7.1-1.3-10.7
	c0.4-3.1,1.4-6,3.1-8.6c2.3-3.4,5-6.6,7.8-9.6c1.3-1.4,3-2.4,4.8-3c1.4-0.5,2.8-1,4.1-1.7c3-1.6,6.2-1.5,9.4-1.2
	c3,0.2,5.8,1.2,8.3,2.9c1,0.7,2.2,0.6,3.3,1c2.3,0.9,3.6,2.9,5,4.6c1,1.1,2,2.1,3,3.2s2.1,2.1,2.2,3.8
	C273.7,401.4,274.8,402.1,275.2,403.4z M271.7,399c0.4,0.1,0.5-0.1,0.5-0.4c-0.1-0.2-0.2-0.4-0.4-0.5c-0.2-0.1-0.3,0-0.4,0.2
	c0,0.1,0,0.1,0,0.2C271.4,398.7,271.6,398.9,271.7,399z"/>
<path class="st0" d="M127.8,63.5c-1.1-1.5-2.3-2.8-3.4-4.3c-2.2-3-3.9-6.3-5.9-9.4c-0.8-1.3-1.5-2.8-2-4.3c-0.5-1.6-1.3-3.2-2.4-4.6
	c-1-1.3-1.5-3.1-2.3-4.6c-0.6-1.3-1.1-2.8-2.8-3.2c-0.6-0.1-1-0.8-0.9-1.4c0-0.1,0-0.2,0.1-0.2c1.2-2.2-0.3-4-0.6-6
	c-0.2-1.1-0.8-2.2-0.8-3.4c0-0.2,0-0.5-0.1-0.7c-1.2-1.2-1.6-2.9-1.2-4.6c0.2-0.8,0-1.9,0.1-2.8c0.3-1.6,0.5-3.3,0.7-4.9
	c0.2-2.3,1.7-4.1,2.2-6.3c0.3-1,1.5-1.4,2.5-1.3c3.8,0.3,7.5,0.6,10.9,2.8c2.7,1.7,4.6,4.4,7.2,6.2s4.2,4.1,6.3,6.2
	c1.3,1.2,2.4,2.6,3.4,4.1c1.2,1.8,2.3,4,4.8,4.6c0.2,0.1,0.4,0.2,0.6,0.5c2.3,3.7,5.3,6.9,7.1,11c0.5,1.1,1.6,1.9,2.3,2.9
	c1.9,3,3.8,6.1,5.5,9.1c1.1,1.9,2.1,3.9,3.1,5.9c0.9,1.8,1.1,3.9,2.1,5.7c2.7,4.6,4.7,9.5,7.3,14.1c1.5,2.5,3.5,5.1,3.6,8.3
	c0,0.3,0.2,0.6,0.4,0.9c2.2,2.4,2.8,5.6,4,8.5c0.4,0.9,0.7,1.9,0.8,2.9c0.6,3.4,2.4,6.4,3.3,9.6c0.2,0.7,0.7,1.3,0.9,2
	c1.3,5.8,4.2,11.1,5.3,17c0.5,1.8,1.1,3.6,1.8,5.4c1.1,3,1.4,6.1,2.1,9.2c0.9,4.2,1.7,8.4,2.9,12.6c1,3.6,2.1,7.1,2.2,10.9
	c0.2,1.1,0.4,2.1,0.7,3.1c0.4,2.4,0.8,4.9,0,7.3c-0.2,0.5-0.1,1,0.1,1.5c0.3,1,0.3,2.2-0.2,3.2c-0.7,2.1-1.5,2.5-3.2,1s-4-2.7-5-5.1
	c-0.7-1.2-1.7-2.2-3-2.9c-1.5-1-2.8-2.3-3.7-3.8c-1.3-2.3-3.2-4.3-5.5-5.7c-1.9-1.2-3.5-2.8-4.9-4.5c-2.5-2.7-5.1-5.2-7.8-7.6
	c-2.5-2.2-4.9-4.7-6.9-7.4c-2.1-3-4.1-6-5.9-9.2c-2.2-3.8-3.7-7.9-4.3-12.3c-0.4-2.2-1.7-4.2-3.6-5.5c-3.4-2.4-5.8-5.7-8.6-8.7
	c-0.2-0.3-0.4-0.6-0.7-0.8c-5.2-4.2-9-9.7-14-14.1c-0.6-0.6-1.3-1.2-2-1.8c-4.4-3.2-8-7.5-10.5-12.3c-1.8-3.3-3.2-6.7-4.1-10.3
	c-0.5-2.2-0.3-2.5,1.5-4c2.1-1.8,4.6-1.9,7.2-2.3c1-0.1,1.6,0.7,2.5,0.8c3.4,0.3,6.7,1.1,9.5,3.3c0.2,0.1,0.3,0.1,0.5,0.1
	C127.4,63.6,127.6,63.6,127.8,63.5z M198.2,177.2c-0.5-1.7-0.4-3.6,0.2-5.3c0.4-2,0.3-4-0.1-6c-0.2-1.5-0.9-2.9-0.8-4.5
	c0-2.9-0.5-5.7-1.5-8.4c-1.3-4.5-2-9.2-3.3-13.7c-0.6-2.1-0.3-4.3-1.1-6.4c-0.6-1.6-1-3.3-1.6-5c-0.5-1.5-1-3-1.5-4.5
	c-1.2-3.6-1.4-7.7-3.8-10.9c-0.2-0.4-0.3-0.8-0.3-1.2c-1-4.3-2.5-8.5-4.5-12.5c-0.1-0.3-0.5-0.6-0.4-0.9c0.5-3.7-2.3-6.5-2.7-9.9
	c0-0.4-0.5-0.6-0.7-1c-0.7-1.3-1.9-2.3-2.1-3.9c-0.3-1.6-0.9-3-1.8-4.4c-1.3-2.4-2.6-4.7-3.8-7.1c-1.5-3-2.9-6.1-4.6-9
	c-2.1-3.4-2.2-7.8-5.2-10.8c-0.1-0.1-0.1-0.1-0.1-0.2c0.2-1.9-1.2-3.1-2.1-4.4c-0.8-1.1-1.6-2.3-2.2-3.6c-0.8-1.7-1.8-3.2-3-4.6
	c-0.6-0.7-1.1-1.4-1.5-2.3c-1-2.7-3-4.7-4.4-7.1c-0.5-0.9-2-1.1-2.1-2.5c0-0.3-0.6-0.2-0.9-0.3c-0.7-0.1-1.2-0.6-1.5-1.2
	c-0.4-1-1.1-1.9-2-2.5c-0.5-0.4-1-0.9-1.3-1.5c-0.6-1.6-2.4-2.3-2.9-3.9c-2.6-1-3.5-3.8-5.6-5.4c-1.7-1.3-3.7-2.6-4.7-4.7
	c-0.2-0.3-0.5-0.4-0.8-0.4c-0.7-0.1-1.4-0.4-1.9-1c-2.9-2.6-6.6-2.7-10.2-3.1c-0.7-0.1-1.4,0.3-1.6,0.9c-1.6,3.3-2.4,6.9-2.2,10.6
	c0.6,7.9,2.4,15.5,6.4,22.4c1.3,2.2,2.8,4.2,3.6,6.7c0.4,1.4,1,2.8,1.6,4.2c1.3,2.7,3.6,4.9,4.5,7.9c0.1,0.3,0.3,0.6,0.6,0.8
	c2,1.6,2.9,4,4.6,5.8c1,1,1.7,2.4,2.7,3.5c0.3,0.3,0.6,0.9,0.3,1.3s-0.9,0.3-1.4,0.1c-0.8-0.3-1.5-0.7-2.2-1.1
	c-4.1-2.7-8.8-4.3-13.7-4.7c-2.3-0.3-4.6,0.3-6.4,1.8c-0.7,0.4-1,1.3-0.8,2.1c0.5,2,1.5,3.9,2.2,5.8c0.9,2.9,2.7,5.3,4.1,7.9
	c1.9,3.4,5,5.8,7.9,8.2c3.3,2.7,5.9,6.1,8.9,9c2,2,3.6,4.3,5.9,6c1,0.8,2,1.8,2.8,2.8c2.3,2.8,4.8,5.3,7.5,7.6
	c2.3,1.8,4.1,4,4.4,7.2c0.2,1.4,0.5,2.7,0.9,4.1c0.8,2.9,2.6,5.3,3.5,8c0.2,0.4,0.5,0.9,0.8,1.2c1.8,2.6,3.4,5.2,5.3,7.8
	c1.8,2.4,3.9,4.5,6.2,6.4c2.5,2.1,4.5,4.6,6.9,6.8c1.8,1.9,3.8,3.7,5.9,5.3c1,0.5,1.8,1.2,2.5,2c1.5,2.2,3.9,3.6,5,6.1
	c0.1,0.2,0.5,0.4,0.8,0.5c0.9,0.4,1.7,1.1,2.2,1.9C193.3,172.4,195,175.4,198.2,177.2z"/>
<path class="st0" d="M484.2,24.4c-0.4,2.4-0.7,5.3-1.4,8.1c-1.1,4.2-2.9,8.1-4.1,12.3c-0.6,1.8-1.5,3.4-2.5,5
	c-1.5,2.8-2.8,5.6-3.9,8.6c-0.3,0.8,0.4,0.9,1,1.1c1.4,0.5,2.7,1.3,3.6,2.5c1.3,1.6,1.8,3.7,1.4,5.8c-1,4.6-3.6,8.4-6,12.2
	c-1.2,2-2.5,3.9-3.8,5.8c-1.1,1.6-2.4,3.1-3.9,4.5c-2.1,1.9-4,4-5.9,6.1c-1.2,1.2-2.6,2.3-4,3.3c-0.9,0.9-1.9,1.8-3,2.6
	c-0.6,0.4-0.9,1.1-0.8,1.7c0.4,2.6-1.1,4.8-1.5,7.2c-0.5,3.6-2.6,6.4-5.1,8.9c-1.2,1.1-2.2,2.5-2.8,4.1c-0.2,0.5-0.6,1-1.1,1.3
	c-1.2,1-2.6,1.8-3,3.5c-0.1,0.3-0.4,0.5-0.6,0.8c-3.3,2.9-5.8,6.6-9,9.6c-3.9,3.6-6.8,8.1-10.1,12.2c-2.7,3.2-5.2,6.6-7.4,10.1
	c-1.7,2.9-3.9,5.5-5.7,8.3c-2.9,4.7-6.3,9.1-7.8,14.5c-0.6,2.5-2.4,4.6-4.8,5.6c-1.7,0.8-2.2,0.6-3-1.2c-1.5-3-2.4-6.2-1.6-9.6
	c0.1-0.4,0-0.8-0.1-1.3c-0.6-3.3-0.5-6.6-0.8-9.9c-0.2-2.5,0.5-5,0.7-7.4c0.3-4.8,1.8-9.5,2.4-14.2c0.1-0.6,0.3-1.1,0.6-1.6
	c0.8-1.6,1.3-3.4,1.3-5.3c0-3,1.1-5.7,2.1-8.4c0.6-1.4,1-2.8,1-4.3c-0.1-1.6,0.7-3.1,1.1-4.6c0.5-2.1,1-4.2,1.6-6.3
	c0.4-0.9,0.8-1.8,1.3-2.7c2.2-5.5,4.6-11,6.9-16.5c0.7-1.6,1.2-3.3,1.9-4.8c1.4-2.8,3-5.5,4.5-8.2c2-3.4,3.8-7,5.6-10.5
	c1.4-3.1,3.1-6,5.2-8.7c2.5-3.2,5.2-6.3,7.6-9.6c2.2-3,5.2-5.5,8-8.2c1.2-1.1,2-2.4,3.1-3.6c2.8-3,6.2-5.5,9-8.6
	c1.9-1.8,3.9-3.3,6.1-4.7c1.6-0.9,3-2,4.3-3.3c0.2-0.3,0.5-0.5,0.8-0.6c1.7-0.8,3.2-1.9,4.6-3.2c1.9-1.7,4.5-1.6,6.6-2.7
	c1.9-0.9,3.9-1.4,6-1.4c3-0.2,5.5,2.1,5.7,5.1C484.2,24.2,484.2,24.3,484.2,24.4z M388.3,181.2c0.2,0.6,0.3,1.2,0.3,1.8
	c-0.1,2,0.9,3.4,2.1,4.8c0.2,0.2,0.5,0.5,0.5,0.4c0.4-1.4,2.3-0.4,2.7-1.7c0.5-2,1.9-3.6,2.4-5.7c0.6-2.6,1.8-5,3.5-7.1
	c2.6-2.9,4.8-6.1,6.7-9.5c2.2-4,5.5-7.1,7.7-11c1.2-2,2.7-3.9,4.4-5.7c2.5-2.7,4-6.3,7.2-8.4c0.6-0.5,1.1-1,1.4-1.7
	c0.4-0.8,1-1.5,1.8-2c0.8-0.6,1.5-1.3,2.1-2.1c1.4-1.6,2.3-3.6,4.3-4.7c0.2-0.1,0.5-0.3,0.5-0.5c0.2-1.7,1.6-2.4,2.7-3.4
	c0.5-0.4,1-0.9,1.3-1.4c1.5-2.5,3.4-4.9,5.5-6.9c0.9-0.9,1.5-2,1.8-3.3c0.5-2.5,1.2-4.9,2-7.2c0.2-0.5,0.3-1.1,0.2-1.7
	c-0.3-1.6,0.5-2.7,1.6-3.6s2.5-2.1,3.8-3.1c2.3-1.9,4.4-4,6.4-6.1c2.4-2.5,4.7-5.1,6.8-7.9c1.4-1.8,2.3-3.8,3.6-5.6
	c2.3-2.9,3.9-6.4,4.8-10c0.8-3.6-0.4-5.8-4-6.9c-0.7-0.3-1.5-0.8-2.1-1.2c-0.5-0.3-0.5-0.7-0.2-1.2c2.3-3.5,3.7-7.5,5.7-11.2
	c1.6-3.2,2.9-6.5,3.8-9.9c1.4-4,2.4-8,3-12.2c0.4-2.2-1.1-4.3-3.4-4.7c-0.2,0-0.4,0-0.6-0.1c-3.7-0.2-6.7,1.9-10,3
	c-2.5,0.8-4.5,3-6.7,4.6c-1.7,1.2-3.3,2.6-5.2,3.8c-1.8,1.1-4,2.3-5.3,4c-1.8,2.1-3.8,4.1-6,5.9c-3.6,3.1-6.8,6.7-10.1,10.2
	c-2.4,2.3-4.5,4.8-6.4,7.5c-0.6,0.9-1.2,1.8-2,2.5c-3.4,3.2-6,7.1-7.8,11.4c-0.4,1-0.9,2-1.5,2.9c-1.9,2.7-2.9,5.9-4.7,8.7
	c-1.2,1.9-1.8,4.2-3.6,5.8c-0.2,0.2-0.4,0.5-0.5,0.8c-1.2,4.9-3.8,9.3-5.5,14c-1.1,3-2.4,5.8-3.8,8.6c-1.8,3.2-2.2,6.9-3,10.4
	c-0.9,3.8-1.5,7.6-3.3,11.1c-0.2,0.5-0.3,1-0.3,1.5c-0.2,2.4-0.6,4.7-1.2,7c-1.3,5.2-2.9,10.4-3.2,15.8c-0.1,0.5-0.1,1-0.3,1.5
	c-0.7,4.3-0.7,8.6,0,12.9c0.2,1.7,0.2,3.5,0.1,5.2C388.5,180.2,388.4,180.8,388.3,181.2z"/>
<path class="st0" d="M164.6,595.9c-1.5-0.3-2.9,0.2-4.4-0.2c-0.8-0.2-1.1,0.3-1.2,1.2c-0.1,2.2,0.2,4.3,1,6.3c0.1,0.5,0.5,1,0.5,1.4
	c-0.1,0.7,0,1.8-1.1,2s-0.8-0.8-1-1.4c-1.4-2.8-2.1-5.9-1.9-9.1c-0.1-0.5-0.2-1-0.3-1.5c-0.9-3.9-1.1-7.9-0.6-11.8
	c0.2-1,0.6-2.7-0.3-3.2c-1.1-0.7-2.4-1.2-3.7-1.3c-3.2,0.1-6.5-0.4-9.5-1.6c-2.3-1-4.5-2.1-5.7-4.5c-0.8-1.6-0.4-2.5,1.3-2.5
	c1.3,0,2.6,0.1,3.9,0.5c4.3,1.6,8.8,2.8,13.1,4.5c1.8,0.5,3.7,0.7,5.6,0.4c0.4,0,0.8-0.3,1.2-0.2c2.2,0.2,4.5-0.2,6.5-1.1
	c0.6-0.3,1.4-0.1,1.7,0.5c0.1,0.2,0.2,0.4,0.2,0.5c0.2,0.9-0.1,1.5-1,1.6c-1.2,0.3-2.4,0.7-3.5,1.2c-1.4,0.6-2.9,0.9-4.3,0.8
	c-1.9-0.1-2.4,0.7-3,2.5c-0.8,2.3,0.3,4.4,0.1,6.6c-0.1,1,0.2,1.9,0,2.9c-0.2,1.6,0.3,2,2,2.5c1.1,0.4,2.3,0.4,3.4,0.1
	c1-0.3,2.1-0.5,3.2-0.4c1,0.2,2-0.1,2.8-0.8c0.6-0.7,1.6-0.7,2.2-0.1c0,0,0,0,0,0c0.6,0.4,0.8,1.1,0.6,1.8c-0.2,0.8-0.9,1.5-1.7,1.5
	C168.7,595.4,166.7,595.6,164.6,595.9z"/>
<path class="st0" d="M374.8,598.8c0.2-0.9,1.7-0.7,1.7-2.2c0-2.7-1-3.8-3.7-4.2c-2.5-0.3-4.7,1.1-7.1,0.8c-0.2,0-0.6,0.2-0.6,0.3
	c0,1.7-2,2.7-1.6,4.6c0.2,1.2,0.2,2.3,0.2,3.5c0,1.4-0.4,1.6-1.6,0.9c-0.6-0.3-1.1-0.8-1.2-1.5c0-0.1,0-0.2,0-0.2
	c-0.7-1.6-1-3.2,0.5-4.6c0,0,0-0.2,0.1-0.2c0.5-1.7,0-3.7,0.7-5.1s1.9-2.8,2.3-4.6c0.3-1.3,0.9-2.5,1.7-3.5c1.8-2.3,4.4-2.3,6.3,0
	c1.2,1.4,2.2,2.9,3.3,4.3s1.1,1.4,2.5,0.3c1.1-0.7,2.3-1,3.5-0.8c0.4,0,0.9,0.2,1,0.7c0.1,0.4-0.1,0.8-0.5,1c-1.5,0.6-2.2,2-3.4,2.9
	c-0.7,0.5-0.9,1.4-0.5,2.2c0.6,1.8,0.9,3.7,0.7,5.7c-0.1,1.8-1.1,2.3-2.6,1.4C375.7,599.9,375,599.6,374.8,598.8z M373.3,589
	c-1.1-1.1-1.7-2.6-3-3.5c-1.6-1-2.7-0.7-3.2,1.2c-0.2,0.8-0.5,1.6-0.8,2.3c-0.4,0.9-0.1,1.6,0.9,1.4
	C369.1,590,371.3,590.5,373.3,589z"/>
<path class="st0" d="M337.4,595.1c-0.4,2.2-0.3,4-1.6,5.5c-1,1.2-1.6,1.6-3.1,1.1c-1.8-0.4-3.3-1.6-4.2-3.3c-1.1-2.3-2.6-4.4-3.1-7
	c-0.2-1.1-1.2-1.7-1.7-2.6c-1-1.9-0.3-4.1-1.4-5.9c-0.3-0.6,0.2-1,0.6-1.1c0.8-0.2,1.7-0.2,2.2,0.7c0.6,1.2,1.6,2.2,1.7,3.8
	c0.2,2.6,1.4,4.9,2,7.4c0.4,1.7,2,2.8,3.3,4c0.7,0.6,1.8,0.1,2.3-1.2c0.3-0.9,0.7-1.7,1.3-2.4c1.5-1.9,2-1.9,3.8-0.2
	c1.5,1.4,2,3.6,3.9,4.8c1.1,0.7,1.6,0.9,2.2-0.2c0.7-1,1.2-2.1,1.7-3.3c0.6-1.8,1.8-3.6,2.1-5.5c0.2-1.6,0.8-3,1.9-4.2
	c0.6-0.5,0.9-1.6,1.9-1.1s1,1.4,1.2,2.3c0,0.3-0.1,0.7-0.3,0.9c-2.2,1.9-2.4,5-4,7.3c-0.9,1.4-1.7,3-2.1,4.7
	c-0.5,1.4-1.2,3.1-2.8,3.2s-3-1.2-3.8-2.8C340.4,598.1,339.1,596.4,337.4,595.1z"/>
<path class="st0" d="M248.5,587.6c0,1.4-0.5,2.8-1.4,3.9c-3,3.4-5.6,7.2-7.8,11.2c-0.7,1.3-1.9,2.1-3.3,2.3
	c-1.1,0.2-1.6-0.3-1.3-1.1c0.8-1.9,0.1-3.6-0.3-5.3c-0.9-3.5-1.7-6.9-2.7-10.3c-0.4-1.9-0.7-3.8-0.7-5.7c-0.1-1.5,0.5-2,2-1.6
	c0.6,0.2,1.3,0.4,1.8,0.8c2.8,1.5,6,1.7,9,2.5c1.3,0.4,2.6,1.1,3.7,1.9C248.1,586.4,248.5,587,248.5,587.6z M237.2,599.9
	c1.2-2,2.6-3.9,4-5.8c0.6-1.1,1.1-2.2,1.4-3.4c0.4-1.7-0.3-3.6-1.9-4.5c-1.3-0.6-2.7-1.1-4.2-1.5c-2.3-0.6-3.1,0.2-2.6,2.5
	c0.6,2.5,1.4,4.9,1.8,7.4C236,596.4,236.7,597.8,237.2,599.9z"/>
<path class="st0" d="M388,578.7c0.2,0.2,0.3,0.4,0.5,0.6c2.5,2.1,4.5,4.8,5.8,7.9c0.7,1.7,2.1,1.9,3.7,0.9c0.1-0.1,0.4-0.2,0.4-0.3
	c0.2-1.5,1.6-2.2,2.4-3.3c0.9-1,1.4-2.2,1.6-3.5c0.1-1.2,1.1-2,1.8-2.9s1.7-2,2.6-3c0.9-1.2,2.7-1.5,3.9-0.6
	c0.2,0.1,0.3,0.3,0.4,0.4c0.4,0.4,0.5,0.9,0.1,1.3c-3.9,3.8-6,9.1-10.2,12.8c-2.5,2.2-2.8,4.8-1.4,7.9c0.4,1,0.6,2.1,0.4,3.2
	c0,0.9-0.8,1.6-1.7,1.6c-0.1,0-0.1,0-0.2,0c-1.1,0-1.9-0.8-1.7-1.8c0.5-1.7-0.3-3.1-0.3-4.7c0-1.9-1.6-3.2-2.5-4.7
	c-1.6-2.6-4.2-4.4-5.5-7.3c-0.5-1.1-0.8-2.2-1-3.3C387,579.4,387.4,579.1,388,578.7z"/>
<path class="st0" d="M209.1,588.9c-0.5,0.6-0.8,1.3-0.8,2.1c-0.1,3.2-0.7,6.4-1,9.6c0,0.5,0,1,0.1,1.5c0.2,1.1-0.5,2.1-1.5,2.4
	c-1,0-1.9-0.8-2.1-1.8c-0.2-1.1-0.2-2.3,0.2-3.5c2-5,2.7-10.2,2.9-15.5c0-0.3-0.2-0.6,0.1-0.9s0.7,0,1,0.3c1.2,1.1,2.3,2.1,2.5,3.8
	c0.2,1.4,1.5,2.3,2.1,3.6c0.8,1.9,1.9,3.7,3.1,5.3c0.4,0.5,0.6,0.9,1.3,1.1c1.5,0.4,1.9,0.1,1.8-1.3c0-0.8,0.1-1.6,0.3-2.4
	c1-4.4,0-8.5-1.1-12.7c-0.1-0.5-0.5-1,0.1-1.4c0.5-0.2,1-0.2,1.5,0c0.3,0.2,0.6,0.4,0.8,0.6c2.4,2,3.3,5.2,2.5,8.2
	c-0.6,2.6-1,5.3-1.3,8c-0.2,1.7-1.3,3.1-1.8,4.8c-0.3,0.5-0.9,0.7-1.3,0.4c-0.1-0.1-0.2-0.1-0.3-0.2c-2.4-2.6-5.1-5-6.4-8.4
	C211.1,591.2,210.2,590,209.1,588.9z"/>
<path class="st0" d="M188.7,589.2c-0.5,3.3,0.6,6.4,0.9,9.6c0.1,1.1,0.7,1.9,2.2,1.4c0.8-0.2,2.3-0.7,2.5,0.7c0.2,1.1-1.3,1.2-2,1.4
	c-2,0.6-4,0.9-6.1,0.9c-0.3,0-0.7-0.1-1-0.3c-0.6-0.5-1.5-0.8-1.4-1.8c0.4-1,1.3-1.7,2.4-1.7c1.5,0,2-0.3,1.5-1.4
	c-1-2.8-0.9-5.7-1.5-8.5c-0.2-0.9-0.4-1.2-1.3-1.4c-1.8-0.3-3.5-1.1-4.8-2.4c-0.4-0.3-0.8-0.7-0.6-1.3c0.2-0.6,0.7-1,1.3-0.9
	c1-0.2,2,0.1,2.8,0.7c0.9,0.9,2.1,1.3,3.4,1.2c1.3-0.1,1.9,0.3,1.6,1.8C188.7,587.8,188.7,588.5,188.7,589.2z"/>
<path class="st0" d="M130.5,602.9c0-2,1.7-3.6,3.7-3.6c0.1,0,0.1,0,0.2,0c3.2,0,4.6,2.6,3,5.3c-0.8,1.4-2.4,1.8-4.7,1.2
	C130.8,605.3,130.5,604.9,130.5,602.9z M134.2,603.2c0.4-0.1,0.9,0.1,0.9-0.6s-0.3-0.7-0.8-0.6s-0.8,0.3-0.8,0.8
	S133.8,603.4,134.2,603.2z"/>
<path class="st0" d="M195.6,170.8c-3.8-2.7-5.7-6.8-8.9-9.8c-0.9-1.1-1.7-2.3-2.3-3.5c-1.4-1.9-3-3.7-4.9-5.3
	c-3.4-3.1-6.4-6.7-9.9-9.7c-2.3-2-4.5-4.1-6.6-6.4c-0.6-0.6-1.1-1.2-1.6-1.9c-0.9-1.5-2-2.9-2.8-4.4c-0.8-2-1.5-4.1-2-6.2
	c0.7-0.5,1.3-0.3,1.6,0.2c1.3,1.7,2.9,3.2,4.6,4.5c0.8,0.8,1.6,1.7,2.2,2.7c0.9,1.4,2.1,2.6,3.6,3.4c0.4,0.3,1,0.3,1.4,0
	c0.4-0.3,0.2-0.7,0.1-1.1c-0.9-3.7-2-7.4-3.3-11.1c-0.5-1.2-1.6-1.8-2.1-3c-0.9-1.7-2.5-3-2.8-5.2c-0.2-1.1-1.5-1.6-2.5-2.3
	c-1.6-1.1-3.3-2.1-5.5-1.8c-0.7,0.1-1.5,0.1-1.8,0.6c-1.1,1.6-2,0.7-2.7-0.2c-1.5-1.7-3-3.3-4.4-5.1c-3.7-4.8-7.9-9.2-11.8-13.9
	c-0.6-0.6-1.2-1.1-1.9-1.5c-4.7-4.1-8.8-8.7-12.4-13.8c-1-1.3-1.8-2.8-2.5-4.3c-0.2-0.3-0.4-0.7-0.5-1.1c-0.5-3.3-0.6-4.7,3.4-3.9
	c1.1,0.2,2.1,0.6,3.1,1c2.5,1.1,5,2.2,7.5,3.3c1.8,0.9,3.5,1.9,5.1,3c2.4,1.4,4.9,2.6,7.3,4.2c0.7,0.4,1.1,0.1,1.1-0.7
	c0.2-1.2-0.2-2.3-1-3.2c-2.4-2.1-4.4-4.6-6-7.3c-1.8-3.2-4.9-5.4-6.1-8.8c-0.5-1-1.2-2-2-2.8c-1.5-2.1-2.4-4.5-3.8-6.6
	c-1.6-2.5-3.5-5-4.6-7.8c-1.6-4-3.8-7.7-5.6-11.6c-1.1-2.3-1.7-4.7-2.7-6.9c-0.1-0.3-0.3-0.6-0.1-0.9c1-1.5,0.5-3.1,0.2-4.6
	c-0.1-0.7,0.1-1.5,0.5-2.1c0.3-0.6,1.3-0.9,0.8-2c-0.2-0.5,0.8-0.6,1.4-0.4c3.5,0.7,6.3,2.5,9.1,4.6c2.9,2.2,5.7,4.7,8.2,7.5
	c1.7,1.8,4,3.3,5,5.7c0.3,0.7,0.8,1.2,1.4,1.7c0.9,0.9,1.6,1.9,2.2,3c0.6,1.3,1.3,2.6,3,3c0.4,0.1,0.7,0.6,0.9,1
	c2.6,5.8,6.6,10.8,9.7,16.3c3.5,6.2,6.8,12.5,10,18.8c2.1,4.2,4.1,8.4,6,12.7c1.7,3.9,2.8,8.1,4.8,11.9c0.2,0.5,0.3,0.9,0.4,1.4
	c0.1,1,0.5,1.9,1.3,2.5c1.3,1,1.9,2.6,1.5,4.2c-0.1,0.7,0.1,1.5,0.5,2.1c1.5,2.9,2.3,6,3.5,9c1,2.5,2.5,4.8,3.4,7.4
	c1.2,3.3,2.6,6.5,3.4,10c0.5,2,1.2,4,2,5.9c0.8,2.3,1.4,4.7,1.8,7.2c0.8,3.9,1.6,7.8,2.5,11.6c0.1,0.5,0.5,0.8,0.3,1.4
	c-1,2.7-0.1,5.4,0.4,8.1c0.1,0.3,0.2,0.6,0.2,1C195.7,170.5,195.7,170.6,195.6,170.8z"/>
<path class="st0" d="M166.5,128c-1.6-0.9-2.9-2.3-3.7-3.9c-1.1-1.7-2.4-3.1-4-4.3c-1.1-0.8-1.4-1.9-2.1-2.9
	c-0.2-0.3-0.2-0.7,0.1-0.9c0,0,0,0,0,0c0.3-0.2,0.6,0,0.9,0.1c3.3,1.1,4.8,3.9,6.3,6.7C164.8,124.4,165.5,126,166.5,128z"/>
<path class="st0" d="M393.4,182.1c-1-1.5-0.9-3.2-1-4.7c-0.1-5.1,0.2-10.1,0.9-15.1c0-0.4,0-0.9,0.2-1.2c1.9-2.1,1.3-4.8,1.7-7.3
	c0.3-2.5,0.7-5,1.4-7.4c0.8-2.8,1.1-5.8,1.9-8.7c0.5-2.1,0.7-4.3,1.4-6.3c1.4-3.9,1.9-8,3.5-11.8c0.1-0.3,0.4-0.6,0.4-0.9
	c-0.5-4.1,2-7.3,3.2-10.9s2.1-7.2,3.6-10.6c1.4-3.3,2.6-6.7,4.5-9.6s3.4-6,5.2-9c1.1-2.1,2.3-4,3.8-5.8c3.4-3.9,6.5-8.2,9.1-12.7
	c0.4-0.7,1.1-1,1.5-1.6c2.4-3.1,5-6,7.5-9c4-4.7,8-9.5,13.4-12.8c0.8-0.5,1.5-1.1,2.1-1.7c1.3-1.2,2.4-2.5,4.4-2.6
	c0.7,0,1-0.7,1.5-1.3c0.7-0.8,1.2-1.8,2.7-1.8c1.2-0.1,2.3-0.6,3.1-1.4c1.9-1.7,3.7-0.5,5.6,0c0.9,0.2,1.9,3.5,1.6,4.6
	c-0.9,4.2-2.4,8.3-3.6,12.4c-0.3,1-0.7,2-1.3,2.9c-2.4,3.1-3.6,6.9-5.7,10.1c-1.3,2.1-2.8,3.9-5.6,4.5c-2.4,0.5-4.5,2.2-6.4,3.8
	c-3.8,3.1-7.9,6.1-10.9,10.1c-3.3,4.2-6.7,8.2-9.2,12.9c-0.5,1.1-0.9,2.3-1.2,3.5c-0.1,0.8,0.2,1.5,0.9,1.9c0.9,0.5,2,0.5,2.8-0.1
	c1.8-1.2,3.8-2.1,5.4-3.6c2.4-2.3,5.1-4.3,7.5-6.5c3.5-2.9,6.6-6.4,9.1-10.2c1.6-2.9,3.4-5.6,5.5-8.2c1.6-1.8,1.8-1.9,3.8-0.4
	c2.8,2.3,2.5,2.5,1.5,6.1c-0.7,2.7-2.1,5-2.9,7.6c-0.2,0.7-0.6,1.4-1.2,1.8c-1.4,1.1-2.3,2.6-3.3,4c-2.2,2.7-4.1,5.6-6.7,8
	c-2.2,2-4.3,4.2-6.2,6.5c-1.3,1.5-2.7,2.1-4.6,1.4c-2.2-0.8-4,0.1-5.9,0.9c-2.3,0.9-4.1,2.5-6.1,3.8c-3.6,2.1-6.8,4.8-9.6,7.8
	c-0.2,0.2-0.4,0.3-0.5,0.5c-2.4,4-5.8,7.4-7.7,11.8c-1.7,3.9-4.2,7.2-5.8,11.2c-0.6,1.7-2.1,2.9-2.8,4.7c1,0.6,2.3,0.4,3-0.5
	c3-2.9,6-5.7,9.1-8.5c0.9-0.8,2.1-1.4,2.9-2.3c2.8-3,6.4-5.2,9.2-8.3c1-1.1,1.4-2.7,2.9-3.6c2.7-1.7,4.8-4.2,6.9-6.6
	c0.2-0.3,0.7-0.4,1-0.1c0,0.7-1.1,1.4-0.1,2.2c0,0.2-0.1,0.3-0.2,0.4c-2.5,1.5-2.7,4.4-4.1,6.6c-2.5,3.8-5.8,6.8-8.8,10.1
	c-1.2,1.3-2.4,2.6-3.5,3.9c-1.9,2.4-4,4.7-6.3,6.7c-2.3,2-4.1,4.4-6.3,6.5c-2.6,2.6-4.7,5.7-6.2,9c-0.9,1.8-1.8,3.5-2.9,5.2
	c-0.9,1.8-1.7,3.6-2.4,5.4c-2.1,4.6-4.4,9-6.1,13.8C393.7,181.7,393.6,181.8,393.4,182.1z"/>
<path class="st0" d="M411.4,135.1c1.2-2.8,2.8-5.4,4.7-7.8c3.6-4.7,7.4-9.1,11.5-13.4c0.3-0.5,0.8-0.9,1.3-1.2
	c3.2-1.5,5.9-3.8,9-5.4c0.8-0.4,1.7-0.6,2.6-0.6c0.3,0,0.7,0,0.8,0.4c0.1,0.3,0,0.7-0.2,0.9c-0.9,0.7-1.7,1.5-2.5,2.4
	c-3.6,3.3-7,6.9-10.7,10.1c-2.8,2.3-5.4,4.9-7.9,7.6c-2.2,2.5-5,4.5-7.6,6.7C412.1,135.1,411.8,135.4,411.4,135.1z"/>
<path class="st0" d="M436.8,91.4c-0.1-3.1,1.7-4.8,2.4-7c2.5-1.4,3.2-4.4,5.6-6c0.4-0.3,0.7-0.7,0.9-1.2c2.3-3.9,5.6-7,9.5-9.1
	c1-0.6,2.3-0.6,3.2-1.8c0.4-0.6,1.3-0.3,1.8,0.1s0.1,0.9-0.2,1.3c-2.6,2.8-4.3,6.4-7,9.1c-3.2,3.2-5.9,6.9-9.4,9.8
	C441.5,88.2,439.3,89.6,436.8,91.4z"/>
</svg>
