<?xml version="1.0" encoding="utf-8"?>
<!-- Generator: Adobe Illustrator 23.1.0, SVG Export Plug-In . SVG Version: 6.00 Build 0)  -->
<svg version="1.1" id="圖層_1" xmlns="http://www.w3.org/2000/svg" xmlns:xlink="http://www.w3.org/1999/xlink" x="0px" y="0px"
	 viewBox="0 0 555 604.1" style="enable-background:new 0 0 555 604.1;" xml:space="preserve">
<style type="text/css">
	.st0{fill:url(#SVGID_1_);}
	.st1{fill:url(#SVGID_2_);}
	.st2{fill:url(#SVGID_3_);}
	.st3{fill:url(#SVGID_4_);}
	.st4{fill:url(#SVGID_5_);}
	.st5{fill:url(#SVGID_6_);}
	.st6{fill:url(#SVGID_7_);}
	.st7{fill:url(#SVGID_8_);}
	.st8{fill:url(#SVGID_9_);}
	.st9{fill:url(#SVGID_10_);}
	.st10{fill:url(#SVGID_11_);}
	.st11{fill:url(#SVGID_12_);}
	.st12{fill:url(#SVGID_13_);}
	.st13{fill:url(#SVGID_14_);}
	.st14{fill:url(#SVGID_15_);}
	.st15{fill:url(#SVGID_16_);}
	.st16{fill:url(#SVGID_17_);}
	.st17{fill:url(#SVGID_18_);}
	.st18{fill:url(#SVGID_19_);}
	.st19{fill:url(#SVGID_20_);}
	.st20{fill:url(#SVGID_21_);}
	.st21{fill:#FFFFFF;}
</style>
<g>
	
		<linearGradient id="SVGID_1_" gradientUnits="userSpaceOnUse" x1="104.7893" y1="-41.8584" x2="151.9321" y2="540.9987" gradientTransform="matrix(0.9997 2.450000e-02 2.450000e-02 -0.9997 -5.8414 534.1717)">
		<stop  offset="1.960000e-02" style="stop-color:#002200"/>
		<stop  offset="0.3079" style="stop-color:#004304"/>
		<stop  offset="0.662" style="stop-color:#8EB879"/>
		<stop  offset="1" style="stop-color:#FFD815"/>
	</linearGradient>
	<path class="st0" d="M183.5,433.4c-1-0.8-1.6-2.4-3.4-1.9c-0.3,0.1-0.3-0.3-0.5-0.4c-3.1-2.3-6.1-4.7-8.6-7.5
		c-1.1-1.3-2.3-2.6-2.4-4.5c0-0.4-0.2-0.7-0.4-1.1c-1.7-3.5-0.9-6.8,0.7-10.1c0.2-0.5,0.5-1.1,1.1-1.2c1.9-0.2,3.5-1.3,5.3-1.8
		c2.5-0.6,4.3,0.4,5.9,1.9c1.3,1.2,2.4,2.6,3.9,3.7c1.5,1,2.3,2.9,3.4,4.4c2.4,3.3,4.4,6.8,6.4,10.4c0.6,1.1,1,2.7,2.8,2.9
		c0.8,0.1,0.7,1.2,0.8,1.8c0.1,0.8,0.3,1.5,1.2,1.8c0.4,0.1,0.8,0.5,1,0.9c1.9,4.5,4.8,8.3,6.6,12.8c1.6,3.8,3.4,7.5,5.4,11.1
		c0.6,1.1,1.2,2.5,0.8,4c-0.2,0.9-0.2,1.7,0.4,2.6c-0.6-0.2-1-0.4-1.4-0.3c-1.9,0.3-2,0.4-2.7-1.1c-1.1-2.3-3.1-4.1-3.9-6.7
		c-0.3-1-1.6-1.2-2.2-2c-2.6-3.4-5.6-6.5-8.6-9.5c-1.3-1.3-2.8-2.5-4.2-3.8c-0.7-0.7-1.3-0.8-1.9,0.1c-0.2,0.3-0.6,0.5-1,0.6
		c-3,0.7-5.2,2.7-7.6,4.4c-2.5,1.7-4.9,3.8-8,4.5c-0.5,0.1-1,0.4-1.4,0.8c-1.3,1.4-2.6,2.9-4.7,3.2c-0.4,1.5-2.2,1.7-2.7,3.1
		c-0.5,1.2-2.2,2.7-3.3,2.8c-0.4,0-0.9,0-1.1,0.3c-1.3,1.7-3.2,2.7-4.3,4.6c-0.7,1.2-1.7,2.3-2.8,3.3c-2,1.8-3.7,3.8-5.2,6
		c-0.2,0.3-0.5,0.6-0.6,1c-1,2-0.9,2.1,1,3.2c1.3,0.8,3,1.1,3.5,2.8c0.1,0.3,0.5,0.6,0.7,0.6c1.2-0.1,1.8,0.8,2.7,1.2
		c3.2,1.4,5.5,4.1,8.6,5.7c3.3,1.7,5.9,4.3,9.4,5.9c3.5,1.6,5.9,4.9,6.1,9.1c0.1,1.9-1.1,3.3-2.5,4.5c-1.1,1-2.2,1-3.5,0.5
		c-3.6-1.4-7.1-2.9-10.2-5.3c-0.6-0.5-1.3-0.9-2.1-1.1c-0.5-0.1-0.9-0.2-1.3-0.5c-2.8-2.2-6.2-3.5-9.1-5.7c-1.7-1.3-3.2-2.8-5.2-3.7
		c-2.8-1.3-5-3.7-8.1-4.5c-1.4-0.3-2.6-1.3-3.9-2.2c-3.4-2.2-6.9-3.8-10.6-5.4c-3.5-1.5-7.2-2.6-10.8-3.7c-2.4-0.7-4.6-2-7.2-2
		c-1.6,0-3.1-1.1-4.9-1.5c-6.4-1.2-12.7-2.6-19.2-3.2c-0.5,0-1.1-0.3-1.6-0.4c-3.7-0.7-7.5-1.2-11.3-1.9c-2.8-0.6-5.8-0.8-8.5-1.8
		c-2.3-0.8-4.6-1.2-6.8-2c-1.3-0.5-2.9-0.3-4.4-0.6c-3-0.7-5.8-2.1-8.9-2.4c-0.3,0-0.6-0.2-0.9-0.4c-2.3-1.7-5.3-1.7-7.8-3.1
		c-1.3-0.8-3-1.2-4.6-1.8c-4.6-1.8-8.1-4.9-11.2-8.5c-0.9-1-1.4-2.3-2.5-3c-0.2-0.1-0.4-0.4-0.4-0.5c0.2-2-1.3-3.5-1.8-5.3
		c-0.4-1.4-0.8-2.8-0.3-4.3c0.1-0.4,0.2-0.9,0.2-1.4c-0.1-1.3-0.1-2.5,1.6-3c0.6-0.2,0.7-0.8,0.9-1.3c1.8-3.4,4.9-4.9,8.4-5.9
		c1.1-0.3,2.2-1,3.2-1.2c1-0.2,2.1,0.8,3.3,0.8c3.1,0.2,6.1,0,9.1,0.7c2.3,0.5,4.7,0.9,6.8,1.8c1.2,0.5,2.4,1.3,3.7,1.8
		c2.1,0.9,4.2,1.8,6.5,1.7c0.3,0,0.7,0,0.9,0.1c1.7,1.2,3.8,1.6,5.4,2.7c1.9,1.2,4,2.1,6.1,2.8c2.9,1.1,5.6,2.8,8.7,3.5
		c2.3,0.5,4.5,1.4,6.4,2.9c1.1-0.7,1.9,0.2,2.7,0.5c1.7,0.5,3.5,0.9,4.3,2.8c0.1,0.2,0.4,0.3,0.6,0.3c3.8,0.5,7,2.4,10.2,4.4
		c0.6,0.4,1.2,0.7,1.9,0.8c0.5,0.1,1,0.2,1.3,0.4c2.7,2,5.9,3.4,8.6,5.4c1.4,1,3,1.7,4.4,2.7c0.5,0.4,1.1,0.7,1.7,0.7
		c1.5-0.1,2.7,0.6,4,1c1.9,0.6,3.3,1.9,5.1,2.6c0.6,0.3,1.1,0.8,1.9,0.9c0.6,0.1,1.4,0.5,1.3,1.2c-0.3,1.5,1,1.9,1.8,2.5
		c1.2,1,1.8,0.8,3.1-0.1c2.1-1.5,4.1-3.3,6-5.1c0.8-0.8,1.6-2.1,3.1-1.5c0.4,0.1,0.7-0.2,0.7-0.4c0.5-2.1,2.6-2.5,4-3.5
		c2.1-1.5,4.2-3.2,6.5-4.5c1.2-0.7,2.3-1.5,3.4-2.1c1.1-0.6,2.2-1.1,3-2.2c0.8-1,2.1-1.5,3.2-1.8c1.9-0.6,3.3-2,5-3
		c3.5-2.2,7.2-3.9,11-5.5C181,435.2,182.9,435.1,183.5,433.4z M19,432c-0.1,0.4-0.1,1-0.1,1.7c0.1,1.2,0.6,1.9,1.6,2.4
		c3.3,1.6,6.5,3.2,10.1,3.6c5.8,0.7,11.6,1.1,17.3,1.5c0.8,0,1.6,0.1,2.3,0.2c1.6,0.2,3.2,0.6,4.8,1c1.3,0.3,2.6-0.5,2.3-1.5
		c-0.4-1.3-0.3-3-1.9-3.8c-0.6-0.3-1-1-1.4-1.5c-0.5-0.9-1.3-1.3-2.2-1.5c-1.4-0.4-2.8-0.9-3.7-1.9c-0.9-0.9-1.8-1.1-2.9-1.3
		c-1.2-0.3-2.4-0.5-3.5-1.2c-0.6-0.4-1.3-0.5-2-0.7c-3.3-0.8-6.5-1.6-9.9-2c-1.7-0.2-3.2-0.3-4.8,0.1c-0.5,0.1-1.1,0.2-1.6,0.2
		C20.2,427.3,19.1,428.5,19,432z"/>
	
		<linearGradient id="SVGID_2_" gradientUnits="userSpaceOnUse" x1="416.4119" y1="-136.6265" x2="463.5547" y2="446.2306" gradientTransform="matrix(0.9997 2.450000e-02 2.450000e-02 -0.9997 -5.8414 534.1717)">
		<stop  offset="1.960000e-02" style="stop-color:#002200"/>
		<stop  offset="0.4142" style="stop-color:#004304"/>
		<stop  offset="0.662" style="stop-color:#8EB879"/>
		<stop  offset="1" style="stop-color:#FFD815"/>
	</linearGradient>
	<path class="st1" d="M334.4,459.2c0.1-0.4,0.5-0.8,0.5-1.2c-0.1-3.4,1.4-6.5,1.8-9.8c0.2-1.3,0.9-2.6,1.5-3.9s0.7-2.7,1.7-3.8
		c0.1-0.2,0.3-0.5,0.2-0.6c-0.9-1.7,0.5-2.6,1.1-3.8c0.2-0.3,0.5-0.6,0.6-1c1.9-4.3,4.8-7.9,8.2-11.1c3-2.8,6.1-5.4,9.3-7.9
		c1.1-0.8,2.2-1.5,3.5-1.8c0.5-0.1,1-0.2,1.3-0.5c2-1.7,4.5-1.8,6.9-1.6c2.8,0.2,5.6-0.4,8.4,0.4c0.6,0.2,1.2,0.3,1.7,0.7
		c2.8,2,6,3.4,8,6.4c1.5,2.3,2.5,4.9,3.3,7.5c0.8,2.9,0.8,5.9,0.8,8.9c0,1.2-0.6,2.1-0.9,3.1c-1,3.2-2.5,6.2-4.5,8.7
		c-3,3.7-6.2,7.2-10.1,9.8c-1.8,1.2-3.8,2.4-6.1,2.9c-1.7,0.4-3.3,1.4-4.9,2.2c-0.6,0.3-1.1,0.7-2,0.3c-1.2-0.5-2.3,0.2-3.4,0.5
		c-2.7,0.8-5.3,1.3-8.1,1c-1.4-0.1-2.8-0.3-4,0.7c-0.6,0.5-1.6,0.3-2.5,0.5c-1.3,0.3-1.4,0.5-0.8,1.8c0.4,1,1,1.9,1.7,2.8
		c1.4,1.8,2.9,3.4,4.3,5.2c0.4,0.5,1,0.8,1.3,0.8c2.7,0.8,5.1,2.4,7.8,3.1c0.8,0.2,1.5,0.1,2.3,0.2c2.7,0.3,5,1.7,7.6,2.1
		c2.6,0.4,5.3,1,7.9,0.8c2-0.2,3.9,0,5.8,0.3c2.1,0.4,4.2,0.7,6.3,0.3c3.1-0.4,6.1-0.7,9-2.1c0.4-0.2,0.9-0.4,1.3-0.4
		c3.7-0.2,6.2-3,9.5-4.2c2.7-2.9,6.4-4.4,9.3-7c1.3-1.1,3-1.2,4.1-2.6c0.1-0.1,0.3-0.1,0.4-0.2c2.1-2.6,4.8-4.5,7.4-6.4
		c2.6-1.8,4.3-4.7,7.2-6.2c0.6-1.5,2.3-2,3.2-3.4c0.7-1.1,2-1.9,3.1-2.7c2.6-1.8,4.7-4,6.9-6.2c1.8-1.8,3.3-3.8,5.5-5.3
		c1.6-1,3-2.6,4.3-4.2c2-2.5,4.7-4.3,7.1-6.3c1.3-1.1,2.7-2,3.5-3.4c0.1-0.2,0.3-0.4,0.5-0.5c2.1-0.6,3.2-2.6,5.4-3.2
		c2.3-0.6,3.9-2.5,6.1-3.4c2.2-1,4.3-2.1,6.4-3.3c1.1-0.7,2.5-0.8,3.8-1.2c3.2-1,6.4-2.1,9.6-2.9c2.7-0.7,5.5-1,8.2-1.7
		c1.7-0.5,3.3-0.8,5.2-0.4c1.7,0.4,3.5,0.2,5.2,0.2c4.1,0,8,0.7,11.7,2.4c0.7,0.3,1.3,0.6,2,0.8c3.5,1,4.9,3.7,5.5,7
		c0.3,1.2,0.4,2.5,0.4,3.8c0,1.5-0.3,3-1.4,4.1c-1.3,1.4-2.5,2.8-4,4c-1,0.8-2,1.8-3.5,1.8c-1.1,0-1.1,1.6-2.5,1.5
		c-0.8-0.1-2,0-2.7,1.1c-0.2,0.3-0.9,0.5-1.3,0.4c-1.9-0.4-3.7,0.7-5.5,0.6c-2.7,0-5.4,1.1-8.1,0.2c-1.3-0.4-2.7-0.1-4.1,0.1
		c-1.7,0.3-3.6,0.2-5.3,0.1c-1.8-0.1-3.5,0.3-4.9,0.8c-2,0.7-4.2,0.4-6,1.6c-0.5,0.3-1.5,0.7-2.4,0.3c-0.7-0.3-1.5,0-2.2,0.4
		c-1.5,0.9-3.3,1.1-4.8,2.3c-0.8,0.6-2,0.7-3.1,0.8c-0.7,0.1-1.3,0.3-2,0.6c-6,2.7-11.9,5.4-16.8,10c-2.5,2.3-5.8,3.8-8.7,5.5
		c-2.1,1.2-3.8,3.2-6.4,3.7c-1.4,1.9-3.4,3-5.1,4.4c-2,1.6-4,3.2-6.1,4.7c-0.2,0.2-0.6,0.2-0.8,0.5c-1.1,1.7-2.8,2.5-4.5,3.5
		c-3,1.8-6.2,3.4-9.1,5.3c-3.6,2.3-7.2,4.6-11.3,5.8c-1.4,0.4-2.4,1.5-3.7,1.9c-3.3,1.1-6.5,2.2-9.8,3.2c-2,0.6-4.2,0.7-6.2,1.4
		c-3.5,1.3-7.2,0.9-10.8,1.8c-1.5,0.4-2.8-0.2-4.2-0.4c-1.8-0.3-3.5-0.4-5.4-0.3c-2.4,0.2-4.9-0.4-7.1-1.4c-1.2-0.5-2.5-1-3.7-1.4
		c-3.6-1.1-7.3-2.2-10.3-4.3c-2.9-2-5.4-4.7-7.3-7.9c-0.7-1.2-1.5-2.3-2.7-3c-0.4-0.2-0.4-0.5-0.4-0.7c-0.1-2.2-1.8-3.8-2.3-5.8
		c-0.1-0.4-0.4-0.5-0.9-0.5c-1.1,0-2.2-0.3-3.3-0.4c-3.3-0.3-6.1-2-8.6-4.1c-0.8-0.6-1.2-1.7-1.1-2.8c0.1-1.2,0.8-2,2-2.2
		c0.8-0.1,1.6-0.1,2.4,0.1C329.2,458.5,331.8,458.9,334.4,459.2z M346.6,459.7c3.7-0.1,7.3-0.6,10.9-1.7c2.1-0.6,3.9-1.9,5.8-3
		c2.4-1.4,4.6-3,6.3-5.2c0.5-0.7,0.5-1.6,1.2-2.2c2.3-1.9,2.7-4.9,3.4-7.4c0.8-2.6,0.4-5.5-2.5-7.2c-0.2-0.1-0.4-0.3-0.5-0.5
		c-0.8-1.6-2.4-2-3.8-2.3c-3.3-0.8-6.4-0.1-9,2.1c-1.6,1.3-3.9,1.8-4.9,3.9c-2.9,1.2-3.2,4.4-5,6.5c-0.6,0.8-0.9,2.1-1.9,2.8
		c-0.5,0.3-0.7,0.8-0.9,1.4c-1.2,3.4-2.1,6.9-2.6,10.5c-0.3,2.2,0.5,2.9,2.2,2.6C345.8,459.6,346.2,459.7,346.6,459.7z M516.5,409.7
		c-2.4-0.4-4.7-0.3-6.9,0.2c-2.7,0.7-5.2,1.9-7.6,3.1c-1.2,0.7-1.5,1.7-1.1,3c1,2.5,3.8,4.4,6.6,4.3c0.6,0,1.1-0.2,1.4,0.5
		c0.2,0.5,0.5,0.5,0.9,0.5c1.9,0.1,3.8,0.5,5.7,0.3c2.1-0.1,4.3,0.6,6.4-0.2c0.5-0.2,1.1,0,1.6,0.2c1.2,0.6,2.3,0.3,3.5,0.1
		c0.8-0.1,1.4-0.3,2.2-0.3c2.3,0,4.1-1.4,5.7-3c1-1,0.1-4.3-1.4-4.9c-2.1-0.9-4.1-2-6.4-2.4C523.5,410.5,520,409.8,516.5,409.7z
		 M366.1,457.2c0.2-0.2,0.5-0.3,0.7-0.5c0,0-0.1-0.3-0.1-0.4c-0.5-0.1-0.6,0.2-0.7,0.5C365.9,456.9,366,457,366.1,457.2z"/>
	
		<linearGradient id="SVGID_3_" gradientUnits="userSpaceOnUse" x1="245.666" y1="-24.9868" x2="292.8088" y2="557.8702" gradientTransform="matrix(0.9987 -5.060000e-02 -5.060000e-02 -0.9987 23.7946 583.5454)">
		<stop  offset="1.960000e-02" style="stop-color:#002200"/>
		<stop  offset="0.4142" style="stop-color:#004304"/>
		<stop  offset="0.662" style="stop-color:#8EB879"/>
		<stop  offset="1" style="stop-color:#FFD815"/>
	</linearGradient>
	<path class="st2" d="M268.9,324.9c-0.7,1.4-0.6,3-1.8,4.3c-0.6,0.7-1,1.7-1.1,2.8c-0.2,1.5-1.4,2.7-1.5,4.4
		c-0.1,1.1-0.4,2.3-0.9,3.4c-1,2.6-0.8,5.5-0.6,8.1c0.2,2.1,1.5,4,2.3,6.1c0.4,1.3,0.7,2.5,1.9,3.4c1.3,1,2.3,1,2.7-0.5
		c0.6-2.3,2-4.2,2.8-6.3c1.3-3.2,1.1-6.5,1.6-9.7c0.4-2.7,0.6-5.4,1-8c0.2-1,0.4-2,0.1-3c-0.1-0.5-0.1-1.1,0.1-1.6
		c0.7-2.1,0.5-4.3,0.2-6.4c-0.1-0.8,0.1-1.2,0.6-1.6c2-1.5,3.9-3.2,6.4-4.3c1.8-0.8,3.6-1.9,5.4-2.8c3-1.4,5.7-3.5,8.6-5.3
		c3-1.9,6.1-3.7,8.9-5.9c1.7-1.4,3.6-2.4,5.5-3.4c1.2-0.6,2.3-1.4,3.1-2.5c0.8-1.1,1.9-1.9,3.1-2.5c1.8-0.9,3.3-2.4,5.3-3
		c1-0.3,1.3-1.5,2.1-2.1c2.2-1.7,4.7-3,6.9-4.7c1.9-1.4,4-2.5,5-4.8c0.1-0.3,0.6-0.5,0.9-0.7c2-1.2,3.6-2.8,5.1-4.5
		c1-1.2,1.6-2.4,2.2-3.8c0.9-2.2,2.5-3.9,3.7-5.9c1.4-2.3,2.8-4.7,4.9-6.5c0.9-0.8,0.7-2.5,2.1-3c1-2.5,2.9-4.3,4.1-6.8
		c1.8-3.8,2.2-8.1,4.1-11.8c0.2-0.4,0.3-0.9,0.3-1.4c-0.1-2.9,1.1-5.4,2.1-7.9c1.3-3.1,2.4-6.1,2.4-9.5c0-0.5,0.2-0.9,0.3-1.4
		c0.3-1,0.4-2,0.2-3.1c-0.3-1.9,0.1-3.9,0.3-5.8c0.3-2.6,0.7-5.1,0-7.6c-0.3-1.1,0.3-2.3,0.4-3.4c0.2-1.3,0.2-2.5-0.4-3.7
		c-0.6-1.3-0.4-2.8-0.4-4.1c-0.1-2.4-0.5-4.6-1.4-6.8c-0.2-0.5-0.6-0.9-0.1-1.5c0.3-0.3,0.1-0.5-0.2-0.8c-1.5-1.5-1.8-3.7-2.2-5.5
		c-0.3-1.4-0.5-2.7-0.9-4c-0.7-2.4-2.1-4.4-3.4-6.5c-0.9-1.5-1.5-3.1-2.3-4.7c-0.3-0.5-0.3-1.3-1.1-1.3c-0.4,0-0.5-0.3-0.7-0.6
		c-0.9-2.3-2.5-4.1-3.6-6.2c-1.6-3.2-4.1-5.7-6.2-8.5c-0.4-0.5-1-0.8-0.8-1.6c0.1-0.4-0.1-0.9-0.5-1c-1.8-0.6-2.4-2.6-3.9-3.6
		c-1.5-1-2.5-2.5-3.6-3.8c-1.1-1.2-2.9-1.7-4.5-2.5c-2.9-1.4-5.8-2.9-8.7-4.2c-2.3-1-4.5-2.2-6.8-3c-5-1.7-10.2-2.5-15.4-3.6
		c-1.9-0.4-3.8-0.8-5.7-1.3c-3.3-0.8-6.6-0.8-9.9-1.4c-3.5-0.7-6.8-0.8-10.2-0.2c-1.2,0.2-2.5,0.1-3.8-0.1c-1.9-0.3-3.7,0.1-5.5,0.6
		c-3.1,0.9-6.3,1.8-9.5,2.5c-0.8,0.2-1.4,0.3-2.1-0.2c-0.3-0.3-1.1-0.1-1.1,0.1c0,0.5-0.2,0.6-0.6,0.9c-1,0.8-2.1-1.4-2.9,0.3
		c-0.6,1.2-2,0.6-2.9,1.4c-0.8,0.7-1.9,0.9-2.9,1.3c-2.7,1-5.3,2.2-8,3.3c-0.5,0.2-0.9,0.4-1.1,0.7c-1.3,1.9-3.7,2.4-5.1,4.1
		c-0.5,0.6-1.4,0.2-2.1,0.7c-2,1.4-4.1,2.9-5.7,4.7c-2.5,2.9-5.2,5.6-7.4,8.9c-1.1,1.7-2.2,3.4-4,4.7c-2.4,1.8-4,4.4-5.3,7.1
		c-1.4,2.9-2.7,5.9-4.6,8.5c-0.3,0.4-0.8,0.9-0.6,1.5c0.5,2.3-1,3.8-2.2,5.4c-0.5,0.6-0.7,1.4-1,2.1c-0.3,0.6,0.1,1.7-1.3,1.5
		c-0.1,0-0.4,0.7-0.4,1c-0.1,2.3-1.1,4.2-2,6.1c-0.3,0.6-0.5,0.9-0.3,1.6c0.2,0.9,0,1.9-0.1,2.8c0,0.7-0.5,1.5,0.3,2.2
		c0.3,0.2,0.2,0.6,0,0.9c-1.3,1.7-1.1,3.9-0.8,5.6c0.5,2.6,0.2,5.1,0.4,7.6c0.2,2.8,0.7,5.5,0.4,8.3c-0.1,1,0.9,1.8,0.8,3
		c-0.2,2-0.4,4,0,6.1c0.3,2,0.6,4,1.4,5.9c1.1,2.9,1.1,6,2.1,8.9c0.4,1.2,0.8,2.4,2,3.1c0.6,0.3,0.7,0.8,0.8,1.3
		c0.3,2.7,1.6,6.2,3.1,8.2c0.3,0.5,0.6,1,0.6,1.5c0,2.8,0.7,5.4,1.8,8.1c0.9,2.1,1.8,4.1,3,6c1.5,2.2,2.4,4.7,4,6.8
		c1.3,1.5,2.1,3.3,3.5,4.7c0.7,0.8,1.1,1.9,2.2,2.3c0.2,0.1,0.3,0.4,0.3,0.6c0.5,3,2.3,5.2,4.1,7.6c2.1,2.8,4.7,5.2,6.7,8.2
		c0.1,0.1,0.1,0.3,0.3,0.4c2.6,1.9,4,5,6.5,6.9c2.8,2.1,5,4.9,8.1,6.6c0.5,0.3,1.1,0.7,1.5,1.1c3.6,2.8,7.5,4.9,11.9,6.2
		c0.7,0.2,1.4,0.6,2.1,1c0.4,0.2,0.5,0.5,0.4,1c-0.1,0.3-0.4,0.6-0.7,0.5c-1.7-0.4-3.5,0.3-5.1-0.6c-2.6-1.6-5.5-2.5-8-4.2
		c-1.4-0.9-2.8-2-4.6-2.3c-0.7-0.1-1.5-0.6-2-1.2c-1.4-1.8-3.3-2.7-5-4c-1.8-1.4-3.5-2.9-5-4.6c-0.7-0.8-1.5-1.4-2.1-2.1
		c-2.3-2.6-4.7-5.2-7-7.9c-0.8-0.9-1-2.4-2-3.1c-0.9-0.6-1.5-1.3-2-2.1c-2-2.8-4.5-5.3-6-8.5c-0.1-0.1-0.1-0.4-0.2-0.4
		c-2.9-1.6-3.3-4.8-4.5-7.3c-0.5-1-1-1.9-1.8-2.6c-1.3-1-1.7-2.6-2.5-3.9c-1.9-3-1.6-6.8-3.5-9.6c-1.3-1.9-1.1-4.2-2-6.1
		c-0.9-1.9-2-3.7-2.5-5.8c-0.6-2.9-1.3-5.8-2-8.6c-0.5-1.9-1.3-3.6-1.8-5.6c-0.5-2.3-1.1-4.5-1.1-6.9c0-1.3-0.2-2.5-0.9-3.6
		c-0.1-0.3-0.2-0.6-0.2-0.9c-0.2-3.9-1-7.8-1.1-11.7c0-0.2,0-0.3,0-0.5c-0.2-1.6-0.7-3.1-0.4-4.9c0.3-1.5,0.3-3.3,0.1-4.9
		c-0.3-1.7,0.2-3.4,0.1-5.1c-0.1-3.2,0.2-6.4,0.3-9.6c0.1-2.3,1.1-4.5,1.9-6.8c0.6-2,1.4-3.9,2.3-5.8c0.7-1.5,0.6-3.1,1.3-4.7
		c0.7-1.7,1.8-3.1,2.9-4.5c1.2-1.5,2.6-2.9,2.7-5c0-0.5,0.2-1.1,0.8-1.4c2.4-1.1,3.4-3.4,4.8-5.3c1.9-2.5,4-4.8,6.3-6.9
		c2.7-2.5,5.3-5.3,8.2-7.5c4.4-3.4,8.6-7,13.4-9.9c3-1.8,6.4-2.5,9.4-4.1c1.9-1,3.9-2,6.1-2.3c1.1-1.9,3-1.2,4.6-1.4
		c0.8-0.1,0.9-1.1,1.5-1c1.4,0.1,2.5-0.9,3.8-0.9c2.2,0,4.2-1.1,6.5-0.7c1.2,0.2,2.5-0.4,3.7-0.6c2.5-0.4,4.9,0.5,7.3,0
		c3.7-0.7,7.5-0.3,11.2-0.4c1.1,0,2.2,0.1,3.3,0.4c4.4,1.4,9,1,13.5,1.9c1.9,0.4,3.9,0.3,5.5,1.7c0.4,0.3,0.9,0.2,1.4,0.3
		c1.4,0.1,2.7,0.4,3.9,1c1.1,0.6,2.3,0.9,3.5,1.3c1.6,0.5,3.1,1.3,4.6,2.1c1.7,0.8,3.5,1.8,5.4,2.1c3.6,0.5,6.3,2.6,9.4,4.2
		c2,1.1,3.4,2.7,5.1,4c1,0.8,1.9,1.8,3.3,2.2c0.4,0.1,0.7,0.4,0.9,0.7c2.5,3.3,6,5.4,9.1,8c0.9,0.8,1.3,2,1.8,2.9
		c1.5,2.9,3.2,5.8,5.2,8.4c3.3,4.5,5.2,9.6,7,14.8c1.4,4.2,2.7,8.4,3.2,12.8c0.1,1.1,1.1,2,1.2,3c0.2,2.1,0.9,4,1.4,5.9
		c0.7,2.6,0.5,5.2-0.1,7.8c-0.1,0.3-0.3,0.8,0,0.9c1.6,0.6,0.7,1.8,0.7,2.8c-0.1,2.5,0,5-0.5,7.5c-0.4,2.2-0.9,4.5-1.3,6.7
		c-0.3,2.3-0.6,4.5-1.5,6.6c-0.2,0.5-0.4,1.1-0.3,1.6c0.6,2.2-0.6,4.3-0.7,6.4c0,0.8-0.6,1.4-0.8,2.1c-0.9,2.5-0.6,5.1-1.5,7.6
		c-1.2,3.6-2.7,7.2-4.3,10.6c-0.6,1.3-1,2.6-1.6,3.8c-1.5,2.9-3.7,5.4-4.9,8.5c-0.3,0.8-1,1.4-1.5,2c-2.4,3.2-4.1,6.8-6.7,9.8
		c-1.7,1.9-3.2,4-5.3,5.5c-3.5,2.6-6.5,5.7-9.7,8.7c-2.5,2.3-5.4,4.1-8.2,6c-4.9,3.3-9.9,6.6-14.9,9.9c-5.4,3.5-10.9,6.8-16.8,9.5
		c-2.8,1.3-5.6,2.5-8.3,4c-2,1.1-4.1,2-6.1,3.1c-0.6,0.4-1.3,0.6-2,0.7c-2.4,0.5-2.9,1.5-2.6,4c0.7,5.4,1.6,10.9,0.9,16.4
		c-0.5,3.6-0.7,7.2-0.6,10.8c0,2.3-0.4,4.6-1,6.6c-0.9,2.6-1.9,5.1-2.9,7.7c-0.5,1.3-2.2,1.7-3.8,1c-2.1-0.9-4-2.1-5.5-3.9
		c-2.2-2.6-3.7-5.6-4.5-8.8c-0.7-2.6-0.5-5.4,0.2-7.9c0.8-2.7,1.1-5.5,1.8-8.3c0.4-1.8,0.2-3.7,2-5c0.7-0.5,0.6-1.9,0.8-2.8
		C265.3,327,267,326,268.9,324.9z M199.9,156.5c0.8,0.2,1.4-0.4,2.1-0.6c-0.6-0.3-1.2-0.6-1.8-0.9
		C199.7,155.4,199.6,155.9,199.9,156.5z"/>
	
		<linearGradient id="SVGID_4_" gradientUnits="userSpaceOnUse" x1="257.7741" y1="-203.0092" x2="304.9169" y2="379.848" gradientTransform="matrix(0.9997 2.450000e-02 2.450000e-02 -0.9997 -5.8414 534.1717)">
		<stop  offset="1.960000e-02" style="stop-color:#002200"/>
		<stop  offset="0.1466" style="stop-color:#002D01"/>
		<stop  offset="0.3123" style="stop-color:#004304"/>
		<stop  offset="0.662" style="stop-color:#8EB879"/>
		<stop  offset="1" style="stop-color:#FFD815"/>
	</linearGradient>
	<path class="st3" d="M220,495.7c-0.2-4.6,1.1-8.2,4-11.5c2.1-2.4,4.1-4.8,6.3-7.2c3.1-3.4,6.9-5.8,10.9-8c0.4-0.2,0.9-0.2,1.4-0.4
		c0.4-0.1,1-0.1,1.1-0.3c0.5-1.7,2-1.1,3.1-1.5c2.6-0.8,5.3-1.2,8-1.6c4.9-0.7,9.8-1.3,14.7-1c2.4,0.1,4.8-0.3,7.2,0.2
		c1.7,0.3,3.5-0.2,5.3-0.3c2.8-0.1,5.4,0.7,8.1,1.1c3.5,0.4,7,1.1,10.4,1.9c1.6,0.4,3.4,0.9,4.8,1.8c2.7,1.6,5.6,2.8,8,4.8
		c2.9,2.4,6.2,4.5,8.5,7.6c1.9,2.5,4.1,5,4.6,8.4c0.1,0.6,0.2,1.2,0,1.8c-0.2,0.7-0.3,1.6-0.2,2.3c0.5,2.3-0.5,4.3-0.8,6.5
		c0,0.4-0.4,0.8-0.7,1.2c-2,2.9-4.5,5.4-7.3,7.5c-0.8,0.6-1.2,1.7-2.1,2.1c-2.6,1.2-4.6,3.3-7.4,4.3c-1.9,0.7-4,1.1-5.8,2.4
		c-1.3,0.9-3,0.7-4.4,1.4c-3.8,1.6-7.7,2.6-11.8,3.1c-2.5,0.3-5,0.3-7.4,0.8c-0.5,0.1-1-0.1-1.2,0.5c-0.3,0.6-0.7,0.6-1.2,0.4
		c-3.1-0.8-6.3,0.1-9.3-0.6c-3.1-0.7-6.2-0.7-9.3-0.9c-1.3-0.1-2.6-0.5-3.9-1c-2.8-1.1-5.6-2-8.3-3.3c-2.5-1.3-5.2-2.5-7.8-3.6
		c-3.9-1.7-7.6-3.7-10.8-6.3c-2.7-2.2-5-4.9-6.4-8.3C219.8,498.5,220.3,496.9,220,495.7z M271.3,469.4c-2.7,0.2-5.4-0.2-8,0.5
		c-3.3,1-6.9,1-10,2.7c-1.2,0.6-2.5,1-3.5,1.8c-0.5,0.4-1.1,0.6-1.6,0.9c-2.5,1.1-5.2,2-7,4.3c-0.3,0.3-0.6,0.4-1,0.6
		c-1,0.5-2,1.2-2.5,1.9c-1.4,2.4-2.1,5-1.2,7.8c0.3,0.9,0.4,2,1.2,2.8c1.8,1.5,3.7,2.9,5.8,3.8c2.6,1,5,2.8,8.1,2.6
		c0.1,0,0.3,0.1,0.4,0.2c1.7,0.4,3.4,0.9,5.2,1.3c1.8,0.4,3.7,0.5,5.5,0.8c3.3,0.6,6.5,0,9.6-0.2c3.1-0.2,6.1-1.2,9.3-1.2
		c2.6,0,5-1,7.5-1.6c4.5-1.1,8.9-2.3,12.5-5.6c1.8-1.6,3.2-3.3,4.2-5.5c1.1-2.6,1.4-5-0.8-7.2c-0.4-0.4-0.6-0.9-0.8-1.4
		c-0.5-1.2-1.4-2-2.4-2.7c-1.5-1-2.8-2.3-4.4-3c-2.3-1.1-4.9-1.5-7.2-2.6c-0.3-0.2-0.8-0.2-1.1-0.1c-1.9,0.7-3.7-0.1-5.5-0.6
		c-1.1-0.3-2.1-0.4-3.3-0.4C277.2,469.3,274.3,469.3,271.3,469.4z"/>
	
		<linearGradient id="SVGID_5_" gradientUnits="userSpaceOnUse" x1="109.6258" y1="-50.3013" x2="156.4803" y2="528.9908" gradientTransform="matrix(0.9998 2.020000e-02 2.020000e-02 -0.9998 -10.9613 548.5638)">
		<stop  offset="1.960000e-02" style="stop-color:#002200"/>
		<stop  offset="0.4142" style="stop-color:#004304"/>
		<stop  offset="0.662" style="stop-color:#8EB879"/>
		<stop  offset="1" style="stop-color:#FFD815"/>
	</linearGradient>
	<path class="st4" d="M130.4,66.5c0-0.2,0.1-0.4,0-0.5c-1.6-1.9-2.6-4.2-4.1-6.2c-1.4-1.9-3-3.9-3.9-6.3c-0.6-1.9-1.8-3.6-2.8-5.4
		c-0.6-1.1-1-2.1-1.3-3.2c-0.2-1.3-0.7-2.4-1.3-3.5c-1.9-3.7-3.5-7.4-5-11.2c-0.6-1.4-0.9-2.8-1-4.3c-0.1-1.1-0.5-2.1-0.6-3.2
		c-0.4-2.9-0.9-5.9-0.7-8.8c0.2-2.4,0.8-4.9,2.1-7.2c0.1-0.3,0.4-0.5,0.5-0.8c0.8-2,0.8-1.8,2.8-1.8c2,0.1,3.8,0.8,5.7,1.2
		c0.7,0.1,1.2,0.6,1.8,1c1.1,0.8,1.8,2.2,3.4,2.4c0.2,0,0.4,0.3,0.5,0.4c1.2,2.5,3.5,3.9,5.5,5.7c0.6,0.6,0.6,1.4,1.3,1.9
		c3,2.6,4.5,6.2,7.2,9c0.4,0.4,0.5,0.8,0.6,1.2c0.1,0.4,0.3,0.9,0.6,1c1.3,0.3,1.8,1.4,2.6,2.3c1,1,1.4,2.2,2.1,3.3
		c0.7,1.1,1.5,2.2,2.1,3.4c2.4,4.6,5.2,9,7.4,13.7c1.5,3.3,3.3,6.5,4,10.2c0.4,2,1.7,3.8,2.6,5.7c0.2,0.3,0.4,0.6,0.5,1
		c0.8,3.1,2.5,5.9,3.7,8.8c1.1,2.6,2.6,4.9,3.1,7.8c0.1,0.7,0.4,1.3,0.8,1.9c2,3.5,2.9,7.4,3.6,11.3c0.5,2.9,1.7,5.6,2.5,8.4
		c0.4,1.4,0.8,2.8,1,4.3c0.5,2.6,1.8,5,2.3,7.6c0.4,2.3,1.1,4.6,1.3,7c0.1,0.9,0.7,1.8,0.9,2.7c0.4,1.4,0.7,2.9,1.2,4.3
		c0.5,1.5,0.6,3,0.7,4.6c0.1,2.2,0.6,4.3,0.9,6.5c0.7,4.8,1.9,9.5,2.5,14.3c0.4,3.7,0.8,6.5,1.2,10.2c0,0.3,0.1,0.7,0,0.9
		c-1.1,1.9-1,4-1.3,6.2c-1.9-2.1-4-3.8-5.2-6.2c-0.6-1.2-1.7-1.2-2.9-2c-1.3-0.8-1.9-2.3-2.7-3.4c-1.8-2.6-3.9-4.7-6.2-6.7
		c-3-2.6-5.2-6-8-8.9c-1.5-1.6-3.1-3-4.6-4.7c-2.4-2.9-4.5-6-6.3-9.2c-1.7-2.9-3-5.9-4.2-9c-0.9-2.4-1.6-4.9-1.4-7.5
		c0.1-1.1-0.6-1.9-1.1-2.8c-0.6-1.1-1.4-2.2-2.3-3c-2.8-2.4-5.1-5.3-7.2-8.3c-0.9-1.3-2.1-2.1-3.1-3.2c-3.3-3.9-6.6-7.7-9.9-11.6
		c-1.2-1.4-2.6-2.8-4-3.9c-0.1-0.1-0.3-0.1-0.4-0.3c-0.9-2.1-3.1-3.1-4.3-5.1c-1.2-1.9-2.1-4-3.2-5.9c-1-1.9-1.5-3.9-2.4-5.8
		c-0.6-1.4-0.3-3-1.1-4.3c-0.2-0.3,0-0.6,0.3-0.8c2-1.5,4-2.3,6.7-1.9c5,0.6,9.3,2.8,13.4,5.5C128.2,66.1,129.1,66.9,130.4,66.5z
		 M185.3,168.1c0.1-0.1,0.2-0.3,0.2-0.4c-0.3-3-1-4.9,0-7.9c0.1-0.3-0.1-0.6-0.2-0.9c-0.7-2.2-0.8-4.5-1.1-6.7
		c-0.7-4.3-1.1-8.6-2.3-12.9c-1-3.7-1.9-7.4-2.9-11.1c-0.2-0.7-0.1-1.5-0.5-2.3c-1-1.6-1.5-3.4-2.1-5.1c-1.6-3.9-2.8-8-4.1-12
		c-0.4-1.1-0.7-2.1-0.4-3.3c0.2-0.9-0.2-1.7-0.8-2.4c-0.7-0.7-1.2-1.5-1.2-2.6c0-0.6-0.3-1.2-0.5-1.8c-0.5-1.4-1.2-2.8-1.5-4.2
		c-1.1-4.8-3-9.2-4.8-13.7c-1.2-2.8-2.6-5.6-3.7-8.5c-2.3-5.6-4.9-11-7.5-16.4c-1.2-2.4-2.3-4.9-3.8-7.2c-1.7-2.6-3.1-5.4-4.2-8.2
		c-0.3-0.7-0.7-1.2-1.4-1.7c-0.9-0.6-1.8-1.6-2.2-2.7c-0.5-1.6-1.5-2.7-2.5-3.9c-1.4-1.7-2.3-3.8-3.9-5.4c-1.8-1.7-3-4-4.8-5.6
		c-3.5-3.1-6.8-6.6-11.5-8.1c-1.2-0.4-1.8-1-2,0.8c-0.1,0.7-1.5,1.4-1.4,2c0,2.2-0.4,4.3-0.3,6.4c0.1,2,0.8,4,1.8,5.8
		c0.6,1.1,1.2,2.3,1.5,3.4c1,3.4,3,6.4,4,9.9c0.5,1.6,1.8,2.9,2.2,4.4c0.7,2.4,2.2,4.5,3.2,6.7c2.3,5.1,5.8,9.5,8.5,14.4
		c1.4,2.4,3.3,4.3,4.9,6.5c1,1.4,1.5,2.8,0.7,4.7c-2.8-1.9-5.5-3.8-8.2-5.5c-0.9-0.6-1.7-1.3-2.7-1.8c-2.9-1.4-5.7-2.9-8.5-4.5
		c-1.6-1-3.4-1-5.2-1.2c-0.8-0.1-1.1,0.4-1.2,1.1c-0.2,1.7,0.3,3.3,1.1,4.8c2.9,5.5,6.4,10.7,10.8,15c3.5,3.4,6,7.6,9.6,10.8
		c1.1,2.4,3,4.3,4.5,6.5c1.3,2,2.8,3.8,4.3,5.6c0.6,0.8,1,1.1,2,0.2c1.3-1,3.1-1.1,4.5-0.4c2,1,3.9,2.2,5.3,4.2
		c0.5,0.8,0.3,1.8,0.8,2.4c0.6,0.8,1.3,1.6,1.4,2.6c0.2,1.3,1.5,1.8,1.8,2.9c1.1,3.6,1.9,7.2,2.5,10.9c0.1,0.5,0,0.9-0.4,1.2
		c-0.5,0.3-0.9,0.1-1.3-0.1c-1.2-0.8-2.1-1.9-2.9-3.1c-1.3-1.8-2.6-3.7-4.3-5.2c-0.7-0.6-1.4-1.3-1.7-2.2c-0.2-0.6-0.8-0.9-1.5-0.6
		c0.2,2.3,0.9,4.4,1.6,6.4c1.3,3.2,3.4,6,5.7,8.5c4,4.3,8.3,8.3,11.9,13c1.1,1.4,2.7,2.2,3.7,3.6c1.7,2.5,3.2,5.1,5,7.6
		C181,163.7,182.8,165.7,185.3,168.1z M159.5,126.4c0-0.3,0.1-0.5,0.1-0.6c-0.7-2.1-2-4.1-2.7-6.2c-0.9-2.5-2.8-3.7-5-4.9
		c-0.1-0.1-0.3-0.1-0.4,0c-0.2,0.1-0.4,0.4-0.2,0.6c0.6,0.8,0.6,1.9,1.5,2.6c1.6,1.3,2.7,2.9,3.9,4.6
		C157.5,123.8,158.2,125.3,159.5,126.4z"/>
	
		<linearGradient id="SVGID_6_" gradientUnits="userSpaceOnUse" x1="379.6209" y1="-66.5464" x2="426.7636" y2="516.3108" gradientTransform="matrix(0.9987 -5.060000e-02 -5.060000e-02 -0.9987 23.7946 583.5454)">
		<stop  offset="1.960000e-02" style="stop-color:#002200"/>
		<stop  offset="0.4142" style="stop-color:#004304"/>
		<stop  offset="0.662" style="stop-color:#8EB879"/>
		<stop  offset="1" style="stop-color:#FFD815"/>
	</linearGradient>
	<path class="st5" d="M378.4,179.9c0.3-3.8-0.5-7.5-0.6-11.3c-0.1-2.3,0.2-4.6,0.4-6.8c0.7-6.3,2.2-12.5,3.8-18.6
		c0.1-0.4,0.3-0.8,0.2-1.1c-0.3-2.9,0.6-5.6,1.7-8.2c1-2.3,1.1-4.9,1.7-7.3c0.9-3.9,1.9-7.8,3.4-11.4c2-4.9,4.1-9.8,6.1-14.8
		c0.8-1.9,1.5-3.8,2.2-5.8c0.5-1.3,1.4-2.4,2.1-3.6c3.2-5.4,5.8-11.1,8.5-16.7c1.3-2.7,3.3-5.2,5.2-7.6c1.6-2,3.2-4.1,4.8-6.1
		c1.5-1.9,3.1-3.7,4.8-5.4c2.3-2.2,4.2-4.9,6.5-7.1c1.7-1.6,3.3-3.3,5.1-4.9c0.8-0.7,1.5-1.4,2.1-2.2c0.5-0.6,1-1.1,1.7-1.6
		c3.1-2.2,6.3-4.3,9.2-6.8c1.2-1,2.5-1.9,3.8-2.7c3.5-2.3,7.4-4,11.7-4.4c2.7-0.2,4.3,1.9,4,4.6c-0.5,4-1.5,7.8-2.8,11.6
		c-1.1,3.3-1.9,6.7-3.5,9.7c-1.8,3.5-3,7.2-5.1,10.5c-0.7,1.1-0.2,1.4,0.5,1.8c1.2,0.6,2.5,0.8,3.6,1.7c1.8,1.4,2.5,3.4,2,5.5
		c-0.9,3.6-2.7,6.9-4.6,10c-2.1,3.4-4.2,6.8-7,9.7c-3,3.1-5.7,6.7-9.2,9.3c-1.2,0.9-2.3,1.9-3.4,2.8c-1.1,0.9-2,2-1.5,3.7
		c0.1,0.4,0.1,0.8-0.1,1.2c-1.2,2.3-1.1,4.9-1.9,7.3c-0.7,2.3-2.6,3.9-4,5.8c-0.4,0.6-1.1,0.9-1.5,1.5c-1.1,2.1-2.8,3.7-4.3,5.5
		c-2,2.6-4.3,4.9-6.3,7.4c-1.8,2.2-3.7,4.4-5.8,6.4c-2.1,2.1-3.5,4.8-5.4,7c-3.4,4.1-6.3,8.6-9.4,13c-2.1,3.1-4.5,6.1-6,9.6
		c-0.4,0.9-1.1,1.5-1.7,2.2c-1.9,2.4-3,5.1-3.8,8c-0.5,1.7-1.5,3.3-2.2,4.9c-0.4,1.1-2,0.1-2.3,1.4c0,0.1-0.3-0.1-0.5-0.3
		c-1.9-2.1-1.9-2.1-2.3-5.2C378.4,181.5,378.4,180.7,378.4,179.9z M394.2,143.1c0.7-2,2-3.5,2.9-5.2c1.7-3.4,3.5-6.8,5.1-10.2
		c1.8-4,4.7-7.3,7-11c0.9-1.5,2.3-2.7,3.7-3.9c3-2.7,6.4-4.8,9.7-7c2.8-1.9,5.8-3.5,9.4-2.1c0.8,0.3,1.4,0,2-0.5
		c0.6-0.5,1.2-1,1.7-1.6c3.1-4,7.2-7,10-11.2c2.1-3.1,4.8-5.9,6.5-9.4c1.2-2.3,1.7-4.8,2.6-7.3c0.3-0.7,0.1-1.6-0.4-2.3
		c-0.5-0.9-1.2-1.7-1.9-2.4c-1.2-1.1-2-1.1-2.9,0.2c-1.5,2-2.9,4.1-4.2,6.2c-2.5,4.2-5.5,8-9.1,11.3c-2.6,2.4-5.4,4.5-8,7
		c-1.5,1.5-3.4,2.5-5.2,3.6c-0.8,0.6-1.8,0.5-2.7,0.1c-0.8-0.4-1.2-2-0.8-2.9c0.4-1,0.7-2,1.2-3c1.9-3.5,4.5-6.4,6.6-9.7
		c1.7-2.5,3.7-4.7,5.8-6.7c2.3-2.2,5-4.1,7.4-6.2c1.6-1.4,3.5-2.5,5.5-3.1c2.8-0.8,4.2-2.7,5.5-5.1c1.4-2.7,2.3-5.7,4.3-8.1
		c1.6-1.9,2-4.4,2.6-6.8c0.7-2.9,2-5.6,2.3-8.6c0.2-1.5-0.3-2.8-1-4c-0.5-0.9-1.8-0.7-2.7-1c-1.2-0.4-1.9-0.1-2.8,0.5
		c-0.5,0.3-1.1,0.5-1.7,0.8c-1,0.4-2.4,0.5-3,1.2c-1.2,1.4-3,2-4.3,3.1c-4.7,3.6-9.5,7.1-13.4,11.6c-1.6,1.9-3.5,3.6-4.8,5.8
		c-0.3,0.6-0.8,1.1-1.2,1.6c-1.6,1.8-3.1,3.7-4.7,5.5c-0.8,0.9-1.5,2-2.2,3.1c-0.6,1-1.2,2-1.9,3c-0.7,1-1.5,2-2.2,3.1
		c-0.6,1-1.7,1.8-2,2.9c-0.4,1.3-1.6,1.4-2.2,2.4c-1,1.7-2.1,3.3-3,5c-1.6,3-3.3,5.9-4.9,8.8c-1.5,2.7-2.7,5.6-4,8.5
		c-0.4,0.9-0.8,1.9-1,2.9c-1.6,5.1-3.2,10.3-5.3,15.3c-0.3,0.8-0.8,1.7-0.4,2.7c0.2,0.6,0,1.1-0.1,1.6c-0.6,2.1-1.2,4.2-1.8,6.3
		c-1.3,4.6-2.4,9.2-3.3,13.9c-0.3,1.6-0.4,3.3-0.9,4.8c-1.2,3.6-1.3,7.3-1.7,11c-0.1,1.3-0.2,2.7-1,3.8c-0.4,0.5-0.5,1.1-0.5,1.8
		c-0.3,2-0.4,4-0.5,6.1c-0.3,3.8-0.4,7.5,0.2,11.2c0.1,0.4,0.1,0.9,0.5,0.9c0.5,0,0.6-0.4,0.8-0.8c0.6-1.5,1-3.1,1.7-4.6
		c1.2-2.7,2.5-5.4,3.6-8.1c1.8-4.3,4-8.4,6.2-12.4c2.3-4.3,5.9-7.7,8.9-11.5c0.1-0.2,0.4-0.3,0.6-0.4c1.8-1.7,3.8-3.3,5.3-5.2
		c2.5-3.2,5.3-6.2,8.1-9.2c2.8-3.1,5.5-6.3,7.1-10.2c0.4-0.9,0.8-1.9,1.7-2.5c0.2-0.1,0.3-0.3,0.4-0.5c-1.3-0.7,0.1-1.4,0.1-2.1
		c-0.7-0.2-1,0.2-1.3,0.5c-2.6,3.3-6.2,5.7-8.6,9.2c-2,2.9-5.1,4.8-7.7,7.1c-4.3,3.9-8.6,7.8-12.8,11.8
		C396.2,143.3,395.4,143.5,394.2,143.1z M400.7,136.4c2.5-2.2,5.1-4.3,7.4-6.7c2.7-2.8,5.4-5.4,8.2-8c1.6-1.5,3.2-3,4.7-4.6
		c2.1-2.3,4.4-4.4,6.7-6.6c0.3-0.3,0.6-0.6,0.5-1c-0.2-0.6-0.8-0.3-1.2-0.4c-1.3-0.4-2,0.8-2.9,1.3c-4.9,2.6-9.4,5.7-13,10.1
		c-2.6,3.3-5.4,6.4-7.9,9.9C402.1,132.1,400.7,133.9,400.7,136.4z M445.9,70c-0.8-0.3-1.5-0.4-2.1,0.3c-0.5,0.6-1.3,0.8-2,1.1
		c-2,1.2-4.1,2.2-5.7,4c-1.5,1.7-2.8,3.5-4,5.4c-1.2,2-3.5,3.1-4.1,5.5c0,0.2-0.3,0.3-0.5,0.4c-2.3,1.4-2.9,3.9-3.6,6.2
		c0,0.1,0.1,0.3,0.2,0.5c0.3-0.1,0.6,0,0.8-0.2c2.2-1.8,4.6-3.1,6.5-5.3c1.7-1.9,3.8-3.4,5.2-5.7c0.2-0.3,0.5-0.6,0.8-0.8
		c0.8-0.4,1.2-1.1,1.8-1.8c2.1-2.3,3.5-5,5.5-7.3C445.3,71.8,445.7,71.1,445.9,70z"/>
	
		<linearGradient id="SVGID_7_" gradientUnits="userSpaceOnUse" x1="252.0694" y1="-150.2533" x2="299.2122" y2="432.6039" gradientTransform="matrix(0.9997 2.450000e-02 2.450000e-02 -0.9997 -5.8414 534.1717)">
		<stop  offset="1.960000e-02" style="stop-color:#002200"/>
		<stop  offset="0.4142" style="stop-color:#004304"/>
		<stop  offset="0.662" style="stop-color:#8EB879"/>
		<stop  offset="1" style="stop-color:#FFD815"/>
	</linearGradient>
	<path class="st6" d="M271.2,404.7c1.4-2.6,3.6-4.5,4.5-7.3c0.3-0.8,1-1.2,1.5-1.8c2.2-2.4,4.8-4.4,8-5.3c0.7-0.2,1.1-0.8,1.8-1.1
		c2.3-1.1,4.8-1.9,7.4-1.9c1.1,0,1.9-0.8,3.1-0.6c2.5,0.4,4.9,0.9,7.1,2c0.8,0.4,1.6,0.6,2.4,0.9c3.7,1.5,6.5,4.1,9,7
		c1.4,1.5,2.7,3.4,3.1,5.6c0.1,0.5,0.3,1.1,0.8,1.4c1.4,0.9,1.6,2.4,1.7,3.7c0.3,3.3,0.9,6.7,1,10c0.1,2.5-0.3,5-0.5,7.5
		c-0.1,1.3-0.4,2.5-0.6,3.7c-0.1,0.5-0.1,1.1-0.4,1.6c-2.3,4.5-4.3,9-7.5,12.9c-1.4,1.8-2.9,3.5-4.6,5c-1.9,1.5-4.3,1.3-5.8-0.6
		c-1.2-1.7-1.1-4.7,0.4-6.2c0.8-0.8,1.3-1.7,1.6-2.8c0.3-1,0.6-2,2-1.7c0.5,0.1,0.4-0.4,0.6-0.5c1.2-0.7,1.6-2.3,3.2-2.6
		c0.1,0,0.1-0.1,0.2-0.2c0.7-2.4,2.5-4.1,3.6-6.3c0-0.1,0-0.2,0-0.2c1.4-1.5,1-3.5,1.5-5.3c0.2-0.6,0.1-1.4,0.5-1.8c1-1,0.4-2.2,0-3
		c-0.9-1.8-0.5-3.9-1.7-5.5c-0.3-0.3,0-0.7,0.1-1.1c0.3-0.8-0.3-1.6-0.8-2c-1.5-1-2.7-2.1-3.2-3.9c-0.2-0.6-0.9-0.8-1.5-1.1
		c-1.2-0.5-2.3-1.3-3.5-1.9c-1.7-0.8-3.7-1.9-5.7-0.6c-0.4,0.3-0.9,0.3-1,0c-0.5-1.3-1.3-1.1-2.4-0.7c-0.5,0.2-1.2-0.3-1.8-0.2
		c-1.8,0.1-3.7-0.8-5.5,0.6c-0.4,0.3-1.3,0.2-1.9,0c-2.6-0.6-4.1,1-5.5,2.8c-2.2,3-3.9,6.3-4.2,10.1c-0.1,0.8-0.5,1.3-1.1,1.8
		c-3.8,2.8-10.3,1.9-12-2.7c-1.2-3.2-3.2-6-4.9-8.9c-0.6-1-1.7-1.1-2.5-1.6c-2-1.3-4.3-2.1-6.5-2.4c-2.5-0.4-5.1-0.4-7.6,0.3
		c-2.4,0.6-4.9,0.9-7,2.4c-0.4,0.3-0.9,0.4-1.2,1c-0.2,0.4-0.6,0.5-0.8-0.1c-0.2-0.5-0.6-0.7-0.8-0.1c-0.3,1-1.1,1.5-1.8,2
		c-1.7,1.5-2.7,3.5-3,5.7c-0.5,2.8-0.5,5.7-0.6,8.6c0,0.8,0,1.5-0.1,2.3c-0.1,1,0.2,2,0.8,3c1.2,2.2,3.3,3.9,3.5,6.6
		c0,0.3,0.3,0.6,0.5,0.8c2.7,3,5.4,6,9.3,7.5c2.2,0.8,4,4.2,3.8,6.5c-0.2,3-2.6,4.5-5.4,3.5c-0.3-0.1-0.6-0.2-0.9-0.2
		c-2.8-0.1-4.6-2-6.7-3.5c-0.8-0.5-0.9-1.4-1.4-2.1c-1.8-2.5-3.2-5.1-4.7-7.8c-1.2-2.1-2.2-4.2-3.1-6.5c-0.7-1.8-1-3.6-1.3-5.4
		c-0.3-1.8-0.4-3.5-1.6-5c-0.3-0.4-0.5-1-0.5-1.5c-0.9-5.5-0.4-10.7,2.6-15.7c2.2-3.7,5.1-6.7,8-9.8c0.2-0.2,0.5-0.5,0.7-0.6
		c4.2-2.3,8.5-4.5,13.3-5.1c0.4-0.1,0.8,0.1,1.1,0.2c1.4,0.2,2.7,0.7,4.1,0.5c1-0.1,2.2,0.2,3.1,0.9c2.4,1.6,5,2.5,7.6,3.4
		c0.5,0.2,0.8,0.5,1,0.9c1.2,2,2.8,3.7,4.5,5.3c1.2,1.1,2.1,2.2,2.5,3.9C269.8,402.6,270.8,403.4,271.2,404.7z"/>
	
		<linearGradient id="SVGID_8_" gradientUnits="userSpaceOnUse" x1="203.4016" y1="-21.5684" x2="250.5444" y2="561.2888" gradientTransform="matrix(0.9987 -5.060000e-02 -5.060000e-02 -0.9987 23.7946 583.5454)">
		<stop  offset="1.960000e-02" style="stop-color:#002200"/>
		<stop  offset="0.4142" style="stop-color:#004304"/>
		<stop  offset="0.662" style="stop-color:#8EB879"/>
		<stop  offset="1" style="stop-color:#FFD815"/>
	</linearGradient>
	<path class="st7" d="M243.2,250.6c-0.5-3.9,0.8-7.8-0.4-11.5c0-0.1-0.1-0.3-0.1-0.5c0.2-2.4-0.9-4.3-1.8-6.4
		c-0.7-1.7-1.6-3.3-2.4-4.9c-0.5-1-1-1.9-2-2.5c-0.3-0.2-0.6-0.5-0.8-0.9c-0.8-1.1-1.5-2.5-0.7-3.7c0.8-1.1,2.3-1,3.7-0.6
		c0.4,0.1,0.9,0.2,1.4,0.4c1.5,0.6,3.2,1,3.8,2.8c0.1,0.2,0.3,0.3,0.5,0.5c3.4,3.3,4.8,7.5,6,12c0.7,2.6,0.5,5.1,0.6,7.6
		c0.1,3.5,0.6,7,0.3,10.6c-0.1,0.6-0.1,1.2-0.4,1.8c-0.8,1.4-0.6,2.9,0,4.3c0.8,1.9,1.7,3.7,2.4,5.6c1,2.5,1.7,5.2,2.7,7.7
		c1.2,3,1.6,6.2,2.2,9.4c0.7,3.4-0.8,5.6-3.2,7.6c-1.4,1.2-3.7,0-4-2c-0.2-1.4-0.2-2.8-0.2-4.2c-0.1-2.5-0.8-4.7-2-6.9
		c-0.8-1.5-1.5-3.2-2.3-4.8c-0.3-0.5-0.5-1-0.9-1.4c-0.4-0.4-0.9-0.5-1.1,0.2c-0.2,0.6-0.5,1.1-0.5,1.8c0.2,3-0.7,5.8-1.4,8.5
		c-0.7,2.7-2.2,5-3.8,7.2c-1,1.4-5.1,2.4-6.8,1.8c-1-0.4-1.7-2.1-1.2-3.2c0.1-0.3,0.3-0.5,0.6-0.7c3-2.5,3.5-6,4.4-9.5
		c0.6-2.4,1.5-4.8,2.3-7.1c0.9-2.9,0.8-5.9,0.7-8.8c-0.1-1.6-1.3-2.8-1.8-4.2c-1.5-3.6-4-6.7-5.7-10.2c-1.5-3-4-5.2-6.2-7.6
		c-1-1-2.2-1.5-3.5-1.6c-2.7-0.3-3.5-1.3-3.4-4c0-0.1,0-0.2,0-0.2c0.2-1.2,0.3-2.8,1.4-3.3c1.2-0.5,2.7-0.5,4.1,0.3
		c2.9,1.7,5.8,3.4,7.8,6.2c1.2,1.7,3,2.9,4.4,4.5c2.4,2.9,4.2,6.2,6.2,9.3C242.2,250.2,242.4,250.5,243.2,250.6z M221.9,233.6
		c0.7,0.9,1.1,2,2.4,1.8c0.2,0,0.5,0.4,0.7,0.6c1.3,1.2,2.7,2.2,3.8,3.7c1.6,2.2,3.3,4.4,4.8,6.6c2.8,4.2,4.6,9.1,7.8,13.1
		c0.3,0.3,0.6,0.9,0.4,1.3c-0.7,1.3-0.4,2.8-0.6,4.2c-1.4,6.2-2.9,12.3-5.3,18.1c-0.5,1.3-1.3,2.5-1.7,3.9c-0.2,0.6,0.2,1.1,0.7,0.8
		c1.1-0.6,2.6-0.8,3.1-2c1.3-3.8,3.1-7.5,3.9-11.5c0.5-2.5,1.2-5,1.3-7.6c0-0.6,0.2-1.4,0.8-1.6c0.7-0.2,1.4,0.2,1.8,0.8
		c0,0.1,0.1,0.1,0.1,0.2c2.7,3.1,4.3,6.6,5.4,10.5c0.8,2.9,1.4,5.9,1.5,9c0,1,0.8,1.3,1.6,0.7c0.5-0.4,0.6-0.9,0.6-1.5
		c0.1-3.6-0.5-7.2-1.2-10.7c-0.3-1.3-0.3-2.7-0.9-3.9c-1.6-3-3-6.2-5.8-8.3c-0.6-0.5-0.9-1.1-0.8-1.9c0.2-1.1,0.2-2.1,0.6-3.2
		c0.8-2.1,1.5-4.3,1.3-6.6c-0.2-1.9,0.1-3.8,0.2-5.6c0.3-4.5,0-8.9-2-13.1c-1.6-3.4-3.1-6.8-7.1-8.2c-0.2,0.4-0.2,0.9,0,1.1
		c0.8,1,1.7,1.8,1.5,3.2c1.6,2,2.2,4.5,3.2,6.8c1.2,2.6,1.5,5.5,1.5,8.4c0,1.3-0.1,2.5-0.1,3.8c0.1,2.9-1.1,5.5-1.2,8.4
		c0,0.7-0.7,1-1.4,1.1s-0.6-0.6-0.8-1c-0.7-1.5-1.3-2.9-2.4-4.2c-1.2-1.5-2.3-3.1-3.1-4.8c-1.6-3.2-3.7-5.9-6.2-8.4
		c-1.1-1.1-2.6-1.9-3.6-3C225.4,232.9,223.9,232.7,221.9,233.6z"/>
	
		<linearGradient id="SVGID_9_" gradientUnits="userSpaceOnUse" x1="279.6037" y1="-27.7317" x2="326.7466" y2="555.1255" gradientTransform="matrix(0.9987 -5.060000e-02 -5.060000e-02 -0.9987 23.7946 583.5454)">
		<stop  offset="1.960000e-02" style="stop-color:#002200"/>
		<stop  offset="0.4142" style="stop-color:#004304"/>
		<stop  offset="0.662" style="stop-color:#8EB879"/>
		<stop  offset="1" style="stop-color:#FFD815"/>
	</linearGradient>
	<path class="st8" d="M301.9,268.6c-1,1.1-1.2,2.5-1.6,3.8c-0.7,1.9-1.5,3.8-2.1,5.7c-0.7,2.3-0.6,4.5,0,6.7
		c0.2,0.8,0.6,1.4-0.2,2.1c-0.8,0.8-1.4,1.6-2.7,1.7c-2.9,0.3-5.2-2.3-5.2-5c0-2.9,0.5-5.7,0.9-8.6c0-0.3,0.1-0.6,0.2-0.9
		c1.7-3.6,3-7.3,5.3-10.6c1.8-2.6,3.2-5.6,3.5-8.9c0.5-7.3,2.8-13.9,7.1-19.8c0.9-1.2,1.7-2.4,2.4-3.8c0.6-1.2,2-1.9,3.1-2.7
		c1.8-1.2,3.9-1.5,6-1.9c1-0.2,3,0.8,3.5,1.6c0.3,0.5,0.3,0.9,0,1.4c-1.2,2.2-2.3,4.6-4.9,5.4c-2.7,0.9-3.9,3-5.2,5.1
		c-1,1.6-1.9,3.3-2.4,5.1c-0.5,1.7-1,3.4-1.5,5.3c1,0.2,1.5-0.4,2-0.9c2.6-2.7,5.5-5.1,8.2-7.7c2.1-2.2,4.5-4,6.8-5.9
		c1.4-1.1,2.8-2.2,4.2-3.2c2.5-1.8,5.8-2.5,8.5-0.4c1.2,0.9,1.7,2.4,0.9,3.6c-0.8,1.3-1.9,2.4-3.5,2.6c-5.1,0.7-8.6,3.9-11.9,7.4
		c-2.8,3-5.5,6.1-8.1,9.3c-1.4,1.7-2.6,3.5-3.7,5.4c-1,1.8-0.9,3.8-0.7,5.8c0.4,3.9,0,7.8,0.2,11.7c0.1,2.7,0.6,5.3,0.9,7.9
		c0.3,2.9-0.7,4-3.5,3.6c-2.2-0.3-4-2.2-4.4-4.9c-0.6-4.5-0.3-9.2-1.7-13.7C302.1,270.3,302.7,269.3,301.9,268.6z M310.1,287.4
		c-0.5-2-0.8-3.8-0.8-5.6c0-3.1-0.8-6.2-0.6-9.3c0.1-2.5-0.1-5-0.4-7.5c-0.2-2.4,0.2-4.4,1.5-6.3c2.6-3.9,5.6-7.3,9.2-10.3
		c1.2-1,2.4-1.9,3.4-3.2c1.5-1.9,3-3.8,5.1-5.2c1.6-1.1,3.2-2,4.9-3c1.1-0.6,2.4-1.1,3.5-1.7c0.5-0.2,1-0.6,1-1.2
		c0-1.5-1.5-2.6-2.8-2c-2,1-4.3,1.5-6,3.3c-0.7,0.8-1.6,1.5-2.6,2.1c-3.4,2.1-6.4,4.7-9.2,7.5c-1.4,1.4-3.3,2.6-4.3,4.5
		c-0.7,1.5-2,2.4-3,3.6c-0.5,0.7-1.2,0.6-1.9,0.5c-0.5-0.1-0.9-0.5-0.8-1c0.1-1.7-0.2-3.3,0.5-5c1.3-2.9,2.5-5.9,3.7-8.9
		c0.7-1.8,1.9-3.5,3.4-4.7c1.5-1.1,2.8-2.5,4.5-3.3c0.6-0.3,0.9-0.9,0.8-1.6c-0.1-0.6-0.8-0.7-1.3-0.8c-1.6-0.3-2.9,0.2-4,1.3
		c-4,3.9-6.6,8.6-8.7,13.8c-0.2,0.4-0.3,0.9-0.5,1.3c-1.6,3.4-2.6,6.9-2,10.8c0.3,1.9-0.4,3.3-1.8,4.5c-1,0.8-1.9,1.7-2.4,2.9
		c-1.2,2.5-2,5.1-3.2,7.5c-1.4,2.9-2.5,5.6-2.7,8.9c-0.2,3,0.1,5.3,2.4,7.8c0.2-1.1,0.5-1.9,0.5-2.8c0-2.7,0.2-5.4,1-8.1
		c0.6-2.3,1.6-4.6,2.2-6.9c0.6-2.5,2.4-3.8,4.1-5.1c1.3-1,2.4-0.2,2.3,1.5c0,1.1-0.3,2.2-0.3,3.3c0.1,5,0.5,10,1.7,14.9
		C307,285.8,307.9,286.9,310.1,287.4z"/>
	
		<linearGradient id="SVGID_10_" gradientUnits="userSpaceOnUse" x1="210.3061" y1="-102.6237" x2="256.4317" y2="467.6571" gradientTransform="matrix(0.9987 -5.060000e-02 -5.060000e-02 -0.9987 23.7946 583.5454)">
		<stop  offset="1.960000e-02" style="stop-color:#002200"/>
		<stop  offset="0.2742" style="stop-color:#004304"/>
		<stop  offset="0.662" style="stop-color:#8EB879"/>
		<stop  offset="1" style="stop-color:#FFD815"/>
	</linearGradient>
	<path class="st9" d="M246.6,336.6c-1.7,0.4-2.8,2-4.4,2.5c-1.8,0.6-5.1,0-6.3-1.4c-0.6-0.7-0.9-1.5-1-2.6c-0.1-2,1.2-3.6,1.3-5.4
		c1.6-0.8,2.2-2.7,3.7-3.7c1.8-1.1,3.4-2.3,5.6-2.6c2.8-0.4,5.2-2.2,8-2.6c0.6-0.1,1.2-0.3,1.9-0.3c1.5,0,2.9,1.2,4,0.9
		c1.5-0.3,2.7-0.1,4.1,0.4c-0.1,1.4-0.7,2.4-1.8,3.3c-1.5,1.1-2.7,2.5-4.1,3.8c-1,1-1.1,2.4-2,3.5c-2.1,2.5-3.7,5.6-6.4,7.7
		c-0.4,0.3-0.5,0.7-0.8,1.1c-0.6,1.3-1.3,2.8-3,3c-0.5,0.1-0.4,0.4-0.3,0.7c0.2,0.7-0.2,1.3-0.7,1.6c-1,0.6-1.4,1.5-1.6,2.6
		c-0.2,0.8-0.4,1.5-1.4,1.6c-0.3,0-0.5,0.2-0.4,0.4c0.3,1.6-1,2.4-1.6,3.5c-1.4,2.6-1.5,5.5-1.7,8.4c0,0.5,0,0.9,0.4,1.3
		c0.3,0.3,0.6,0.7,0.4,1c-1,2.7,1.7,3.7,2.5,5.6c0.1,0.3,0.6,0.4,1.1,0.3c0.3,0,0.6-0.1,0.9,0c2.8,1.7,5,1.7,8.3,0.4
		c1.6-0.6,3-1.6,4.3-2.8c1.7-1.6,3.3-3.3,4.8-5c0.3-0.3,0.4-1,1-0.8c0.5,0.1,1.1,0.3,1.5,0.6c1,0.7,1.3,1.9,0.4,2.8
		c-2.6,2.7-4.4,6.1-7.9,7.9c-1.4,0.7-2.4,2-3.9,2.5c-1,0.4-2,0.6-3.1,0.7c-1.1,0.1-2.3-0.2-3.4,0.5c-0.9,0.6-2.3,0.2-3.2-0.4
		c-1.8-1.1-4-2.1-5-4c-1.2-2.1-2.5-4.3-3.2-6.7c-1-3.4-0.6-6.8,0.1-10.2c0.8-4.1,2.6-7.7,5.5-10.8c0.7-0.8,1.3-1.6,1.6-2.6
		c0.3-0.8,0.9-1.3,1.5-1.8c1.5-1.3,2.8-3,4-4.6C246.5,337.2,246.8,336.9,246.6,336.6z M248.4,334.5c0.9,0,1.3-0.5,1.7-1
		c2.8-3.2,5.5-6.4,8.3-9.6c0.1-0.1,0.2-0.3,0.3-0.4c0.2-0.4,0.7-0.8,0.2-1.2c-0.4-0.3-0.8-0.5-1.3-0.3c-2.9,1-5.8,1.9-8.5,3.2
		c-1.2,0.6-2.6,0.9-3.6,2c-1.2,1.3-2.3,2.5-3.3,3.9c-0.5,0.7-1.1,1.5-1.1,2.5c0,0.8,0.2,1.4,1.1,1.5c0.6,0,1.4,0.3,1.9,0
		C245.4,334.2,246.9,333.6,248.4,334.5z"/>
	
		<linearGradient id="SVGID_11_" gradientUnits="userSpaceOnUse" x1="242.9665" y1="-24.7684" x2="290.1094" y2="558.0886" gradientTransform="matrix(0.9987 -5.060000e-02 -5.060000e-02 -0.9987 23.7946 583.5454)">
		<stop  offset="1.960000e-02" style="stop-color:#002200"/>
		<stop  offset="0.4142" style="stop-color:#004304"/>
		<stop  offset="0.662" style="stop-color:#8EB879"/>
		<stop  offset="1" style="stop-color:#FFD815"/>
	</linearGradient>
	<path class="st10" d="M281.1,204.8c-2.2-1.5-4.5-2.7-6.5-4.3c-3.4-2.8-7-5.3-10.1-8.4c-2.8-2.7-4.9-5.8-5.6-9.7
		c-0.2-1.3,0.1-2.5,0.5-3.7c1-3.1,3.1-5.5,5.6-7.6c0.2-0.1,0.4-0.2,0.6-0.3c3.6-1,7.1-2.5,10.8-3c1.1-0.1,2.1-0.2,3.3,0
		c3.4,0.6,6.8,1.1,10.1,2.4c2,0.8,3.8,1.7,5.5,3.1c3,2.4,4.6,5.6,6,9.1c0.3,0.7,0,1.4-0.1,2.1c-1,4.2-3.1,7.7-6.7,10.1
		c-1.9,1.3-3.4,3.2-5.7,4.1c-0.2,0.1-0.4,0.3-0.6,0.4C284.9,199.6,283.3,202.4,281.1,204.8z M296.9,183.1c0-2-0.9-4-2.5-5.5
		c-2.2-2.1-4.3-4.2-7.3-5.2c-3.1-1-6.2-2.2-9.6-1.8c-3.3,0.4-6.7,1-9,3.8c-1,1.3-2.3,2.4-3.3,3.6c-1.6,1.9-1.4,4-1.7,6
		c0,0.4,0.1,0.8,0.3,1.1c1.2,2.9,3,5.3,5.6,7.2c3,2.1,6.2,3.6,9.3,5.3c0.4,0.3,0.8,0.4,1.3,0.1c3.6-2.2,7.4-4,11.4-5.4
		C294.2,191.2,297,186.1,296.9,183.1z"/>
	
		<linearGradient id="SVGID_12_" gradientUnits="userSpaceOnUse" x1="141.6949" y1="-302.8782" x2="188.8378" y2="279.9789" gradientTransform="matrix(0.9997 2.450000e-02 2.450000e-02 -0.9997 -5.8414 534.1717)">
		<stop  offset="1.960000e-02" style="stop-color:#002200"/>
		<stop  offset="0.4142" style="stop-color:#004304"/>
		<stop  offset="0.569" style="stop-color:#598C4D"/>
		<stop  offset="0.662" style="stop-color:#8EB879"/>
		<stop  offset="1" style="stop-color:#FFD815"/>
	</linearGradient>
	<path class="st11" d="M142,565.4c1.1-0.3,2.2,0.2,3.3,0.6c3,1.1,6.1,2,9.1,3c1.8,0.5,3.4,1.5,5.4,1.3c0.9,0,1.7,0.2,2.5-0.3
		c0.5-0.2,1.1-0.3,1.6-0.1c1.7,0.5,3.2,0,4.7-0.8c0.4-0.2,0.9-0.3,1.4-0.3c1,0,1,0.9,1.2,1.5c0.2,0.6-0.2,0.8-0.7,1
		c-2.7,0.7-5.1,2.2-8.1,2.2c-1.8,0-2.3,0.9-2.7,2.8c-0.5,2.1,0.5,4.2,0.3,6.3c-0.1,1.1,0.1,2.2,0.2,3.3c0,1,0.5,1.5,1.6,1.6
		c1.2,0.1,2.3,0.3,3.5,0c0.7-0.2,1.5-0.2,2.3-0.2c1.2,0,2.3,0,3.3-1c0.6-0.6,1.4-0.7,2.2-0.2c0.6,0.3,0.8,0.9,0.8,1.6
		c-0.1,1-0.7,1.5-1.7,1.7c-2.1,0.3-4.1,0.9-6.3,0.6c-1.4-0.2-2.7,0.4-4.1,0.1c-0.7-0.1-0.9,0.4-0.9,1c-0.1,2.2,0.5,4.4,1.2,6.4
		c0.3,0.8,0.2,1.5,0.1,2.3c-0.1,0.5-0.4,0.7-0.8,0.7c-0.4,0-0.7-0.3-0.9-0.7c-1.2-3-2.1-6-2-9.3c0-0.2,0-0.5-0.1-0.7
		c-1.5-4.7-1.2-9.4-0.9-14.2c0.1-1.1-0.3-1.4-1.3-1.7c-2-0.8-4.2-0.6-6.2-0.9c-2.9-0.4-5.6-1.1-8.2-2.6c-1.3-0.8-2.3-1.9-2.8-3.3
		c-0.5-1.2-0.2-1.8,1.1-1.9C140.6,565.2,141.3,565.4,142,565.4z"/>
	
		<linearGradient id="SVGID_13_" gradientUnits="userSpaceOnUse" x1="373.2138" y1="-21.9315" x2="420.3568" y2="560.9258" gradientTransform="matrix(0.9997 2.450000e-02 2.450000e-02 -0.9997 -5.8414 534.1717)">
		<stop  offset="1.960000e-02" style="stop-color:#002200"/>
		<stop  offset="0.2177" style="stop-color:#8EB879"/>
		<stop  offset="0.4142" style="stop-color:#004304"/>
		<stop  offset="1" style="stop-color:#FFD815"/>
	</linearGradient>
	<path class="st12" d="M369.2,581.5c0.6-0.1,1.1-0.3,1.5-0.7c1-1.2,2.4-0.9,3.7-0.9c0.4,0,0.8,0.2,0.9,0.6c0.2,0.5-0.2,1-0.6,1.1
		c-1.5,0.5-2.1,1.8-3.2,2.7c-0.7,0.6-0.8,1.2-0.5,2c0.5,1.8,1.1,3.6,0.8,5.5c-0.2,1.5-1,2-2.2,1.3c-0.7-0.4-1.5-0.8-1.8-1.7
		c0.1-1,1.4-0.4,1.4-1.3c0-0.9,0.1-1.7-0.1-2.6c-0.3-1.3-1.7-2.1-3.5-2.1c-1.3,0-2.5-0.1-3.7,0.6c-0.7,0.4-1.5,0.1-2.3,0.2
		c-0.5,0-1.2-0.1-1.3,0.4c-0.3,1.4-1.5,2.6-1.4,4.2c0.1,1.3,0.1,2.7,0,4c0,0.6-0.3,1.1-1.1,0.7c-0.9-0.4-1.8-0.8-1.6-2
		c0.1-0.5-0.2-0.9-0.4-1.3c-0.5-0.7-0.4-1.3,0.1-1.9c1.2-1.6,1.3-3.5,1.2-5.3c0-0.5-0.1-1,0.4-1.3c1.3-0.8,1.5-2.2,1.8-3.4
		c0.5-1.7,1.2-3.2,2.4-4.5c1.2-1.3,2.2-1.5,3.7-0.7c1.8,1,3,2.7,4.2,4.3C368.3,580.1,368.7,580.8,369.2,581.5z M366.4,582.3
		c-1.3-1.2-1.8-2.8-3.4-3.6c-1.4-0.7-2.4-0.3-2.6,1.2c-0.1,0.8-0.4,1.5-0.7,2.2c-0.6,1.2-0.3,1.8,1,1.6
		C362.6,583.5,364.5,583.4,366.4,582.3z"/>
	
		<linearGradient id="SVGID_14_" gradientUnits="userSpaceOnUse" x1="336.5148" y1="-72.899" x2="383.6577" y2="509.9581" gradientTransform="matrix(0.9997 2.450000e-02 2.450000e-02 -0.9997 -5.8414 534.1717)">
		<stop  offset="1.960000e-02" style="stop-color:#002200"/>
		<stop  offset="0.4142" style="stop-color:#004304"/>
		<stop  offset="0.5202" style="stop-color:#8EB879"/>
		<stop  offset="1" style="stop-color:#FFD815"/>
	</linearGradient>
	<path class="st13" d="M332.4,588.5c-0.7,0.7-0.7,1.4-0.7,2c0.1,1.5-1.1,2.5-1.7,3.8c-0.3,0.6-1.1,1-1.9,0.8
		c-1.6-0.5-3.1-1.1-4.1-2.6c-1.2-1.8-2.3-3.7-3-5.8c-0.6-2-2.2-3.5-2.7-5.6c-0.4-1.5-0.1-3.1-1.1-4.5c-0.2-0.2,0.2-0.6,0.5-0.7
		c0.7-0.3,1.7-0.3,2,0.2c0.7,1.2,2.1,2,2.1,3.8c0,1.7,0.5,3.4,1.4,4.9c0.4,0.7,0.1,1.6,0.4,2.3c0.7,1.6,2,2.8,3.3,4
		c0.4,0.4,0.9,0.2,1.3-0.1c0.5-0.5,1-1,1.2-1.7c0.2-0.8,0.6-1.5,1.1-2c1.1-1.3,2-1.3,3.3-0.2c0.7,0.6,1.3,1.3,1.7,2.2
		c0.4,1,1.2,1.6,2,2.3c1.6,1.3,1.7,1.2,2.8-0.5c0.4-0.7,0.7-1.4,0.9-2.1c0.6-2,1.9-3.8,2.3-5.9c0.3-1.5,0.8-2.8,1.7-4
		c0.5-0.8,1.1-1.4,2.1-0.8c0.9,0.5,1.3,2.2,0.6,2.9c-2,2.1-2.5,4.9-4,7.3c-0.8,1.3-1.1,2.9-1.7,4.3c-0.6,1.4-1.2,3-2.9,3
		c-1.6,0.1-2.7-1-3.5-2.5C334.9,591.5,333.9,589.9,332.4,588.5z"/>
	
		<linearGradient id="SVGID_15_" gradientUnits="userSpaceOnUse" x1="237.8002" y1="-127.3426" x2="284.9431" y2="455.5145" gradientTransform="matrix(0.9997 2.450000e-02 2.450000e-02 -0.9997 -5.8414 534.1717)">
		<stop  offset="1.960000e-02" style="stop-color:#002200"/>
		<stop  offset="0.4142" style="stop-color:#004304"/>
		<stop  offset="0.662" style="stop-color:#8EB879"/>
		<stop  offset="1" style="stop-color:#FFD815"/>
	</linearGradient>
	<path class="st14" d="M246.5,582c-0.1,1.1-0.3,2.2-1,3.1c-3.1,3.7-5.7,7.6-8.1,11.7c-0.7,1.1-1.8,1.5-3,1.7c-0.7,0.1-1.3-0.3-1-0.8
		c1.2-2.9-0.5-5.3-1-8c-0.5-2.5-1.3-4.8-1.9-7.3c-0.4-1.7-0.4-3.5-0.8-5.3c-0.3-1.6,0.6-2.2,2.1-1.6c3.5,1.5,7.3,2.3,11,3.2
		c1,0.3,1.9,0.6,2.8,1.3C246.2,580.5,246.7,581.1,246.5,582z M235.9,593.2c1.5-1.8,2.5-3.7,3.8-5.3c0.7-0.9,1-2.1,1.2-3.3
		c0.3-1.5,0-2.9-1.3-3.7c-1.7-1.1-3.6-1.8-5.7-1.9c-1.1-0.1-1.4,0.6-1.5,1.4c0,0.5,0.1,0.9,0.2,1.4c0.6,2.3,1.4,4.5,1.7,6.8
		C234.6,590.1,235.3,591.5,235.9,593.2z"/>
	
		<linearGradient id="SVGID_16_" gradientUnits="userSpaceOnUse" x1="383.8816" y1="-200.4349" x2="431.0244" y2="382.4221" gradientTransform="matrix(0.9997 2.450000e-02 2.450000e-02 -0.9997 -5.8414 534.1717)">
		<stop  offset="1.960000e-02" style="stop-color:#002200"/>
		<stop  offset="0.4142" style="stop-color:#004304"/>
		<stop  offset="0.662" style="stop-color:#8EB879"/>
		<stop  offset="1" style="stop-color:#FFD815"/>
	</linearGradient>
	<path class="st15" d="M388.7,592c0.2-3.1-0.9-5.8-2.8-8.1c-1.2-1.5-2.4-2.9-3.6-4.3c-1.3-1.7-2.7-3.4-2.7-5.8
		c0-0.6,0.2-0.9,0.6-1.1c0.5-0.3,0.7,0.2,0.9,0.4c2,1.8,4,3.6,4.9,6.4c0.1,0.4,0.4,0.9,0.7,1.2c1.1,1.6,3.3,1.5,4.1-0.3
		c0.5-1.1,1.3-1.8,1.9-2.6c1.4-1.8,1.4-4.1,2.9-5.7c1.1-1.2,2.1-2.5,3.2-3.7c0.8-0.9,2.7-0.8,3.7,0c0.4,0.3,0.6,0.8,0.3,1.2
		c-0.2,0.3-0.3,0.5-0.6,0.7c-1.8,1.8-3.1,3.9-4.4,6.1c-1.1,1.9-2.6,3.5-4.2,5c-1.3,1.3-2.7,2.7-2.8,4.8c-0.1,1.1-0.1,2.2,0.6,3.2
		c0.5,0.8,0.6,1.8,0.6,2.7c0,1.6-0.8,2.5-2,2.3C389,594.4,388.5,593.5,388.7,592z"/>
	
		<linearGradient id="SVGID_17_" gradientUnits="userSpaceOnUse" x1="219.7165" y1="-51.1541" x2="266.8594" y2="531.7031" gradientTransform="matrix(0.9997 2.450000e-02 2.450000e-02 -0.9997 -5.8414 534.1717)">
		<stop  offset="1.960000e-02" style="stop-color:#002200"/>
		<stop  offset="0.4142" style="stop-color:#004304"/>
		<stop  offset="0.662" style="stop-color:#8EB879"/>
		<stop  offset="1" style="stop-color:#FFD815"/>
	</linearGradient>
	<path class="st16" d="M208.9,583c-0.7,0.9-0.8,1.6-0.8,2.3c-0.3,3-0.5,6.1-1,9.1c-0.1,0.5,0.1,1.1,0.2,1.6c0.1,1-0.8,2.2-1.7,2.2
		c-0.8,0-1.8-0.9-1.8-1.8c-0.1-1.2,0-2.3,0.4-3.5c1.6-4.8,2.5-9.7,2.5-14.8c0-0.3-0.1-0.6,0.3-0.8c0.3-0.1,0.6,0,0.8,0.3
		c0.9,1,1.8,2,2.4,3.4c1.1,2.6,2.6,5,4.1,7.4c0.4,0.7,0.9,1.3,1.3,2c0.5,0.9,1.4,0.8,2.1,0.8c0.9,0,0.7-1,0.6-1.5
		c-0.1-0.8,0.1-1.5,0.3-2.3c0.7-4,0.1-7.9-1.1-11.7c-0.1-0.3-0.2-0.6-0.2-0.9c-0.1-0.7,0.2-1,0.9-1c0.2,0,0.5,0,0.7,0.1
		c1.4,0.7,1.8,2.3,3.1,3.2c0.5,0.4,0.3,1.2,0.3,1.8c0,3-0.5,6-1.1,9c-0.3,1.8-0.8,3.6-1.3,5.3c-0.2,0.7-0.2,1.6-1.1,1.9
		c-0.9,0.3-1.2-0.6-1.7-1.1c-2.6-2.3-4.6-5-6-8.3C210.5,584.8,209.6,584,208.9,583z"/>
	
		<linearGradient id="SVGID_18_" gradientUnits="userSpaceOnUse" x1="203.2845" y1="-21.5589" x2="250.4275" y2="561.2982" gradientTransform="matrix(0.9987 -5.060000e-02 -5.060000e-02 -0.9987 23.7946 583.5454)">
		<stop  offset="1.960000e-02" style="stop-color:#002200"/>
		<stop  offset="0.4142" style="stop-color:#004304"/>
		<stop  offset="0.662" style="stop-color:#8EB879"/>
		<stop  offset="1" style="stop-color:#FFD815"/>
	</linearGradient>
	<path class="st17" d="M248.8,174.1c0,1.4-0.2,2.5-0.6,3.5c-0.8,1.9-2.9,2.3-4.5,0.9c-0.7-0.6-0.2-1.2-0.2-1.7c0-1.1,0.3-2.1-0.7-3
		c-1.4-1.3-4.6-0.7-4.9,1.2c-0.2,1.3-0.8,2.6-0.3,3.9c0.2,0.5,0.5,1-0.1,1.4c-0.7,0.4-1.4,0.7-2.2,0.3c-0.7-0.4-1.2-1-1.6-1.7
		c-0.4-0.8-0.6-1.6-1.2-2.3c-0.2-0.2-0.4-0.5-0.2-0.9c0.9-2.2,1.5-4.5,3.4-6.3c3.2-2.8,10.2-1.4,12,2.4
		C248.1,172.8,249.1,173.3,248.8,174.1z"/>
	
		<linearGradient id="SVGID_19_" gradientUnits="userSpaceOnUse" x1="281.7568" y1="-27.9058" x2="328.8996" y2="554.9512" gradientTransform="matrix(0.9987 -5.060000e-02 -5.060000e-02 -0.9987 23.7946 583.5454)">
		<stop  offset="1.960000e-02" style="stop-color:#002200"/>
		<stop  offset="0.4142" style="stop-color:#004304"/>
		<stop  offset="0.662" style="stop-color:#8EB879"/>
		<stop  offset="1" style="stop-color:#FFD815"/>
	</linearGradient>
	<path class="st18" d="M311.2,179.9c-0.1-3.3,1.9-5.9,4.7-7c2.9-1.2,5.4-0.6,7.9,0.8c3.8,2,4.5,7.2,1.5,10.2
		c-0.7,0.7-1.7,0.8-2.6,0.9c-1.2,0.1-1.8-1.1-1.3-2.3c0.1-0.2,0.2-0.4,0.3-0.6c0.7-2,0.3-3.5-1.4-4.1c-1.6-0.7-4,0-4.8,1.4
		c-0.3,0.5-0.2,1-0.1,1.6c0.2,0.6,0.1,1.3-0.3,1.8c-0.6,1-1.4,1.1-2.4,0.5C311.6,182.2,310.9,181.1,311.2,179.9z"/>
	
		<linearGradient id="SVGID_20_" gradientUnits="userSpaceOnUse" x1="189.8513" y1="-107.5985" x2="236.9942" y2="475.2587" gradientTransform="matrix(0.9997 2.450000e-02 2.450000e-02 -0.9997 -5.8414 534.1717)">
		<stop  offset="1.960000e-02" style="stop-color:#002200"/>
		<stop  offset="0.4142" style="stop-color:#004304"/>
		<stop  offset="0.662" style="stop-color:#8EB879"/>
		<stop  offset="1" style="stop-color:#FFD815"/>
	</linearGradient>
	<path class="st19" d="M189.2,583.4c0,2.9,0.3,5.8,0.9,8.6c0.4,1.9,0.6,2,2.5,2c0.7,0,1.8-0.4,2,0.6c0.3,1.2-1,1-1.6,1.3
		c-1.8,0.9-3.8,0.9-5.7,1.2c-0.6,0.1-1.2-0.3-1.7-0.6c-0.5-0.4-1.3-0.9-0.9-1.7c0.4-0.8,0.8-1.4,1.9-1.4c1.9,0.1,2.1-0.2,1.5-1.9
		c-0.9-2.5-0.6-5.1-1.3-7.6c-0.2-0.8-0.4-1.2-1.2-1.4c-1.4-0.4-2.8-1-4.1-1.6c-0.6-0.3-1.4-0.9-1-1.8c0.4-0.9,1.1-1,2-0.9
		c0.5,0.1,1,0.1,1.4,0.3c1.4,1.1,2.9,1.8,4.8,1.7c0.6,0,0.8,0.4,0.8,1C189.3,581.8,189.3,582.6,189.2,583.4z"/>
	
		<linearGradient id="SVGID_21_" gradientUnits="userSpaceOnUse" x1="131.1277" y1="-222.5336" x2="178.2707" y2="360.3234" gradientTransform="matrix(0.9997 2.450000e-02 2.450000e-02 -0.9997 -5.8414 534.1717)">
		<stop  offset="1.960000e-02" style="stop-color:#002200"/>
		<stop  offset="0.4142" style="stop-color:#004304"/>
		<stop  offset="0.662" style="stop-color:#8EB879"/>
		<stop  offset="1" style="stop-color:#FFD815"/>
	</linearGradient>
	<path class="st20" d="M137.2,593.5c0.5,0,0.6,0.1,0.8,0.1c2,0.3,2.5,0.7,2.7,2c0.3,1.9-0.4,3.4-1.9,4.1c-1.4,0.7-3.8,0.3-4.8-0.8
		c-0.7-0.8-0.9-2.8-0.1-3.7C134.8,594.2,135.8,593.2,137.2,593.5z M137.2,596c-0.5,0.1-1.1,0.3-1.1,1c0,0.4,0.4,0.5,0.7,0.3
		c0.4-0.2,1,0.2,1.1-0.6C138,596.2,137.7,596,137.2,596z"/>
</g>
<path class="st21" d="M374-124.9"/>
</svg>
