<?xml version="1.0" encoding="utf-8"?>
<!-- Generator: Adobe Illustrator 23.1.0, SVG Export Plug-In . SVG Version: 6.00 Build 0)  -->
<svg version="1.1" id="圖層_1" xmlns="http://www.w3.org/2000/svg" xmlns:xlink="http://www.w3.org/1999/xlink" x="0px" y="0px"
	 viewBox="0 0 544 609" style="enable-background:new 0 0 544 609;" xml:space="preserve">
<style type="text/css">
	.st0{fill:#FCFCFC;}
</style>
<g>
	<path class="st0" d="M122,67.4c-1.2-1.5-2.5-2.9-3.7-4.4c-1.6-1.9-2.5-4.1-3.9-6c-1.9-2.5-3.2-5.3-4.3-8.2c-0.1-0.4-0.3-0.8-0.5-1
		c-2.1-2.4-2.7-5.6-4.6-8c-0.4-0.5-0.5-1.1-0.5-1.8c-0.1-0.5-0.2-1.1-0.4-1.6c-2.3-4.2-3.1-8.7-3.7-13.4c-0.5-3.8,0.2-7.4,1.6-10.9
		c0.1-0.3,0.2-0.7,0.3-1.1c0.1-1.1,0.8-1.7,1.8-1.9c0.6-0.2,1.2-0.3,1.8-0.3c3.6,0.4,7,1,10.3,3.1c3.1,2,5.3,5.1,8.6,6.8
		c2,2.9,5.2,4.8,7,7.9c0.9,1.5,2.5,2.3,3.3,3.9c0.1,0.2,0.5,0.2,0.8,0.3c0.5,0,1,0.1,1.2,0.6c1.8,2.9,4.1,5.4,5.9,8.2
		c2.7,4.3,5.9,8.3,8.3,12.8c1.7,3.1,4,6.1,4.8,9.7c0.2,0.8,0.6,1.6,1.1,2.3c2.7,4,4.5,8.5,7,12.6c1.5,2.4,3.2,4.8,3.7,7.7
		c0.1,0.4,0.3,0.7,0.5,1c2.7,3.8,3.9,8.2,5.3,12.6c0.7,2.4,1.7,4.7,2.7,6.9c0.6,1.4,1.2,2.7,1.5,4.1c0.4,2.2,1.7,4,2.4,6
		c1.4,4.4,2.7,8.9,4.4,13.2c1.5,3.7,1.5,7.6,2.8,11.3c1.2,3.6,1.8,7.4,2.9,11c0.8,2.6,1.6,5.4,1.7,8.2c0,0.4,0.2,0.9,0.3,1.4
		c0.8,2.3,0.6,4.7,1.1,7.1c0.2,0.9-0.7,1.5-0.5,2.6c0.8-0.1,0.9-0.6,0.9-1.3c0.1-1.9,1.2-3.2,2.7-4.3c1.5-1,2.5-2.6,3.5-4.1
		c1.7-2.4,3.6-4.5,5.7-6.5c2.8-2.7,5.4-5.5,8.5-7.9c4.2-3.3,8.1-7,12.8-9.6c1.2-0.7,2.4-1.5,3.6-2.2c1.9-1.1,4-1.1,5.9-2.1
		c1.5-0.8,3-1.7,4.7-2.1c0.6-0.1,1-0.5,1.3-0.9c0.3-0.4,0.7-0.6,1.2-0.6c2.5,0,4.7-1.4,7.1-2c2.4-0.6,4.9-0.9,7.3-1.2
		c2.4-0.3,4.8-0.3,7.1-1c0.3-0.1,0.8-0.2,1.2,0c2,1,4,0.1,6.1,0c2.5-0.1,5.1,0,7.7-0.1c2.7-0.1,5.2,0.2,7.8,0.8
		c2.1,0.5,4.3,0.6,6.5,0.7c3.9,0.1,7.7,0.9,11.4,2.1c3.2,1,6.3,2.1,9.5,3.1c1.1,0.4,2.1,0.8,3.2,1.4c1.8,1.1,3.8,2.2,6.1,2
		c0.4,0,0.7,0.1,1.1,0.3c3.1,1.3,5.7,3.4,8.8,4.7c0.8,0.3,1.2,1.4,2,1.9c1.6,1.1,2.9,2.6,4.7,3.5c1.2,0.6,2.4,1.6,3.2,2.7
		c1.7,2.3,4.1,3.5,6.1,5.3c1.4,1.2,2.3,2.7,3.1,4.2c1.5,2.8,3.2,5.5,5.3,8.3c0.5-2.2,0.4-4.1,0.1-6c-1.4-7.8-0.3-15.5,1-23.2
		c0.5-2.8,1.3-5.6,2-8.4c0.3-1.1,0.5-2.3,0.5-3.4c-0.1-2.1,0.5-4,1.3-5.9c1.1-2.6,1.3-5.4,1.9-8.1c0.8-3.8,1.7-7.5,3.2-11.1
		c2-5,4-10.1,6-15.1c0.5-1.4,1-2.7,1.5-4.1c1-2.8,2.6-5.2,4.1-7.8c1.8-3.3,3.4-6.6,4.9-10c2.2-4.9,5.2-9.2,8.4-13.4
		c3.6-4.6,7.6-8.9,11.3-13.3c3.6-4.3,7.9-7.7,11.6-11.8c0.8-1,2.1-1.6,3.1-2.4c1.5-1.2,3-2.4,4.2-4c0.6-0.8,1.5-1.5,2.4-1.8
		c2.2-0.8,3.9-2.6,6-3.5c3.3-1.4,6.5-3.3,10.3-3.4c3.4-0.1,5.8,2.6,5.4,6c-0.5,5.6-2.4,10.8-4.1,16.2c-0.6,2-1.2,4.1-2.1,5.9
		c-1.5,2.7-2.5,5.7-3.9,8.4c-0.2,0.3-0.3,0.6-0.4,0.8c-0.4,0.7-0.2,1.2,0.6,1.4c2.6,0.7,4.2,2.4,5,4.9c0.3,1,0.4,1.9,0.2,2.9
		c-1,3.6-2.6,7-4.5,10.2c-2.2,3.7-4.4,7.3-7.3,10.5c-3.1,3.4-6,6.9-9.5,9.9c-0.2,0.2-0.5,0.3-0.8,0.5c-1.8,1.4-3.5,2.7-3.3,5.4
		c0.1,1.7-0.8,3.4-1,5.2c-0.5,4-3,6.7-5.5,9.5c-0.1,0.1-0.2,0.2-0.3,0.4c-1.3,2.2-2.9,4.1-4.5,6.1c-2,2.4-4.1,4.8-6.1,7.2
		c-1.9,2.3-3.8,4.5-5.9,6.6c-1.7,1.8-3,3.9-4.5,5.9c-2.7,3.8-5.6,7.4-8,11.3c-2.5,4-5.3,8-7.7,12.1c-0.9,1.6-1.8,3.2-3,4.6
		c-1.1,1.3-1.7,3-2,4.7c-0.4,2-1.3,3.6-2.1,5.4c-0.3,0.8-1,1.3-1.8,1.8c-2,1.1-2,1.2-1.2,3.4c1.7,4.4,3.2,8.9,4.3,13.5
		c1.1,4.6,2.4,9.3,3.7,13.9c0.3,1,0.4,2,0.1,3c-0.4,1.1-0.3,2.3,0.1,3.4c0.5,1.1,0.5,2.3,0.3,3.4c-0.5,2.2-0.1,4.5-0.3,6.8
		c-0.3,2.8-1.1,5.5-1.4,8.3c-0.2,2.1-0.6,4.1-1.3,6.1c-0.3,0.9-0.6,1.9-0.2,3c0.2,0.4,0.2,1,0,1.4c-0.8,1.8-0.6,3.8-1.4,5.6
		c-0.5,1.2-0.8,2.5-0.8,3.9c0,2.5-0.8,4.7-1.7,7c-1.3,3.2-2.5,6.5-4,9.7c-1.2,2.8-3,5.2-4.4,7.9c-1.6,3.2-3.9,5.9-5.7,9
		c-1.2,2.2-2.8,4.3-4.4,6.3c-3.3,4.1-7.8,7-11.4,10.8c-4,4.2-8.8,7.3-13.5,10.5c-4.9,3.4-10,6.6-14.9,10c-4.8,3.3-10.1,5.8-15.2,8.6
		c-3.2,1.8-6.9,2.7-9.6,5.4c-1.9,0.3-3.5,1.5-5.4,2c-1.6,0.4-1.8,0.7-1.5,2.3c0.6,3.1,0.6,6.2,1,9.3c0.5,4,0,7.9-0.4,11.9
		c-0.1,1.1-0.2,2.2-0.2,3.3c0.3,3.2-0.2,6.4-0.8,9.5c-0.4,2-1.4,3.9-2.1,5.8c-0.2,0.4-0.4,0.9-0.5,1.3c-1.1,3-3.8,4.1-6.7,2.6
		c-0.4-0.2-0.8-0.6-1.2-0.8c-1.2-0.5-1.8-0.3-2.6,0.8c-3,4-6.3,7.7-10.6,10.3c-1.5,0.9-3.1,2.1-5.1,1.8c-1.5-0.2-2.8,0.6-4.3,0.7
		c-2.7,0.1-4.7-1.3-6.7-2.8c-1.7-1.2-3-2.7-3.5-4.8c-0.3-1.1-1.3-1.8-1.7-3c-0.5-1.9-1-3.7-1.1-5.7c-0.1-4.6,0.8-9,2.7-13.1
		c0.2-0.4,0.4-0.9,0.7-1.2c2-2.4,3.9-4.8,5.1-7.8c-0.3-0.4-0.8-0.5-1.3-0.5c-6-0.9-6.3-4.7-5.2-9c0.8-3.2,3-5.2,5.5-7.2
		c1.5-1.2,2.9-1.8,4.7-2.2c2.5-0.5,4.7-1.9,7.2-2.6c1.5-0.4,3-0.6,4.9-0.7c-1-1.2-2.3-1.3-3.3-1.9c-2.5-1.5-5-3.1-7.7-4.3
		c-4.9-2.1-8.6-5.7-12.5-9c-4.2-3.5-7.8-7.6-11.3-11.7c-2.5-2.9-5.1-5.7-7.3-8.9c-0.8-1.2-1.9-2.3-2.5-3.6c-0.1-0.3-0.2-0.7-0.5-0.8
		c-3-1.5-3.3-4.7-4.6-7.2c-0.7-1.2-1.4-2.4-2.4-3.4c-1.7-1.7-2.8-3.9-3.5-6.2c-0.8-3-1.6-6-3.3-8.6c-0.2-0.3-0.3-0.6-0.3-0.9
		c0-2-0.7-3.7-1.7-5.3c-1.6-2.7-2.1-5.8-2.8-8.8c-0.8-3.2-1.8-6.4-2.8-9.6c-0.2-0.5-0.3-1-0.4-1.6c-1.3-7.2-2.7-14.4-3.2-21.6
		c-1.5-3.9-0.3-8-0.4-12c-0.1-3.7,0.2-7.5,0.3-11.2c0.1-4.2,1.6-8,2.9-11.9c0.6-1.9,1.7-3.6,1.7-5.7c0-1,0.8-2,1.2-3
		c0.4-1,0.3-1.8-0.6-2.5c-1.6-1.1-2.9-2.6-4-4.2c-1.2-1.7-3.2-2.4-4.7-3.9c-0.4-0.4-0.8-0.8-1.2-1.4c-1-1.9-2.3-3.6-4.1-4.7
		c-4.3-2.7-7.4-6.6-11.1-10c-1-0.9-2.2-1.8-3.2-2.7c-2.9-2.4-5.4-5.2-7.5-8.2c-1.6-2.2-3.2-4.6-4.5-7c-2.1-3.8-3.6-7.6-4.3-11.9
		c-0.3-2.1-2.1-3.6-3.8-4.9c-1.8-1.4-3.5-2.9-5-4.6c-2.4-2.7-5.1-5-7.7-7.5c-2.9-2.9-5.9-5.8-8.7-8.8c-1-1.1-2.2-2-3.4-2.9
		c-3.4-2.4-6.3-5.4-8.4-8.9c-2.1-3.4-4.1-6.9-5.1-10.9c-0.9-3.5-1-3.4,1.8-5.7c2.1-1.8,4.7-1.6,7.1-1.4c3.6,0.4,7.1,1.4,10.3,3.3
		C121.3,67.7,121.7,67.8,122,67.4z M252.8,344.7L252.8,344.7c0.5,0,0.9-0.4,1.2-0.9c1.2-1.9,2.9-3.3,4.5-4.6c1.1-0.9,1.7-1.9,2-3.2
		c-1.4-0.4-2.6-0.6-4.1-0.3c-1.2,0.3-2.7-1-4.2-0.9c-0.5,0-1.1,0.2-1.6,0.3c-2.2,0.4-4.2,1.6-6.3,2.2c-2.4,0.8-4.8,1.3-6.9,2.9
		c-1.5,1.1-2.1,3-3.8,3.8c0,1.3-0.8,2.3-1,3.5c-0.4,1.8-0.5,3.5,1.2,4.6c1.7,1.1,3.6,1.8,5.7,1c1.9-0.7,3.4-2,5-3.4
		c0.1,0.8-0.3,1.1-0.6,1.5c-2.1,3.1-4.9,5.7-7,8.9c-2.1,3.3-4.3,6.3-5.2,10.3c-0.7,2.9-0.9,5.9-0.7,8.8c0.3,3,2.3,5.5,3.5,8.2
		c0.2,0.5,0.6,0.8,1,1.2c0.9,0.9,2.1,1.3,2.9,2.2c1.3,1.4,3.1,1.7,4.5,1c1.4-0.6,2.7-0.2,4-0.6c0.5-0.1,1.1-0.1,1.7-0.4
		c1.7-0.7,2.9-2,4.5-2.9c3.4-1.9,5.1-5.3,7.7-7.9c0.6-0.6,0.6-1.1,0.1-1.8c-1.2-1.6-2.4-1.8-3.6-0.1c-1.2,1.8-2.9,3.1-4.4,4.6
		c-1,1-2.3,1.8-3.6,2.5c-2.4,1.2-4.9,1.5-7.4,0.8c-1.2-0.4-2.8-0.6-3.5-1.7c-1-1.6-3.4-2.8-2.3-5.3c0-0.1-0.1-0.3-0.1-0.4
		c-1.4-3.9-0.5-7.5,1.3-10.9c0.5-0.9,1.2-1.6,1.1-2.7c0-0.3,0-0.6,0.5-0.6c1.3,0,1.2-1,1.4-1.8c0.3-0.9,0.1-1.9,1.4-2.2
		c0.5-0.1,0.9-0.9,0.7-1.6c-0.1-0.4-0.3-0.8,0.4-0.8c1.7-0.1,2.3-1.5,2.8-2.6c0.4-0.9,0.9-1.5,1.7-2.1c0.5-0.4,1.1-0.8,1.3-1.3
		c0.7-1.2,1.5-2.4,2.5-3.4c1-0.9,1.1-2.4,2.3-3.1C253.5,345.5,253,345,252.8,344.7z M411.9,30.4c0,0.2,0,0.4,0,0.6
		c-0.9,0.3-1.6,0.8-2.2,1.5c-2.5,2.8-5.1,5.6-7.6,8.4c-1.3,1.4-2.6,2.8-3.8,4.3c-1.5,1.9-3,4-4.5,5.9c-1.9,2.3-3.8,4.8-5.1,7.5
		c-2.8,5.7-5.3,11.5-8.4,17c-0.6,1.1-1.5,2.2-2,3.4c-0.7,1.9-1.4,3.7-2.1,5.6c-1.2,2.9-2.1,6-3.4,8.9c-2.5,5.6-4.6,11.3-5.8,17.3
		c-0.5,2.7-0.6,5.5-1.9,8.1c-0.2,0.5-0.5,1-0.1,1.6l0-0.1c-1.1,0.9-1.2,2.2-1.2,3.4c0,4-1.3,7.8-2.2,11.6c-1.2,5.3-1.9,10.7-2,16.1
		c0,4.6,1.1,9.1,0.8,13.7c0,0.9,0.2,1.9,0.3,2.8c0,1.6,1.8,2,2.3,3.2c0.6-0.9,2.1-0.2,2.5-1.4c0.7-1.7,1.6-3.3,2-5.2
		c0.6-2.4,1.5-4.8,3-6.8c2.6-3.4,4.7-7.2,7.1-10.8c2.1-3.2,4.2-6.4,6.5-9.5c0.6-0.8,0.9-1.8,1.6-2.5c3.6-3.7,6-8.3,9.6-11.9
		c1.9-1.9,3.8-4,5.4-6.3c0.9-1.3,2.4-2.2,3-3.4c0.9-1.7,2.4-2.8,3.6-4.1c0.1-0.1,0.3-0.2,0.3-0.3c1.1-3,3.5-5.1,5.4-7.4
		c0.6-0.8,1.1-1.7,1.4-2.7c0.6-2.4,0.7-4.9,1.7-7.3c0.2-0.4,0.2-0.9,0.1-1.4c-0.3-1.1,0.3-2,1-2.7c0.8-0.9,1.5-1.8,2.5-2.4
		c4.2-2.7,7-6.8,10.3-10.3c3.3-3.4,5.6-7.5,7.9-11.5c1.5-2.5,2.9-5.1,3.4-8.1c0.5-2.9-0.9-5.7-3.7-6.4c-0.9-0.2-1.5-0.7-2.3-1.1
		c-0.6-0.3-0.7-0.7-0.3-1.3c2.3-3.3,3.2-7.3,5.2-10.8c0.9-1.5,1.3-3.4,1.9-5.2c1.7-5.2,3.5-10.4,4-15.9c0.3-2.5-1.5-4.5-4-4.3
		c-3.5,0.2-6.5,1.9-9.6,3.2c-2.3,0.9-3.9,2.9-6,4.3c-1.7,1.2-3.2,2.6-5,3.8c-1.7,1.1-3.4,2.2-4.8,3.7
		C415.6,27,413.7,28.7,411.9,30.4z M312,308.9c-0.5,0-0.9,0.3-1.2,0.7c-1.3,2.1-3.3,3.3-5.5,4.1c-1,0.3-1.7,1-2.5,1.7
		c-1.8,1.6-3.8,3.1-5.8,4.2c-2.2,1.1-3.9,2.6-6,3.8c-3,1.6-5.5,4.2-9.1,4.9c-0.5,0.1-0.8,0.4-1,0.9c-0.3,0.5-0.8,0.8-1.3,0.9
		c-2.6,0.6-4.4,2.5-6.4,4.1c-0.5,0.4-0.9,0.8-0.7,1.7c0.4,2.1,0.6,4.3-0.1,6.4c-0.4,1.2,0.3,2.4,0,3.7c-0.4,1.8-0.6,3.7-0.6,5.5
		c0,1.5-0.4,2.8-0.5,4.3c-0.2,2.9,0,5.8-1.4,8.5c-0.7,1.2-0.9,2.7-1.8,3.9c-0.6,0.8-0.4,1.9-1,2.8c-0.8,1.2-1.5,1.3-2.6,0.3
		c-0.8-0.7-1.3-1.6-1.7-2.7c-0.5-1.5-0.8-3.2-2-4.4l0,0c0.2-1-0.9-1.7-0.8-2.6c0.4-2.6-0.4-5.3,0.7-7.8c0.5-1.2,0.7-2.5,1-3.8
		c0.3-2,1.5-3.8,1.9-5.8c0.1-0.5,0.4-1.1,0.8-1.4c1.2-1,0.9-2.6,1.9-4.1c-3.1,1.4-4.5,3.5-5,6.4c-0.1,0.5,0.1,1.1-0.5,1.4
		c-1.5,0.8-1.4,2.3-1.6,3.6c-0.4,3.1-1,6.1-1.8,9.1c-0.7,2.6-0.6,5.4-0.3,8.1c0.2,1.6,1.3,2.5,1.8,3.9c1.5,4.2,4.5,7.2,8.7,8.7
		c1.5,0.5,3-0.2,3.4-1.5c0.9-3,2.4-5.9,3-9c0.3-1.7,0.7-3.3,0.7-5c0-3,0-5.9,0.4-8.8c0.9-6.2,0-12.3-1.1-18.5
		c-0.3-1.6,0.5-3.1,2.2-3.4c2.1-0.4,4-1.4,5.7-2.4c3.1-2,6.5-3.4,9.7-5c6.1-3.1,12.1-6.4,17.7-10.2c4.8-3.2,9.5-6.4,14.2-9.7
		c2.5-1.7,5.1-3.3,7.4-5.3c3.7-3.1,6.9-6.8,10.7-9.8c2-1.5,3.4-3.7,5.1-5.5c1.1-1.2,1.6-2.7,2.6-3.8c1.7-1.9,2.5-4.4,4.2-6.3
		c1.2-1.3,1.8-3,2.7-4.5c1.5-2.3,2.9-4.6,4-7c1.6-3.5,2.9-7.1,4.4-10.7c0.5-1.4,1.1-2.8,1-4.2c0-1.2,0.2-2.3,0.4-3.4
		c0.8-3.4,2.3-6.6,1.9-10.2c-0.1-0.7,0.1-1.4,0.3-2c0.8-2,1.2-4.2,1.3-6.3c0.2-2.6,1.2-5,1.3-7.6c0.1-2.4,0.2-4.8,0.3-7.2
		c0.1-0.8,0.3-1.5-0.7-1.8c-0.4-0.1-0.3-0.6-0.2-1c0.8-2.7,0.7-5.4-0.1-8.2c-0.4-1.5-0.9-3-1.3-4.5c-0.6-2.4-1.5-4.6-1.9-7
		c-0.5-3.9-2-7.5-3.3-11.1c-1.5-4.3-3.3-8.5-6.1-12.3c-2-2.6-3.9-5.3-5.3-8.3c-1-2.3-2.7-4.1-4.6-5.5c-2.3-1.7-4.6-3.3-6.3-5.6
		c-0.4-0.5-0.8-0.9-1.5-1.1c-1.1-0.4-1.8-1.2-2.7-1.8c-1.8-1.4-3.4-3.1-5.5-4.2c-3-1.6-5.7-3.6-9.3-4.1c-2.1-0.3-4-1.3-6-2.3
		l-0.1-0.1l0,0.2c-0.6-0.3-1.1-0.7-1.8-1c-1.6-0.7-3.5-0.9-5-1.7c-1.5-0.8-3.1-1.1-4.7-1.3c-0.5-0.1-1,0.1-1.4-0.2
		c-1.8-1.4-3.9-1.3-6-1.7c-4.2-0.7-8.5-0.4-12.7-1.6c-1.1-0.3-2.3-0.4-3.5-0.4c-3.1,0-6.3-0.2-9.3,0.3c-3,0.5-6.1-0.1-9.1,0.3
		c-1.2,0.1-2.3,0.8-3.4,0.6c-2.3-0.4-4.4,0.9-6.7,0.7c-0.4,0-0.8,0.1-1.1,0.3c-1,1-2.9,0.1-3.7,1.7c0,0.1-0.3,0.1-0.4,0
		c-0.7-0.4-1,0.1-1.5,0.5c-0.5,0.4-1.2-0.4-1.9-0.2c-0.3,0.1-0.5,0.2-0.4,0.6c0.1,0.6-0.3,0.5-0.7,0.6c-4,1-7.6,3-11.4,4.5
		c-6.5,2.6-11.5,7.5-16.9,11.8c-2.8,2.3-5.3,4.9-7.9,7.4c-2.3,2.3-4.4,4.7-6.4,7.2c-1.4,1.9-2.4,4.2-4.8,5.3
		c-0.5,0.2-0.5,0.8-0.5,1.2c-0.2,2.1-1.6,3.4-2.7,5c-1,1.4-2.1,2.7-2.8,4.5c-0.6,1.4-0.5,2.8-1.1,4.2c-1,2-1.7,4.1-2.3,6.3
		c-0.7,2.3-1.6,4.5-1.8,6.9c-0.2,3.1-0.1,6.2-0.3,9.3c-0.1,2.5-0.1,4.9,0,7.4c0,2.4-0.7,4.8,0.3,7.1c0,0.1,0,0.1,0,0.2
		c0.3,2.3,0.1,4.7,0.7,6.9c0.6,2.1,0.2,4.4,1.3,6.5c0.5,0.9,0.4,2.4,0.4,3.6c0,2.1,0.5,4.2,1.1,6.3c0.8,3,1.8,6,2.6,9.1
		c0.8,3,1,6.3,2.8,9c1.7,2.4,1.2,5.6,3,7.9c1,1.4,1,3.2,1.8,4.7c0.8,1.4,0.7,3.1,1.7,4.6c0.9,1.4,1.4,3,2.7,4
		c0.8,0.6,1.4,1.3,1.6,2.4c0.4,2.1,2.2,3.5,2.6,5.7c0.1,0.4,0.5,0.9,1.2,1c0.6,0,0.7,0.5,1,0.9c1.6,3,4,5.4,5.9,8.1
		c0.9,1.4,2.6,2.1,3.2,3.5c0.6,1.4,1.7,2.4,2.6,3.5c2.7,2.9,5.3,5.8,8,8.7c3.1,3.3,7.2,5.3,10.4,8.5c0.2,0.2,0.5,0.4,0.8,0.5
		c2.2,0.6,4.1,1.8,6,3c1.5,0.9,3.4,1.3,4.7,2.3c2.2,1.5,4.5,1.5,6.8,1.8c0.5,0,1-0.1,1.1-0.6c0.1-0.6-0.4-0.8-0.8-1
		c-1.2-0.5-2.3-1-3.5-1.3c-1.6-0.4-2.8-1.7-4.4-2c-1.3-0.2-2.3-0.9-3.2-1.7c-1.2-1.1-2.5-2-3.9-2.9c-3-1.7-4.9-4.7-7.9-6.3
		c-0.2-0.1-0.3-0.4-0.5-0.5c-1.4-1.3-2.4-3-3.8-4.3c-3.2-3-6-6.5-8.8-9.9c-0.8-1-2.2-1.5-2.5-2.6c-0.6-1.9-2.5-3.2-2.3-5.5
		c0-0.2-0.2-0.5-0.4-0.5c-1.6-0.5-2.1-2-2.9-3.1c-1.6-2.3-3.4-4.3-4.6-6.9c-1.2-2.5-3.1-4.6-4.4-7.1c-0.5-1-0.3-2.1-1-3
		c-1.3-1.8-1.6-3.8-1.6-5.9c0-1.3-0.4-2.3-1.3-3.4c-1.7-2.1-2.3-4.8-2.8-7.5c-0.1-0.7-0.3-1.2-0.8-1.5c-1-0.6-1.4-1.6-1.7-2.6
		c-1.2-4.4-2.4-8.8-3.6-13.2c-0.5-2-1.3-4.1-0.3-6.3c0.2-0.4-0.3-1.5-1.1-3.1c-0.2-0.3,0.1-0.6,0.1-0.9c-0.1-0.9,0.5-1.5,0.4-2.4
		c-0.3-1.7-0.3-3.5-0.6-5.2c-0.5-2.9-0.3-5.9-0.5-8.8c-0.2-1.8-0.8-3.8,0.8-5.5c0.2-0.2,0.2-0.6-0.1-0.8c-0.8-0.4-0.4-1.1-0.3-1.7
		c0.1-1,0.4-2.1,0.2-3c-0.2-0.9,0-1.4,0.3-2.1c1-2,1.8-4.1,2-6.3c0-0.3,0.2-0.9,0.2-0.9c1.6,0.1,1-1.4,1.5-2.1
		c0.4-0.5,0.7-1.2,1-1.8c0.9-1.5,2.6-2.7,1.9-4.9c-0.2-0.6,0.3-1.2,0.7-1.7c1.8-2.5,2.9-5.3,4.3-8c1.6-3.2,3.4-6.3,6.6-8.3
		c0.2-0.1,0.3-0.3,0.4-0.5c1.8-2.8,3.5-5.5,5.7-8c0.8-0.9,1.8-1.5,2.4-2.5c1.6-2.7,4.1-4.3,6.4-6.1c1-0.8,2.2-0.6,3-1.5
		c1.6-1.6,3.8-2.4,5.2-4.2c0.3-0.4,1-0.5,1.5-0.7c2.4-0.9,4.7-2,7.1-3c1.3-0.6,2.7-1.2,4-1.7c1.3-0.5,2.4-2.1,4.1-1.1
		c0,0,0.2-0.1,0.3-0.2c0.5-0.8,1.3-0.9,2.1-0.5c0.3,0.1,0.5,0.3,0.9,0.2c2.7-0.7,5.4-1.4,8.1-2.2c2.6-0.8,5.2-1.9,8.1-1.3
		c1.1,0.2,2.4,0.1,3.5-0.1c3.4-0.7,6.8-0.6,10.2,0.1c3.1,0.6,6.3,0.8,9.4,1.4c1.8,0.3,3.5,0.8,5.2,1.2c5.3,1,10.8,1.7,15.9,3.5
		c2.3,0.8,4.5,1.9,6.8,2.9c2.9,1.3,5.8,2.6,8.7,4c1.5,0.7,3.3,1.3,4.4,2.5c1.2,1.1,2.1,2.6,3.5,3.5c1.5,0.9,2.1,2.9,3.9,3.4
		c0.3,0.1,0.8,0.8,0.7,1.1c-0.3,0.9,0.4,1.2,0.8,1.7c2,2.7,4.3,5.2,6.1,8.2c0.8,1.4,1.2,3.1,2.6,4c0.7,0.5,1.2,0.9,1.1,1.9
		c-0.1,1.1,1.6,0.6,1.6,1.6c0,0.1,0,0.1,0.1,0.2c0.8,2.3,2,4.5,3.4,6.5c1.7,2.4,3,5,3.3,7.8c0.3,2.5,0.7,4.7,2.3,6.7
		c0.1,0.1,0.2,0.5,0.1,0.6c-0.8,1.1,0.1,2,0.4,2.8c0.3,1,0.5,2,0.7,3.1c0.5,2.7,0.2,5.6,1.2,8.2c0.1,0.4,0.3,0.7,0.2,1.1
		c-0.3,1.6-1.3,3.2,0,4.7c-0.4,2.5,0,5.1-0.5,7.6c-0.4,1.6-0.6,3.4-0.3,5c0.2,1.1,0.1,2.1-0.1,3.1c-0.2,0.8-0.3,1.5-0.3,2.3
		c-0.3,3.6-1.5,7-3,10.3c-0.7,1.6-1,3.2-1.3,4.8c-0.3,1.6-0.5,3.2-1.1,4.7c-0.4,1.1-0.8,2.1-1,3.3c-0.3,1.7-0.5,3.6-1.4,5.1
		c-1.2,2-1.9,4.3-3.5,6.1c-0.9,0.9-1.8,2.1-2.3,3.3c-0.8,1.9-2.3,3.2-3.5,4.9c-2,3-4.3,6-5.9,9.3c-0.8,1.6-1.6,3.1-2.7,4.4
		c-1.3,1.4-2.6,2.9-4.3,3.8c-0.3,0.2-0.8,0.4-0.9,0.6c-1,2.5-3.3,3.5-5.2,5.1c-2.2,1.8-4.9,2.8-6.8,4.9c-1.3,1.5-3.1,2.2-4.6,3.3
		C314.6,307,312.9,307.5,312,308.9L312,308.9z M191.4,174.1c-0.4-1.2-0.3-2.1-0.2-3c0.1-2.1,0.8-4.2,0.3-6.4
		c-0.2-0.7-0.8-1.2-0.7-1.8c0.5-2-1.1-3.7-0.5-5.6c-1.4-5.2-2.8-10.3-4.1-15.5c-0.6-2.5-1.6-4.9-1.5-7.5c0-0.8-0.3-1.5-0.6-2.2
		c-1.1-2.4-1.4-5.1-3.1-7.3c0.2-1.7-0.8-3.2-1.1-4.9c-0.6-3.3-2.5-6.1-3.4-9.3c-0.3-1.2-0.6-2.4-1-3.5c-1.3-3.1-2.8-6.2-3.7-9.5
		c-1.1-3.9-2.4-7.8-4.9-11.2c-0.4-0.5-0.7-1.3-0.8-1.9c-0.2-1.4-0.8-2.6-1.5-3.6c-1.4-2.1-2.4-4.5-3.8-6.6c-1.3-1.9-1.9-4.2-3.3-6
		c-1.2-1.5-2.2-3.3-2.6-5.1c-0.8-3.6-3.5-6.3-4.6-9.8c-2.9-3.2-4.2-7.6-7.5-10.6c-0.2-0.2-0.4-0.5-0.5-0.8c-1.3-3-3.2-5.5-5.5-7.8
		c-0.8-0.8-1.4-1.7-2.5-2.1c-0.3-0.1-0.5-0.4-0.6-0.7c-0.9-2.1-2.7-3.4-4.1-5c-2.2-2.6-4.5-5.2-7.3-7.2c-2.3-1.7-4.2-3.9-6.6-5.6
		c-2.6-1.8-5.4-2.5-8.4-2.9c-0.9-0.1-2-0.4-3,0.1c-1,0.5-0.3,1.6-0.9,2.3c-0.1,0.1-0.2,0.3-0.2,0.4c-0.9,2.7-1.3,5.4-1.2,8.4
		c0.2,4.4,1.8,8.5,2.6,12.8c0.3,1.8,1.3,3.5,2.2,5.1c1.6,2.9,3.3,5.7,4.8,8.6c1.2,2.2,1.6,4.6,3.3,6.6c0.9,1.1,2,2.3,2.5,3.6
		c0.9,2.5,2.9,4.2,4.4,6.1c1.5,1.9,2.8,4.1,4.6,5.8c0.2,0.2,0.2,0.4,0,0.6c-0.9,0.5-1.6,0.1-2.4-0.3c-1.4-0.7-2.8-1.4-4.1-2.1
		c-4.1-2.2-8.5-3-13.1-2.6c-1.7,0.1-2.6,1.6-3.8,2.5c-0.1,0.1-0.2,0.5-0.1,0.6c0.8,1.3,0.7,2.9,1.4,4.2c1.3,2.5,2.3,5.2,4,7.5
		c1.6,2.3,2.7,5.1,5.6,6.3c0.4,0.2,0.6,0.5,0.7,0.9c0.2,0.7,0.7,1,1.2,1.3c1.6,1,3,2.2,4.3,3.6c3.4,3.4,6.9,6.9,10.4,10.3
		c1.1,1.1,2.4,2,3.4,3.1c2.5,2.8,5,5.6,8,7.8c0.9,0.7,1.7,1.6,2.4,2.6c0.7,1.1,1.3,2.1,1.5,3.6c0.3,2.6,1,5.2,2.4,7.5
		c1.5,2.4,2.6,5,4.3,7.4c2.3,3.3,4.6,6.4,7.4,9.1c1.5,1.5,3.2,2.7,4.8,4.1c2.8,2.5,5.2,5.6,8.3,7.9c2.6,1.9,5,3.9,7,6.4
		c0.8,1,1.5,2.3,2.6,2.9c1.3,0.6,2.4,1.6,3.1,2.7C186.8,170.4,188.8,172.1,191.4,174.1z M239.7,265.8c-0.2,0-0.3,0.1-0.5,0.2
		c-0.2-0.2-0.6-0.3-0.7-0.6c-1.3-2.5-3.2-4.6-4.4-7.1c-0.3-0.5-0.7-1-1.1-1.5c-1.6-2-3.6-3.6-5.3-5.5c-2.2-2.6-4.9-4.4-7.9-6
		c-2.8-1.4-5.1-0.1-5.3,3c0,0.2,0,0.5,0,0.7c0,2.3,0.9,3.2,3.2,3.4c1.4,0.1,2.7,0.6,3.7,1.6c2.2,2.4,4.8,4.4,6.2,7.5
		c1.2,2.5,3.1,4.6,4.4,7.1c1,2,2.3,4,3,6c1,2.8,0.7,6,0,8.9c-0.7,2.8-1.9,5.4-2.5,8.2c-0.8,3.3-1.3,6.6-4.1,9
		c-0.3,0.3-0.5,0.6-0.7,1c-0.4,0.9,0.1,2.5,0.9,2.9c1.7,0.9,6-0.2,7.2-2c2-3,3.6-6.1,4.1-9.8c0.3-1.9,0.9-3.8,0.6-5.8
		c-0.1-0.6,0.2-1.1,0.4-1.6c0.3-0.8,0.8-0.9,1.3-0.2c0.3,0.4,0.4,0.8,0.7,1.2c1,1.6,1.7,3.3,2.5,4.9c0.9,1.9,1.8,3.7,1.9,5.9
		c0,1.6,0.1,3.1,0.3,4.7c0.2,2,2.1,3.2,3.6,2.5c2.1-1,3.9-4.8,3.5-7.1c-0.6-3.4-1.1-6.8-2.5-9.9c-1-2.3-1.5-4.8-2.5-7.2
		c-0.8-1.9-2-3.6-2.6-5.7c-0.4-1.6-1-3.1,0-4.7c0.3-0.5,0.2-1,0.3-1.6c0.3-2.5,0-5-0.2-7.4c-0.2-3.5,0.1-7.1-0.9-10.6
		c-1.2-4.4-2.8-8.5-6.1-11.8c-0.2-0.2-0.5-0.4-0.6-0.7c-1.5-2.7-4.2-3-6.8-3c-1.8,0-2.2,0.8-1.7,2.5c0.3,1.1,0.7,2.1,1.7,2.7
		c0.9,0.5,1.3,1.3,1.7,2.1c0.8,1.8,1.9,3.3,2.6,5.2c0.8,2.1,1.5,4,1.9,6.3C240,257.9,239,261.8,239.7,265.8z M297.8,282.7
		c1,1,0.5,1.9,0.8,2.7c1.4,4.4,1.1,9,1.8,13.5c0.5,3.1,2.7,5.1,5.8,4.5c1.7-0.3,2.3-1,2-2.9c-0.7-4.1-1.1-8.3-1.1-12.5
		c0-2.8,0-5.5-0.3-8.3c-0.2-1.6-0.3-3.3,0.6-4.8c1.1-1.9,2.3-3.7,3.6-5.4c2.3-3,5-5.7,7.4-8.6c3.4-4,7.1-7.6,12.6-8.5
		c1.4-0.2,2.4-1.4,3.2-2.6c0.7-1.2,0.2-2.5-1-3.4c-2.9-2.2-5.8-1.4-8.4,0.4c-1.5,1-3,2.1-4.3,3.4c-2.2,2-4.5,3.7-6.5,5.8
		c-2.6,2.7-5.7,5-8.2,7.9c-0.4,0.4-0.8,0.8-1.3,0.9c-0.5,0.1-0.9-0.1-0.7-0.8c1.2-3.3,1.8-6.8,3.7-9.7c1.3-2,2.3-4.2,5-5.1
		c2.4-0.8,3.7-3.2,4.8-5.4c0.3-0.7,0.2-1.3-0.4-1.6c-1-0.7-2-1.5-3.4-1c-0.7,0.2-1.5,0.3-2.3,0.5c-2.5,0.6-4.8,1.9-6.3,4.1
		c-0.8,1.2-1.5,2.5-2.4,3.7c-4.2,5.8-6.3,12.4-6.7,19.5c-0.2,3.3-1.4,6.3-3.2,8.9c-2.3,3.4-3.7,7-5.3,10.7c-0.2,0.4-0.2,0.8-0.3,1.1
		c-0.5,2.7-0.7,5.5-0.7,8.3c0,2.7,2.3,5.2,5.3,4.8c1.7-0.2,2.8-1.9,2.6-3.6c-0.1-1.4-1-2.6-0.7-4.1
		C294.5,290.8,296.2,286.9,297.8,282.7z M273.7,183.4c-5.1,0.2-9,2.2-13.1,3.3c-0.3,0.1-0.5,0.4-0.7,0.6c-1.8,1.7-3.4,3.5-4.4,5.9
		c-1.2,2.7-1.2,5.3,0,8c2,4.7,5.9,7.7,9.6,10.8c1.6,1.3,3.4,2.4,5,3.7c1.6,1.3,3.5,2,5,3.5c0.8,0.7,1.6,0.5,2.4-0.4
		c1.8-1.9,3.1-4.3,6.1-4.7c0.3,0,0.5-0.3,0.8-0.5c2-0.9,3.4-2.6,5.2-3.9c3.5-2.5,5.7-5.9,6.6-10.1c0.2-0.8,0.5-1.7,0-2.5
		c-1.3-2.3-2-4.8-4-6.7c-2-1.9-3.9-3.8-6.7-4.5c-2.2-0.6-4.1-1.9-6.5-1.6c-0.2,0-0.5-0.1-0.7-0.2
		C276.6,183.3,274.7,183.6,273.7,183.4z M244.2,189.8c-0.5-1-0.9-2.6-2.3-3.6c-1.6-1.2-3.4-1.9-5.5-2.1c-2.8-0.2-4.9,0.8-6.2,2.8
		c-1.3,2-3.3,4.4-1,7.1c0.3,0.4,0.4,0.8,0.6,1.3c0.3,0.5,0.7,0.8,1.2,1.1c0.8,0.5,1.5,0,2.2-0.3c0.6-0.3,0.3-0.8,0.1-1.2
		c-0.5-1.3,0.2-2.6,0.2-3.9c0.1-1.2,2.1-2.4,3.4-2.4c0.7,0,2.1,1.3,2.4,2.3c0.2,0.7-0.1,1.4-0.1,2.1c0,0.4-0.2,0.9,0.3,1.3
		c1.4,1.3,3.7,0.8,4.4-0.9C244.1,192.3,244.2,191.3,244.2,189.8z M306.3,194.9c-0.2,1.1,0.3,2.2,1.6,3c1,0.6,1.8,0.5,2.2-0.6
		c0.3-0.6,0.4-1.2,0.1-1.8c-0.2-0.5-0.2-1,0.2-1.5c1-1.4,3-2.1,4.5-1.6c2.1,0.7,2.6,2.3,1.6,4.8c-0.7,1.7-0.2,2.5,1.6,2.2
		c1.8-0.2,4-2.7,3.8-4.6c-0.2-2.9-1.4-5.2-4.2-6.4c-2.3-1-4.5-1.3-7-0.2C308.1,189.2,306.1,191.8,306.3,194.9z M256.1,333.3
		c-0.5-0.1-0.9-0.3-1.4,0C255.1,333.8,255.6,333.8,256.1,333.3z"/>
	<path class="st0" d="M154.4,496.8c0.1,0,0.3-0.2,0.4-0.2c2,1.9,4.3,3.3,6.7,4.6c2.5,1.5,4.5,3.8,7.4,4.7c1.9,0.6,3.3,1.7,4.5,3
		c1.3,1.5,2.3,3,2.9,5c0.8,2.8-1.1,5.3-2.8,6.5c-0.8,0.5-1.7,0.4-2.5,0.1c-3.5-1.2-6.9-2.8-10-4.9c-0.9-0.6-1.7-1.4-2.8-1.5
		c-0.4,0-0.7-0.3-1-0.5c-2.6-2-5.6-3.3-8.3-5c-2-1.3-3.6-3.1-5.8-4.2c-2.1-1-3.9-2.5-5.9-3.6c-1.2-0.7-2.7-1-4-1.7
		c-2.9-1.7-5.7-3.4-8.7-4.8c-3.3-1.5-6.7-2.9-10.2-3.9c-2-0.6-4-1.6-6.2-1.5c-0.9,0-1-1.3-2.1-1.3c-4-0.1-7.5-2.5-11.5-2.4
		c-2.9-1.5-6.1-1.1-9.1-1.8c-1.3-0.3-2.6-0.4-3.9-0.5c-3.3-0.2-6.6-0.9-9.9-1.4c-3.5-0.5-7.2-1.1-10.7-2c-3.3-0.8-6.5-1.8-9.8-2.7
		c-1.4-0.4-2.9-0.2-4.4-0.6c-3-0.7-5.7-2-8.8-2.3c-0.2,0-0.5-0.1-0.7-0.2c-2.3-1.8-5.4-1.7-8-3.2c-1.4-0.8-3.2-1.3-4.8-1.7
		c-2.1-0.5-3.7-1.7-5.2-2.9c-2.5-2-5.3-3.8-6.8-6.9c-0.2-0.3-0.5-0.6-0.8-0.8c-0.7-0.7-1.4-1.3-1.4-2.5c0-0.9-0.6-1.7-1-2.6
		c-0.9-2-1.5-4-0.8-6.3c0.2-0.6,0.1-1.2,0-1.9c0-0.6,0-1.3,0.5-1.4c1.4-0.4,1.8-1.6,2.4-2.7c1.7-2.9,4.5-4.1,7.5-5
		c1.3-0.4,2.6-1.5,3.5-1.4c1.2,0.2,2.4,0.7,3.7,0.9c1.1,0.1,2.2,0.2,3.3,0.1c4-0.2,7.8,1.1,11.6,2.1c1.3,0.3,2.4,1.3,3.7,1.8
		c2.3,0.8,4.5,1.8,6.9,1.7c0.6,0,1,0.3,1.5,0.6c2.3,1.3,4.9,2,7,3.5c1.1,0.8,2.4,1,3.6,1.5c3.7,1.5,7.3,3.5,11.3,4.2
		c0.9,0.2,1.5,1.3,2.1,1.2c1-0.2,1.2,1.4,2.4,0.8c0.7-0.4,1.5,0.7,2.4,0.8c1.5,0.2,2.9,0.9,3.7,2.4c0.2,0.4,0.5,0.6,0.9,0.6
		c3.3,0.4,6.1,1.9,8.9,3.6c1.1,0.7,2.1,1.3,3.4,1.5c1.5,0.2,2.3,1.9,3.9,1.9c1.2,1.7,3.6,1.8,4.9,3.4c0.5,0.6,1.3,0.5,1.9,0.8
		c2,1.2,3.6,3.2,6.4,3c1.4-0.1,3,0.8,4.5,1.7c1.5,0.9,3.1,1.7,4.7,2.5c0.8,0.4,1.5,0.7,1.5,1.8c0,1.3,1.3,1.6,2.2,2.2
		c1.1,0.8,1.9,0.1,2.8-0.6c1.9-1.4,3.6-3,5.4-4.6c1-0.9,1.8-2.3,3.5-1.8c0.1,0,0.4-0.2,0.5-0.4c0.6-2,2.6-2.6,4-3.5
		c3.8-2.5,7.4-5.4,11.5-7.5c1.5-0.8,2.6-2.4,4.4-3c2.5-0.9,4.4-2.8,6.7-4c2.5-1.3,4.8-2.7,7.4-3.7c2-0.8,4.4-1.2,5.9-3.2
		c-1-0.9-1.4-2.3-3.3-2c-0.7,0.1-1.5-1.1-2.3-1.7c-2.4-1.6-4.4-3.7-6.4-5.7c-1.4-1.4-2.7-2.8-2.8-5c0-0.2-0.1-0.5-0.2-0.7
		c-2-3.2-1-6.4,0.1-9.6c0.4-1.2,1.2-2.2,2.7-2.1c0.6,0,1-0.3,1.5-0.6c1.3-0.8,2.8-1,4.3-1.1c2-0.2,3.2,1.4,4.5,2.5
		c1.1,0.9,1.9,2.1,3.2,3c1.5,1,2.5,2.9,3.6,4.5c2.4,3.3,4.4,6.7,6.4,10.2c0.6,1,0.8,2.7,2.7,2.9c0.8,0.1,0.7,1.1,0.8,1.7
		c0.2,0.9,0.3,1.6,1.3,1.9c0.4,0.1,0.8,0.5,1,0.9c2.8,5.3,5.8,10.5,8.2,16c1.1,2.5,2.4,5,3.7,7.5c0.6,1.2,1.3,2.7,0.9,4.2
		c-0.2,0.8,0,1.5,0.2,2.3c-0.3,0.3-0.6-0.1-0.8-0.1c-2.1,0.3-2.3,0.3-3.2-1.5c-1.1-2.2-2.9-4-3.8-6.4c-0.3-0.9-1.4-1-2-1.8
		c-3.7-4.5-7.6-8.7-12.1-12.5c-1-0.8-1.9-1.8-3-0.2c-0.1,0.2-0.4,0.2-0.6,0.3c-2.9,0.7-5,2.6-7.4,4.3c-2.6,1.8-5,3.8-8.1,4.6
		c-0.7,0.2-1.1,0.8-1.6,1.2c-1.2,1.1-2.5,2.2-4,3c-1.1,0.5-2.4,1.6-2.8,2.8c-0.3,1-0.8,1.6-1.5,1.8c-0.8,0.3-0.8,1.7-2,1.1
		c-0.2-0.1-0.7,0-0.9,0.3c-1.3,1.5-3,2.5-4,4.2c-1,1.7-2.3,3.1-3.7,4.5c-2.3,2.2-4.4,4.6-5.5,7.7c-0.3,0.9,0.4,0.6,0.6,0.8
		c1.1,1.6,3.7,1.5,4.4,3.6c0.1,0.2,0.5,0.6,0.7,0.5c1.7-0.4,2.3,1.7,3.8,1.6C154,495.6,154.1,496.5,154.4,496.8
		c0-0.1-0.1-0.1-0.1-0.2C154.4,496.7,154.4,496.8,154.4,496.8z M17.9,446.1c0,0.2-0.1,0.4-0.1,0.6c0,1.6,0.2,3,2,3.7
		c2.7,1.1,5.3,2.6,8.3,3.1c4.6,0.8,9.3,1,13.9,1.3c3.2,0.3,6.4,0.2,9.5,0.9c0.9,0.2,1.8,0.5,2.7,0.6c1.1,0.1,2.2-0.7,1.9-1.5
		c-0.5-1.3-0.2-3-1.8-3.8c-0.6-0.3-1-1-1.4-1.5c-0.5-0.9-1.3-1.3-2.2-1.6c-1.6-0.5-3.2-1-4.4-2.4c-0.5-0.5-1.1-0.6-1.7-0.6
		c-1.3-0.1-2.5-0.5-3.5-1c-0.9-0.5-1.8-0.7-2.8-1c-1.9-0.6-3.9-0.9-5.9-1.3c-2.8-0.6-5.6-1.3-8.5-0.3c-0.4,0.1-0.9,0.1-1.4,0.2
		C19.2,441.4,18,442.7,17.9,446.1z M177.2,442c0,0,0-0.2-0.1-0.2c-0.1,0-0.1,0-0.2,0c0,0.1,0,0.2,0.1,0.2
		C177.1,442,177.2,442,177.2,442z M180.2,452.9c0,0,0.1,0,0.2-0.1c0,0-0.1-0.1-0.1-0.1c0,0-0.1,0-0.2,0
		C180.1,452.8,180.1,452.8,180.2,452.9z M176,455.9c0-0.1-0.1-0.2-0.1-0.2c-0.1,0-0.3,0.1-0.4,0.2c0,0,0.1,0.1,0.2,0.2
		C175.8,456.2,175.9,456.1,176,455.9z M176.5,457.8c-0.1,0-0.1,0-0.2-0.1c0,0,0,0.1,0,0.2c0.1,0,0.1,0,0.2,0
		C176.5,457.9,176.5,457.8,176.5,457.8z M193.1,453.9L193.1,453.9l0.1,0L193.1,453.9z M205.2,469.1l-0.1-0.1l0,0.1L205.2,469.1z"/>
	<path class="st0" d="M430.9,469.1c-0.1-1,0.8-1.4,1.4-1.7c1.8-1,3.2-2.6,4.6-4c2.2-2.3,4.5-4.2,7.1-6c0.4-0.3,0.7-0.8,1-1.2
		c1.9-2.2,3.7-4.4,5.8-6.2c2.6-2.2,5-4.5,7.3-7c1.8-2,4.1-3.5,6.2-5.2c1.1-0.9,2.3-1.7,3-2.9c0.2-0.3,0.4-0.6,0.6-0.7
		c2-0.6,3.2-2.6,5.3-3.2c2-0.6,3.7-2.2,5.6-3.2c4.2-2.1,8.3-4.3,12.9-5.6c2.3-0.6,4.7-1.1,6.9-2c3.4-1.4,7.3-0.7,10.6-2.5
		c0.3-0.2,0.5-0.2,0.9-0.1c2.3,0.9,4.8,0.7,7.2,0.6c5.6-0.3,10.5,1.7,15.5,3.9c1.5,0.7,2.3,2.3,3,3.8c0.9,2,1,4.3,1,6.4
		c0,1.1-0.2,2.4-1,3.3c-1.9,1.9-3.6,4.1-5.9,5.6c-0.8,0.5-1.7,0.8-2.6,0.5c0,0.2-0.1,0.2-0.1,0.1c0.1-0.3-0.2,0,0.2,0
		c-0.1,0.3-0.2,0.8-0.4,0.8c-1.7,0.7-3.4,1.6-5.2,2c-1,0.2-2.1,0.2-3.2,0.4c-2.4,0.4-4.9,0.7-7.3,1c-0.2,0-0.3,0-0.5,0
		c-4.2-1.1-8.4,0.1-12.6-0.1c-1.4-0.1-3,0.6-4.5,0.9c-1.1,0.3-2,1.1-3.3,0.7c-2.7,1.8-6.1,0.8-9,2.5c-2.1,1.3-4.4,2.5-7,2.5
		c-0.3,0-0.7,0.3-1,0.5c-5.9,2.7-11.7,5.6-16.5,10.1c-2.5,2.3-5.6,3.7-8.4,5.4c-1.8,1.1-3.4,2.7-5.5,3.5c-1.9,0.8-3.3,2.5-4.9,3.7
		c-2.4,1.8-4.8,3.6-7.1,5.6c-0.2,0.2-0.4,0.2-0.5,0.4c-1.1,1.7-2.7,2.5-4.4,3.5c-2.9,1.7-5.8,3.3-8.6,5.1c-3.7,2.4-7.7,4.5-11.8,6.3
		c-3.7,1.7-7.5,2.8-11.2,4.3c-2.6,1-5.5,1.1-8.1,2c-3.2,1.2-6.5,1-9.8,1.7c-1.8,0.4-3.6,0.1-5.3-0.2c-1.7-0.3-3.3-0.4-5.1-0.2
		c-2.5,0.2-4.9-0.4-7.2-1.4c-1.2-0.5-2.3-0.9-3.5-1.3c-3.6-1-7.2-2.1-10.3-4.2c-2.8-1.9-5.2-4.4-7-7.4c-0.8-1.3-1.5-2.8-3.1-3.5
		c-0.1,0-0.3-0.2-0.3-0.3c-0.1-2.1-1.5-3.7-2.2-5.6c-0.3-0.7-0.6-0.7-1.2-0.9c-2.6-0.7-5.4-0.5-7.9-1.9c-1.3-0.7-2.5-1.6-3.6-2.5
		c-0.7-0.5-1.1-1.5-1.1-2.5c0-1.4,0.6-2.2,2-2.4c0.4-0.1,0.8,0,1.2,0c2.9,0.1,5.7,1.3,8.8,1.2c0-0.1,0.4-0.5,0.4-1
		c0-3.4,1.4-6.5,1.8-9.7c0.2-1.3,0.9-2.6,1.4-3.9c0.5-1.3,0.6-2.8,1.7-3.8c0.2-0.1,0.3-0.5,0.2-0.6c-0.9-1.7,0.5-2.7,1.2-4
		c0.1-0.3,0.3-0.5,0.5-0.8c1.8-4.3,4.7-7.9,8-11.1c3-2.8,6.1-5.5,9.4-8c0.6-0.5,1.3-1,2-1.2c1.7-0.5,3.3-1.3,4.9-2.1
		c1.1-0.6,2.4-0.3,3.7-0.3c3,0.2,6-0.5,9,0.2c0.9,0.2,1.7,0.5,2.3,1c2.7,2,5.9,3.2,7.7,6.3c2.2,3.9,3.7,8,4,12.5
		c0.3,5.1-1.8,9.3-4.3,13.5c-2.9,4.7-6.7,8.4-11,11.6c-1.8,1.3-3.8,2.5-6.2,3c-1.5,0.3-2.9,1.3-4.4,2.1c-0.7,0.3-1.3,0.8-2.2,0.4
		c-1.1-0.5-2.2,0.2-3.1,0.5c-2.9,0.8-5.7,1.4-8.7,1.1c-1.2-0.1-2.4-0.1-3.5,0.8c-0.7,0.5-1.8,0.4-2.7,0.6c-0.8,0.2-0.9,0.5-0.7,1.3
		c0.3,1.3,1.2,2.2,1.9,3.1c1.3,1.7,2.8,3.2,4.2,4.9c0.4,0.5,0.9,0.7,1.3,0.9c2.6,0.7,4.8,2.3,7.4,3c1,0.2,2,0.2,2.9,0.5
		c4.4,1.1,8.8,2.3,13.4,2.7c1.2,0.1,2.5,0.4,3.7-0.4c0.3-0.2,0.7-0.3,1.1-0.1c1.7,0.9,3.6,0.9,5.4,1.1c2,0.2,4.2,0.1,6.2-0.4
		c2.6-0.5,5.1-1.3,7.6-2.2c1.8-0.7,3.8-0.8,5.3-1.9c2-1.5,4.3-2.5,6.2-4.2c1.7-1.6,4-2.6,5.9-4.1c1.6-1.3,3.5-2,5.1-3.2
		c1-0.7,1.9-1.5,2.7-2.5c0.4-0.5,0.9-1.1,1.5-1.5c2.7-1.7,5.1-3.7,7.4-5.8C430.8,469.1,430.9,469.1,430.9,469.1c0-0.1,0.1-0.1,0.1,0
		C430.9,469.4,431.2,469,430.9,469.1z M345.5,495.5l0.1-0.1L345.5,495.5l0-0.1C345.5,495.4,345.5,495.5,345.5,495.5z M366.1,442.7
		c0.1,0,0.3,0,0.4,0c0,0,0-0.1,0-0.1C366.3,442.4,366.2,442.6,366.1,442.7c-0.2-0.1,0.5-0.4-0.1-0.6
		C366.1,442.3,366.1,442.5,366.1,442.7z M342.7,471.8c3.7-0.2,7.2-0.7,10.8-1.8c2.2-0.7,4-2.1,6-3.1c1.8-0.9,3-2.6,4.8-3.5
		c1.2-2.6,3.3-4.7,4.5-7.4c0.3-0.8,0.2-1.7,0.6-2.5c1.5-2.6,0.7-6.6-1.4-8.2c-0.3-0.2-0.7-0.3-0.9-0.7c-1.5-2.7-6.7-3.1-9.4-2.2
		c-2.3,0.8-4,2.3-5.9,3.6c-2.1,1.4-4.1,3-5.2,5.3c-0.7,1.6-2.2,2.8-2.5,4.6c-0.1,0.5-0.5,1-1,1.2c-0.6,0.3-0.9,0.8-1.1,1.4
		c-1.3,3.4-2,7-2.6,10.6c-0.3,1.9,0.3,2.5,2.3,2.4C341.9,471.8,342.3,471.8,342.7,471.8z M508.3,421c-4.5-0.2-8.4,1.8-12.3,3.8
		c-0.8,0.4-1.2,1.4-0.8,2.5c0.8,2.5,4,4.7,6.5,4.5c0.5,0,1.1-0.4,1.2,0.2c0.3,1,1,0.8,1.6,0.8c1.1,0.1,2.2,0.2,3.3,0.2
		c2.6-0.1,5.3,0.7,7.9-0.1c0.2-0.1,0.5-0.1,0.7,0c2,0.6,3.9,0.4,5.9,0c2-0.4,4.1-0.2,5.4-2.3c1.6-0.4,1.4-1.6,1.3-2.8
		c-0.1-1.3-0.6-2.3-1.8-2.8c-2.2-0.9-4.4-2-6.8-2.4C516.5,421.8,512.4,421.2,508.3,421z M363.3,440.1c0,0.1-0.1,0.3-0.1,0.3
		c0,0.1,0.2,0.2,0.3,0.3c0-0.1,0.1-0.3,0.1-0.4C363.5,440.3,363.3,440.2,363.3,440.1z M362.5,468.7c0-0.1,0-0.4-0.1-0.4
		c-0.2-0.1-0.4,0.1-0.5,0.3c-0.1,0.2-0.1,0.3,0.1,0.4C362.2,469,362.4,468.9,362.5,468.7z M342.1,452.3c0,0-0.1,0.1-0.1,0.2
		c0,0,0.1,0.1,0.1,0.2c0,0,0.1-0.1,0.1-0.1C342.2,452.4,342.1,452.3,342.1,452.3z M337.9,471.8c0,0.1,0,0.1,0,0.2c0,0,0.1,0,0.1,0.1
		c0-0.1,0-0.1,0-0.2C338,471.8,337.9,471.8,337.9,471.8z M345.1,446.9c0-0.1-0.1-0.2-0.2-0.4c0,0-0.1,0.1-0.1,0.2
		c0,0.1,0.1,0.2,0.1,0.4C345,447,345.1,446.9,345.1,446.9z"/>
	<path class="st0" d="M224.3,520.4c-2.8-2.3-5.7-4.9-6.5-8.5c-1.1-5.2-0.9-10.4,3.1-14.9c2.3-2.5,4.3-5.3,6.7-7.7
		c3.1-3.2,6.8-5.6,10.7-7.8c0.7-0.4,1.7,0,2-0.5c1.5-2.5,4.3-1.5,6.3-2.5c2-0.9,4.6-0.5,6.9-1c3.8-0.8,7.5-1,11.4-1
		c2.7,0,5.4,0,8.1,0.2c1.8,0.1,3.5-0.3,5.3-0.3c2.9-0.1,5.7,0.7,8.5,1.1c3.4,0.5,6.8,1,10.1,1.7c1.7,0.4,3.5,0.9,5,1.8
		c2.7,1.6,5.7,2.8,8.2,4.8c2.8,2.3,6,4.5,8.2,7.4c1.6,2.1,3.3,4.2,4.2,6.8c0.3,1.1,0.9,2.3,0.4,3.6c-0.3,0.7-0.1,1.7-0.1,2.5
		c0,2.9-0.4,5.6-2.2,8.1c-1.8,2.5-4,4.4-6.3,6.4c-0.9,0.8-1.5,2.1-2.7,2.5c-2.5,1-4.3,3.2-7,4c-1.9,0.6-4,1.1-5.7,2.5
		c-1,0.8-2.4,0.5-3.5,1c-3.8,1.7-7.9,2.8-12.1,3.4c-2.6,0.3-5.2,0.5-7.8,0.9c-0.5,0.1-0.9,0-1.1,0.5c-0.2,0.4-0.6,0.5-1,0.4
		c-3.1-0.8-6.4,0.2-9.5-0.5c-3.1-0.7-6.3-0.8-9.4-0.9c-0.9,0-1.8-0.3-2.7-0.7c-3-1.1-6.2-1.5-8.8-3.5c-0.2-0.2-0.6-0.3-0.9-0.3
		c-1.9-0.4-3.6-1.2-5.3-2.2c-2-1.2-4.3-2-6.4-3.1C228.2,523.4,226,522.1,224.3,520.4l0,0.1L224.3,520.4z M287.2,510.5
		C287.2,510.3,287.2,510.3,287.2,510.5C287.3,510.4,287.2,510.4,287.2,510.5c0.4-0.6,1.1-0.7,1.8-0.9c2.6-0.6,5-1.8,7.1-3.2
		c3-1.9,5.5-4.7,6.5-8.4c0.5-1.9,0.6-3.9-1-5.5c-0.4-0.4-0.7-1-1-1.6c-1.4-3-4.4-4.2-6.9-5.8c-2.2-1.4-5-1.5-7.3-2.7
		c-0.3-0.1-0.7-0.2-0.9,0c-1.7,0.8-3.4,0.1-5-0.3s-3.2-0.5-4.8-0.4c-2.2,0.1-4.5,0.4-6.7,0.2c-5.3-0.4-10.3,1-15.4,2
		c-0.5,0.1-0.8,0.3-1.3,0.5c-2.4,1-4.7,2.3-7.1,3.4c-3.4,1.5-6.3,3.5-9.1,5.9c-0.5,0.4-1.3,0.6-1.5,1c-1.3,2.4-2,5.1-1.1,7.8
		c0.3,1,0.2,2.4,1.6,2.9l0,0c1.1,1.1,2.2,2.3,3.9,2.5c0.1,0,0.3,0.1,0.4,0.2c1.9,1.4,4,2.3,6.2,2.9c3.7,0.9,7.4,1.5,11,2.5
		c0.3,0.1,0.6,0.2,0.9,0.1c2.2-0.4,4.4,0.6,6.6,0.2c1.6-0.3,3.4-0.1,5-0.3c2.8-0.5,5.6-1.1,8.5-1.3c2.1-0.1,4.2-0.4,6.2-1.2
		C284.9,510.5,286.1,509.9,287.2,510.5z M319.8,507.3c0-0.1,0-0.3-0.1-0.4c-0.1-0.1-0.3,0-0.3,0.2c0,0.2-0.1,0.4,0.2,0.5
		C319.6,507.6,319.7,507.4,319.8,507.3z M276,515.5c0,0,0-0.1,0-0.1c-0.1,0-0.3-0.1-0.4,0c-0.2,0-0.2,0.2,0,0.2
		C275.8,515.5,275.9,515.5,276,515.5z M260.5,524.8c-0.1,0-0.1,0-0.2,0c0,0,0,0.1,0,0.1c0.1,0,0.1,0,0.2,0
		C260.5,524.9,260.5,524.9,260.5,524.8z M280.6,513.7l-0.1-0.1l0,0.1L280.6,513.7z M262.3,515.6c0,0-0.1-0.1-0.1-0.1
		s-0.1,0.1-0.2,0.1c0,0,0.1,0.1,0.1,0.1C262.3,515.8,262.3,515.7,262.3,515.6z"/>
	<path class="st0" d="M308.5,419.1c-0.3-0.2-0.9-0.4-0.9-0.6c-0.1-1.8-1.5-2.1-2.8-2.6c-1.7-0.7-3.1-2-5-2.3c-0.8-0.1-1.5-0.2-2.3,0
		c-0.9,0.3-2,1.3-2.4-0.6c0-0.2-0.4-0.3-0.6-0.2c-1.8,0.7-3.6,0-5.4,0.1c-0.2,0-0.3-0.1-0.5,0c-2.2,1-4.6,0.6-6.8,1
		c-1.3,0.2-2.2,1.8-3.1,3c-2.2,2.9-3.6,6.2-4,9.8c-0.1,0.8-0.6,1.3-1.1,1.7c-4,2.9-10.3,1.6-11.8-2.8c-1.1-3.2-3-6-5-8.7
		c-0.8-1.1-2.5-1.8-3.9-2.4c-1.3-0.5-2.7-0.6-3.9-1.5c-0.2-0.2-0.6-0.2-0.9-0.2c-2.5,0.1-5.1-0.4-7.5,0.5c-0.7,0.3-1.5,0.4-2.3,0.5
		c-2.4,0.2-4.2,1.5-5.9,2.8c-0.5,0.4-0.7,0.5-1-0.1c-0.2-0.4-0.6-0.3-0.7,0.1c-0.3,1.1-1.3,1.6-2.1,2.3c-1.7,1.6-2.3,3.6-2.7,5.8
		c-0.4,2.9-0.6,5.8-0.3,8.7c0.1,0.7-0.3,1.4-0.3,2.1c0,1.2,1.4,3.5,2.4,4.5c1,1,1.5,2.4,1.9,3.7c0.3,1,0.5,1.9,1.6,2.4
		c0.3,0.1,0.5,0.6,0.7,0.9c1.8,2.7,4.5,4.3,7.3,5.5c2.3,1,4.3,4.3,4.1,6.8c-0.3,2.8-2.6,4.3-5.3,3.4c-0.3-0.1-0.6-0.3-0.9-0.3
		c-2.7-0.2-4.7-1.9-6.7-3.4c-0.8-0.6-1-1.4-1.4-2.1c-0.8-1.3-2-2.4-2.5-3.8c-0.6-1.5-1.5-2.7-2.3-4c-1.4-2.2-2.3-4.5-3.2-6.8
		c-0.7-1.7-1.1-3.5-1.2-5.4c0-1.1-0.1-2.1-0.9-3l0.1,0.1c-0.2-1.5-1.3-2.7-1.5-4.3c-0.4-5,0-9.7,2.7-14.2c2.1-3.6,5-6.5,7.7-9.6
		c0.3-0.4,0.7-0.7,1-0.9c4.1-2.2,8.2-4.4,13-5.1c0.9-0.1,1.6,0.4,2.5,0.4c3.1,0,6.1,0.8,8.8,2.6c1.3,0.9,3,1,4.5,1.8
		c0.6,0.3,1.1,0.5,1.5,1.1c1.3,2,2.9,3.7,4.7,5.3c1.1,0.9,1.9,2,2.2,3.5c0.2,1.2,1.3,1.9,1.3,3.1c1,0.1,1.1-0.5,1.3-1
		c0.9-2.4,3.2-4,3.7-6.5c0-0.2,0.3-0.5,0.4-0.5c1.4-0.1,1.8-1.5,2.4-2.2c1.7-2,3.9-3,6.3-3.9c0.3-0.1,0.6-0.3,0.8-0.4
		c2.5-1.8,5.5-2.4,8.5-2.7c1.3-0.1,2.5-0.7,3.8-0.5c2.9,0.6,5.8,1.5,8.5,2.7c3.5,1.5,6.3,4,8.8,6.8c1.4,1.5,2.7,3.3,3.1,5.5
		c0.1,0.5,0.3,1.1,0.7,1.4c1.5,1,1.7,2.6,1.8,4.1c0.2,3,0.9,6,1,9c0.1,2.7-0.3,5.4-0.5,8.2c-0.1,1.2-0.4,2.3-0.6,3.5
		c-0.1,0.5-0.1,1.1-0.3,1.6c-2.2,4.4-4.2,9-7.4,12.9c-1.4,1.8-2.8,3.5-4.6,4.9c-2,1.6-4.4,1.4-5.8-0.7c-1.1-1.7-1-4.4,0.4-5.9
		c0.6-0.7,1.2-1.4,1.5-2.3c0.3-1.2,0.8-2.4,2.4-2.3c0.2,0,0.5-0.5,0.7-0.8l0,0c0.3,0,0.5-0.2,0.5-0.5l-0.1-0.1
		c0.7-0.3,1-1.1,1.8-1.2c1.2-0.1,0.8-1.6,1.6-1.9c0.1,0.1,0,0.2,0,0.1c-0.2-0.2-0.2,0.1,0.1-0.1c-0.2-0.5,0-1,0.3-1.3
		c1.4-1.5,2-3.5,3.3-5.2c0.2-0.3,0.3-0.5,0.3-0.8c-0.4-1.7,0.2-3.2,0.8-4.7c0.4-1,0.5-1.8,0-2.7c-0.9-1.8-0.6-3.9-1.8-5.6
		c-0.3-0.3-0.1-0.7,0.1-1.1c0.4-1-0.3-1.9-0.8-2.1C309.3,420.8,309.1,419.9,308.5,419.1c0.2,0,0.2,0.1,0.1,0.2
		C308.5,419.2,308.5,419.1,308.5,419.1z M226.3,418.2c0.1-0.1,0.2,0,0.1,0.1C226.2,418.5,226.5,418.3,226.3,418.2
		c0.1,0.1,0.1,0.2,0,0.1C226,418.2,226.3,418.5,226.3,418.2z M264.7,413.3c-0.1-0.3-0.2-0.6-0.5-0.6c-0.1,0-0.2,0.2-0.2,0.3
		c0,0.3,0.1,0.6,0.5,0.6C264.5,413.6,264.6,413.4,264.7,413.3z M230.4,457.5l0.2,0.1l0-0.2L230.4,457.5z"/>
	<path class="st0" d="M115.5,562c1.6-0.4,2.9,0.3,4.3,0.8c3.5,1.3,7,2.4,10.5,3.6c2.2,0.8,4.3,1.5,6.6,1.7c1.2,0,2.2-0.5,3.2-0.4
		c2.7,0.4,5.2,0,7.7-1.1c0.9-0.4,1.8,0,2.1,1.2c0.4,1.3-0.2,1.5-1.3,1.8c-3.1,0.9-6,2.2-9.3,2.4c-2.3,0.1-2.6,0.8-3,2.9
		c-0.5,2.6,0.5,5.1,0.2,7.7c-0.1,1.3,0.1,2.6,0.1,3.9c0,1,0.4,1.7,1.6,1.8c1.4,0.2,2.7,0.6,4.1,0.1c0.9-0.3,2-0.3,3-0.3
		c1.4,0,2.7,0,3.8-1.1c0.7-0.7,1.7-0.8,2.5-0.2c0.7,0.5,1,1.1,0.8,1.9c-0.1,1-0.7,1.7-1.8,1.9c-2.5,0.3-5,1-7.7,0.6
		c-1.6-0.3-3.2,0.4-4.9,0.2c-1-0.2-1,0.7-1.1,1.5c-0.1,2.5,0.5,5,1.4,7.3c0.4,1,0.2,1.8,0,2.7c-0.1,0.4-0.3,0.7-0.7,0.7
		c-0.5,0.1-1-0.1-1.1-0.6c-0.3-2.1-1.6-3.8-1.9-6c-0.4-3.5-0.5-6.9-1.3-10.4c-0.7-2.8-0.3-5.8-0.1-8.8c0-0.4,0.1-0.7,0.1-1.1
		c0.4-4.1-0.4-4.9-4.5-5.2c-3.5-0.2-7-0.5-10.3-1.8c-2.5-1-4.9-2.2-6.3-4.7c-0.4-0.7-1.2-1.6-0.6-2.6c0.6-0.9,1.6-0.8,2.5-0.7
		C114.8,561.8,115.1,561.9,115.5,562z"/>
	<path class="st0" d="M369,597.5c0,0.8,0,1.4-0.1,2c-0.1,0.7,0.3,1.8-0.6,1.9c-1,0.1-2.1-0.4-2.4-1.5c-0.3-1.1-0.4-2.3-1-3.4
		c-0.3-0.5,0.2-1.1,0.5-1.5c1.4-1.8,1.4-4,1.5-6c0-0.7-0.2-1.3,0.5-1.7c1.5-0.9,1.7-2.6,2.2-4c0.6-1.9,1.4-3.6,2.7-5.1
		c1.5-1.7,2.9-1.9,4.8-0.7c2.3,1.5,3.8,3.8,5.2,6c1.2,1.8,1.2,1.9,2.8,0.7c1.4-1.1,2.9-0.9,4.5-0.9c0.5,0,0.9,0.3,1,0.8
		c0.2,0.5-0.3,0.9-0.6,1.1c-0.4,0.3-0.8,0.4-1.2,0.6c-1.3,0.8-2.2,2-3.1,3.1c-1.1,1.2,0.1,2.6,0.3,3.9c0.2,1.5,0.5,2.9,0.4,4.4
		c-0.2,2-1.3,2.5-3,1.4c-0.5-0.4-1-0.8-1.5-1.3c-0.3-0.4-0.4-0.9,0.1-1.1c2.3-0.9,1.5-2.8,1.1-4.2c-0.4-1.5-1.8-2.3-3.5-2.3
		c-1.6,0-3.3-0.4-4.9,0.6c-0.9,0.6-2,0.2-3,0.2c-0.8,0-1.3,0.2-1.6,1.1C369.5,593.7,368.3,595.5,369,597.5z M380.1,585.8
		c-1.6-1.4-2.1-3.3-3.9-4.2c-1.6-0.8-2.8-0.5-3.2,1.4c-0.2,1-0.6,1.9-1,2.8c-0.6,1.1-0.2,1.8,1.1,1.7
		C375.4,587.3,377.7,587.2,380.1,585.8z"/>
	<path class="st0" d="M339.7,592.7c-0.8,0.8-0.8,1.6-0.8,2.3c0,1.8-1.3,3-2.1,4.4c-0.4,0.7-1.3,1.1-2.2,0.8
		c-1.8-0.6-3.6-1.3-4.7-3.1c-1.3-2.2-2.8-4.4-3.4-6.9c-0.6-2.3-2.3-3.9-3-6.1c-0.5-1.8-0.2-3.9-1.3-5.6c-0.3-0.5,0.3-1.1,0.9-1.1
		c0.8,0,1.7-0.1,2.2,0.8c1,1.5,2.2,2.8,2.2,4.9c0,2.8,1.7,5.2,2.1,8c0.3,1.9,2.2,3.1,3.6,4.5c0.5,0.5,1,0.4,1.5,0
		c0.6-0.5,1.1-1,1.4-1.7c0.1-0.3,0.1-0.5,0.2-0.8c0.7-1.4,1.5-3,3.3-3.1c1.8-0.1,2.7,1.5,3.4,2.9c0.8,1.7,2,2.8,3.3,4
		c0.8,0.8,1.5,0.7,2.1-0.1c0.5-0.6,1.2-1.3,1.4-2.1c0.7-3.6,3.3-6.4,3.6-10.1c0.1-1.5,1.4-2.6,2.3-3.7c0.4-0.5,1-0.5,1.5-0.2
		c1,0.4,1.2,1.4,1.3,2.3c0,0.4-0.1,1-0.4,1.3c-2.5,2.4-3.1,5.8-4.9,8.5c-1,1.5-1.5,3.3-2.1,5c-0.7,1.6-1.5,3.4-3.2,3.5
		c-2,0.2-3.3-1.2-4.3-3C342.6,596.2,341.7,594.2,339.7,592.7z"/>
	<path class="st0" d="M238.6,583.5c-0.2,1.3-0.4,2.6-1.3,3.6c-3.7,4.2-6.7,8.8-9.7,13.5c-0.4,0.7-1,1.3-1.9,1.6
		c-0.9,0.3-1.8,0.8-2.6,0.2c-0.8-0.6-0.2-1.6,0.1-2.3c0.4-1,0.2-2,0-3c-1.2-4.6-2.4-9.1-3.5-13.7c-0.5-2-0.5-4.2-0.8-6.3
		c-0.3-1.8,0.8-2.5,2.4-1.8c4.2,2,8.7,2.8,13.1,4.1c1.2,0.3,2.3,0.8,3.2,1.6C238.4,581.7,238.8,582.4,238.6,583.5z M226,596.2
		c1.6-2.2,3.2-4.1,4.5-6.2c0.7-1.1,1.1-2.5,1.5-3.8c0.5-2-0.3-4-2.2-4.9c-1.5-0.8-3.2-1.5-4.9-1.7c-2.6-0.3-3,0.2-2.7,2.8
		c0.3,2.6,1.7,4.9,1.8,7.5C224.2,592.1,224.8,594,226,596.2z"/>
	<path class="st0" d="M406,598.8c0.8-4.3-0.6-7.4-2.6-10.3c-1-1.4-2-2.9-3.3-4.1c-1.7-1.5-2.4-3.7-3.8-5.4c-0.2-0.3-0.4-0.7-0.3-1
		c0.1-1-0.9-2.3,0.3-3c1.3-0.8,1.5,0.9,2.2,1.4c1.9,1.6,3.8,3.3,4.3,5.9c0.1,0.6,0.5,1.2,0.8,1.7c1.5,2.5,3.9,2.6,5.2,0
		c0.6-1.1,1.5-1.8,2.2-2.8c1.6-2.1,1.7-4.8,3.5-6.7c1.3-1.4,2.5-2.9,3.8-4.3c1-1,3.2-0.9,4.3,0.1c0.6,0.5,0.7,1.1,0.2,1.7
		c-0.6,0.8-1.3,1.6-2,2.3c-1.1,0.9-1.9,2.1-2.5,3.3c-1.7,3.2-4,5.8-6.5,8.2c-1.2,1.2-2.4,2.4-2.8,4c-0.5,1.7-0.6,3.5,0.3,5.1
		c0.7,1.2,0.7,2.5,0.6,3.8c-0.1,1.5-1.2,2.3-2.4,2.1C406.6,600.5,405.9,599.5,406,598.8z"/>
	<path class="st0" d="M194.1,584c-0.8,0.9-0.8,1.6-0.9,2.3c-0.4,3.7-0.7,7.3-1.4,11c-0.1,0.7,0.1,1.3,0.2,1.9
		c0.1,1.2-1.1,2.5-2.1,2.5c-0.9,0-2-1.1-2.1-2.3c0-1.3,0-2.5,0.5-3.8c2-5.7,3.2-11.6,3.3-17.6c0-0.4-0.1-0.7,0.3-0.9
		c0.4-0.2,0.7,0.1,1,0.3c1,1.2,2,2.3,2.7,3.8c1.8,4,3.9,8,6.4,11.6c0.6,0.8,1.7,0.8,2.5,0.7c0.7-0.1,0.6-1.1,0.5-1.7
		c-0.2-1,0.2-1.8,0.4-2.7c0.9-4.7,0.3-9.3-1.1-13.8c-0.2-0.7-0.7-1.5,0.1-2c0.9-0.6,1.7,0,2.5,0.6c3,2.6,3.4,5.8,2.8,9.4
		c-0.5,3.1-1.2,6.1-1.7,9.2c-0.3,1.6-1,3.3-1.6,4.9c-0.4,1.2-1.3,1.2-2.3,0.2c-3.2-3-5.9-6.4-7.5-10.5C196,586,195.2,585,194.1,584z
		"/>
	<path class="st0" d="M171,584c-0.1,3.5,0.2,7,0.9,10.4c0.4,2,0.7,2.1,2.7,2.1c0.3,0,0.6,0,0.8,0c0.7,0.1,1.7-0.2,1.8,0.8
		c0.1,0.9-0.8,0.8-1.3,1.1c-2.3,1.2-4.8,1.1-7.2,1.6c-0.8,0.2-1.5-0.2-2-0.7c-0.7-0.6-1.7-1.2-1-2.3c0.5-0.8,1-1.9,2.4-1.4
		c0.3,0.1,0.5,0.1,0.8,0.1c0.8,0,1.3-0.3,1.1-1.2c-0.3-1.3-0.5-2.5-0.8-3.8c-0.5-2.2-0.3-4.4-0.9-6.6c-0.2-0.8-0.4-1.2-1.3-1.5
		c-1.4-0.4-2.7-1.1-4-1.6c-0.6-0.2-1.2-0.5-1.6-1.1c-0.3-0.4-0.8-0.8-0.6-1.4c0.3-0.7,0.8-1.3,1.7-1.3c1.1,0,2.3,0.2,3.1,1
		c1.1,1,2.3,1.3,3.8,1.4c1.9,0.1,1.9,0.2,1.8,2.2c0,0.4,0,0.7-0.1,1.1C171,583.4,171,583.7,171,584z"/>
	<path class="st0" d="M113.5,598.7c-0.1,1.9-1.2,3.4-3.1,4c-1.6,0.5-4.2-0.3-5.1-1.5c-0.9-1.2-0.7-2.5-0.2-3.7
		c0.6-1.4,1.8-2.3,3.4-2.5c1.2-0.2,2.4,0.2,3.5,0.5C113.5,596,113.5,597.3,113.5,598.7z M109.4,597.9c-0.7,0.1-1.3,0.3-1.3,1.1
		c0,0.5,0.5,0.6,0.8,0.4c0.4-0.3,1.2,0.1,1.3-0.7C110.3,598.2,109.9,598,109.4,597.9z"/>
	<path class="st0" d="M335,452.6c0,0.1,0.1,0.2,0.1,0.4c-0.1,0-0.3,0.1-0.4,0.1c-0.2,0-0.3-0.2-0.1-0.3
		C334.7,452.7,334.8,452.6,335,452.6z"/>
	<path class="st0" d="M218.9,433.9c0.1,0.2,0.2,0.4,0,0.6c0,0-0.1-0.1-0.1-0.1C218.8,434.2,218.9,434.1,218.9,433.9
		C219,433.9,218.9,433.9,218.9,433.9z"/>
	<polygon class="st0" points="150.1,493.4 149.9,493.4 150,493.3 	"/>
	<path class="st0" d="M304.3,447.9c0.3,0.4,0.5,0.4,0.6-0.2l0.1,0.1C304.8,447.8,304.6,447.8,304.3,447.9L304.3,447.9z"/>
	<path class="st0" d="M304.4,448.3c0.1-0.2,0.4-0.4-0.1-0.5l0.1-0.1C304.4,448,304.4,448.2,304.4,448.3L304.4,448.3z"/>
	<path class="st0" d="M260.8,364.2c0.2,0.4,0.3,0.7-0.2,0.9c-0.1,0-0.3-0.1-0.3-0.2C260.1,364.3,260.4,364.2,260.8,364.2
		C260.8,364.2,260.8,364.2,260.8,364.2z"/>
	<path class="st0" d="M211.3,155.2c0,0-0.1-0.1-0.1-0.1c0.1,0,0.1-0.1,0.2-0.1c0,0,0.1,0.1,0.1,0.1
		C211.5,155.2,211.4,155.2,211.3,155.2z"/>
	<path class="st0" d="M262.7,375.2c0,0.1,0.1,0.1,0.1,0.2c0,0.2-0.1,0.3-0.3,0.1c0,0,0-0.1,0-0.2
		C262.6,375.2,262.7,375.2,262.7,375.2z"/>
	<path class="st0" d="M361.5,191.2c0-0.1-0.1-0.1-0.1-0.2c0,0,0.1,0,0.1-0.1c0,0.1,0,0.1,0,0.2C361.6,191.1,361.5,191.2,361.5,191.2
		z"/>
	<path class="st0" d="M261.5,368.6c-0.1-0.2-0.2-0.4-0.3-0.5C261.8,368.1,261.3,368.4,261.5,368.6L261.5,368.6z"/>
	<path class="st0" d="M255.5,128.7c0-0.1-0.1-0.2-0.1-0.3c0.1,0,0.2-0.1,0.3-0.1c0,0,0.1,0.1,0.1,0.1
		C255.8,128.6,255.7,128.6,255.5,128.7z"/>
	<path class="st0" d="M263.5,373.4c-0.2-0.1-0.3-0.2-0.2-0.4c0-0.1,0.1-0.1,0.2-0.2c0.1,0.1,0.1,0.3,0.2,0.4
		C263.6,373.3,263.5,373.3,263.5,373.4z"/>
	<polygon class="st0" points="368.4,218.7 368.3,218.6 368.4,218.6 	"/>
	<path class="st0" d="M261.4,368.6c0.3-0.1,0.1,0.3,0.1,0C261.6,368.5,261.4,368.5,261.4,368.6C261.5,368.6,261.4,368.6,261.4,368.6
		z"/>
	<path class="st0" d="M239.3,137.4c0,0.1,0,0.1-0.1,0.1c-0.1-0.1-0.2-0.1-0.2-0.1c0-0.1,0.1-0.1,0.1-0.1
		C239.2,137.3,239.2,137.4,239.3,137.4z"/>
	<path class="st0" d="M310.5,135.9C310.5,135.8,310.6,135.5,310.5,135.9L310.5,135.9z"/>
	<path class="st0" d="M310.5,135.8c0.3-0.1,0.1,0.3,0.1-0.1C310.6,135.7,310.5,135.7,310.5,135.8L310.5,135.8z"/>
	<path class="st0" d="M311.9,308.8l0.2,0C312.1,308.8,312,308.8,311.9,308.8C312,308.9,311.9,308.8,311.9,308.8z"/>
	<path class="st0" d="M156.2,116.3c-0.8-2.7-2.9-3.9-5.3-5c-1.8-0.8-3.6-0.6-5,0.6c-0.9,0.8-1.3,0.5-1.9,0c-1.8-1.6-3.4-3.5-4.9-5.4
		c-1.6-2.1-3.2-4.2-5.1-6c-3.5-3.2-6.5-6.8-10.1-9.8c-4.9-4.1-8.9-9-12.3-14.5c-0.6-1-1-2.1-1.1-3.3c-0.2-2.5,0.1-2.3,2.3-2.3
		c1.7,0,3.3,0.3,4.9,1.2c2.4,1.3,5.1,1.9,7.5,3.2c0.7,0.4,1.4,0.6,2.1,1.1c3.1,1.9,6.4,3.4,9.5,5.5c0.8-1.5,0.2-2.7-0.5-3.8
		c-0.6-0.9-1.4-1.7-2.2-2.4c-1.9-2-4-3.9-5.1-6.5c-0.3-0.6-0.9-1.1-1.4-1.6c-2.7-2.9-4.8-6.2-6.8-9.6c-1.2-2-2.6-4-3.6-6.2
		c-0.7-1.6-1.8-3.1-2.9-4.4c-0.9-1.1-0.6-2.6-1.6-3.6c-0.9-0.9-1.6-2.3-2.1-3.5c-0.7-2-1.8-3.7-2.8-5.5c-1-1.9-2-3.9-2.1-5.8
		c-0.1-2-0.3-4.1-0.2-6.1c0-0.4,0.1-1.1,0.7-1.4c0.4-0.2,0.8-0.7,0.6-1.2c-0.6-1.4,0.7-1,1.1-0.9c1.7,0.2,5.8,1.7,6.9,2.8
		c1.8,1.7,4.1,2.7,5.9,4.4c1.8,1.7,3.4,3.6,5.3,5.1c2,1.6,3.1,4,5,5.7c0.9,0.8,1.7,1.8,2.2,3c0.5,1.2,1.4,2.1,2.5,2.6
		c0.8,0.3,1,0.9,1.4,1.4c1.2,1.8,2.1,3.6,3.1,5.5c1.1,1.9,2.5,3.5,3.6,5.4c3.8,6.4,7.7,12.7,11,19.3c1.4,2.7,2.7,5.5,4.4,8.1
		c0.7,1.1,1.1,2.2,1.7,3.3c2.5,4.8,4.2,10,6.5,14.9c0.6,1.4,1.1,2.8,2.1,3.9c0.7,0.7,0.8,1.7,0.8,2.6c0,1.4,0.6,2.7,1.2,4
		c1.2,2.8,2.3,5.6,3.5,8.4c1,2.2,2.2,4.4,3.4,6.6c0.4,0.6,0.3,1.3,0.5,2c1.3,3.6,2.5,7.1,3.8,10.7c1.5,4.1,2.4,8.5,3.4,12.7
		c0.5,2.2,0.8,4.4,1.7,6.5c0.1,0.3,0.3,0.6,0.3,0.9c-0.8,2.9,0.2,5.7,0.6,8.5c0,0.2,0,0.5,0,1.1c-1.5-1.6-2.9-2.9-4-4.3
		c-2.9-3.5-5.9-6.9-8.5-10.7c-0.8-1.2-2.2-1.6-3.3-2.6c-2.5-2.4-4.6-5-7.3-7.2c-2.2-1.8-4.3-3.6-6.4-5.5c-1.4-1.3-2.7-2.7-3.8-4.2
		c-2.1-2.7-3.5-5.8-4.5-9.1c-0.1-0.4-0.5-0.9,0-1.3c0.5-0.3,0.9,0,1.2,0.4c1.9,2.8,5,4.4,6.9,7.1c0.7,1,1.7,2,2.8,2.7
		c0.5,0.3,1,0.5,1.5,0.1c0.5-0.4,0.2-0.8,0.1-1.3c-0.8-3.5-1.9-6.9-3.3-10.3c-0.3-0.7-1.1-1.3-1.6-1.9
		C157.7,119.1,156.7,117.8,156.2,116.3c-0.1-0.1-0.1-0.2-0.1-0.2L156.2,116.3z"/>
	<path class="st0" d="M159.9,127.9c-1.6-1-2.5-2.5-3.6-3.8c-1.2-1.5-2.5-3-4.1-4.1c-0.7-0.5-1-1.1-1.3-1.9c-0.1-0.4-0.7-0.8-0.2-1.2
		c0.5-0.5,0.8,0.3,1.2,0.4c2.6,0.4,3.8,2.3,5,4.4C158,123.7,159.2,125.6,159.9,127.9z"/>
	<path class="st0" d="M149.5,54.9c0-0.2,0.1-0.3,0.2-0.3c0.1,0.1,0.2,0.2,0.2,0.3c0,0-0.1,0.1-0.1,0.2
		C149.7,55.1,149.6,55,149.5,54.9z"/>
	<polygon class="st0" points="162.7,85.5 162.5,85.4 162.7,85.3 	"/>
	<path class="st0" d="M166.2,148.6c0,0-0.1,0.1-0.2,0.1c0,0-0.1-0.1-0.1-0.1C166,148.5,166.1,148.5,166.2,148.6z"/>
	<path class="st0" d="M147.7,51.3c0,0-0.1,0.1-0.1,0.1c0,0-0.1-0.1-0.1-0.1c0,0,0.1-0.1,0.1-0.1C147.7,51.2,147.7,51.2,147.7,51.3z"
		/>
	<polygon class="st0" points="168.8,91.6 168.9,91.7 168.8,91.7 	"/>
	<polygon class="st0" points="127.4,95.6 127.3,95.6 127.3,95.5 	"/>
	<path class="st0" d="M176.1,117.4c-0.1,0-0.1,0-0.2,0C176,117.6,176,117.6,176.1,117.4L176.1,117.4z"/>
	<path class="st0" d="M176.1,117.4c0,0.1-0.1,0.1-0.1,0.2C176.1,117.5,176.1,117.4,176.1,117.4C176.1,117.4,176.1,117.4,176.1,117.4
		z"/>
	<polygon class="st0" points="184.4,139.5 184.4,139.4 184.5,139.4 	"/>
	<path class="st0" d="M367,131.8c0.8-0.5,0.8-1.3,0.9-2c1.2-7.9,3.1-15.6,5.2-23.3c0.2-0.9,0.6-1.7,0.3-2.7
		c-0.3-0.8,0.1-1.6,0.4-2.3c2.1-5.3,3.5-10.8,5.4-16.1c1.6-4.5,3.4-9,6.1-13c1.1-1.6,1.9-3.5,2.8-5.4c1.6-3.5,3.7-6.5,6.2-9.4
		c2.2-2.6,4-5.5,5.8-8.5c0.7-1.3,1.7-2.4,2.6-3.5c1.8-2.4,4-4.6,5.7-7.2c1.3-2,3.3-3.5,4.7-5.4c3.3-4.3,7.9-7.1,11.9-10.6
		c1.4-1.3,3.7-1.7,4.8-3.6c0.3-0.5,1.5-0.4,2.3-0.8c0.9-0.4,1.9-0.7,2.7-1.3c1.7-1.1,3.6-0.4,4.8,0.5c1.2,0.9,1.5,2.8,1.3,4.5
		c-0.3,2.8-1.5,5.2-2,7.9c-0.8,3.8-2.2,7.3-4.7,10.3c-0.2,2.1-1.5,3.7-2.3,5.4c-1.2,2.3-2.6,3.9-5.2,4.9c-2.2,0.8-4.4,1.9-6.2,3.7
		c-2.1,2-4.5,3.8-6.7,5.8c-2.6,2.5-4.8,5.3-6.8,8.3c-1.7,2.6-3.6,5-5.1,7.7c-0.5,0.9-0.7,1.9-1.2,2.8c-0.7,1.2-0.1,2.2,0.7,2.9
		c0.8,0.7,1.9,0.4,2.8-0.1c1.6-1.1,3.4-2,4.7-3.4c2.5-2.5,5.3-4.6,7.8-7c3.7-3.6,7-7.6,9.5-12.3c1-2,2.4-3.7,3.8-5.5
		c0.8-1.1,1.6-1.1,2.8-0.2c2.6,2,2.7,3,1.9,6.2c-0.7,2.7-2.1,5-2.8,7.6c-0.1,0.2-0.2,0.4-0.3,0.6c-3.1,3.4-5.3,7.5-8.4,10.8
		c-2.6,2.7-5.1,5.4-7.6,8.2c-1,1.1-2,1.5-3.5,1.1c-3.2-0.9-6,0.5-8.4,2.3c-3.4,2.4-6.9,4.5-9.9,7.4c-2,2-4,3.9-5.1,6.6
		c-0.4,1-1.2,1.6-1.8,2.4c-2.5,3.5-4.1,7.5-6,11.4c-1.5,3-3.2,5.8-4.8,8.8c-0.1,0.2-0.2,0.4-0.3,0.6c1,0.6,1.7,0.5,2.5-0.3
		c3.9-3.9,8-7.6,12-11.4c2.6-2.5,5.7-4.5,8-7.4c0.7-0.8,0.9-1.8,1.6-2.5c2.7-2.4,5.2-5,7.7-7.6c0.1-0.1,0.4-0.1,0.7-0.3
		c0.2,0.8-0.9,1.6,0.1,2.4c0.2,0.1-0.2,0.6-0.4,0.7c-1.1,0.5-1.3,1.6-1.8,2.6c-1.8,3.6-4.2,6.9-6.9,9.9c-2.6,2.9-5.1,5.9-7.7,8.8
		c-1.8,2.1-3.6,4-5.7,5.7c-0.1,0.1-0.3,0.2-0.4,0.3c-2.1,3.5-5.3,5.9-7.4,9.5c-3,5.1-5.5,10.4-7.8,15.8c-1.7,3.8-3.3,7.7-4.7,11.6
		c-0.1,0.3-0.3,0.6-0.7,0.7c-0.7-1.4-0.6-2.9-0.9-4.4c-0.3-1.8-0.3-3.7-0.1-5.6c0.3-2.8-0.1-5.6,0.6-8.3c0.1-0.4,0-0.8,0.1-1.1
		c1.9-3.2,1.3-6.8,1.7-10.3C366.7,134.4,367.3,133.1,367,131.8L367,131.8z"/>
	<path class="st0" d="M380.8,121.5c2.6-6.5,6.8-11.4,11-16.5c1.1-1.4,2.4-2.6,3.4-4.1c1.7-2.3,4.5-3.2,6.7-5c1.2-1,2.8-1.8,4.1-2.6
		c0.4-0.2,0.8-0.7,1.2-0.6c0.6,0.3,1.5-0.5,1.9,0.4c0.3,0.8-0.6,1.1-1,1.6c-1.8,2.2-4,4.1-6,6.2c-1.4,1.5-2.8,2.9-4.3,4.2
		c-3,2.8-5.8,5.7-8.6,8.8C386.7,116.7,383.9,119,380.8,121.5z"/>
	<path class="st0" d="M404.7,78.2c-0.3-1.2-0.5-1.9-0.1-2.4c1.3-1.6,1.3-4.1,3.4-5.1c1.1-2.7,3.7-4.2,5.1-6.8c1.4-2.7,3.4-5,6.2-6.7
		c1.7-1.1,3.6-1.7,5-3.2c0.6-0.7,1.4-0.4,1.9,0c0.6,0.4,0,1.1-0.2,1.4c-2.3,3.2-4.3,6.5-6.9,9.3c-2.7,2.9-5.2,6.1-8.2,8.8
		C409,75.4,406.9,76.6,404.7,78.2z"/>
	<path class="st0" d="M365.1,120.4c0.1,0.1,0.2,0.2,0.2,0.4c0.1,0.2,0.1,0.4-0.1,0.5c-0.1-0.2-0.2-0.4-0.2-0.5
		C365,120.6,365.1,120.5,365.1,120.4C365.1,120.4,365.1,120.4,365.1,120.4z"/>
	<path class="st0" d="M418.6,25.2c-0.1,0-0.1,0.1-0.2,0.1c-0.2,0-0.2-0.1-0.1-0.3c0,0,0.1,0,0.2,0C418.6,25.1,418.6,25.2,418.6,25.2
		z"/>
	<path class="st0" d="M433,46.9c0,0-0.1,0.1-0.2,0.1c-0.2,0-0.2-0.1-0.1-0.3c0,0,0.1,0,0.2,0C433,46.7,433,46.8,433,46.9z"/>
	<path class="st0" d="M411.9,31c0-0.2,0-0.4,0-0.6C411.9,30.6,411.9,30.8,411.9,31z"/>
	<path class="st0" d="M367,131.8c-0.1-0.1-0.2-0.1-0.3-0.2C367.1,131.4,366.9,131.7,367,131.8C367,131.8,367,131.8,367,131.8z"/>
	<path class="st0" d="M218,249.3c2.7-1.2,3.1-1,5.2,0.7c2.2,1.7,4.3,3.6,6.1,5.7c1.5,1.7,2.8,3.4,3.6,5.5c0.1,0.1,0.1,0.3,0.2,0.4
		c1.5,1.1,1.8,2.9,3,4.2s1.8,2.7,2.5,4.1c0.2,0.4,0.2,1,0.8,1c0.6,0,1.1-0.4,1.2-0.9c0.2-2.9,1.4-5.6,1.2-8.5
		c-0.1-2.5,0.2-4.9-0.3-7.4c-0.3-1.5-0.5-3.1-1.2-4.4c-1.2-2.3-1.8-4.8-3.4-6.8c0.6-1.8-1.9-2.5-1.4-4.4c2.7,1.1,4.6,3,5.9,5.4
		c2.4,4.2,3.6,8.7,3.5,13.6c-0.1,3.6-0.2,7.3-0.3,10.9c0,1.2-0.6,2.4-1.1,3.5c-0.5,1-0.4,2.1-0.6,3.2c-0.2,0.7,0.2,1.3,0.8,1.8
		c1.5,1.3,2.9,2.8,3.9,4.6c1.1,1.9,2.2,3.8,2.6,6.1c0.7,3.7,1.5,7.4,1.6,11.3c0,0.6,0.1,1.3-0.2,1.8c-0.3,0.5-0.8,0.8-1.4,0.6
		c-0.6-0.1-0.7-0.6-0.7-1.1c0-3.2-0.7-6.4-1.7-9.4c-1.2-3.6-2.8-7-5.5-9.9c-0.5-0.6-1.2-1-1.8-0.8c-0.6,0.2-0.7,1-0.7,1.6
		c-0.5,5-1.8,9.9-3.3,14.7c-0.5,1.4-1.2,2.7-1.7,4.1c-0.5,1.4-2.1,1.5-3.2,2.2c-0.3,0.2-0.8-0.2-0.7-0.7c0.2-0.7,0.5-1.3,0.8-1.9
		c1.2-2.4,1.9-5,2.7-7.5c0.8-2.7,1.7-5.3,2.2-8.1c0.6-2.9,1-5.8,1.5-8.7c0.1-0.5-0.1-1-0.4-1.3c-3.3-4-5.1-9-8.1-13.3
		c-1.4-2-2.9-4-4.4-6c-1.1-1.4-2.4-2.5-3.8-3.6C220.3,250.7,219,250.4,218,249.3z"/>
	<path class="st0" d="M306.3,301.4c-2.2-0.3-3.3-1.4-3.7-3.1c-1.3-5.9-2.2-11.9-1.7-18c0-0.6,0.2-1.4-0.4-1.7s-1.3-0.3-2,0.2
		c-1.7,1.3-3.2,2.6-3.9,5c-0.7,2.3-1.5,4.7-2.2,7c-0.7,2.5-0.8,5-0.8,7.6c0,1-0.3,1.8-0.4,2.7c-2.3-2-3-4.1-2.5-6.7
		c0.1-0.7,0.2-1.4,0.1-2.1c-0.1-2.5,0.5-4.7,2.1-6.6c0.2-0.2,0.4-0.5,0.5-0.8c0.5-2.7,2-5,2.9-7.5c0.3-0.9,1.1-1.3,1.5-2
		c0.5-0.9,2.2-1.1,1.5-2.6c2.3-0.8,0.9-2.5,0.8-3.8c-0.2-2.7,0.4-5.3,1.4-7.6c1.3-3,2.1-6.3,4-9.1c1.3-1.9,2.1-4.2,3.7-5.9
		c0.8-0.8,1.6-1.7,2.5-2.5c1-0.8,2.2-1.1,3.5-1c0.6,0.1,1.3,0.2,1.4,1c0.1,0.6-0.2,1.3-0.8,1.6c-1.1,0.5-1.8,1.5-2.8,2.1
		c-3.8,2.3-5.2,6.2-6.6,10c-0.5,1.4-1,2.8-1.7,4.1c-1,1.7-0.6,3.4-0.7,5.2c0,0.6,0.1,1.1,0.7,1.3s1.3,0.3,1.7-0.3
		c0.8-1.2,2.2-1.9,2.9-3.3c0.6-1.4,2-2.2,3-3.4c1.2-1.4,2.7-2.5,3.9-3.9c1.7-1.8,3.8-3.1,5.7-4.8c1.3-1.2,2.9-2.3,4.2-3.5
		c1.4-1.3,3.5-1.8,5.4-2.5c0.8-0.3,1.6,0,2.1,0.9c0.7,1.3,0.7,1.7-0.6,2.4c-1.9,1-3.9,2-5.8,3.1c-2.4,1.3-4.3,3.2-6,5.3
		c-2.5,3.1-5.7,5.5-8.4,8.3c-2.6,2.8-5.1,5.6-6.4,9.3c-0.5,1.3-0.1,2.7-0.1,4c0,2.7,0.4,5.3,0.3,7.9c-0.1,2.8,0.7,5.5,0.7,8.3
		C305.5,297.7,305.7,299.5,306.3,301.4z"/>
	<path class="st0" d="M245.3,348.8c-1.1-0.7-2.2-0.5-3.3,0.1c-0.5,0.3-1.1,0.6-1.7,0.6c-2.1-0.1-2.8-1.1-1.8-3
		c0.7-1.3,1.7-2.4,2.5-3.5c2.3-3,5.9-3.8,9-5.2c1.3-0.6,2.9-0.6,4.2-1.4c0.8-0.5,1.3,0,1.9,0.3c-0.1,0.9-0.7,1.5-1.2,2.1
		c-2.4,2.9-4.8,5.9-7.3,8.7C247.1,348,246.7,349.3,245.3,348.8L245.3,348.8z"/>
	<path class="st0" d="M239.6,362.1c0,0-0.1-0.1-0.2-0.1c0.1,0,0.1-0.1,0.2-0.1s0.1,0.1,0.2,0.1C239.7,362.1,239.7,362.1,239.6,362.1
		z"/>
	<path class="st0" d="M245.3,348.7c0.1,0.2-0.1,0.4-0.1,0.4C244.8,348.8,245.1,348.8,245.3,348.7
		C245.3,348.8,245.3,348.7,245.3,348.7z"/>
	<path class="st0" d="M252.8,344.7c0.1,0.3-0.3,0,0,0.1C252.9,344.9,252.9,344.8,252.8,344.7C252.7,344.8,252.8,344.7,252.8,344.7z"
		/>
	<path class="st0" d="M273.5,185.8c2,0,3.9,0,5.7,0.8c0.3,0.1,0.6,0.2,0.9,0.2c3.2,0.4,5.5,2.2,7.7,4.3c1.2,1.1,2.6,2,3.3,3.5
		c1,2.2,1.9,4.4,0.4,6.8c-0.7,1.1-0.8,2.4-1.8,3.4c-1.1,1.1-2.2,2-3.7,2.7c-3.5,1.7-7.2,3.1-10.5,5.3c-0.4,0.3-0.8,0.3-1.3,0.1
		c-3.8-1.8-7.5-3.8-10.8-6.3c-2.2-1.7-3.7-4-4.6-6.6c-0.2-0.7-0.3-1.4-0.1-2.1c0.2-0.7,0.4-1.4,0-2c-0.2-0.4-0.1-0.5,0.1-0.8
		c0.8-1.1,2.3-1.7,2.1-3.4c2.6-1,3.8-4,6.5-4.8C269.5,186.5,271.5,186,273.5,185.8z"/>
	<path class="st0" d="M235.2,505.2c0.1,0,0.2,0.1,0.3,0.1C235.4,505.3,235.3,505.3,235.2,505.2C235.2,505.2,235.2,505.2,235.2,505.2
		z"/>
</g>
</svg>
